<?xml version="1.0" encoding="utf-8"?>
<!-- Generator: Adobe Illustrator 27.2.0, SVG Export Plug-In . SVG Version: 6.00 Build 0)  -->
<svg version="1.1" id="Layer_1" xmlns="http://www.w3.org/2000/svg" xmlns:xlink="http://www.w3.org/1999/xlink" x="0px" y="0px"
	 viewBox="0 0 32 32" style="enable-background:new 0 0 32 32;" xml:space="preserve">
<style type="text/css">
	.st0{fill:#FF6E6E;}
	.st1{fill:#FFFFFF;}
</style>
<g>
	<circle class="st0" cx="16" cy="16" r="16"/>
</g>
<path class="st1" d="M15.6,12.7c0.5-0.1,0.9-0.3,1.4-0.4c1.3-0.4,2.7-0.8,4-1.2c0.4-0.1,0.6,0.1,0.6,0.4c0,0.6,0,1.2,0,1.9
	c0,0.3-0.1,0.4-0.4,0.5c-1.3,0.4-2.5,0.8-3.8,1.2c-0.6,0.2-1.2,0.4-1.9,0.6c0,2.4,0,4.7,0,7.1c0.8,0,1.5-0.2,2.2-0.5
	c2.1-0.9,3.5-2.5,4.1-4.7c0.1-0.5,0.2-1.1,0.2-1.7c0-0.4,0.2-0.5,0.5-0.5c0.8,0,1.5,0,2.3,0c0.3,0,0.5,0.2,0.5,0.5
	c-0.1,3.1-1.3,5.7-3.6,7.8c-1.4,1.2-3,1.9-4.7,2.3c-0.6,0.1-1.2,0.1-1.8,0.2c-0.7,0-1.5,0-2.2,0c-0.6,0-0.7-0.1-0.7-0.7
	c0-2.8,0-5.6,0-8.3c0-0.1,0-0.2,0-0.3c-0.2,0-0.3,0.1-0.5,0.1c-0.9,0.3-1.7,0.5-2.6,0.8c-0.4,0.1-0.7-0.1-0.7-0.5c0-0.6,0-1.2,0-1.7
	c0-0.3,0.1-0.4,0.4-0.5c1-0.3,2-0.6,3.1-0.9c0.2-0.1,0.3-0.1,0.3-0.3c0-0.4,0-0.7,0-1.1c-0.6,0.2-1.3,0.4-1.9,0.6
	c-0.4,0.1-0.8,0.2-1.2,0.4c-0.4,0.1-0.6-0.1-0.6-0.5c0-0.6,0-1.2,0-1.8c0-0.3,0.1-0.4,0.4-0.5c1-0.3,2.1-0.6,3.1-0.9
	c0.2,0,0.2-0.1,0.2-0.3c0-1.1,0-2.2,0-3.3c0-0.4,0.1-0.6,0.6-0.6c0.7,0,1.4,0,2.1,0c0.4,0,0.6,0.2,0.6,0.6c0,0.7,0,1.5,0,2.2
	c0,0.1,0,0.2,0,0.3c0.2-0.1,0.3-0.1,0.5-0.1c1.6-0.5,3.2-1,4.8-1.5c0.1,0,0.2-0.1,0.2-0.1c0.3,0,0.5,0.1,0.5,0.4c0,0.7,0,1.3,0,2
	c0,0.2-0.2,0.4-0.4,0.4c-0.8,0.3-1.7,0.5-2.5,0.8c-1,0.3-2,0.6-3,0.9c-0.1,0-0.2,0.1-0.2,0.2C15.6,11.9,15.6,12.3,15.6,12.7z"/>
</svg>
