<svg width="50" height="50" viewBox="0 0 50 50" fill="none" xmlns="http://www.w3.org/2000/svg">
<path fill-rule="evenodd" clip-rule="evenodd" d="M3.16406 25.0013C3.16406 12.9431 12.9392 3.16797 24.9974 3.16797C37.0556 3.16797 46.8307 12.9431 46.8307 25.0013C46.8307 37.0595 37.0556 46.8346 24.9974 46.8346C12.9392 46.8346 3.16406 37.0595 3.16406 25.0013Z" fill="#37AF8C"/>
<path fill-rule="evenodd" clip-rule="evenodd" d="M3.16406 25.0013C3.16406 12.9431 12.9392 3.16797 24.9974 3.16797C37.0556 3.16797 46.8307 12.9431 46.8307 25.0013C46.8307 37.0595 37.0556 46.8346 24.9974 46.8346C12.9392 46.8346 3.16406 37.0595 3.16406 25.0013Z" fill="#FDDADA"/>
<path fill-rule="evenodd" clip-rule="evenodd" d="M25.0013 5.16602C14.0477 5.16602 5.16797 14.0457 5.16797 24.9993C5.16797 35.953 14.0477 44.8327 25.0013 44.8327C35.955 44.8327 44.8346 35.953 44.8346 24.9993C44.8346 14.0457 35.955 5.16602 25.0013 5.16602ZM3.16797 24.9993C3.16797 12.9411 12.9431 3.16602 25.0013 3.16602C37.0595 3.16602 46.8346 12.9411 46.8346 24.9993C46.8346 37.0576 37.0595 46.8327 25.0013 46.8327C12.9431 46.8327 3.16797 37.0576 3.16797 24.9993Z" fill="#F64744"/>
<path d="M31 19L19 31M19 19L31 31" stroke="#F64744" stroke-width="2" stroke-linecap="round" stroke-linejoin="round"/>
</svg>
