<svg width="726" height="726" viewBox="0 0 726 726" fill="none" xmlns="http://www.w3.org/2000/svg">
<g clip-path="url(#clip0_510_2440)">
<path d="M140.551 289.377C93.8074 289.377 55.9414 231.252 55.9414 177.937C55.9414 124.597 93.8074 96.3275 140.551 96.3275C187.295 96.3275 225.161 124.597 225.161 177.937C225.161 231.202 187.27 289.377 140.551 289.377Z" fill="url(#paint0_radial_510_2440)"/>
<path d="M49.5953 621.765V660.499L231.461 660.474V391.171C231.461 390.452 231.288 389.733 231.263 389.088H243.91C247.629 389.088 251.324 388.518 254.895 387.402L439.836 330.293C459.451 324.218 470.436 303.412 464.385 283.773C458.335 264.158 437.554 253.197 417.84 259.223L238.256 314.695H163.64L149.629 333.393L175.369 479.178L140.503 512.06L105.638 479.178L131.378 333.393L117.367 314.695H37.2213C16.6888 314.695 0.0247954 331.285 0.0247954 351.892L0 586.85C0 607.382 16.6392 624.046 37.1965 624.046C41.5856 624.046 45.702 623.178 49.5953 621.765Z" fill="url(#paint1_radial_510_2440)"/>
<path d="M463.318 187.211C463.889 120.158 518.443 66 585.62 66C587.604 66 589.489 66.1984 591.473 66.2976V187.211H463.318ZM603.648 328.111C536.025 328.111 481.222 273.333 481.222 205.735C481.222 205.338 481.321 204.941 481.321 204.569H609.476V83.6063C674.272 86.6812 726 140.095 726 205.71C726.049 273.333 671.222 328.111 603.648 328.111Z" fill="url(#paint2_linear_510_2440)"/>
</g>
<defs>
<radialGradient id="paint0_radial_510_2440" cx="0" cy="0" r="1" gradientUnits="userSpaceOnUse" gradientTransform="translate(140.203 96.3275) rotate(90) scale(193.505 177.362)">
<stop stop-color="#206FA3"/>
<stop offset="0.894231" stop-color="#154589"/>
<stop offset="1" stop-color="#2461B9"/>
</radialGradient>
<radialGradient id="paint1_radial_510_2440" cx="0" cy="0" r="1" gradientUnits="userSpaceOnUse" gradientTransform="translate(232.066 257.57) rotate(90) scale(403.88 488.473)">
<stop stop-color="#206FA3"/>
<stop offset="0.894231" stop-color="#154589"/>
<stop offset="1" stop-color="#2461B9"/>
</radialGradient>
<linearGradient id="paint2_linear_510_2440" x1="594.66" y1="65.8833" x2="594.66" y2="328.237" gradientUnits="userSpaceOnUse">
<stop stop-color="#F3AD40"/>
<stop offset="1" stop-color="#E1901B"/>
</linearGradient>
<clipPath id="clip0_510_2440">
<rect width="726" height="726" fill="white"/>
</clipPath>
</defs>
</svg>
