<svg width="723" height="565" viewBox="0 0 723 565" fill="none" xmlns="http://www.w3.org/2000/svg">
<path d="M378.598 446.174C362.459 446.174 348.644 440.428 337.151 428.935C325.658 417.443 319.912 403.627 319.912 387.489C319.912 371.35 325.658 357.534 337.151 346.042C348.644 334.549 362.459 328.803 378.598 328.803C394.737 328.803 408.552 334.549 420.045 346.042C431.538 357.534 437.284 371.35 437.284 387.489C437.284 403.627 431.538 417.443 420.045 428.935C408.552 440.428 394.737 446.174 378.598 446.174Z" fill="url(#paint0_radial_3_66)"/>
<path d="M261.217 563.549V522.469C261.217 514.155 263.356 506.514 267.636 499.545C271.915 492.576 277.6 487.257 284.691 483.589C299.852 476.009 315.257 470.324 330.906 466.534C346.556 462.744 362.45 460.849 378.589 460.849C394.727 460.849 410.621 462.744 426.271 466.534C441.92 470.324 457.325 476.009 472.486 483.589C479.577 487.257 485.262 492.576 489.541 499.545C493.821 506.514 495.96 514.155 495.96 522.469V563.549H261.217Z" fill="url(#paint1_linear_3_66)"/>
<path fill-rule="evenodd" clip-rule="evenodd" d="M407.617 462.93C398.031 461.542 388.354 460.848 378.589 460.848C362.45 460.848 346.556 462.743 330.906 466.533C315.257 470.323 299.852 476.009 284.691 483.589C277.6 487.257 271.915 492.575 267.636 499.544C263.356 506.513 261.217 514.154 261.217 522.468V563.548H281.955L407.617 462.93ZM462.033 563.548H495.96V536.382L462.033 563.548Z" fill="url(#paint2_linear_3_66)"/>
<path d="M619.5 460C605.337 460 593.214 454.909 583.128 444.725C573.042 434.542 568 422.3 568 408C568 393.7 573.042 381.458 583.128 371.275C593.214 361.091 605.337 356 619.5 356C633.663 356 645.786 361.091 655.872 371.275C665.958 381.458 671 393.7 671 408C671 422.3 665.958 434.542 655.872 444.725C645.786 454.909 633.663 460 619.5 460Z" fill="url(#paint3_radial_3_66)"/>
<path d="M516 565V528.6C516 521.233 517.886 514.463 521.66 508.288C525.434 502.113 530.447 497.399 536.7 494.149C550.069 487.433 563.653 482.396 577.453 479.037C591.253 475.679 605.269 474 619.5 474C633.731 474 647.747 475.679 661.547 479.037C675.347 482.396 688.931 487.433 702.3 494.149C708.553 497.399 713.566 502.113 717.34 508.288C721.114 514.463 723 521.233 723 528.6V565H516Z" fill="url(#paint4_linear_3_66)"/>
<path fill-rule="evenodd" clip-rule="evenodd" d="M645.098 475.845C636.645 474.615 628.111 474 619.5 474C605.269 474 591.253 475.679 577.453 479.037C563.653 482.396 550.069 487.434 536.7 494.15C530.447 497.4 525.434 502.113 521.66 508.288C517.886 514.463 516 521.233 516 528.6V565H534.287L645.098 475.845ZM693.083 565H723V540.929L693.083 565Z" fill="url(#paint5_linear_3_66)"/>
<path fill-rule="evenodd" clip-rule="evenodd" d="M404.355 255.955C419.836 252.603 434.283 246.476 447.149 238.121C443.181 225.615 441.04 212.295 441.04 198.476C441.04 152.907 464.318 112.776 499.632 89.3237C482.677 37.7562 434.132 0.524902 376.891 0.524902C305.548 0.524902 247.713 58.3597 247.713 129.703C247.713 192.694 292.8 245.155 352.462 256.574L377.775 292.502L404.355 255.955ZM358.214 171.138L360.349 188.214H389.699L391.833 171.138C392.9 170.693 393.968 170.16 395.035 169.537C396.102 168.914 397.125 168.247 398.103 167.536L413.846 174.206L428.52 148.859L414.779 138.453C414.957 137.83 415.046 137.23 415.046 136.652V133.05C415.046 132.472 415.002 131.871 414.913 131.249L428.654 120.843L413.979 95.4951L398.103 102.166C397.125 101.454 396.124 100.787 395.102 100.164C394.079 99.5419 392.989 99.0082 391.833 98.5635L389.699 81.4872H360.349L358.214 98.5635C357.147 99.0082 356.08 99.5419 355.012 100.164C353.945 100.787 352.922 101.454 351.944 102.166L336.068 95.4951L321.393 120.843L335.134 131.249C335.045 131.871 335.001 132.472 335.001 133.05V136.652C335.001 137.23 335.045 137.83 335.134 138.453L321.393 148.859L336.068 174.206L351.944 167.536C352.922 168.247 353.923 168.914 354.946 169.537C355.968 170.16 357.058 170.693 358.214 171.138ZM388.498 148.058C384.851 151.705 380.449 153.528 375.29 153.528C370.043 153.528 365.618 151.705 362.016 148.058C358.414 144.412 356.613 140.009 356.613 134.851C356.613 129.692 358.414 125.29 362.016 121.643C365.618 117.997 370.043 116.174 375.29 116.174C380.449 116.174 384.851 117.997 388.498 121.643C392.144 125.29 393.968 129.692 393.968 134.851C393.968 140.009 392.144 144.412 388.498 148.058Z" fill="url(#paint6_radial_3_66)"/>
<path fill-rule="evenodd" clip-rule="evenodd" d="M667.662 194.749C667.662 215.549 661.264 234.857 650.329 250.809L657.824 283.287L625.639 275.86C609.462 287.298 589.711 294.019 568.392 294.019C513.566 294.019 469.121 249.575 469.121 194.749C469.121 139.922 513.566 95.4785 568.392 95.4785C623.217 95.4785 667.662 139.922 667.662 194.749ZM575.323 212.574H608.332V179.565H575.323V158.934L529.935 196.07L575.323 233.205V212.574Z" fill="url(#paint7_radial_3_66)"/>
<path fill-rule="evenodd" clip-rule="evenodd" d="M230.706 103.042C218.634 98.1685 205.394 95.4785 191.506 95.4785C135.063 95.4785 89.3066 139.922 89.3066 194.749C89.3066 215.549 95.8937 234.857 107.151 250.809L99.4345 283.287L132.569 275.86C149.224 287.298 169.557 294.019 191.506 294.019C228.759 294.019 261.356 274.659 279.215 245.733C247.441 218.372 227.414 178.424 227.414 133.935C227.414 123.342 228.548 113.009 230.706 103.042ZM150.387 212.573H184.369V233.205L231.096 196.069L184.369 158.934V179.566H150.387V212.573Z" fill="url(#paint8_radial_3_66)"/>
<path d="M123.381 446.371C107.242 446.371 93.4273 440.625 81.9343 429.132C70.4413 417.64 64.6953 403.824 64.6953 387.686C64.6953 371.547 70.4413 357.731 81.9343 346.239C93.4273 334.746 107.242 329 123.381 329C139.52 329 153.335 334.746 164.828 346.239C176.321 357.731 182.067 371.547 182.067 387.686C182.067 403.824 176.321 417.64 164.828 429.132C153.335 440.625 139.52 446.371 123.381 446.371Z" fill="url(#paint9_radial_3_66)"/>
<path d="M6 563.746V522.666C6 514.352 8.13898 506.711 12.419 499.742C16.698 492.773 22.383 487.454 29.474 483.786C44.635 476.206 60.04 470.521 75.689 466.731C91.339 462.941 107.233 461.046 123.372 461.046C139.51 461.046 155.404 462.941 171.054 466.731C186.703 470.521 202.108 476.206 217.269 483.786C224.36 487.454 230.045 492.773 234.324 499.742C238.604 506.711 240.743 514.352 240.743 522.666V563.746H6Z" fill="url(#paint10_linear_3_66)"/>
<path fill-rule="evenodd" clip-rule="evenodd" d="M152.4 463.127C142.814 461.739 133.137 461.045 123.372 461.045C107.233 461.045 91.339 462.94 75.689 466.73C60.04 470.52 44.635 476.206 29.474 483.786C22.383 487.454 16.698 492.772 12.419 499.741C8.13898 506.71 6 514.351 6 522.665V563.745H26.738L152.4 463.127ZM206.816 563.745H240.743V536.579L206.816 563.745Z" fill="url(#paint11_linear_3_66)"/>
<defs>
<radialGradient id="paint0_radial_3_66" cx="0" cy="0" r="1" gradientUnits="userSpaceOnUse" gradientTransform="translate(378.598 349.591) rotate(90) scale(96.5836 96.5836)">
<stop stop-color="#F7B348"/>
<stop offset="0.9" stop-color="#E1901B"/>
<stop offset="1" stop-color="#E1901B"/>
</radialGradient>
<linearGradient id="paint1_linear_3_66" x1="378.589" y1="394.528" x2="378.589" y2="563.549" gradientUnits="userSpaceOnUse">
<stop stop-color="#E1901B"/>
<stop offset="0.98" stop-color="#E1901B"/>
<stop offset="1" stop-color="#E1901B"/>
</linearGradient>
<linearGradient id="paint2_linear_3_66" x1="378.589" y1="394.527" x2="378.589" y2="563.548" gradientUnits="userSpaceOnUse">
<stop stop-color="#F7B348"/>
<stop offset="0.98" stop-color="#E1901B"/>
<stop offset="1" stop-color="#E1901B"/>
</linearGradient>
<radialGradient id="paint3_radial_3_66" cx="0" cy="0" r="1" gradientUnits="userSpaceOnUse" gradientTransform="translate(619.5 374.42) rotate(90) scale(85.5807 84.7571)">
<stop stop-color="#F7B348"/>
<stop offset="0.9" stop-color="#E1901B"/>
<stop offset="1" stop-color="#E1901B"/>
</radialGradient>
<linearGradient id="paint4_linear_3_66" x1="619.5" y1="415.235" x2="619.5" y2="565" gradientUnits="userSpaceOnUse">
<stop stop-color="#E1901B"/>
<stop offset="0.98" stop-color="#E1901B"/>
<stop offset="1" stop-color="#E1901B"/>
</linearGradient>
<linearGradient id="paint5_linear_3_66" x1="619.5" y1="415.235" x2="619.5" y2="565" gradientUnits="userSpaceOnUse">
<stop stop-color="#F7B348"/>
<stop offset="0.98" stop-color="#E1901B"/>
<stop offset="1" stop-color="#E1901B"/>
</linearGradient>
<radialGradient id="paint6_radial_3_66" cx="0" cy="0" r="1" gradientUnits="userSpaceOnUse" gradientTransform="translate(373.672 0.524902) rotate(90) scale(291.977 251.919)">
<stop stop-color="#4583DD"/>
<stop offset="0.8" stop-color="#154488"/>
<stop offset="1" stop-color="#6099EC"/>
</radialGradient>
<radialGradient id="paint7_radial_3_66" cx="0" cy="0" r="1" gradientUnits="userSpaceOnUse" gradientTransform="translate(568.392 130.643) rotate(90) scale(163.377 163.377)">
<stop stop-color="#237BAB"/>
<stop offset="0.9" stop-color="#154488"/>
<stop offset="1" stop-color="#6099EC"/>
</radialGradient>
<radialGradient id="paint8_radial_3_66" cx="0" cy="0" r="1" gradientUnits="userSpaceOnUse" gradientTransform="translate(184.261 130.643) rotate(90) scale(163.377 156.273)">
<stop stop-color="#237BAB"/>
<stop offset="0.9" stop-color="#154488"/>
<stop offset="1" stop-color="#6099EC"/>
</radialGradient>
<radialGradient id="paint9_radial_3_66" cx="0" cy="0" r="1" gradientUnits="userSpaceOnUse" gradientTransform="translate(123.381 349.788) rotate(90) scale(96.5836 96.5836)">
<stop stop-color="#F7B348"/>
<stop offset="0.9" stop-color="#E1901B"/>
<stop offset="1" stop-color="#E1901B"/>
</radialGradient>
<linearGradient id="paint10_linear_3_66" x1="123.372" y1="394.725" x2="123.372" y2="563.746" gradientUnits="userSpaceOnUse">
<stop stop-color="#E1901B"/>
<stop offset="0.98" stop-color="#E1901B"/>
<stop offset="1" stop-color="#E1901B"/>
</linearGradient>
<linearGradient id="paint11_linear_3_66" x1="123.372" y1="394.724" x2="123.372" y2="563.745" gradientUnits="userSpaceOnUse">
<stop stop-color="#F7B348"/>
<stop offset="0.98" stop-color="#E1901B"/>
<stop offset="1" stop-color="#E1901B"/>
</linearGradient>
</defs>
</svg>
