<?xml version="1.0" encoding="utf-8"?>
<!-- Generator: Adobe Illustrator 24.3.0, SVG Export Plug-In . SVG Version: 6.00 Build 0)  -->
<svg version="1.1" id="Layer_1" xmlns="http://www.w3.org/2000/svg" xmlns:xlink="http://www.w3.org/1999/xlink" x="0px" y="0px"
	 viewBox="0 0 150 150" style="enable-background:new 0 0 150 150;" xml:space="preserve">
<style type="text/css">
	.st0{fill:#FEFEFE;}
</style>
<g>
	<path class="st0" d="M117.9,104.9c0,15,0,29.4,0,44c-34.8,0-69.6,0-104.4,0c0-49.1,0-98.3,0-147.6c34.7,0,69.5,0,104.4,0
		c0,0.6,0.1,1.3,0.1,1.9c0,15.9,0,31.7,0,47.6c0,1.2-0.4,2.1-1.2,3C109,61.6,101.3,69.3,93.5,77c-7.3-7.4-14.6-14.7-21.8-21.8
		c-8.9,8.9-17.6,17.6-26.1,26.1c15.8,15.8,31.8,31.8,47.9,47.9C101.5,121.3,109.5,113.3,117.9,104.9z"/>
	<path class="st0" d="M62.9,81.2c2.8-2.8,5.6-5.6,8.4-8.4c7.2,7.2,14.5,14.5,21.8,21.8c11.6-11.7,23-23.1,34.3-34.4
		c3.1,3.1,5.9,5.9,8.6,8.6c-14.2,14.2-28.5,28.5-42.7,42.7C83.3,101.6,73.1,91.4,62.9,81.2z"/>
</g>
</svg>
