<svg width="164" height="50" viewBox="0 0 164 50" fill="none" xmlns="http://www.w3.org/2000/svg">
<g clip-path="url(#clip0_213_344)">
<path d="M5.90991 0.5H158.09C161.094 0.5 163.5 2.85025 163.5 5.71429V44.2857C163.5 47.1497 161.094 49.5 158.09 49.5H5.90991C2.9061 49.5 0.5 47.1497 0.5 44.2857V5.71429C0.5 2.85024 2.9061 0.5 5.90991 0.5Z" fill="black"/>
<path d="M38.7265 8H38.9726C39.0596 9.00967 38.939 10.0265 38.6183 10.9877C38.2976 11.9489 37.7835 12.834 37.1078 13.5885C35.9974 14.9006 34.478 16.1736 32.019 15.9805C31.9473 14.9957 32.0788 14.0068 32.4054 13.0751C32.7319 12.1435 33.2465 11.2891 33.9171 10.5653C35.1813 9.1861 36.8782 8.28099 38.7265 8Z" fill="white"/>
<path d="M46 33.5341V33.6071C45.3164 35.6531 44.3171 37.5797 43.0385 39.3171C41.9096 40.8715 40.5255 42.9643 38.0548 42.9643C35.9196 42.9643 34.5019 41.5907 32.3135 41.5535C29.9988 41.5163 28.7263 42.7017 26.61 43H25.8888C24.3348 42.7753 23.0805 41.5411 22.1696 40.4346C19.1208 36.7802 17.3106 32.252 17 27.5024V25.9108C17.1641 22.0331 19.0477 18.8805 21.5512 17.3531C23.0754 16.3558 24.9041 15.9324 26.7114 16.1582C27.5765 16.3137 28.4236 16.5566 29.2397 16.8833C30.0262 17.2942 30.8838 17.5515 31.7665 17.6412C32.383 17.5528 32.9822 17.37 33.543 17.0992C35.2859 16.4697 36.9945 15.7476 39.2464 16.0868C41.9534 16.496 43.8742 17.6988 45.0615 19.5552C42.7716 21.0141 40.9616 23.209 41.2694 26.9604C41.5458 30.3662 43.5257 32.359 46 33.5341Z" fill="white"/>
<path d="M70.657 37.162H67.9554L66.9376 34.2766H61.6269L60.5906 37.162H58L62.9407 24.0215H65.7163L70.657 37.162ZM62.367 32.1815H66.1975L64.273 26.7966L62.367 32.1815Z" fill="white"/>
<path d="M74.9895 40.7278H72.5469V27.9181H74.971V29.2229C75.267 28.7328 75.6618 28.3469 76.1553 28.0651C76.661 27.771 77.247 27.624 77.9132 27.624C78.715 27.624 79.4429 27.8323 80.0967 28.2489C80.7505 28.6655 81.2686 29.2413 81.6511 29.9764C82.0458 30.7116 82.2432 31.5631 82.2432 32.531C82.2432 33.499 82.0458 34.3566 81.6511 35.104C81.2563 35.8392 80.7259 36.415 80.0597 36.8316C79.4059 37.2482 78.678 37.4564 77.8762 37.4564C77.2347 37.4564 76.6672 37.3339 76.1738 37.0889C75.6803 36.8316 75.2856 36.4885 74.9895 36.0597V40.7278ZM74.9895 32.6046V33.7992C75.1499 34.2892 75.4336 34.6874 75.8407 34.9937C76.2601 35.2878 76.7351 35.4348 77.2655 35.4348C77.9934 35.4348 78.5793 35.1653 79.0234 34.6262C79.4799 34.0748 79.7081 33.3764 79.7081 32.531C79.7081 31.6979 79.4984 31.0056 79.079 30.4543C78.6595 29.9029 78.0921 29.6273 77.3766 29.6273C76.6857 29.6273 76.1121 29.8968 75.6556 30.4359C75.2115 30.975 74.9895 31.6979 74.9895 32.6046Z" fill="white"/>
<path d="M86.8254 40.7278H84.3828V27.9181H86.8069V29.2229C87.103 28.7328 87.4977 28.3469 87.9912 28.0651C88.497 27.771 89.0829 27.624 89.7491 27.624C90.551 27.624 91.2788 27.8323 91.9326 28.2489C92.5864 28.6655 93.1046 29.2413 93.487 29.9764C93.8817 30.7116 94.0791 31.5631 94.0791 32.531C94.0791 33.499 93.8817 34.3566 93.487 35.104C93.0922 35.8392 92.5618 36.415 91.8956 36.8316C91.2418 37.2482 90.5139 37.4564 89.7121 37.4564C89.0706 37.4564 88.5031 37.3339 88.0097 37.0889C87.5162 36.8316 87.1215 36.4885 86.8254 36.0597V40.7278ZM86.8254 32.6046V33.7992C86.9858 34.2892 87.2695 34.6874 87.6766 34.9937C88.096 35.2878 88.571 35.4348 89.1014 35.4348C89.8293 35.4348 90.4153 35.1653 90.8594 34.6262C91.3158 34.0748 91.544 33.3764 91.544 32.531C91.544 31.6979 91.3343 31.0056 90.9149 30.4543C90.4954 29.9029 89.928 29.6273 89.2125 29.6273C88.5216 29.6273 87.948 29.8968 87.4916 30.4359C87.0475 30.975 86.8254 31.6979 86.8254 32.6046Z" fill="white"/>
<path d="M99.7461 35.0302L101.393 33.3761C101.849 33.9888 102.435 34.4666 103.151 34.8097C103.866 35.1527 104.619 35.3243 105.408 35.3243C106.223 35.3243 106.864 35.1589 107.333 34.828C107.814 34.4972 108.054 34.05 108.054 33.4864C108.054 32.9718 107.826 32.5675 107.37 32.2734C106.913 31.9671 106.155 31.7343 105.094 31.5751C103.453 31.3178 102.244 30.8828 101.467 30.2702C100.69 29.6576 100.301 28.8306 100.301 27.7891C100.301 26.9682 100.511 26.2576 100.93 25.6572C101.35 25.0446 101.93 24.5729 102.67 24.2421C103.422 23.899 104.28 23.7275 105.242 23.7275C106.34 23.7275 107.345 23.9297 108.258 24.334C109.171 24.7383 109.942 25.3019 110.571 26.0248L108.98 27.6605C108.499 27.0724 107.943 26.6252 107.314 26.3189C106.698 26.0003 106.013 25.841 105.26 25.841C104.533 25.841 103.94 25.9942 103.484 26.3005C103.04 26.6068 102.818 27.0295 102.818 27.5686C102.818 28.0342 103.034 28.4017 103.465 28.6713C103.897 28.9286 104.637 29.143 105.686 29.3145C107.364 29.5841 108.597 30.0435 109.387 30.6929C110.189 31.3423 110.59 32.2306 110.59 33.3578C110.59 34.1664 110.367 34.8832 109.923 35.508C109.492 36.1207 108.881 36.5985 108.091 36.9416C107.314 37.2846 106.402 37.4561 105.353 37.4561C104.218 37.4561 103.169 37.2479 102.207 36.8313C101.245 36.4147 100.425 35.8143 99.7461 35.0302Z" fill="white"/>
<path d="M117.922 37.1623H115.72C114.079 37.1623 113.259 36.323 113.259 34.6445V29.8661H111.779V27.918H113.259V25.4736H115.702V27.918H117.83V29.8661H115.702V34.2218C115.702 34.8589 115.998 35.1774 116.59 35.1774H117.922V37.1623Z" fill="white"/>
<path d="M124.132 37.4564C123.17 37.4564 122.325 37.2482 121.597 36.8316C120.87 36.4028 120.296 35.8208 119.876 35.0856C119.469 34.3382 119.266 33.4867 119.266 32.531C119.266 31.5754 119.469 30.73 119.876 29.9948C120.296 29.2474 120.87 28.6655 121.597 28.2489C122.325 27.8323 123.17 27.624 124.132 27.624C125.095 27.624 125.94 27.8323 126.668 28.2489C127.408 28.6655 127.988 29.2474 128.407 29.9948C128.826 30.73 129.036 31.5754 129.036 32.531C129.036 33.4867 128.826 34.3382 128.407 35.0856C127.988 35.8208 127.408 36.4028 126.668 36.8316C125.94 37.2482 125.095 37.4564 124.132 37.4564ZM124.132 35.4348C124.836 35.4348 125.403 35.1653 125.835 34.6262C126.279 34.0871 126.501 33.3887 126.501 32.531C126.501 31.6856 126.279 30.9934 125.835 30.4543C125.403 29.9152 124.836 29.6456 124.132 29.6456C123.442 29.6456 122.88 29.9152 122.449 30.4543C122.017 30.9934 121.801 31.6856 121.801 32.531C121.801 33.3887 122.017 34.0871 122.449 34.6262C122.88 35.1653 123.442 35.4348 124.132 35.4348Z" fill="white"/>
<path d="M136.848 27.752V29.9757H136.348C135.51 29.9757 134.843 30.2392 134.35 30.766C133.869 31.2806 133.628 32.1015 133.628 33.2287V37.1617H131.186V27.9174H133.61V29.6633C133.807 29.1732 134.06 28.7934 134.368 28.5239C134.689 28.2421 135.028 28.046 135.386 27.9357C135.756 27.8132 136.114 27.752 136.459 27.752H136.848Z" fill="white"/>
<path d="M145.687 34.3505L146.964 35.8392C146.471 36.366 145.885 36.7703 145.206 37.0521C144.54 37.3217 143.818 37.4564 143.041 37.4564C142.029 37.4564 141.141 37.2482 140.376 36.8316C139.612 36.415 139.013 35.8392 138.581 35.104C138.15 34.3566 137.934 33.5051 137.934 32.5494C137.934 31.606 138.137 30.7667 138.544 30.0316C138.952 29.2842 139.507 28.6961 140.21 28.2673C140.913 27.8384 141.715 27.624 142.615 27.624C143.467 27.624 144.219 27.8323 144.873 28.2489C145.539 28.6655 146.057 29.2413 146.427 29.9764C146.81 30.6993 147.001 31.5264 147.001 32.4575V33.2662H140.469C140.592 33.9768 140.876 34.5343 141.32 34.9386C141.777 35.3429 142.381 35.5451 143.134 35.5451C144.182 35.5451 145.033 35.1469 145.687 34.3505ZM142.578 29.517C141.999 29.517 141.524 29.713 141.154 30.1051C140.796 30.4972 140.568 31.0363 140.469 31.7224H144.577C144.503 31.0118 144.293 30.4665 143.948 30.0867C143.602 29.7069 143.146 29.517 142.578 29.517Z" fill="white"/>
<path d="M60.5171 18.1566H58V10H60.6286C61.4198 10 62.0969 10.1633 62.6598 10.4899C63.2227 10.8138 63.6541 11.2798 63.9542 11.8878C64.2542 12.4932 64.4042 13.218 64.4042 14.0624C64.4042 14.912 64.2529 15.6435 63.9502 16.2569C63.6475 16.8675 63.2068 17.3375 62.6279 17.6667C62.0491 17.9933 61.3455 18.1566 60.5171 18.1566ZM58.9877 17.2804H60.4534C61.1278 17.2804 61.6867 17.1503 62.1301 16.8901C62.5735 16.6299 62.9041 16.2595 63.1218 15.7789C63.3395 15.2984 63.4484 14.7262 63.4484 14.0624C63.4484 13.4039 63.3408 12.837 63.1258 12.3618C62.9107 11.8838 62.5894 11.5174 62.1619 11.2625C61.7345 11.005 61.2021 10.8762 60.5649 10.8762H58.9877V17.2804Z" fill="white"/>
<path d="M68.419 18.2841C67.8667 18.2841 67.3822 18.1526 66.9653 17.8898C66.5511 17.6269 66.2272 17.2592 65.9935 16.7866C65.7625 16.3139 65.647 15.7617 65.647 15.1298C65.647 14.4925 65.7625 13.9363 65.9935 13.461C66.2272 12.9857 66.5511 12.6167 66.9653 12.3538C67.3822 12.0909 67.8667 11.9595 68.419 11.9595C68.9713 11.9595 69.4545 12.0909 69.8687 12.3538C70.2856 12.6167 70.6095 12.9857 70.8405 13.461C71.0742 13.9363 71.191 14.4925 71.191 15.1298C71.191 15.7617 71.0742 16.3139 70.8405 16.7866C70.6095 17.2592 70.2856 17.6269 69.8687 17.8898C69.4545 18.1526 68.9713 18.2841 68.419 18.2841ZM68.419 17.4397C68.8385 17.4397 69.1837 17.3322 69.4545 17.1171C69.7253 16.9021 69.9258 16.6193 70.0559 16.2688C70.186 15.9183 70.2511 15.5386 70.2511 15.1298C70.2511 14.7209 70.186 14.3398 70.0559 13.9867C69.9258 13.6336 69.7253 13.3481 69.4545 13.1304C69.1837 12.9127 68.8385 12.8038 68.419 12.8038C67.9995 12.8038 67.6543 12.9127 67.3835 13.1304C67.1127 13.3481 66.9122 13.6336 66.7821 13.9867C66.652 14.3398 66.587 14.7209 66.587 15.1298C66.587 15.5386 66.652 15.9183 66.7821 16.2688C66.9122 16.6193 67.1127 16.9021 67.3835 17.1171C67.6543 17.3322 67.9995 17.4397 68.419 17.4397Z" fill="white"/>
<path d="M73.8035 18.1567L71.9395 12.0393H72.9273L74.2495 16.7229H74.3132L75.6196 12.0393H76.6232L77.9136 16.707H77.9774L79.2996 12.0393H80.2873L78.4234 18.1567H77.4994L76.1612 13.4571H76.0656L74.7274 18.1567H73.8035Z" fill="white"/>
<path d="M82.4698 14.4766V18.1566H81.5298V12.0392H82.4379V12.995H82.5176C82.6609 12.6844 82.8787 12.4348 83.1707 12.2463C83.4628 12.0551 83.8398 11.9595 84.3018 11.9595C84.716 11.9595 85.0785 12.0445 85.3891 12.2144C85.6998 12.3817 85.9414 12.6366 86.114 12.9791C86.2865 13.3189 86.3728 13.7491 86.3728 14.2695V18.1566H85.4329V14.3332C85.4329 13.8526 85.3081 13.4782 85.0585 13.2101C84.809 12.9393 84.4664 12.8038 84.031 12.8038C83.731 12.8038 83.4628 12.8689 83.2265 12.999C82.9928 13.1291 82.8083 13.3189 82.6729 13.5685C82.5375 13.8181 82.4698 14.1208 82.4698 14.4766Z" fill="white"/>
<path d="M89.0302 10V18.1566H88.0903V10H89.0302Z" fill="white"/>
<path d="M93.2373 18.2841C92.685 18.2841 92.2004 18.1526 91.7836 17.8898C91.3694 17.6269 91.0454 17.2592 90.8118 16.7866C90.5808 16.3139 90.4653 15.7617 90.4653 15.1298C90.4653 14.4925 90.5808 13.9363 90.8118 13.461C91.0454 12.9857 91.3694 12.6167 91.7836 12.3538C92.2004 12.0909 92.685 11.9595 93.2373 11.9595C93.7895 11.9595 94.2728 12.0909 94.687 12.3538C95.1038 12.6167 95.4278 12.9857 95.6588 13.461C95.8924 13.9363 96.0092 14.4925 96.0092 15.1298C96.0092 15.7617 95.8924 16.3139 95.6588 16.7866C95.4278 17.2592 95.1038 17.6269 94.687 17.8898C94.2728 18.1526 93.7895 18.2841 93.2373 18.2841ZM93.2373 17.4397C93.6568 17.4397 94.0019 17.3322 94.2728 17.1171C94.5436 16.9021 94.7441 16.6193 94.8742 16.2688C95.0043 15.9183 95.0693 15.5386 95.0693 15.1298C95.0693 14.7209 95.0043 14.3398 94.8742 13.9867C94.7441 13.6336 94.5436 13.3481 94.2728 13.1304C94.0019 12.9127 93.6568 12.8038 93.2373 12.8038C92.8177 12.8038 92.4726 12.9127 92.2018 13.1304C91.9309 13.3481 91.7305 13.6336 91.6004 13.9867C91.4703 14.3398 91.4052 14.7209 91.4052 15.1298C91.4052 15.5386 91.4703 15.9183 91.6004 16.2688C91.7305 16.6193 91.9309 16.9021 92.2018 17.1171C92.4726 17.3322 92.8177 17.4397 93.2373 17.4397Z" fill="white"/>
<path d="M99.2441 18.3C98.8565 18.3 98.5047 18.227 98.1887 18.081C97.8727 17.9323 97.6218 17.7185 97.4359 17.4397C97.2501 17.1583 97.1572 16.8184 97.1572 16.4202C97.1572 16.0697 97.2262 15.7856 97.3643 15.5679C97.5023 15.3475 97.6869 15.1749 97.9179 15.0501C98.1489 14.9253 98.4038 14.8324 98.6825 14.7713C98.964 14.7076 99.2468 14.6571 99.5309 14.62C99.9026 14.5722 100.204 14.5363 100.435 14.5124C100.669 14.4859 100.839 14.4421 100.945 14.381C101.054 14.3199 101.108 14.2137 101.108 14.0624V14.0305C101.108 13.6376 101 13.3322 100.785 13.1145C100.573 12.8968 100.25 12.7879 99.8176 12.7879C99.3689 12.7879 99.0171 12.8861 98.7622 13.0826C98.5073 13.2791 98.3281 13.4889 98.2245 13.7119L97.3324 13.3933C97.4917 13.0216 97.7041 12.7321 97.9696 12.525C98.2378 12.3153 98.5299 12.1693 98.8458 12.0869C99.1645 12.002 99.4778 11.9595 99.7858 11.9595C99.9822 11.9595 100.208 11.9834 100.463 12.0312C100.72 12.0763 100.969 12.1706 101.208 12.314C101.449 12.4573 101.65 12.6737 101.809 12.9631C101.968 13.2526 102.048 13.6402 102.048 14.1261V18.1566H101.108V17.3282H101.06C100.997 17.461 100.89 17.603 100.742 17.7544C100.593 17.9057 100.395 18.0345 100.148 18.1407C99.9013 18.2469 99.5999 18.3 99.2441 18.3ZM99.3875 17.4557C99.7592 17.4557 100.073 17.3826 100.327 17.2366C100.585 17.0906 100.779 16.9021 100.909 16.6711C101.042 16.4401 101.108 16.1971 101.108 15.9422V15.082C101.068 15.1298 100.981 15.1736 100.845 15.2134C100.712 15.2506 100.558 15.2837 100.383 15.313C100.211 15.3395 100.042 15.3634 99.8774 15.3846C99.7154 15.4032 99.584 15.4192 99.4831 15.4324C99.2388 15.4643 99.0105 15.5161 98.798 15.5878C98.5883 15.6568 98.4184 15.7617 98.2883 15.9024C98.1608 16.0405 98.0971 16.229 98.0971 16.4679C98.0971 16.7945 98.2179 17.0415 98.4595 17.2087C98.7038 17.3734 99.0131 17.4557 99.3875 17.4557Z" fill="white"/>
<path d="M106.073 18.2841C105.564 18.2841 105.114 18.1553 104.723 17.8977C104.333 17.6375 104.028 17.2711 103.807 16.7985C103.587 16.3232 103.477 15.7617 103.477 15.1138C103.477 14.4713 103.587 13.9137 103.807 13.4411C104.028 12.9685 104.334 12.6034 104.727 12.3458C105.12 12.0883 105.574 11.9595 106.089 11.9595C106.488 11.9595 106.802 12.0259 107.033 12.1586C107.267 12.2887 107.445 12.4374 107.567 12.6047C107.692 12.7693 107.789 12.9047 107.858 13.0109H107.937V10H108.877V18.1566H107.969V17.2167H107.858C107.789 17.3282 107.69 17.4689 107.563 17.6389C107.436 17.8061 107.254 17.9562 107.017 18.0889C106.781 18.219 106.466 18.2841 106.073 18.2841ZM106.201 17.4397C106.578 17.4397 106.897 17.3415 107.157 17.145C107.417 16.9459 107.615 16.6711 107.75 16.3206C107.886 15.9675 107.953 15.5599 107.953 15.0979C107.953 14.6412 107.887 14.2416 107.754 13.8991C107.621 13.5539 107.425 13.2857 107.165 13.0946C106.905 12.9008 106.583 12.8038 106.201 12.8038C105.803 12.8038 105.471 12.9061 105.205 13.1105C104.942 13.3123 104.745 13.5871 104.612 13.9349C104.482 14.2801 104.417 14.6678 104.417 15.0979C104.417 15.5333 104.483 15.929 104.616 16.2847C104.751 16.6379 104.95 16.9193 105.213 17.1291C105.479 17.3362 105.808 17.4397 106.201 17.4397Z" fill="white"/>
<path d="M116.369 18.2841C115.817 18.2841 115.332 18.1526 114.915 17.8898C114.501 17.6269 114.177 17.2592 113.943 16.7866C113.712 16.3139 113.597 15.7617 113.597 15.1298C113.597 14.4925 113.712 13.9363 113.943 13.461C114.177 12.9857 114.501 12.6167 114.915 12.3538C115.332 12.0909 115.817 11.9595 116.369 11.9595C116.921 11.9595 117.404 12.0909 117.819 12.3538C118.235 12.6167 118.559 12.9857 118.79 13.461C119.024 13.9363 119.141 14.4925 119.141 15.1298C119.141 15.7617 119.024 16.3139 118.79 16.7866C118.559 17.2592 118.235 17.6269 117.819 17.8898C117.404 18.1526 116.921 18.2841 116.369 18.2841ZM116.369 17.4397C116.788 17.4397 117.134 17.3322 117.404 17.1171C117.675 16.9021 117.876 16.6193 118.006 16.2688C118.136 15.9183 118.201 15.5386 118.201 15.1298C118.201 14.7209 118.136 14.3398 118.006 13.9867C117.876 13.6336 117.675 13.3481 117.404 13.1304C117.134 12.9127 116.788 12.8038 116.369 12.8038C115.949 12.8038 115.604 12.9127 115.333 13.1304C115.062 13.3481 114.862 13.6336 114.732 13.9867C114.602 14.3398 114.537 14.7209 114.537 15.1298C114.537 15.5386 114.602 15.9183 114.732 16.2688C114.862 16.6193 115.062 16.9021 115.333 17.1171C115.604 17.3322 115.949 17.4397 116.369 17.4397Z" fill="white"/>
<path d="M121.516 14.4766V18.1566H120.576V12.0392H121.484V12.995H121.563C121.707 12.6844 121.924 12.4348 122.216 12.2463C122.509 12.0551 122.886 11.9595 123.348 11.9595C123.762 11.9595 124.124 12.0445 124.435 12.2144C124.746 12.3817 124.987 12.6366 125.16 12.9791C125.332 13.3189 125.419 13.7491 125.419 14.2695V18.1566H124.479V14.3332C124.479 13.8526 124.354 13.4782 124.104 13.2101C123.855 12.9393 123.512 12.8038 123.077 12.8038C122.777 12.8038 122.509 12.8689 122.272 12.999C122.039 13.1291 121.854 13.3189 121.719 13.5685C121.583 13.8181 121.516 14.1208 121.516 14.4766Z" fill="white"/>
<path d="M132.951 12.0392V12.8357H129.781V12.0392H132.951ZM130.705 10.5735H131.645V16.4042C131.645 16.6697 131.683 16.8689 131.76 17.0016C131.84 17.1317 131.941 17.2194 132.063 17.2645C132.188 17.307 132.319 17.3282 132.457 17.3282C132.561 17.3282 132.646 17.3229 132.712 17.3123C132.778 17.299 132.831 17.2884 132.871 17.2804L133.062 18.1248C132.999 18.1487 132.91 18.1726 132.796 18.1964C132.681 18.223 132.537 18.2363 132.361 18.2363C132.096 18.2363 131.836 18.1792 131.581 18.065C131.329 17.9508 131.119 17.7769 130.952 17.5433C130.787 17.3096 130.705 17.0149 130.705 16.6591V10.5735Z" fill="white"/>
<path d="M135.436 14.4766V18.1566H134.496V10H135.436V12.995H135.516C135.659 12.679 135.874 12.4281 136.161 12.2423C136.45 12.0538 136.835 11.9595 137.316 11.9595C137.733 11.9595 138.098 12.0431 138.411 12.2104C138.725 12.375 138.967 12.6286 139.14 12.9711C139.315 13.311 139.403 13.7438 139.403 14.2695V18.1566H138.463V14.3332C138.463 13.8473 138.337 13.4716 138.085 13.2061C137.835 12.9379 137.489 12.8038 137.045 12.8038C136.737 12.8038 136.461 12.8689 136.217 12.999C135.975 13.1291 135.784 13.3189 135.643 13.5685C135.505 13.8181 135.436 14.1208 135.436 14.4766Z" fill="white"/>
<path d="M143.687 18.2841C143.098 18.2841 142.589 18.154 142.162 17.8938C141.737 17.6309 141.409 17.2645 141.178 16.7945C140.95 16.3219 140.836 15.7723 140.836 15.1457C140.836 14.5191 140.95 13.9668 141.178 13.4889C141.409 13.0083 141.73 12.6339 142.142 12.3657C142.556 12.0949 143.039 11.9595 143.592 11.9595C143.91 11.9595 144.225 12.0126 144.536 12.1188C144.846 12.225 145.129 12.3976 145.384 12.6366C145.639 12.8729 145.842 13.1862 145.993 13.5765C146.145 13.9668 146.22 14.4474 146.22 15.0182V15.4165H141.505V14.604H145.265C145.265 14.2589 145.195 13.9509 145.057 13.68C144.922 13.4092 144.728 13.1955 144.476 13.0388C144.226 12.8822 143.932 12.8038 143.592 12.8038C143.217 12.8038 142.893 12.8968 142.62 13.0826C142.349 13.2658 142.141 13.5048 141.995 13.7995C141.849 14.0942 141.776 14.4102 141.776 14.7474V15.2891C141.776 15.7511 141.855 16.1427 142.015 16.464C142.177 16.7826 142.401 17.0255 142.688 17.1928C142.974 17.3574 143.308 17.4397 143.687 17.4397C143.934 17.4397 144.157 17.4052 144.356 17.3362C144.558 17.2645 144.732 17.1583 144.878 17.0176C145.024 16.8742 145.137 16.6963 145.217 16.4839L146.125 16.7388C146.029 17.0468 145.869 17.3176 145.643 17.5512C145.417 17.7822 145.138 17.9628 144.806 18.0929C144.475 18.2203 144.102 18.2841 143.687 18.2841Z" fill="white"/>
</g>
<defs>
<clipPath id="clip0_213_344">
<rect width="164" height="50" fill="white"/>
</clipPath>
</defs>
</svg>
