<svg width="154" height="50" viewBox="0 0 154 50" fill="none" xmlns="http://www.w3.org/2000/svg">
<rect x="0.178223" y="0.81958" width="153.8" height="49.1803" rx="10" fill="url(#paint0_radial_0_933)"/>
<path d="M60.1331 18.5896H59.2771L58.5231 16.4622H55.3135L54.5595 18.5896H53.7341L56.4954 10.9073H57.3717L60.1331 18.5896ZM55.5784 15.7101H58.2582L56.9234 11.9065L55.5784 15.7101Z" fill="white"/>
<path d="M63.0327 18.5896H62.2583L60.2306 13.3033H61.0662L62.6659 17.7301L64.2656 13.3033H65.0604L63.0327 18.5896Z" fill="white"/>
<path d="M67.43 18.7616C67.0768 18.7616 66.7643 18.6899 66.4926 18.5467C66.2209 18.4034 66.0069 18.2064 65.8506 17.9557C65.7012 17.6978 65.6265 17.4077 65.6265 17.0854C65.6265 16.5482 65.8201 16.122 66.2073 15.8068C66.6013 15.4916 67.1277 15.334 67.7866 15.334H69.1928V15.2911C69.1928 14.847 69.0637 14.496 68.8056 14.2381C68.5542 13.9731 68.2078 13.8405 67.7662 13.8405C67.1888 13.8405 66.6998 14.0948 66.299 14.6034L65.7895 14.0769C66.3601 13.4466 67.036 13.1314 67.8172 13.1314C68.2451 13.1314 68.6188 13.2209 68.938 13.4C69.2573 13.5719 69.5052 13.8191 69.6818 14.1414C69.8585 14.4566 69.9468 14.829 69.9468 15.2588V18.5896H69.2029V17.8698C69.0127 18.142 68.7648 18.3604 68.4591 18.5252C68.1534 18.6828 67.8104 18.7616 67.43 18.7616ZM67.5421 18.0739C67.9361 18.0739 68.2791 17.97 68.5712 17.7623C68.8633 17.5474 69.0705 17.2645 69.1928 16.9135V16.0002H67.8783C67.4232 16.0002 67.07 16.0933 66.8186 16.2796C66.5673 16.4586 66.4416 16.7165 66.4416 17.0532C66.4416 17.3612 66.5401 17.6083 66.7371 17.7946C66.9409 17.9808 67.2092 18.0739 67.5421 18.0739Z" fill="white"/>
<path d="M72.5244 11.3048C72.5244 11.4767 72.47 11.62 72.3613 11.7346C72.2594 11.842 72.1304 11.8958 71.9741 11.8958C71.8179 11.8958 71.6854 11.842 71.5767 11.7346C71.4748 11.62 71.4239 11.4767 71.4239 11.3048C71.4239 11.1329 71.4748 10.9932 71.5767 10.8858C71.6854 10.7712 71.8179 10.7139 71.9741 10.7139C72.1304 10.7139 72.2594 10.7712 72.3613 10.8858C72.47 10.9932 72.5244 11.1329 72.5244 11.3048ZM72.3715 18.5896H71.5869V13.3033H72.3715V18.5896Z" fill="white"/>
<path d="M74.889 18.5896H74.1044V10.8535H74.889V18.5896Z" fill="white"/>
<path d="M77.9975 18.7616C77.6442 18.7616 77.3318 18.6899 77.0601 18.5467C76.7883 18.4034 76.5744 18.2064 76.4181 17.9557C76.2687 17.6978 76.194 17.4077 76.194 17.0854C76.194 16.5482 76.3876 16.122 76.7748 15.8068C77.1687 15.4916 77.6952 15.334 78.3541 15.334H79.7602V15.2911C79.7602 14.847 79.6312 14.496 79.373 14.2381C79.1217 13.9731 78.7753 13.8405 78.3337 13.8405C77.7563 13.8405 77.2672 14.0948 76.8665 14.6034L76.357 14.0769C76.9276 13.4466 77.6035 13.1314 78.3847 13.1314C78.8126 13.1314 79.1862 13.2209 79.5055 13.4C79.8248 13.5719 80.0727 13.8191 80.2493 14.1414C80.4259 14.4566 80.5143 14.829 80.5143 15.2588V18.5896H79.7704V17.8698C79.5802 18.142 79.3323 18.3604 79.0266 18.5252C78.7209 18.6828 78.3779 18.7616 77.9975 18.7616ZM78.1096 18.0739C78.5035 18.0739 78.8466 17.97 79.1387 17.7623C79.4308 17.5474 79.638 17.2645 79.7602 16.9135V16.0002H78.4458C77.9907 16.0002 77.6375 16.0933 77.3861 16.2796C77.1348 16.4586 77.0091 16.7165 77.0091 17.0532C77.0091 17.3612 77.1076 17.6083 77.3046 17.7946C77.5084 17.9808 77.7767 18.0739 78.1096 18.0739Z" fill="white"/>
<path d="M82.9288 18.5896H82.1544V10.8535H82.939V14.2703C83.1088 13.9265 83.3568 13.6507 83.6828 13.443C84.0089 13.2353 84.3723 13.1314 84.7731 13.1314C85.235 13.1314 85.6426 13.2532 85.9958 13.4967C86.349 13.7403 86.6276 14.0769 86.8313 14.5067C87.0351 14.9293 87.137 15.4093 87.137 15.9465C87.137 16.4909 87.0317 16.9744 86.8212 17.397C86.6106 17.8196 86.3219 18.1527 85.9551 18.3962C85.595 18.6398 85.1807 18.7616 84.712 18.7616C84.318 18.7616 83.9647 18.672 83.6523 18.4929C83.3398 18.3067 83.0986 18.0596 82.9288 17.7516V18.5896ZM82.939 16.0969V16.7738C83.0613 17.1535 83.2719 17.4615 83.5707 17.6978C83.8696 17.9271 84.2127 18.0417 84.5999 18.0417C84.9395 18.0417 85.235 17.9521 85.4863 17.7731C85.7445 17.594 85.9449 17.3469 86.0875 17.0317C86.237 16.7165 86.3117 16.3548 86.3117 15.9465C86.3117 15.5382 86.2404 15.1765 86.0977 14.8613C85.9618 14.5461 85.7682 14.299 85.5169 14.1199C85.2724 13.9408 84.9871 13.8513 84.661 13.8513C84.3282 13.8513 84.0327 13.948 83.7745 14.1414C83.5164 14.3276 83.3126 14.5891 83.1632 14.9257C83.0137 15.2624 82.939 15.6528 82.939 16.0969Z" fill="white"/>
<path d="M89.3372 18.5896H88.5526V10.8535H89.3372V18.5896Z" fill="white"/>
<path d="M94.8809 17.0747L95.4108 17.6119C95.1459 17.9987 94.8334 18.2888 94.4734 18.4822C94.1201 18.6684 93.7295 18.7616 93.3016 18.7616C92.7989 18.7616 92.354 18.6398 91.9668 18.3962C91.5864 18.1527 91.2875 17.8196 91.0701 17.397C90.8595 16.9672 90.7542 16.4837 90.7542 15.9465C90.7542 15.4093 90.8595 14.9293 91.0701 14.5067C91.2875 14.0769 91.5796 13.7403 91.9464 13.4967C92.32 13.2532 92.7378 13.1314 93.1997 13.1314C93.6548 13.1314 94.0556 13.2496 94.402 13.486C94.7553 13.7224 95.0304 14.0519 95.2274 14.4745C95.4244 14.8899 95.5229 15.3699 95.5229 15.9142V16.2366H91.5796C91.6339 16.7667 91.8173 17.2 92.1298 17.5367C92.4491 17.8733 92.8567 18.0417 93.3525 18.0417C93.665 18.0417 93.9469 17.9629 94.1983 17.8053C94.4496 17.6477 94.6772 17.4042 94.8809 17.0747ZM93.1997 13.8513C92.7785 13.8513 92.4185 14.0089 92.1196 14.324C91.8275 14.6392 91.6509 15.0511 91.5898 15.5597H94.7077C94.6602 15.0368 94.5005 14.6213 94.2288 14.3133C93.9639 14.0053 93.6209 13.8513 93.1997 13.8513Z" fill="white"/>
<path d="M101.42 18.7616C100.938 18.7616 100.507 18.6398 100.126 18.3962C99.7458 18.1527 99.4469 17.8196 99.2296 17.397C99.019 16.9744 98.9137 16.4909 98.9137 15.9465C98.9137 15.4021 99.019 14.9186 99.2296 14.496C99.4469 14.0733 99.7458 13.7403 100.126 13.4967C100.507 13.2532 100.938 13.1314 101.42 13.1314C101.909 13.1314 102.344 13.2532 102.725 13.4967C103.105 13.7403 103.4 14.0733 103.611 14.496C103.828 14.9186 103.937 15.4021 103.937 15.9465C103.937 16.4909 103.828 16.9744 103.611 17.397C103.4 17.8196 103.105 18.1527 102.725 18.3962C102.344 18.6398 101.909 18.7616 101.42 18.7616ZM101.42 18.0417C101.76 18.0417 102.055 17.9521 102.307 17.7731C102.558 17.594 102.755 17.3469 102.898 17.0317C103.04 16.7165 103.112 16.3548 103.112 15.9465C103.112 15.531 103.04 15.1693 102.898 14.8613C102.755 14.5461 102.558 14.299 102.307 14.1199C102.055 13.9408 101.76 13.8513 101.42 13.8513C101.087 13.8513 100.795 13.9408 100.544 14.1199C100.293 14.299 100.096 14.5461 99.953 14.8613C99.8104 15.1693 99.739 15.531 99.739 15.9465C99.739 16.3548 99.8104 16.7165 99.953 17.0317C100.096 17.3469 100.293 17.594 100.544 17.7731C100.795 17.9521 101.087 18.0417 101.42 18.0417Z" fill="white"/>
<path d="M109.71 18.5896H108.926V15.5489C108.926 14.9902 108.814 14.5712 108.589 14.2918C108.372 14.0053 108.077 13.862 107.703 13.862C107.431 13.862 107.176 13.9444 106.939 14.1092C106.701 14.2667 106.507 14.521 106.358 14.872C106.208 15.2158 106.134 15.6635 106.134 16.2151V18.5896H105.349V13.3033H106.124V14.3885C106.287 13.9301 106.528 13.6077 106.847 13.4215C107.166 13.2281 107.503 13.1314 107.856 13.1314C108.433 13.1314 108.885 13.332 109.211 13.7331C109.544 14.1271 109.71 14.7001 109.71 15.4522V18.5896Z" fill="white"/>
<path d="M116.246 18.5896H115.126C114.772 18.5896 114.504 18.4894 114.321 18.2888C114.137 18.0811 114.046 17.7874 114.046 17.4077V14.0125H113.088V13.3033H114.046V11.7561H114.83V13.3033H116.175V14.0125H114.83V17.3325C114.83 17.6978 114.993 17.8805 115.319 17.8805H116.246V18.5896Z" fill="white"/>
<path d="M121.86 18.5896H121.075V15.5489C121.075 15.0117 120.967 14.5962 120.749 14.3026C120.539 14.0089 120.24 13.862 119.853 13.862C119.377 13.862 118.997 14.0733 118.711 14.496C118.426 14.9186 118.283 15.4916 118.283 16.2151V18.5896H117.499V10.8535H118.283V14.3885C118.426 13.9802 118.643 13.6686 118.935 13.4537C119.234 13.2388 119.591 13.1314 120.005 13.1314C120.59 13.1314 121.045 13.3355 121.371 13.7438C121.697 14.145 121.86 14.7144 121.86 15.4522V18.5896Z" fill="white"/>
<path d="M127.31 17.0747L127.84 17.6119C127.575 17.9987 127.262 18.2888 126.902 18.4822C126.549 18.6684 126.158 18.7616 125.73 18.7616C125.228 18.7616 124.783 18.6398 124.396 18.3962C124.015 18.1527 123.716 17.8196 123.499 17.397C123.288 16.9672 123.183 16.4837 123.183 15.9465C123.183 15.4093 123.288 14.9293 123.499 14.5067C123.716 14.0769 124.008 13.7403 124.375 13.4967C124.749 13.2532 125.167 13.1314 125.629 13.1314C126.084 13.1314 126.484 13.2496 126.831 13.486C127.184 13.7224 127.459 14.0519 127.656 14.4745C127.853 14.8899 127.952 15.3699 127.952 15.9142V16.2366H124.008C124.063 16.7667 124.246 17.2 124.559 17.5367C124.878 17.8733 125.285 18.0417 125.781 18.0417C126.094 18.0417 126.376 17.9629 126.627 17.8053C126.878 17.6477 127.106 17.4042 127.31 17.0747ZM125.629 13.8513C125.207 13.8513 124.847 14.0089 124.548 14.324C124.256 14.6392 124.08 15.0511 124.019 15.5597H127.137C127.089 15.0368 126.929 14.6213 126.658 14.3133C126.393 14.0053 126.05 13.8513 125.629 13.8513Z" fill="white"/>
<path d="M65.946 37.0338H63.5303L62.6202 34.4537H57.8714L56.9448 37.0338H54.6283L59.0462 25.2837H61.5282L65.946 37.0338ZM58.5333 32.5803H61.9584L60.2375 27.7652L58.5333 32.5803Z" fill="white"/>
<path d="M69.8195 40.222H67.6353V28.7676H69.8029V29.9344C70.0677 29.4962 70.4206 29.1511 70.8619 28.8991C71.3142 28.6362 71.8381 28.5047 72.4338 28.5047C73.1508 28.5047 73.8016 28.691 74.3863 29.0635C74.9709 29.4359 75.4342 29.9509 75.7762 30.6082C76.1292 31.2656 76.3057 32.027 76.3057 32.8925C76.3057 33.758 76.1292 34.5249 75.7762 35.1932C75.4232 35.8506 74.9488 36.3655 74.3532 36.738C73.7685 37.1105 73.1177 37.2968 72.4007 37.2968C71.8271 37.2968 71.3197 37.1872 70.8784 36.9681C70.4372 36.738 70.0842 36.4312 69.8195 36.0478V40.222ZM69.8195 32.9582V34.0264C69.9629 34.4647 70.2166 34.8207 70.5806 35.0946C70.9556 35.3576 71.3803 35.489 71.8547 35.489C72.5055 35.489 73.0295 35.248 73.4266 34.766C73.8347 34.2729 74.0388 33.6485 74.0388 32.8925C74.0388 32.1475 73.8513 31.5285 73.4762 31.0355C73.1012 30.5425 72.5937 30.296 71.9539 30.296C71.3362 30.296 70.8233 30.537 70.4151 31.0191C70.018 31.5011 69.8195 32.1475 69.8195 32.9582Z" fill="white"/>
<path d="M80.4033 40.222H78.2192V28.7676H80.3868V29.9344C80.6515 29.4962 81.0045 29.1511 81.4458 28.8991C81.898 28.6362 82.422 28.5047 83.0177 28.5047C83.7347 28.5047 84.3855 28.691 84.9702 29.0635C85.5548 29.4359 86.0181 29.9509 86.3601 30.6082C86.713 31.2656 86.8895 32.027 86.8895 32.8925C86.8895 33.758 86.713 34.5249 86.3601 35.1932C86.0071 35.8506 85.5327 36.3655 84.9371 36.738C84.3524 37.1105 83.7016 37.2968 82.9846 37.2968C82.411 37.2968 81.9036 37.1872 81.4623 36.9681C81.0211 36.738 80.6681 36.4312 80.4033 36.0478V40.222ZM80.4033 32.9582V34.0264C80.5467 34.4647 80.8005 34.8207 81.1645 35.0946C81.5395 35.3576 81.9642 35.489 82.4386 35.489C83.0894 35.489 83.6134 35.248 84.0105 34.766C84.4186 34.2729 84.6227 33.6485 84.6227 32.8925C84.6227 32.1475 84.4352 31.5285 84.0601 31.0355C83.6851 30.5425 83.1776 30.296 82.5378 30.296C81.9201 30.296 81.4072 30.537 80.999 31.0191C80.6019 31.5011 80.4033 32.1475 80.4033 32.9582Z" fill="white"/>
<path d="M91.957 35.1275L93.4296 33.6485C93.8378 34.1963 94.3618 34.6235 95.0016 34.9303C95.6413 35.2371 96.3142 35.3904 97.0202 35.3904C97.7483 35.3904 98.3219 35.2425 98.741 34.9467C99.1712 34.6509 99.3864 34.251 99.3864 33.7471C99.3864 33.2869 99.1823 32.9254 98.7741 32.6624C98.366 32.3885 97.6876 32.1804 96.7389 32.038C95.2718 31.8079 94.1908 31.419 93.4958 30.8712C92.8009 30.3234 92.4534 29.5839 92.4534 28.6526C92.4534 27.9186 92.6409 27.2831 93.016 26.7463C93.391 26.1985 93.9095 25.7767 94.5713 25.4809C95.2442 25.1741 96.0109 25.0208 96.8713 25.0208C97.8531 25.0208 98.7521 25.2015 99.5684 25.5631C100.385 25.9246 101.074 26.4286 101.637 27.075L100.214 28.5376C99.7835 28.0117 99.2871 27.6118 98.7245 27.3379C98.173 27.0531 97.5607 26.9106 96.8878 26.9106C96.237 26.9106 95.7075 27.0476 95.2994 27.3215C94.9023 27.5954 94.7037 27.9733 94.7037 28.4554C94.7037 28.8717 94.8968 29.2004 95.2828 29.4414C95.6689 29.6715 96.3308 29.8632 97.2684 30.0166C98.7686 30.2576 99.8717 30.6685 100.578 31.2491C101.295 31.8298 101.653 32.6241 101.653 33.632C101.653 34.3551 101.455 34.996 101.058 35.5548C100.671 36.1026 100.125 36.5298 99.4194 36.8366C98.7245 37.1434 97.9082 37.2968 96.9706 37.2968C95.9557 37.2968 95.0181 37.1105 94.1577 36.738C93.2973 36.3655 92.5637 35.8287 91.957 35.1275Z" fill="white"/>
<path d="M108.211 37.0338H106.242C104.775 37.0338 104.041 36.2833 104.041 34.7824V30.5096H102.717V28.7676H104.041V26.582H106.225V28.7676H108.128V30.5096H106.225V34.4044C106.225 34.9741 106.49 35.259 107.02 35.259H108.211V37.0338Z" fill="white"/>
<path d="M113.763 37.2968C112.903 37.2968 112.147 37.1105 111.496 36.738C110.845 36.3546 110.332 35.8342 109.957 35.1768C109.593 34.5085 109.411 33.7471 109.411 32.8925C109.411 32.038 109.593 31.282 109.957 30.6247C110.332 29.9563 110.845 29.4359 111.496 29.0635C112.147 28.691 112.903 28.5047 113.763 28.5047C114.624 28.5047 115.379 28.691 116.03 29.0635C116.692 29.4359 117.21 29.9563 117.585 30.6247C117.96 31.282 118.148 32.038 118.148 32.8925C118.148 33.7471 117.96 34.5085 117.585 35.1768C117.21 35.8342 116.692 36.3546 116.03 36.738C115.379 37.1105 114.624 37.2968 113.763 37.2968ZM113.763 35.489C114.392 35.489 114.899 35.248 115.285 34.766C115.683 34.2839 115.881 33.6594 115.881 32.8925C115.881 32.1366 115.683 31.5176 115.285 31.0355C114.899 30.5534 114.392 30.3124 113.763 30.3124C113.145 30.3124 112.643 30.5534 112.257 31.0355C111.871 31.5176 111.678 32.1366 111.678 32.8925C111.678 33.6594 111.871 34.2839 112.257 34.766C112.643 35.248 113.145 35.489 113.763 35.489Z" fill="white"/>
<path d="M125.133 28.6197V30.6082H124.686C123.936 30.6082 123.341 30.8438 122.899 31.3149C122.469 31.775 122.254 32.5091 122.254 33.517V37.0338H120.07V28.7676H122.238V30.3288C122.414 29.8906 122.64 29.551 122.916 29.31C123.203 29.058 123.506 28.8827 123.826 28.7841C124.157 28.6745 124.477 28.6197 124.786 28.6197H125.133Z" fill="white"/>
<path d="M133.036 34.5195L134.178 35.8506C133.737 36.3217 133.213 36.6832 132.606 36.9352C132.01 37.1762 131.365 37.2968 130.67 37.2968C129.766 37.2968 128.971 37.1105 128.287 36.738C127.603 36.3655 127.068 35.8506 126.682 35.1932C126.296 34.5249 126.103 33.7635 126.103 32.9089C126.103 32.0653 126.285 31.3149 126.649 30.6575C127.013 29.9892 127.51 29.4633 128.138 29.0799C128.767 28.6964 129.484 28.5047 130.29 28.5047C131.051 28.5047 131.724 28.691 132.308 29.0635C132.904 29.4359 133.367 29.9509 133.698 30.6082C134.04 31.2546 134.211 31.9941 134.211 32.8268V33.5499H128.37C128.48 34.1853 128.734 34.6838 129.131 35.0453C129.539 35.4069 130.08 35.5876 130.753 35.5876C131.69 35.5876 132.452 35.2316 133.036 34.5195ZM130.256 30.1974C129.738 30.1974 129.313 30.3727 128.982 30.7233C128.662 31.0738 128.458 31.5559 128.37 32.1694H132.043C131.977 31.534 131.79 31.0465 131.481 30.7068C131.172 30.3672 130.764 30.1974 130.256 30.1974Z" fill="white"/>
<path d="M35.6058 9.81982H35.8259C35.9037 10.7227 35.7959 11.6319 35.5091 12.4914C35.2223 13.3508 34.7626 14.1423 34.1584 14.817C33.1655 15.9902 31.8068 17.1286 29.6081 16.9559C29.544 16.0753 29.6615 15.191 29.9535 14.3579C30.2455 13.5249 30.7057 12.7609 31.3053 12.1136C32.4357 10.8804 33.9531 10.0711 35.6058 9.81982Z" fill="white"/>
<path d="M42.1097 32.652V32.7172C41.4984 34.5468 40.6049 36.2695 39.4616 37.823C38.4521 39.213 37.2145 41.0843 35.0052 41.0843C33.0959 41.0843 31.8282 39.8561 29.8713 39.8228C27.8016 39.7896 26.6637 40.8495 24.7714 41.1162H24.1265C22.7369 40.9153 21.6153 39.8117 20.8008 38.8223C18.0746 35.5546 16.456 31.5055 16.1782 27.2585V25.8353C16.3249 22.3679 18.0093 19.5488 20.2479 18.183C21.6108 17.2913 23.246 16.9127 24.862 17.1146C25.6356 17.2536 26.3931 17.4709 27.1228 17.763C27.8261 18.1304 28.5929 18.3604 29.3823 18.4407C29.9335 18.3616 30.4693 18.1982 30.9708 17.956C32.5292 17.3932 34.0571 16.7474 36.0707 17.0507C38.4912 17.4166 40.2088 18.4922 41.2704 20.1522C39.2229 21.4567 37.6044 23.4193 37.8796 26.7739C38.1267 29.8192 39.8971 31.6012 42.1097 32.652Z" fill="white"/>
<defs>
<radialGradient id="paint0_radial_0_933" cx="0" cy="0" r="1" gradientUnits="userSpaceOnUse" gradientTransform="translate(73.1733 25.4097) rotate(-180) scale(72.9951 89.5263)">
<stop stop-color="#1A1A1A"/>
<stop offset="1" stop-color="#151515"/>
</radialGradient>
</defs>
</svg>
