<?xml version="1.0" encoding="utf-8"?>
<!-- Generator: Adobe Illustrator 27.2.0, SVG Export Plug-In . SVG Version: 6.00 Build 0)  -->
<svg version="1.1" id="flag-icon-css-az" xmlns="http://www.w3.org/2000/svg" xmlns:xlink="http://www.w3.org/1999/xlink" x="0px"
	 y="0px" viewBox="0 0 31 20" style="enable-background:new 0 0 31 20;" xml:space="preserve">
<style type="text/css">
	.st0{clip-path:url(#SVGID_00000098211532263513343230000005747466627419294380_);}
	.st1{fill:#3F9C35;}
	.st2{fill:#ED2939;}
	.st3{fill:#00B9E4;}
	.st4{fill:#FFFFFF;}
</style>
<g>
	<defs>
		<rect id="SVGID_1_" width="31" height="20"/>
	</defs>
	<clipPath id="SVGID_00000158738437442809259740000001074601669301401524_">
		<use xlink:href="#SVGID_1_"  style="overflow:visible;"/>
	</clipPath>
	<g style="clip-path:url(#SVGID_00000158738437442809259740000001074601669301401524_);">
		<path class="st1" d="M0-5.2h31v31H0V-5.2z"/>
		<path class="st2" d="M0-5.2h31v20.7H0V-5.2z"/>
		<path class="st3" d="M0-5.2h31V5.1H0V-5.2z"/>
		<circle class="st4" cx="14.5" cy="10.3" r="4.6"/>
		<circle class="st2" cx="15.5" cy="10.3" r="3.9"/>
		<path class="st4" d="M19.6,7.7l0.5,1.4l1.3-0.6l-0.6,1.3l1.4,0.5l-1.4,0.5l0.6,1.3l-1.3-0.6l-0.5,1.4l-0.5-1.4l-1.3,0.6l0.6-1.3
			L17,10.3l1.4-0.5l-0.6-1.3l1.3,0.6L19.6,7.7z"/>
	</g>
</g>
</svg>
