<svg width="40" height="40" viewBox="0 0 40 40" fill="none" xmlns="http://www.w3.org/2000/svg">
<path d="M15.8333 3.75C14.5967 3.75 3.75 3.86833 3.75 7.96167V28.6983C3.75 32.7967 14.5967 32.915 15.8333 32.915C17.475 32.915 19.1283 32.8117 20.74 32.605C20.9028 32.5842 21.06 32.5316 21.2025 32.45C21.345 32.3685 21.47 32.2597 21.5705 32.1299C21.6709 32 21.7448 31.8517 21.7879 31.6933C21.831 31.5349 21.8425 31.3695 21.8217 31.2067C21.7789 30.8782 21.6077 30.58 21.3457 30.3773C21.0837 30.1746 20.752 30.0839 20.4233 30.125C18.915 30.3167 17.37 30.415 15.8317 30.415C10.1933 30.415 6.62667 29.21 6.24833 28.6983V21.0967C9.53 22.485 14.9767 22.5433 15.8317 22.5433C16.6867 22.5433 22.1333 22.485 25.415 21.0967V21.665C25.415 21.9965 25.5467 22.3145 25.7811 22.5489C26.0155 22.7833 26.3335 22.915 26.665 22.915C26.9965 22.915 27.3145 22.7833 27.5489 22.5489C27.7833 22.3145 27.915 21.9965 27.915 21.665V7.96167C27.915 3.86833 17.0683 3.75 15.8317 3.75H15.8333ZM15.8333 6.25C21.05 6.25 24.4917 7.27667 25.3067 7.96167C24.4933 8.64833 21.05 9.675 15.8333 9.675C10.6167 9.675 7.175 8.64833 6.36 7.96167C7.17333 7.27667 10.6167 6.25 15.8333 6.25ZM15.8333 20.045C10.1933 20.045 6.62833 18.8433 6.25 18.3333V10.7283C9.53167 12.1167 14.9783 12.1767 15.8333 12.1767C16.6883 12.1767 22.135 12.1183 25.4167 10.7283V18.205C24.9217 18.88 21.3933 20.045 15.8333 20.045Z" fill="#237BAB"/>
<path d="M30.0867 25.959C29.9822 26.2738 30.0069 26.6171 30.1553 26.9136C30.3037 27.2102 30.5638 27.4357 30.8783 27.5407L33.1333 28.2924C33.321 28.3558 33.5212 28.3732 33.717 28.343C33.9128 28.3129 34.0985 28.236 34.2583 28.119C34.419 28.0033 34.5499 27.8511 34.6403 27.6749C34.7307 27.4988 34.778 27.3037 34.7783 27.1057V24.8507C34.7783 24.5192 34.6466 24.2012 34.4122 23.9668C34.1778 23.7324 33.8599 23.6007 33.5283 23.6007C33.3734 23.6028 33.2202 23.6339 33.0767 23.6924C32.329 22.7303 31.3717 21.9513 30.2777 21.4147C29.1838 20.8781 27.9818 20.598 26.7633 20.5957C22.345 20.5957 18.75 24.189 18.75 28.609C18.75 33.029 22.3433 36.624 26.7633 36.624C28.4191 36.6211 30.0334 36.106 31.3848 35.1493C32.7362 34.1927 33.7586 32.8414 34.3117 31.2807C34.3664 31.126 34.3901 30.962 34.3814 30.7981C34.3728 30.6342 34.3319 30.4736 34.2612 30.3255C34.1904 30.1773 34.0912 30.0446 33.9692 29.9348C33.8472 29.8251 33.7047 29.7404 33.55 29.6857C33.3953 29.631 33.2313 29.6073 33.0674 29.6159C32.9035 29.6246 32.7429 29.6655 32.5948 29.7362C32.4466 29.8069 32.3139 29.9061 32.2041 30.0282C32.0944 30.1502 32.0097 30.2926 31.955 30.4474C31.5745 31.5208 30.8713 32.4503 29.9419 33.1085C29.0124 33.7667 27.9022 34.1214 26.7633 34.124C23.7233 34.124 21.25 31.6507 21.25 28.609C21.25 25.5674 23.7217 23.0957 26.7633 23.0957C28.4517 23.0957 30.0067 23.8807 31.035 25.1474C30.819 25.1861 30.6173 25.2817 30.4506 25.4244C30.2839 25.567 30.1582 25.7516 30.0867 25.959Z" fill="#F7A434"/>
</svg>
