<svg width="24" height="24" viewBox="0 0 24 24" fill="none" xmlns="http://www.w3.org/2000/svg">
<g clip-path="url(#clip0_16_128)">
<path d="M2.76525 11.25H4.5V18.75H3C2.80109 18.75 2.61032 18.829 2.46967 18.9696C2.32902 19.1103 2.25 19.301 2.25 19.5C2.25 19.6989 2.32902 19.8896 2.46967 20.0303C2.61032 20.1709 2.80109 20.25 3 20.25H21C21.1989 20.25 21.3897 20.1709 21.5303 20.0303C21.671 19.8896 21.75 19.6989 21.75 19.5C21.75 19.301 21.671 19.1103 21.5303 18.9696C21.3897 18.829 21.1989 18.75 21 18.75H19.5V11.25H21.2347C21.8437 11.25 22.3875 10.887 22.6207 10.3245C22.854 9.76196 22.7265 9.12071 22.2502 8.64746L13.4535 1.20221C13.0478 0.857253 12.5326 0.667847 12 0.667847C11.4674 0.667847 10.9522 0.857253 10.5465 1.20221L1.74975 8.64746L1.704 8.68946C1.2735 9.11996 1.146 9.76196 1.3785 10.3245C1.611 10.887 2.15625 11.25 2.76525 11.25ZM6 11.25H9V18.75H6V11.25ZM13.5 18.75H10.5V11.25H13.5V18.75ZM18 18.75H15V11.25H18V18.75ZM11.5155 2.34671C11.6511 2.23238 11.8227 2.16967 12 2.16967C12.1773 2.16967 12.3489 2.23238 12.4845 2.34671L21.2355 9.74996L2.763 9.75521L11.5155 2.34671ZM23.25 22.5C23.25 22.6989 23.171 22.8896 23.0303 23.0303C22.8897 23.1709 22.6989 23.25 22.5 23.25H1.5C1.30109 23.25 1.11032 23.1709 0.96967 23.0303C0.829018 22.8896 0.75 22.6989 0.75 22.5C0.75 22.301 0.829018 22.1103 0.96967 21.9696C1.11032 21.829 1.30109 21.75 1.5 21.75H22.5C22.6989 21.75 22.8897 21.829 23.0303 21.9696C23.171 22.1103 23.25 22.301 23.25 22.5Z" fill="white"/>
</g>
<defs>
<clipPath id="clip0_16_128">
<rect width="24" height="24" fill="white"/>
</clipPath>
</defs>
</svg>
