<svg width="23" height="21" viewBox="0 0 23 21" fill="none" xmlns="http://www.w3.org/2000/svg">
<path d="M20.5871 17.4655H8.43514C7.84421 17.4655 7.38993 16.9841 7.38993 16.4114C7.38993 15.8387 7.86729 15.3573 8.43514 15.3573H17.771C18.9298 15.3573 19.9288 14.6011 20.2696 13.479L22.155 7.08823C22.4274 6.12628 21.7238 5.16434 20.7238 5.16434H8.61617C7.7981 5.16434 7.02619 5.48469 6.45834 6.05738L5.54978 2.80471C5.23215 1.65933 4.16387 0.834284 2.96085 0.834284H1.28038C0.961861 0.811913 0.689453 1.08663 0.689453 1.43025C0.689453 1.77387 0.961839 2.02622 1.28038 2.02622H2.96085C3.64227 2.02622 4.21011 2.4611 4.39201 3.1027L7.27645 13.4345C7.36695 13.7325 7.50359 14.0305 7.68548 14.2596C6.8 14.5576 6.186 15.405 6.186 16.3902C6.186 17.6268 7.18505 18.6577 8.43432 18.6577L8.75284 18.6568C8.70759 18.817 8.68452 18.9771 8.68452 19.1382C8.68452 20.0778 9.43426 20.833 10.365 20.833C11.2966 20.833 12.0455 20.0769 12.0455 19.1382C12.0455 18.978 12.0224 18.8179 11.9771 18.6568H19.0185C18.9732 18.817 18.9501 18.9771 18.9501 19.1382C18.9501 20.0778 19.6999 20.833 20.6306 20.833C21.5622 20.833 22.3111 20.0769 22.3111 19.1382C22.2676 18.2219 21.5179 17.4658 20.5871 17.4658L20.5871 17.4655Z" fill="white"/>
</svg>
