<svg width="40" height="40" viewBox="0 0 40 40" fill="none" xmlns="http://www.w3.org/2000/svg">
<path fill-rule="evenodd" clip-rule="evenodd" d="M4.375 11.25C4.375 5.72688 8.85188 1.25 14.375 1.25H23.5219C24.7885 1.25 26.0079 1.7307 26.9338 2.595L34.0363 9.22437C34.5375 9.69213 34.9372 10.258 35.2105 10.8867C35.4838 11.5155 35.6249 12.1938 35.625 12.8794V28.75C35.625 34.2731 31.1481 38.75 25.625 38.75H14.375C8.85188 38.75 4.375 34.2731 4.375 28.75V11.25ZM14.375 3.75C10.2331 3.75 6.875 7.10813 6.875 11.25V28.75C6.875 32.8919 10.2331 36.25 14.375 36.25H25.625C29.7669 36.25 33.125 32.8919 33.125 28.75V12.5H28.125C26.7989 12.5 25.5271 11.9732 24.5895 11.0355C23.6518 10.0979 23.125 8.82608 23.125 7.5V3.75H14.375ZM25.625 4.79375V7.5C25.625 8.16304 25.8884 8.79893 26.3572 9.26777C26.8261 9.73661 27.462 10 28.125 10H31.2037L25.625 4.79375Z" fill="#237BAB"/>
<path d="M14.7412 16.616C14.9756 16.3816 15.2935 16.25 15.625 16.25C15.9564 16.25 16.2743 16.3816 16.5087 16.616L20 20.1072L23.4912 16.616C23.6065 16.4966 23.7445 16.4014 23.897 16.3359C24.0495 16.2703 24.2135 16.2359 24.3795 16.2344C24.5455 16.233 24.7101 16.2646 24.8637 16.3275C25.0173 16.3903 25.1569 16.4831 25.2742 16.6005C25.3916 16.7179 25.4844 16.8574 25.5473 17.011C25.6101 17.1647 25.6417 17.3293 25.6403 17.4952C25.6389 17.6612 25.6044 17.8252 25.5389 17.9777C25.4733 18.1302 25.3781 18.2682 25.2587 18.3835L21.7675 21.8747L25.2587 25.366C25.3781 25.4813 25.4733 25.6192 25.5389 25.7717C25.6044 25.9242 25.6389 26.0883 25.6403 26.2542C25.6417 26.4202 25.6101 26.5848 25.5473 26.7384C25.4844 26.892 25.3916 27.0316 25.2742 27.149C25.1569 27.2663 25.0173 27.3592 24.8637 27.422C24.7101 27.4849 24.5455 27.5165 24.3795 27.515C24.2135 27.5136 24.0495 27.4791 23.897 27.4136C23.7445 27.3481 23.6065 27.2529 23.4912 27.1335L20 23.6422L16.5087 27.1335C16.3934 27.2529 16.2555 27.3481 16.103 27.4136C15.9505 27.4791 15.7865 27.5136 15.6205 27.515C15.4545 27.5165 15.2899 27.4849 15.1363 27.422C14.9827 27.3592 14.8431 27.2663 14.7257 27.149C14.6084 27.0316 14.5156 26.892 14.4527 26.7384C14.3899 26.5848 14.3582 26.4202 14.3597 26.2542C14.3611 26.0883 14.3956 25.9242 14.4611 25.7717C14.5266 25.6192 14.6218 25.4813 14.7412 25.366L18.2325 21.8747L14.7412 18.3835C14.5069 18.1491 14.3752 17.8312 14.3752 17.4997C14.3752 17.1683 14.5069 16.8504 14.7412 16.616Z" fill="#F7A434"/>
</svg>
