<svg width="32" height="32" viewBox="0 0 32 32" fill="none" xmlns="http://www.w3.org/2000/svg">
<g clip-path="url(#clip0_514_2217)">
<path d="M22.36 23C22.003 21.554 20.867 20 18.5 20C16.592 20 15.801 21.571 15.287 23H11.716C12.152 22.116 13.142 22.006 13.506 22C13.7712 21.9992 14.0253 21.8931 14.2122 21.705C14.3992 21.5169 14.5038 21.2622 14.503 20.997C14.5022 20.7318 14.3961 20.4777 14.208 20.2908C14.0199 20.1038 13.7652 19.9992 13.5 20C12.09 20 10.079 20.82 9.604 23H9C8.73478 23 8.48043 23.1054 8.29289 23.2929C8.10536 23.4804 8 23.7348 8 24C8 24.2652 8.10536 24.5196 8.29289 24.7071C8.48043 24.8946 8.73478 25 9 25H9.604C10.079 27.18 12.09 28 13.5 28C15.408 28 16.199 26.429 16.713 25H20.27C20.029 25.505 19.538 26 18.5 26C18.2348 26 17.9804 26.1054 17.7929 26.2929C17.6054 26.4804 17.5 26.7348 17.5 27C17.5 27.2652 17.6054 27.5196 17.7929 27.7071C17.9804 27.8946 18.2348 28 18.5 28C20.867 28 22.004 26.446 22.36 25H23C23.2652 25 23.5196 24.8946 23.7071 24.7071C23.8946 24.5196 24 24.2652 24 24C24 23.7348 23.8946 23.4804 23.7071 23.2929C23.5196 23.1054 23.2652 23 23 23H22.36ZM13.5 26C13.24 26 12.178 25.929 11.719 25H14.561C14.261 25.67 13.963 26 13.5 26ZM17.438 23C17.738 22.33 18.037 22 18.5 22C19.531 22 20.023 22.49 20.266 23H17.438ZM28 26V13C28 10.799 26.206 10 25 10H7C4.799 10 4 11.794 4 13V26H0V32H32V26H28ZM4 30H2V28H4V30ZM6 13.012C6.012 12.55 6.195 12 7 12H7.816C7.66679 12.4184 7.42645 12.7983 7.11238 13.1124C6.79831 13.4264 6.41835 13.6668 6 13.816V13.012ZM26 30H6V15.899C6.95971 15.701 7.8404 15.2262 8.53331 14.5333C9.22622 13.8404 9.701 12.9597 9.899 12H22.101C22.299 12.9597 22.7738 13.8404 23.4667 14.5333C24.1596 15.2262 25.0403 15.701 26 15.899V30ZM26 13.816C25.5816 13.6668 25.2017 13.4264 24.8876 13.1124C24.5736 12.7983 24.3332 12.4184 24.184 12H24.988C25.45 12.012 26 12.195 26 13V13.816ZM30 30H28V28H30V30Z" fill="#237BAB"/>
<path d="M20.7069 3.293C20.7998 3.38579 20.8735 3.49599 20.9238 3.61731C20.9742 3.73862 21.0001 3.86867 21.0001 4C21.0001 4.13133 20.9742 4.26138 20.9238 4.38269C20.8735 4.50401 20.7998 4.61421 20.7069 4.707L16.7069 8.707C16.6142 8.80019 16.504 8.87414 16.3827 8.9246C16.2614 8.97506 16.1313 9.00103 15.9998 9.00103C15.8684 9.00103 15.7383 8.97506 15.617 8.9246C15.4957 8.87414 15.3855 8.80019 15.2929 8.707L11.2929 4.707C11.2 4.61416 11.1264 4.50393 11.0761 4.38262C11.0259 4.26132 11 4.1313 11 4C11 3.8687 11.0259 3.73868 11.0761 3.61738C11.1264 3.49607 11.2 3.38584 11.2929 3.293C11.4804 3.10549 11.7347 3.00015 11.9998 3.00015C12.1312 3.00015 12.2612 3.02601 12.3825 3.07626C12.5038 3.12651 12.614 3.20015 12.7068 3.293L14.9998 5.586V1C14.9998 0.734783 15.1052 0.480428 15.2927 0.292892C15.4803 0.105355 15.7346 0 15.9998 0C16.2651 0 16.5194 0.105355 16.707 0.292892C16.8945 0.480428 16.9998 0.734783 16.9998 1V5.586L19.2928 3.293C19.3856 3.20005 19.4958 3.12632 19.6172 3.07601C19.7385 3.0257 19.8685 2.9998 19.9998 2.9998C20.1312 2.9998 20.2612 3.0257 20.3825 3.07601C20.5039 3.12632 20.6141 3.20005 20.7069 3.293Z" fill="#F7A434"/>
</g>
<defs>
<clipPath id="clip0_514_2217">
<rect width="32" height="32" fill="white"/>
</clipPath>
</defs>
</svg>
