<svg width="40" height="40" viewBox="0 0 40 40" fill="none" xmlns="http://www.w3.org/2000/svg">
<g clip-path="url(#clip0_553_2466)">
<path d="M38.5149 36.316L33.5392 27.6978L37.6023 26.2337C37.8622 26.14 38.0359 25.8939 38.0371 25.6176C38.0383 25.3414 37.8667 25.0937 37.6076 24.9978L26.0977 20.7374C25.914 20.6695 25.7099 20.6868 25.5403 20.7847C25.3709 20.8826 25.2538 21.0508 25.2209 21.2438L23.1578 33.3406C23.1115 33.612 23.2391 33.8836 23.4778 34.0211C23.7162 34.1588 24.0153 34.1331 24.227 33.957L27.7251 31.0477L32.7038 39.6711C32.791 39.8223 32.9347 39.9325 33.1033 39.9777C33.1593 39.9927 33.2165 40.0001 33.2735 40.0001C33.388 40.0001 33.5016 39.9702 33.6025 39.9119L38.2742 37.2147C38.5888 37.0329 38.6965 36.6306 38.5149 36.316ZM33.5143 38.4434L28.4742 29.7138C28.3772 29.5458 28.2111 29.4292 28.0202 29.3951C27.9817 29.3882 27.943 29.3849 27.9045 29.3849C27.7521 29.3849 27.603 29.4379 27.4838 29.537L24.7541 31.8074L26.3846 22.2466L35.4617 25.6066L32.3532 26.7266C32.1699 26.7927 32.0254 26.9366 31.9583 27.1196C31.8914 27.3025 31.9091 27.5058 32.0064 27.6746L37.0465 36.4042L33.5143 38.4434Z" fill="#F7A434"/>
<path d="M22.5446 19.9583L18.8302 18.963C18.4792 18.8689 18.1186 19.0773 18.0246 19.4282C17.9305 19.7791 18.1388 20.1398 18.4897 20.2339L22.2042 21.2292C22.2613 21.2444 22.3185 21.2518 22.3748 21.2518C22.6653 21.2518 22.9311 21.058 23.0099 20.764C23.1039 20.4131 22.8956 20.0524 22.5446 19.9583Z" fill="#F7A434"/>
<path d="M28.097 13.6127C27.7458 13.5186 27.3854 13.7269 27.2913 14.0779L26.296 17.7922C26.2019 18.1431 26.4102 18.5039 26.7612 18.5979C26.8183 18.6132 26.8755 18.6205 26.9318 18.6205C27.2223 18.6205 27.4881 18.4267 27.5669 18.1327L28.5621 14.4183C28.6562 14.0674 28.4479 13.7068 28.097 13.6127Z" fill="#F7A434"/>
<path d="M24.5204 17.7332L23.0402 15.1694C22.8584 14.8548 22.4563 14.7469 22.1415 14.9286C21.8269 15.1103 21.7191 15.5125 21.9008 15.8272L23.381 18.391C23.5028 18.602 23.7239 18.72 23.9513 18.72C24.0629 18.72 24.1759 18.6916 24.2796 18.6317C24.5942 18.45 24.7021 18.0478 24.5204 17.7332Z" fill="#F7A434"/>
<path fill-rule="evenodd" clip-rule="evenodd" d="M37.1111 8.8889H2.22221V5.55556C2.22221 4.94223 2.72221 4.44444 3.33333 4.44444H9.66667V5.55556C9.66667 6.1689 10.1645 6.66667 10.7778 6.66667C11.3911 6.66667 11.8889 6.1689 11.8889 5.55556V4.44444H30.4444V5.55556C30.4444 6.1689 30.9422 6.66667 31.5556 6.66667C32.1689 6.66667 32.6667 6.1689 32.6667 5.55556V4.44444H36C36.6111 4.44444 37.1111 4.94223 37.1111 5.55556V8.8889ZM36 2.22223H32.6667V1.1111C32.6667 0.497771 32.1689 0 31.5556 0C30.9422 0 30.4444 0.497771 30.4444 1.1111V2.22223H11.8889V1.1111C11.8889 0.497771 11.3911 0 10.7778 0C10.1645 0 9.66667 0.497771 9.66667 1.1111V2.22223H3.33333C1.49556 2.22223 0 3.71777 0 5.55556V37.7778H18.5555V35.5556H2.22221V11.1111H37.1111V17.7778H39.3333V5.55556C39.3333 3.71777 37.8378 2.22223 36 2.22223Z" fill="#237BAB"/>
</g>
<defs>
<clipPath id="clip0_553_2466">
<rect width="40" height="40" fill="white"/>
</clipPath>
</defs>
</svg>
