<svg width="40" height="40" viewBox="0 0 40 40" fill="none" xmlns="http://www.w3.org/2000/svg">
<path d="M25.9999 16.5854V18.1049C23.7799 18.4871 21.7837 19.6876 20.4055 21.4695C19.0273 23.2515 18.3672 25.4854 18.5556 27.7303C18.744 29.9751 19.7671 32.0678 21.423 33.5951C23.0789 35.1225 25.2472 35.9736 27.4999 35.9803C29.6269 35.9801 31.685 35.2268 33.3096 33.8539C34.9342 32.4811 36.0203 30.5775 36.3754 28.4804H37.8934C37.5067 31.1017 36.1435 33.48 34.0771 35.1386C32.0106 36.7971 29.3937 37.6133 26.7508 37.4236C24.1079 37.2338 21.6344 36.0522 19.8261 34.1154C18.0177 32.1787 17.0083 29.6301 17 26.9804C17 24.4552 17.9097 22.0146 19.5626 20.1055C21.2154 18.1965 23.5008 16.9468 25.9999 16.5854Z" fill="#F7A434"/>
<path d="M29 17.2603V25.4802H37.2199C37.0426 23.3595 36.1196 21.3702 34.6148 19.8654C33.11 18.3606 31.1207 17.4376 29 17.2603ZM27.5 16.4803V15.7573C29.0014 15.6498 30.5084 15.8664 31.9188 16.3924C33.3292 16.9184 34.61 17.7414 35.6744 18.8058C36.7388 19.8702 37.5619 21.151 38.0878 22.5614C38.6138 23.9718 38.8304 25.4788 38.7229 26.9802H27.5V16.4803Z" fill="#F7A434"/>
<path fill-rule="evenodd" clip-rule="evenodd" d="M37.1111 8.8889H2.22221V5.55556C2.22221 4.94223 2.72221 4.44444 3.33333 4.44444H9.66667V5.55556C9.66667 6.1689 10.1645 6.66667 10.7778 6.66667C11.3911 6.66667 11.8889 6.1689 11.8889 5.55556V4.44444H30.4444V5.55556C30.4444 6.1689 30.9422 6.66667 31.5556 6.66667C32.1689 6.66667 32.6667 6.1689 32.6667 5.55556V4.44444H36C36.6111 4.44444 37.1111 4.94223 37.1111 5.55556V8.8889ZM36 2.22223H32.6667V1.1111C32.6667 0.497771 32.1689 0 31.5556 0C30.9422 0 30.4444 0.497771 30.4444 1.1111V2.22223H11.8889V1.1111C11.8889 0.497771 11.3911 0 10.7778 0C10.1645 0 9.66667 0.497771 9.66667 1.1111V2.22223H3.33333C1.49556 2.22223 0 3.71777 0 5.55556V37.7778H18.5555V35.5556H2.22221V11.1111H37.1111V17.7778H39.3333V5.55556C39.3333 3.71777 37.8378 2.22223 36 2.22223Z" fill="#237BAB"/>
</svg>
