<svg width="40" height="40" viewBox="0 0 40 40" fill="none" xmlns="http://www.w3.org/2000/svg">
<path d="M32.8572 37.1431H25.7143C24.8572 37.1431 24.2858 36.5717 24.2858 35.7146V28.5717C24.2858 27.7146 24.8572 27.1431 25.7143 27.1431C26.5715 27.1431 27.1429 27.7146 27.1429 28.5717V32.4289C31.5715 29.8574 34.2858 25.286 34.2858 20.0003C34.2858 12.1431 27.8572 5.71457 20 5.71457C19.1429 5.71457 18.5715 5.14314 18.5715 4.28599C18.5715 3.42885 19.1429 2.85742 20 2.85742C29.4286 2.85742 37.1429 10.5717 37.1429 20.0003C37.1429 25.8574 34.2858 31.1431 29.4286 34.286H32.8572C33.7143 34.286 34.2858 34.8574 34.2858 35.7146C34.2858 36.5717 33.7143 37.1431 32.8572 37.1431ZM20 37.1431C10.5715 37.1431 2.85718 29.4289 2.85718 20.0003C2.85718 14.1431 5.85718 8.85742 10.5715 5.71457H7.14289C6.28575 5.71457 5.71432 5.14314 5.71432 4.28599C5.71432 3.42885 6.28575 2.85742 7.14289 2.85742H14.2858C15.1429 2.85742 15.7143 3.42885 15.7143 4.28599V11.4289C15.7143 12.286 15.1429 12.8574 14.2858 12.8574C13.4286 12.8574 12.8572 12.286 12.8572 11.4289V7.57171C8.42861 10.1431 5.71432 14.8574 5.71432 20.0003C5.71432 27.8574 12.1429 34.286 20 34.286C20.8572 34.286 21.4286 34.8574 21.4286 35.7146C21.4286 36.5717 20.8572 37.1431 20 37.1431Z" fill="#237BAB"/>
<path d="M17.143 26.4294C16.7144 26.4294 16.4287 26.2866 16.143 26.0008L11.8573 21.7151C11.2859 21.1437 11.2859 20.2866 11.8573 19.7151C12.4287 19.1437 13.2859 19.1437 13.8573 19.7151L17.143 23.0008L26.143 14.0008C26.7144 13.4294 27.5716 13.4294 28.143 14.0008C28.7144 14.5723 28.7144 15.4294 28.143 16.0008L18.143 26.0008C17.8573 26.2866 17.5716 26.4294 17.143 26.4294Z" fill="#F7A434"/>
</svg>
