<svg width="40" height="40" viewBox="0 0 40 40" fill="none" xmlns="http://www.w3.org/2000/svg">
<g clip-path="url(#clip0_553_2459)">
<path d="M34.5649 22.4824C30.5526 22.4824 29.1289 25.0904 29.1289 27.3238V35.1386C29.1289 37.3719 30.5526 39.98 34.5649 39.98C38.5772 39.98 40.0009 37.3719 40.0009 35.1386V27.3238C40.0009 25.0904 38.5772 22.4824 34.5649 22.4824ZM39.2357 35.1386C39.2357 35.6084 39.1454 36.807 38.3092 37.788C37.502 38.7348 36.2423 39.2149 34.5649 39.2149C32.8875 39.2149 31.6277 38.7348 30.8206 37.788C29.9843 36.807 29.8941 35.6084 29.8941 35.1386V27.3238C29.8941 26.8541 29.9844 25.6555 30.8206 24.6745C31.6277 23.7277 32.8875 23.2476 34.5649 23.2476C36.2423 23.2476 37.502 23.7277 38.3092 24.6745C39.1454 25.6555 39.2357 26.8541 39.2357 27.3238V35.1386Z" fill="#F7A434"/>
<path d="M34.9464 30.8487V29.5186C35.515 29.3526 35.9317 28.827 35.9317 28.2055V26.3895C35.9317 25.768 35.515 25.2424 34.9464 25.0764V24.3955C34.9464 24.1842 34.7751 24.0129 34.5638 24.0129C34.3525 24.0129 34.1812 24.1842 34.1812 24.3955V25.0764C33.6126 25.2424 33.1959 25.768 33.1959 26.3895V28.2055C33.1959 28.827 33.6126 29.3526 34.1812 29.5186V30.8487H31.0408C30.8295 30.8487 30.6582 31.02 30.6582 31.2313C30.6582 31.4427 30.8295 31.6139 31.0408 31.6139H38.0868C38.2981 31.6139 38.4694 31.4427 38.4694 31.2313C38.4694 31.02 38.2981 30.8487 38.0868 30.8487H34.9464ZM33.961 28.2055V26.3895C33.961 26.0571 34.2314 25.7868 34.5637 25.7868C34.8961 25.7868 35.1665 26.0572 35.1665 26.3895V28.2055C35.1665 28.5378 34.8961 28.8082 34.5637 28.8082C34.2314 28.8082 33.961 28.5378 33.961 28.2055Z" fill="#F7A434"/>
<path d="M31.2721 16.7689C32.8763 16.7689 34.1814 18.074 34.1814 19.6782V21.3346C34.1814 21.546 34.3527 21.7172 34.564 21.7172C34.7753 21.7172 34.9466 21.546 34.9466 21.3346V19.6782C34.9466 17.6521 33.2982 16.0037 31.2721 16.0037C29.246 16.0037 27.5976 17.6433 27.5976 19.6587V29.8463C27.5976 31.4397 26.2926 32.736 24.6883 32.736C23.0841 32.736 21.779 31.4309 21.779 29.8268V26.7828C24.5768 26.5859 26.7929 24.2471 26.7929 21.4001C26.7929 18.4245 24.3721 16.0037 21.3964 16.0037C18.4208 16.0037 16 18.4246 16 21.4002C16 24.2472 18.2161 26.586 21.0138 26.7829V29.8269C21.0138 31.853 22.6622 33.5013 24.6883 33.5013C26.7144 33.5013 28.3628 31.8617 28.3628 29.8464V19.6587C28.3628 18.0653 29.6679 16.7689 31.2721 16.7689ZM16.7652 21.4002C16.7652 18.8465 18.8428 16.769 21.3964 16.769C23.9501 16.769 26.0277 18.8465 26.0277 21.4002C26.0277 23.9539 23.9501 26.0315 21.3964 26.0315C18.8428 26.0315 16.7652 23.9539 16.7652 21.4002Z" fill="#F7A434"/>
<path d="M21.395 22.4971C21.2362 22.4971 21.107 22.3679 21.107 22.2091C21.107 21.9977 20.9357 21.8265 20.7244 21.8265C20.5131 21.8265 20.3418 21.9977 20.3418 22.2091C20.3418 22.6548 20.6205 23.0357 21.0124 23.1893V23.3533C21.0124 23.5646 21.1836 23.7359 21.395 23.736C21.6063 23.736 21.7776 23.5647 21.7776 23.3534V23.1893C22.1696 23.0358 22.4483 22.6548 22.4483 22.2091C22.4483 21.4713 21.8475 21.1894 21.5588 21.0539C21.206 20.8884 21.1094 20.7891 21.1094 20.5916C21.1094 20.4328 21.2387 20.3036 21.3975 20.3036C21.5563 20.3036 21.6855 20.4328 21.6855 20.5916C21.6855 20.8029 21.8568 20.9742 22.0681 20.9742C22.2794 20.9742 22.4507 20.8029 22.4507 20.5916C22.4507 20.1459 22.172 19.7649 21.7801 19.6114V19.4473C21.7801 19.236 21.6088 19.0647 21.3975 19.0647C21.1862 19.0647 21.0149 19.2359 21.0149 19.4472V19.6114C20.6229 19.7649 20.3442 20.1459 20.3442 20.5916C20.3442 21.3294 20.945 21.6113 21.2337 21.7468C21.5865 21.9123 21.683 22.0116 21.683 22.2091C21.683 22.3678 21.5538 22.4971 21.395 22.4971Z" fill="#F7A434"/>
<path d="M25.2617 21.4002C25.2617 19.2685 23.5274 17.5342 21.3957 17.5342C20.5138 17.5342 19.6507 17.8403 18.9653 18.3961C18.2904 18.9433 17.8143 19.7086 17.6247 20.551C17.5782 20.7571 17.7078 20.9619 17.9139 21.0082C18.1201 21.0548 18.3248 20.9252 18.3712 20.719C18.6868 19.317 19.9588 18.2993 21.3957 18.2993C23.1055 18.2993 24.4965 19.6904 24.4965 21.4002C24.4965 23.1099 23.1055 24.501 21.3957 24.501C19.9588 24.501 18.6868 23.4834 18.3712 22.0813C18.3248 21.8752 18.12 21.7455 17.9139 21.7921C17.7078 21.8385 17.5782 22.0433 17.6247 22.2494C17.8143 23.0917 18.2904 23.857 18.9652 24.4043C19.6506 24.9601 20.5138 25.2662 21.3956 25.2662C23.5274 25.2663 25.2617 23.532 25.2617 21.4002Z" fill="#F7A434"/>
<path fill-rule="evenodd" clip-rule="evenodd" d="M37.1111 8.8889H2.22221V5.55556C2.22221 4.94223 2.72221 4.44444 3.33333 4.44444H9.66667V5.55556C9.66667 6.1689 10.1645 6.66667 10.7778 6.66667C11.3911 6.66667 11.8889 6.1689 11.8889 5.55556V4.44444H30.4444V5.55556C30.4444 6.1689 30.9422 6.66667 31.5556 6.66667C32.1689 6.66667 32.6667 6.1689 32.6667 5.55556V4.44444H36C36.6111 4.44444 37.1111 4.94223 37.1111 5.55556V8.8889ZM36 2.22223H32.6667V1.1111C32.6667 0.497771 32.1689 0 31.5556 0C30.9422 0 30.4444 0.497771 30.4444 1.1111V2.22223H11.8889V1.1111C11.8889 0.497771 11.3911 0 10.7778 0C10.1645 0 9.66667 0.497771 9.66667 1.1111V2.22223H3.33333C1.49556 2.22223 0 3.71777 0 5.55556V37.7778H18.5555V35.5556H2.22221V11.1111H37.1111V17.7778H39.3333V5.55556C39.3333 3.71777 37.8378 2.22223 36 2.22223Z" fill="#237BAB"/>
</g>
<defs>
<clipPath id="clip0_553_2459">
<rect width="40" height="40" fill="white"/>
</clipPath>
</defs>
</svg>
