<svg width="40" height="40" viewBox="0 0 40 40" fill="none" xmlns="http://www.w3.org/2000/svg">
<path fill-rule="evenodd" clip-rule="evenodd" d="M19.833 0C14.9547 0 11 3.95467 11 8.83301C11 13.7113 14.9547 17.666 19.833 17.666C24.7113 17.666 28.666 13.7113 28.666 8.83301C28.666 3.95467 24.7113 0 19.833 0ZM12 8.83301C12 4.50693 15.5069 0.999963 19.833 0.999963C24.159 0.999963 27.6661 4.50694 27.6661 8.83301C27.6661 13.159 24.159 16.6661 19.833 16.6661C15.5069 16.6661 12 13.159 12 8.83301ZM19.8319 3.33316C20.1081 3.33316 20.3319 3.55701 20.3319 3.83315V4.44982H20.7672C22.091 4.44982 23.1171 5.5635 23.1171 6.89139C23.1171 7.16753 22.8933 7.39137 22.6172 7.39137C22.341 7.39137 22.1172 7.16753 22.1172 6.89139C22.1172 6.06937 21.4934 5.44978 20.7672 5.44978H20.3319V8.47521L21.6842 8.945C22.0495 9.07445 22.4292 9.2631 22.7075 9.61821C22.9905 9.97923 23.1171 10.4447 23.1171 11.0245C23.1171 12.2124 22.1894 13.2161 21.0006 13.2161H20.3319V13.8328C20.3319 14.1089 20.1081 14.3328 19.8319 14.3328C19.5558 14.3328 19.3319 14.1089 19.3319 13.8328V13.2161H18.909C17.5852 13.2161 16.559 12.1024 16.559 10.7746C16.559 10.4984 16.7829 10.2746 17.059 10.2746C17.3351 10.2746 17.559 10.4984 17.559 10.7746C17.559 11.5966 18.1828 12.2162 18.909 12.2162H19.3319V9.18642L17.9919 8.72091C17.6267 8.59146 17.247 8.40281 16.9686 8.04771C16.6856 7.68669 16.559 7.22125 16.559 6.6414C16.559 5.45352 17.4868 4.44982 18.6756 4.44982H19.3319V3.83315C19.3319 3.55701 19.5558 3.33316 19.8319 3.33316ZM18.6756 5.44978H19.3319V8.12783L18.3246 7.77788C18.0324 7.67416 17.8625 7.56711 17.7556 7.43079C17.6532 7.30017 17.559 7.07815 17.559 6.6414C17.559 5.96269 18.0812 5.44978 18.6756 5.44978ZM20.3319 12.2162V9.5338L21.3516 9.88803C21.6438 9.99174 21.8137 10.0988 21.9206 10.2351C22.023 10.3658 22.1172 10.5878 22.1172 11.0245C22.1172 11.7033 21.595 12.2162 21.0006 12.2162H20.3319Z" fill="#F7A434"/>
<path fill-rule="evenodd" clip-rule="evenodd" d="M11.9993 14H7.46064C6.10381 14 5 15.0948 5 16.4406V17.1628C5 18.5086 6.10381 19.6034 7.46064 19.6034H8.61708C9.18021 20.3433 10.6308 22.1797 12.0973 24.0364C13.6131 25.9554 15.1459 27.896 15.7338 28.6699V39.2529C15.7338 39.5233 15.881 39.7726 16.1188 39.9047C16.2334 39.9683 16.3602 40 16.487 40C16.6235 40 16.7598 39.9633 16.8804 39.89L23.5843 35.8182C23.8078 35.6823 23.9441 35.441 23.9441 35.181V28.6699C24.5321 27.8958 26.0655 25.9544 27.5817 24.0349C29.0478 22.1787 30.4978 20.3431 31.0608 19.6034H31.5394C32.8962 19.6034 34 18.5086 34 17.1628V16.4405C34.0001 15.0948 32.8962 14 31.5394 14H28.0007C27.5923 14.5437 27.1298 15.0445 26.6211 15.4942H31.5394C32.0655 15.4942 32.4935 15.9187 32.4935 16.4406V17.1628C32.4936 17.6846 32.0655 18.1091 31.5394 18.1091H7.46064C6.93456 18.1091 6.50653 17.6846 6.50653 17.1628V16.4405C6.50653 15.9187 6.93462 15.4942 7.46064 15.4942H13.3789C12.8702 15.0445 12.4077 14.5437 11.9993 14ZM17.2403 37.9192L22.4377 34.7624V29.1666H17.2403V37.9192ZM16.8629 27.6724H22.8151C23.4994 26.7735 25.3032 24.4951 26.8421 22.5514C27.8785 21.2423 28.7948 20.085 29.1677 19.6034H10.5101C10.8825 20.0843 11.7964 21.2385 12.8308 22.545C14.3708 24.4901 16.1779 26.7725 16.8629 27.6724Z" fill="#237BAB"/>
</svg>
