<?xml version="1.0" encoding="utf-8"?>
<!-- Generator: Adobe Illustrator 24.3.0, SVG Export Plug-In . SVG Version: 6.00 Build 0)  -->
<svg version="1.1" id="Layer_1" xmlns="http://www.w3.org/2000/svg" xmlns:xlink="http://www.w3.org/1999/xlink" x="0px" y="0px"
	 viewBox="0 0 150 150" style="enable-background:new 0 0 150 150;" xml:space="preserve">
<path d="M123.8,80.4c14.6,5.7,23.2,20.1,21.3,35c-1.9,15-12.4,26.1-26.8,29c-13.8,2.7-31.1-4.2-37.5-21c-20.9,5.1-40,1.3-56.6-12.6
	C10.4,99.2,3.2,84.1,2.5,66.2C1.1,30.1,30.2,1.2,65.4,2c20,0.5,36.4,8.9,48.3,25C125.7,43,128.6,61,123.8,80.4z M26.1,99.6
	c0-2.7,0-5.1,0-7.6c0.2-12.7,10.6-23.2,23.4-23.3c9.7-0.1,19.3-0.1,29,0c8.5,0.1,15.1,3.9,19.8,10.9c0.2,0.4,0.5,0.7,0.6,0.9
	c2.7-0.7,5.1-1.5,7.6-1.9c2.5-0.4,5.1-0.4,7.7-0.6c6-18.7-0.3-45.4-23.5-59.2C67.9,5.2,38.7,10.9,22.5,32.1
	C6.4,53.2,9.3,81.9,26.1,99.6z M90.7,85.3c-2.8-4.6-6.9-7.1-12.4-7.1c-9.4-0.1-18.7,0-28.1,0c-8.4,0-14.6,6.2-14.6,14.6
	c0,4.5,0,9,0,13.5c0,1,0.3,1.6,1.2,2.1c12.5,7.5,25.9,9.6,40.1,6.2c1.3-0.3,1.6-0.9,1.6-2.1c-0.2-7.9,2.1-15.1,7-21.4
	C87,89.1,88.9,87.3,90.7,85.3z M111.8,87.7c-13.1,0-23.8,10.6-23.8,23.7c0,13.1,10.6,23.8,23.6,23.8c13.1,0.1,23.9-10.6,23.9-23.7
	C135.5,98.4,124.9,87.7,111.8,87.7z"/>
<path d="M64.2,21.1c10.5,0,19,8.5,19,19c0,10.5-8.6,19.1-19.1,19c-10.4,0-18.9-8.6-18.9-19.1C45.2,29.6,53.7,21.1,64.2,21.1z
	 M64.2,30.7c-5.2,0-9.5,4.2-9.5,9.4c-0.1,5.3,4.2,9.6,9.4,9.7c5.3,0,9.6-4.2,9.6-9.4C73.7,35,69.4,30.7,64.2,30.7z"/>
<path d="M111.7,118.1c-1.2,1.2-2.3,2.4-3.4,3.5c-2.1,2-5,2.1-6.9,0.2c-1.9-1.9-1.9-4.8,0.2-6.9c1.1-1.1,2.3-2.2,3.6-3.5
	c-1.1-1.1-2.1-2-3.1-3c-2-2.1-2.1-5-0.1-6.9c1.9-1.9,4.8-1.8,6.8,0.2c1,1,1.9,2,3.2,3.3c0.5-0.7,0.9-1.3,1.4-1.8
	c3.4-3.4,6-3.9,8.4-1.5c2.2,2.3,1.7,4.9-1.7,8.3c-0.5,0.4-1,0.8-1.8,1.4c1.2,1.1,2.2,2,3.1,2.9c2.1,2.2,2.2,5,0.2,7
	c-1.9,1.9-4.8,1.8-6.9-0.2C113.6,120.1,112.7,119.2,111.7,118.1z"/>
</svg>
