<?xml version="1.0" encoding="utf-8"?>
<!-- Generator: Adobe Illustrator 16.0.0, SVG Export Plug-In . SVG Version: 6.00 Build 0)  -->
<!DOCTYPE svg PUBLIC "-//W3C//DTD SVG 1.1//EN" "http://www.w3.org/Graphics/SVG/1.1/DTD/svg11.dtd">
<svg version="1.1" id="Layer_1" xmlns="http://www.w3.org/2000/svg" xmlns:xlink="http://www.w3.org/1999/xlink" x="0px" y="0px"
	 width="150px" height="150px" viewBox="0 0 150 150" enable-background="new 0 0 150 150" xml:space="preserve">
<path fill="#37bf8f" d="M100.861,85.097c7.206,0,14.209,0.001,21.211,0c3.904,0,5.513,1.588,5.518,5.451
	c0.003,1.532-0.054,3.066,0.015,4.594c0.08,1.803-0.604,3.196-1.865,4.453c-9.403,9.363-18.778,18.758-28.162,28.142
	c-5.873,5.873-11.771,11.721-17.603,17.636c-1.433,1.452-2.988,2.282-5.052,2.105c-0.784-0.067-1.577-0.025-2.365-0.01
	c-1.425,0.029-2.615-0.484-3.62-1.489c-15.582-15.588-31.167-31.173-46.756-46.754c-1.003-1.003-1.527-2.182-1.514-3.609
	c0.02-1.948-0.013-3.897,0.009-5.847c0.033-2.847,1.868-4.66,4.753-4.667c6.774-0.015,13.549-0.005,20.324-0.006c0.5,0,1,0,1.646,0
	c0-0.613,0-1.107,0-1.604c0-12.575,0-25.149,0.002-37.724c0-3.528,1.679-5.219,5.182-5.22c14.34-0.001,28.677-0.003,43.016-0.001
	c3.581,0,5.262,1.691,5.263,5.292c0.001,12.482-0.001,24.964-0.001,37.446C100.861,83.834,100.861,84.382,100.861,85.097z"/>
<path fill="#37bf8f" d="M127.59,22.783c-35.685,0-71.208,0-106.918,0c0,0.519,0,1.01,0,1.5c0,3.805,0.011,7.61-0.003,11.415
	c-0.011,3.039-1.816,4.833-4.862,4.847c-2.644,0.012-5.29,0.008-7.933,0.001c-3.23-0.009-5.017-1.771-5.02-4.972
	c-0.006-8.537-0.005-17.074,0-25.612C2.857,6.643,4.595,4.91,7.923,4.91c31.273-0.002,62.544-0.001,93.816-0.001
	c12.806,0,25.61-0.001,38.417,0c3.586,0,5.253,1.683,5.254,5.296c0.001,8.397,0.003,16.795-0.001,25.193
	c-0.002,3.424-1.712,5.14-5.123,5.147c-2.646,0.007-5.29,0.016-7.934-0.002c-2.921-0.022-4.749-1.872-4.76-4.812
	C127.581,31.466,127.59,27.201,127.59,22.783z"/>
</svg>
