<svg width="24" height="24" viewBox="0 0 24 24" fill="none" xmlns="http://www.w3.org/2000/svg">
<path fill-rule="evenodd" clip-rule="evenodd" d="M8.67577 5.1253C8.72756 5.63918 8.96831 6.11552 9.35134 6.46199C9.73438 6.80845 10.2324 7.00035 10.7489 7.00048H14.3267L14.6361 7.30989C14.8683 7.54208 15.1439 7.72626 15.4472 7.85192C15.7506 7.97758 16.0757 8.04226 16.404 8.04225H18.2557C18.6387 8.04225 19.0181 7.96679 19.372 7.82018C19.7259 7.67357 20.0475 7.45869 20.3184 7.18779L21.8779 5.62827C21.956 5.55014 21.9999 5.44416 22 5.33365V2.41671C22 2.30619 21.9561 2.2002 21.8779 2.12205C21.7998 2.0439 21.6938 2 21.5833 2H2.41475C2.30424 2 2.19825 2.0439 2.1201 2.12205C2.04195 2.2002 1.99805 2.30619 1.99805 2.41671V3.04177C1.99805 4.1925 2.93085 5.1253 4.08158 5.1253H8.67577ZM8.66536 4.29189C8.66536 4.18137 8.70926 4.07538 8.78741 3.99723C8.86555 3.91908 8.97154 3.87518 9.08206 3.87518H13.0408C13.1513 3.87518 13.2573 3.91908 13.3354 3.99723C13.4136 4.07538 13.4575 4.18137 13.4575 4.29189C13.4575 4.4024 13.4136 4.5084 13.3354 4.58654C13.2573 4.66469 13.1513 4.70859 13.0408 4.70859H9.49877V4.91695C9.49877 5.24844 9.63045 5.56639 9.86485 5.80099C10.0994 6.03537 10.4173 6.16704 10.7489 6.16707H14.4993C14.6098 6.16709 14.7157 6.21101 14.7939 6.28916L15.2254 6.72066C15.538 7.03321 15.962 7.20881 16.404 7.20884H18.2557C18.8084 7.20884 19.3383 6.98923 19.7291 6.59857L21.1666 5.16114V2.83341H2.83146V3.04177C2.83146 3.37332 2.96317 3.69129 3.19761 3.92574C3.43206 4.16018 3.75003 4.29189 4.08158 4.29189H8.66536ZM2.41475 18.4599H15.7494C15.8599 18.4599 15.9659 18.416 16.044 18.3379C16.1222 18.2597 16.1661 18.1537 16.1661 18.0432C16.1661 17.9327 16.1222 17.8267 16.044 17.7486C15.9659 17.6704 15.8599 17.6265 15.7494 17.6265H2.41475C2.30424 17.6265 2.19825 17.6704 2.1201 17.7486C2.04195 17.8267 1.99805 17.9327 1.99805 18.0432C1.99805 18.1537 2.04195 18.2597 2.1201 18.3379C2.19825 18.416 2.30424 18.4599 2.41475 18.4599Z" fill="#2B2B2B" stroke="#2B2B2B" stroke-width="0.25"/>
<path fill-rule="evenodd" clip-rule="evenodd" d="M2.41475 22.009H19.4997C19.8281 22.0091 20.1532 21.9445 20.4566 21.8188C20.76 21.6932 21.0357 21.5091 21.2679 21.2769C21.5 21.0447 21.6842 20.769 21.8098 20.4656C21.9354 20.1623 22.0001 19.8371 22 19.5087V16.5912C22 15.9281 21.7366 15.2921 21.2677 14.8232C20.7988 14.3543 20.1628 14.0909 19.4997 14.0909H15.1243C15.0154 14.0934 14.9118 14.1383 14.8357 14.2162C14.7596 14.2941 14.7169 14.3986 14.7169 14.5075C14.7169 14.6164 14.7596 14.721 14.8357 14.7989C14.9118 14.8767 15.0154 14.9217 15.1243 14.9241H19.4997C19.9418 14.9242 20.3657 15.0999 20.6782 15.4125C20.9908 15.725 21.1664 16.1489 21.1666 16.591V19.5087C21.1664 19.9508 20.9908 20.3747 20.6782 20.6873C20.3657 20.9999 19.9418 21.1756 19.4997 21.1758H2.41475C2.30424 21.1758 2.19825 21.2197 2.1201 21.2978C2.04195 21.376 1.99805 21.482 1.99805 21.5925C1.99805 21.703 2.04195 21.809 2.1201 21.8871C2.19825 21.9653 2.30424 22.009 2.41475 22.009ZM3.03981 13.877H2.41475C2.30424 13.877 2.19825 13.9209 2.1201 13.999C2.04195 14.0772 1.99805 14.1831 1.99805 14.2937C1.99805 14.4042 2.04195 14.5102 2.1201 14.5883C2.19825 14.6665 2.30424 14.7104 2.41475 14.7104H3.03981C3.15033 14.7104 3.25632 14.6665 3.33447 14.5883C3.41262 14.5102 3.45652 14.4042 3.45652 14.2937C3.45652 14.1831 3.41262 14.0772 3.33447 13.999C3.25632 13.9209 3.15033 13.877 3.03981 13.877Z" fill="#2B2B2B" stroke="#2B2B2B" stroke-width="0.25"/>
<path fill-rule="evenodd" clip-rule="evenodd" d="M8.66526 8.08886C7.82976 8.27867 7.20679 9.02583 7.20679 9.91758C7.20679 10.9525 8.04645 11.7928 9.08197 11.7928C9.65702 11.7928 10.1237 12.2595 10.1237 12.8345C10.1237 13.4096 9.65702 13.8763 9.08197 13.8763C8.50691 13.8763 8.0402 13.4096 8.0402 12.8345C8.0402 12.6045 7.85268 12.4178 7.62349 12.4178C7.39431 12.4178 7.20679 12.6045 7.20679 12.8345C7.20679 13.7263 7.82976 14.4734 8.66526 14.6632V15.1264C8.66526 15.3564 8.85278 15.5431 9.08197 15.5431C9.31116 15.5431 9.49867 15.3564 9.49867 15.1264V14.6632C10.3342 14.4734 10.9571 13.7263 10.9571 12.8345C10.9571 11.7996 10.1175 10.9593 9.08197 10.9593C8.50691 10.9593 8.0402 10.4926 8.0402 9.91758C8.0402 9.34252 8.50691 8.87581 9.08197 8.87581C9.65702 8.87581 10.1237 9.34252 10.1237 9.91758C10.1237 10.1476 10.3113 10.3343 10.5404 10.3343C10.7696 10.3343 10.9571 10.1476 10.9571 9.91758C10.9571 9.02583 10.3342 8.27867 9.49867 8.08886V7.62569C9.49867 7.39567 9.31116 7.20898 9.08197 7.20898C8.85278 7.20898 8.66526 7.39567 8.66526 7.62569V8.08886Z" fill="#2B2B2B" stroke="#2B2B2B" stroke-width="0.25"/>
<path fill-rule="evenodd" clip-rule="evenodd" d="M14.772 8.79683C15.1371 9.60481 15.3253 10.4815 15.3241 11.3681C15.3241 14.8185 12.5232 17.6196 9.07289 17.6196C5.62255 17.6196 2.82145 14.8185 2.82145 11.3681C2.82145 9.27646 3.85092 7.42399 5.43004 6.28846C5.47551 6.25694 5.51424 6.21668 5.54399 6.17003C5.57373 6.12338 5.59389 6.07127 5.60328 6.01674C5.61267 5.96222 5.61111 5.90637 5.59869 5.85245C5.58627 5.79854 5.56324 5.74763 5.53093 5.70271C5.49863 5.6578 5.45771 5.61976 5.41055 5.59082C5.36339 5.56189 5.31094 5.54263 5.25626 5.53419C5.20158 5.52574 5.14577 5.52826 5.09208 5.54161C5.03838 5.55496 4.98789 5.57887 4.94353 5.61194C3.15419 6.89831 1.98804 8.99789 1.98804 11.3681C1.98804 15.2783 5.16272 18.453 9.07289 18.453C12.9831 18.453 16.1577 15.2783 16.1577 11.3681C16.1591 10.363 15.9455 9.36915 15.5314 8.45326C15.5089 8.40339 15.4767 8.35846 15.4368 8.32102C15.3969 8.28358 15.3499 8.25438 15.2987 8.23507C15.2475 8.21576 15.193 8.20673 15.1383 8.20848C15.0836 8.21024 15.0298 8.22276 14.9799 8.24532C14.93 8.26788 14.8851 8.30004 14.8477 8.33996C14.8102 8.37989 14.781 8.4268 14.7617 8.47801C14.7424 8.52922 14.7334 8.58374 14.7351 8.63844C14.7369 8.69314 14.7494 8.74696 14.772 8.79683Z" fill="#2B2B2B" stroke="#2B2B2B" stroke-width="0.25"/>
</svg>
