<svg width="24" height="24" viewBox="0 0 24 24" fill="none" xmlns="http://www.w3.org/2000/svg">
<path fill-rule="evenodd" clip-rule="evenodd" d="M15.9989 10.6719C12.687 10.6719 9.9978 13.3614 9.9978 16.6733C9.9978 19.9852 12.687 22.6744 15.9989 22.6744C19.3108 22.6744 21.9999 19.9852 21.9999 16.6733C21.9999 13.3614 19.3108 10.6719 15.9989 10.6719ZM15.9989 12.0056C18.5754 12.0056 20.6665 14.0968 20.6665 16.6733C20.6665 19.2498 18.5754 21.3409 15.9989 21.3409C13.4224 21.3409 11.3312 19.2498 11.3312 16.6733C11.3312 14.0968 13.4224 12.0056 15.9989 12.0056Z" fill="#2B2B2B"/>
<path fill-rule="evenodd" clip-rule="evenodd" d="M18.3462 16.0083H16.6787V13.3408C16.6721 13.1684 16.5989 13.0053 16.4745 12.8856C16.3502 12.766 16.1844 12.6992 16.0119 12.6992C15.8393 12.6992 15.6735 12.766 15.5492 12.8856C15.4248 13.0053 15.3516 13.1684 15.345 13.3408V16.6753C15.345 16.8522 15.4152 17.0217 15.5402 17.1468C15.6653 17.2718 15.8349 17.342 16.0117 17.342H18.3458C18.7139 17.342 19.0126 17.0434 19.0129 16.6753C19.0129 16.3073 18.7139 16.0086 18.3462 16.0086V16.0083Z" fill="#2B2B2B"/>
<path fill-rule="evenodd" clip-rule="evenodd" d="M17.9366 9.49498V6.03941C17.9366 3.46157 15.8475 1.37109 13.2706 1.37109H6.60519C5.36777 1.37109 4.18103 1.86279 3.30597 2.73852C2.43091 3.61425 1.93921 4.80133 1.93921 6.03941V16.7101C1.93921 17.9482 2.43091 19.1356 3.30597 20.011C4.18103 20.8864 5.36777 21.3784 6.60519 21.3784H9.79207C9.96899 21.3784 10.1387 21.3082 10.2637 21.1831C10.3888 21.058 10.4591 20.8883 10.4591 20.7114C10.4591 20.5345 10.3888 20.3648 10.2637 20.2397C10.1387 20.1146 9.96899 20.0444 9.79207 20.0444H6.60519C5.72113 20.0441 4.87339 19.6927 4.24842 19.0674C3.62345 18.4421 3.27246 17.5942 3.27263 16.7101V6.03941C3.27246 5.15535 3.62345 4.30743 4.24842 3.68215C4.87339 3.05687 5.72113 2.70545 6.60519 2.70518H13.2706C15.1111 2.70518 16.6032 4.19795 16.6032 6.03941V9.49498C16.6087 9.66815 16.6813 9.8324 16.8058 9.95296C16.9302 10.0735 17.0967 10.1409 17.2699 10.1409C17.4432 10.1409 17.6096 10.0735 17.7341 9.95296C17.8585 9.8324 17.9311 9.66815 17.9366 9.49498Z" fill="#2B2B2B"/>
<path fill-rule="evenodd" clip-rule="evenodd" d="M6.25607 12.0022H10.8897C11.0665 12.0022 11.2361 11.932 11.3612 11.8069C11.4862 11.6819 11.5564 11.5123 11.5564 11.3355C11.5564 11.1587 11.4862 10.9891 11.3612 10.8641C11.2361 10.739 11.0665 10.6688 10.8897 10.6688H6.25607C6.07924 10.6688 5.90966 10.739 5.78463 10.8641C5.6596 10.9891 5.58936 11.1587 5.58936 11.3355C5.58936 11.5123 5.6596 11.6819 5.78463 11.8069C5.90966 11.932 6.07924 12.0022 6.25607 12.0022ZM6.32941 9.33538H13.6632C13.8364 9.3299 14.0007 9.25726 14.1212 9.13282C14.2418 9.00839 14.3092 8.84193 14.3092 8.66866C14.3092 8.4954 14.2418 8.32894 14.1212 8.20451C14.0007 8.08007 13.8364 8.00743 13.6632 8.00195H6.32941C6.15623 8.00743 5.99198 8.08007 5.87142 8.20451C5.75086 8.32894 5.68345 8.4954 5.68345 8.66866C5.68345 8.84193 5.75086 9.00839 5.87142 9.13282C5.99198 9.25726 6.15623 9.3299 6.32941 9.33538ZM6.30607 14.6691H9.1396C9.31642 14.6691 9.486 14.5988 9.61103 14.4738C9.73607 14.3488 9.80631 14.1792 9.80631 14.0024C9.80631 13.8255 9.73607 13.656 9.61103 13.5309C9.486 13.4059 9.31642 13.3356 9.1396 13.3356H6.30607C6.12925 13.3356 5.95967 13.4059 5.83463 13.5309C5.7096 13.656 5.63936 13.8255 5.63936 14.0024C5.63936 14.1792 5.7096 14.3488 5.83463 14.4738C5.95967 14.5988 6.12925 14.6691 6.30607 14.6691Z" fill="#2B2B2B"/>
</svg>
