<svg width="40" height="40" viewBox="0 0 40 40" fill="none" xmlns="http://www.w3.org/2000/svg">
<path d="M27.5159 22.9289C26.9795 22.9418 26.5846 22.3512 26.8016 21.8602C27.0569 21.2292 27.9755 21.2286 28.2303 21.8602C28.4477 22.3511 28.0525 22.942 27.5159 22.9289Z" fill="#237BAB"/>
<path d="M16.6165 14.9374H21.0726C17.952 14.9374 15.413 12.3986 15.413 9.27792C15.413 7.76216 16.0039 6.32754 17.0769 5.23808C18.1511 4.1475 19.5702 3.54683 21.0726 3.54683C22.5751 3.54683 23.9942 4.1475 25.0684 5.23808C26.1413 6.32754 26.7322 7.76216 26.7322 9.27792C26.7322 12.3986 24.1934 14.9374 21.0726 14.9374H25.5288C27.2026 13.6166 28.279 11.5707 28.279 9.27792C28.279 7.35352 27.5302 5.53332 26.1703 4.1527C24.8032 2.76449 22.9928 2 21.0726 2C19.1524 2 17.342 2.76449 15.9748 4.1527C14.6151 5.53332 13.8662 7.35345 13.8662 9.27792C13.8663 11.5707 14.9426 13.6166 16.6165 14.9374Z" fill="#F7A434"/>
<path d="M21.0727 12.1948C19.4638 12.1948 18.1549 10.886 18.1549 9.27712C18.1549 7.66828 19.4638 6.35938 21.0727 6.35938C22.6815 6.35938 23.9904 7.66828 23.9904 9.27712C23.9904 10.886 22.6816 12.1948 21.0727 12.1948ZM21.0727 7.90621C20.3167 7.90621 19.7017 8.52121 19.7017 9.27712C19.7017 10.033 20.3167 10.648 21.0727 10.648C21.8286 10.648 22.4436 10.033 22.4436 9.27712C22.4436 8.52121 21.8286 7.90621 21.0727 7.90621Z" fill="#F7A434"/>
<path d="M35.0822 21.3688H34.2939C33.9421 20.0227 33.362 18.7782 32.5633 17.656L35.6012 14.0643C35.7265 13.9162 35.7915 13.7265 35.7835 13.5327C35.7754 13.3388 35.6948 13.1551 35.5576 13.018C34.8188 12.278 33.8658 11.7894 32.8337 11.6214C31.8016 11.4533 30.7428 11.6144 29.8074 12.0819L28.8658 12.5515C28.4982 12.3554 28.1228 12.1742 27.7406 12.0082C27.5429 12.4886 27.2939 12.9461 26.9978 13.3728C27.5006 13.5852 27.9904 13.8269 28.4649 14.0967C28.5752 14.1596 28.6994 14.1943 28.8264 14.1978C28.9534 14.2013 29.0793 14.1735 29.1929 14.1168L30.4977 13.4661C31.0348 13.1977 31.6328 13.0748 32.2321 13.1096C32.8315 13.1444 33.4112 13.3356 33.9136 13.6643L30.9832 17.1287C30.8675 17.2654 30.8029 17.4382 30.8004 17.6173C30.7979 17.7964 30.8576 17.9709 30.9695 18.1108C31.9462 19.3336 32.6033 20.7422 32.9225 22.2976C32.9584 22.4721 33.0533 22.6289 33.1913 22.7415C33.3294 22.8541 33.502 22.9156 33.6801 22.9156H35.0821C35.838 22.9156 36.4531 23.5306 36.4531 24.2865V26.4308C36.4531 27.1867 35.838 27.8017 35.0821 27.8017C34.8998 27.8017 33.2919 27.8021 33.0083 27.8142C32.8637 27.8204 32.7238 27.8669 32.6044 27.9486C32.485 28.0304 32.3909 28.1439 32.3329 28.2764C31.6272 29.8862 30.5117 31.3197 29.1917 32.3129C29.0964 32.3845 29.019 32.4772 28.9655 32.5837C28.912 32.6902 28.8838 32.8076 28.8832 32.9268C28.8819 33.1773 28.8803 34.1341 28.879 35.0815C28.8799 36.2967 27.3781 36.9087 26.517 36.0682C26.3955 35.9473 26.2992 35.8035 26.2337 35.6451C26.1682 35.4868 26.1348 35.317 26.1354 35.1456C26.1358 34.6976 26.1362 34.3419 26.1365 34.2231C26.1474 33.6481 25.5012 33.2606 24.9993 33.5385C23.2337 34.5476 18.9137 34.5481 17.1473 33.5393C17.0294 33.4765 16.8973 33.4453 16.7638 33.4488C16.6303 33.4522 16.5 33.4901 16.3855 33.5589C16.2711 33.6276 16.1764 33.7248 16.1106 33.8411C16.0449 33.9573 16.0103 34.0886 16.0104 34.2221V35.1466C16.0104 35.8656 15.4256 36.4505 14.7068 36.4505C13.9288 36.487 13.2641 35.8641 13.2653 35.0819C13.2636 34.059 13.2615 32.9718 13.2598 32.5713C13.2593 32.4441 13.2274 32.319 13.1669 32.2071C13.1065 32.0951 13.0194 31.9998 12.9133 31.9296C5.26168 26.8466 6.76738 16.8353 15.1451 13.3695C14.85 12.9437 14.6018 12.4873 14.4047 12.0082C9.41963 14.1747 6.26817 18.5802 6.36464 23.4293C5.70836 23.286 5.10137 22.9608 4.60687 22.4774C3.92395 21.8098 3.54779 20.9292 3.54779 19.9979C3.54779 19.5708 3.20151 19.2245 2.77437 19.2245C2.34723 19.2245 2.00095 19.5708 2.00095 19.9979C1.94871 22.491 4.04713 24.7716 6.51419 25.0214C7.03906 28.1238 8.89526 30.9944 11.7144 32.9835C11.7158 33.5051 11.7173 34.3131 11.7186 35.0846C11.8378 38.7705 17.1307 39.0432 17.5491 35.3659C19.5335 36.0107 22.6129 36.0106 24.597 35.3657C24.6798 36.8362 26.0335 38.0609 27.5083 37.9973C29.1149 37.9973 30.4238 36.6903 30.426 35.0837C30.4269 34.4107 30.428 33.733 30.429 33.3085C31.699 32.2749 32.784 30.8943 33.5384 29.3531C34.053 29.35 34.5676 29.3485 35.0823 29.3487C36.6911 29.3487 38 28.0397 38 26.4309V24.2866C38 22.6777 36.6911 21.3688 35.0822 21.3688Z" fill="#237BAB"/>
<path d="M26.4335 16.4843H15.7119C15.2848 16.4843 14.9385 16.1381 14.9385 15.7109C14.9385 15.2838 15.2848 14.9375 15.7119 14.9375H26.4335C26.8607 14.9375 27.207 15.2838 27.207 15.7109C27.207 16.1381 26.8607 16.4843 26.4335 16.4843Z" fill="#237BAB"/>
</svg>
