<svg width="51" height="48" viewBox="0 0 51 48" fill="none" xmlns="http://www.w3.org/2000/svg">
<g clip-path="url(#clip0_150_555)">
<g clip-path="url(#clip1_150_555)">
<g clip-path="url(#clip2_150_555)">
<mask id="mask0_150_555" style="mask-type:luminance" maskUnits="userSpaceOnUse" x="0" y="0" width="51" height="48">
<path d="M0.034668 0.49707H50.4575V47.8847H0.034668V0.49707Z" fill="white"/>
</mask>
<g mask="url(#mask0_150_555)">
<path d="M21.0563 3.66699C11.3134 3.66699 3.41504 11.0903 3.41504 20.2479C3.41504 29.4056 11.3134 36.8277 21.0551 36.8277C30.7992 36.8277 38.6975 29.4044 38.6975 20.2479C38.6857 11.0962 30.7956 3.67765 21.0563 3.66699ZM21.0563 5.24619C26.2452 5.25093 31.1072 7.62742 34.0903 11.6175L31.9898 13.5912C31.4728 13.2988 30.8896 13.1438 30.2957 13.141C28.4405 13.141 26.9359 14.5555 26.9359 16.2994C26.9395 16.8621 27.1041 17.413 27.4122 17.894L21.9116 23.0628C21.3946 22.7694 20.8102 22.6152 20.2157 22.6152C19.6213 22.6152 19.0369 22.7694 18.5199 23.0628L14.6992 19.4732C15.0072 18.991 15.1731 18.4401 15.1755 17.8786C15.1778 16.1371 13.678 14.7249 11.8264 14.7225C10.2945 14.7214 8.95584 15.694 8.57437 17.0896H5.45863C7.04849 10.1864 13.5418 5.25685 21.0563 5.24619ZM31.9768 16.2994C31.9768 17.1713 31.2245 17.8786 30.2969 17.8786C29.3681 17.8786 28.617 17.1713 28.617 16.2994C28.617 15.4274 29.3681 14.7202 30.2969 14.7202C31.2245 14.7202 31.9768 15.4274 31.9768 16.2994ZM21.895 25.7733C21.895 26.6453 21.144 27.3525 20.2163 27.3525C19.2875 27.3525 18.5353 26.6453 18.5353 25.7733C18.5353 24.9014 19.2875 24.1941 20.2163 24.1941C21.144 24.1941 21.895 24.9014 21.895 25.7733ZM13.4956 17.8786C13.4956 18.7505 12.7433 19.4577 11.8157 19.4577C10.8869 19.4577 10.1346 18.7505 10.1346 17.8786C10.1346 17.0066 10.8869 16.2994 11.8157 16.2994C12.7433 16.2994 13.4956 17.0066 13.4956 17.8786ZM28.8113 33.3625C26.4157 34.6058 23.7553 35.2521 21.0563 35.2461C12.2469 35.2532 5.10086 28.5467 5.09493 20.2669C5.09493 19.7338 5.12455 19.1995 5.18497 18.6676H8.57319C8.95584 20.0572 10.2874 21.031 11.8157 21.0369C12.4097 21.0347 12.9933 20.8805 13.511 20.5891L17.3316 24.1787C17.0236 24.6609 16.8577 25.2118 16.8554 25.7733C16.8554 27.5172 18.3599 28.9317 20.2163 28.9317C22.0716 28.9317 23.5761 27.5172 23.5761 25.7733C23.5723 25.2073 23.407 24.6542 23.0999 24.1787L28.6004 19.0099C29.1122 19.3002 29.6986 19.4542 30.2969 19.4577C32.1521 19.4577 33.6567 18.0432 33.6567 16.2994C33.6525 15.7338 33.4873 15.1811 33.1804 14.7059L35.012 12.9846C39.2875 20.2219 36.5106 29.3452 28.8113 33.3625Z" fill="#FFAD00"/>
<path d="M42.0569 8.40525C43.5851 8.39933 44.9167 7.42669 45.2982 6.03587H50.4575V4.45904H45.2982C44.9167 3.0694 43.5851 2.09558 42.0569 2.08966C40.2016 2.08966 38.6971 3.50418 38.6971 5.24805C38.6995 5.81078 38.8641 6.36166 39.1733 6.84264L37.6972 8.22873C30.6353 -0.417149 17.4508 -2.04729 8.24932 4.59054C-0.950997 11.2272 -2.68539 23.6179 4.37775 32.2649C11.044 40.4275 23.2641 42.4071 32.4538 36.8142L34.989 39.1966L36.1772 40.3137L42.9395 46.6684C44.6596 48.2843 47.4472 48.2843 49.1674 46.6684C50.8876 45.0525 50.8876 42.432 49.1674 40.816L42.4052 34.4602L41.2169 33.343L38.6817 30.9618C43.1823 24.446 43.1823 16.0524 38.6817 9.53663L40.3616 7.95744C40.8789 8.24974 41.4627 8.40316 42.0569 8.40525ZM42.0569 3.66885C42.9857 3.66885 43.7379 4.37493 43.7379 5.24686C43.7379 6.11879 42.9845 6.82606 42.0569 6.82606C41.1293 6.82606 40.377 6.11879 40.377 5.24686C40.377 4.37493 41.1293 3.66885 42.0569 3.66885ZM47.9803 41.9308C48.2345 42.1576 48.4386 42.4349 48.5797 42.7449C48.7207 43.055 48.7957 43.391 48.7997 43.7317C48.8037 44.0723 48.7367 44.41 48.603 44.7233C48.4692 45.0365 48.2717 45.3185 48.023 45.5513C46.9722 46.5618 45.2472 46.5808 44.1704 45.5927C44.1556 45.5791 44.141 45.5653 44.1265 45.5513L37.3643 39.1954L41.2169 35.575L47.9803 41.9308ZM40.0299 34.459L36.1772 38.0794L33.8517 35.8937C33.9702 35.8084 34.0803 35.7148 34.1976 35.6271C34.5112 35.3908 34.8182 35.1459 35.1181 34.8926C35.2094 34.8144 35.297 34.735 35.3871 34.6557C35.7306 34.3524 36.0647 34.0396 36.3881 33.7162L36.6393 33.4627C36.9082 33.182 37.169 32.8936 37.4212 32.5978C37.5136 32.4888 37.6131 32.3846 37.7043 32.2732L40.0299 34.459ZM36.772 30.7912C36.5066 31.1383 36.2341 31.4783 35.945 31.8065C35.8621 31.9012 35.7721 31.9948 35.6844 32.0884C35.0575 32.7749 34.3791 33.4126 33.655 33.9958C33.5543 34.0752 33.456 34.1616 33.3553 34.241C33.0058 34.5123 32.6445 34.7694 32.2749 35.017C23.5792 40.8563 11.4918 38.9644 5.2793 30.7912C-0.934412 22.618 1.07956 11.2604 9.77639 5.42101C18.472 -0.418334 30.5583 1.47362 36.772 9.64562C41.5794 15.9695 41.5794 24.4673 36.772 30.7912Z" fill="#FFAD00"/>
</g>
</g>
</g>
</g>
<defs>
<clipPath id="clip0_150_555">
<rect width="49.7571" height="47.3877" fill="white" transform="translate(0.625 0.49707)"/>
</clipPath>
<clipPath id="clip1_150_555">
<rect width="49.7571" height="47.3877" fill="white" transform="translate(0.625 0.49707)"/>
</clipPath>
<clipPath id="clip2_150_555">
<rect width="50.9417" height="47.3877" fill="white" transform="translate(0.0327148 0.49707)"/>
</clipPath>
</defs>
</svg>
