<svg width="50" height="51" viewBox="0 0 50 51" fill="none" xmlns="http://www.w3.org/2000/svg">
<g clip-path="url(#clip0_150_206)">
<g clip-path="url(#clip1_150_206)">
<g clip-path="url(#clip2_150_206)">
<path d="M15.0029 40.1947C17.4769 40.1947 19.8579 39.5957 21.9859 38.4727L25.8239 45.0637C27.8379 48.7657 33.3179 49.4597 36.2159 46.4087C39.2749 43.5137 38.5659 38.0367 34.8709 36.0167L28.2629 32.1697C30.1489 28.5607 30.5419 24.2517 29.1839 20.3067C28.9519 19.3787 27.5369 19.5537 27.5439 20.5217C30.6389 29.1707 24.2869 38.5937 15.0029 38.5287C7.83886 38.6757 1.52186 32.3607 1.66986 25.1957C1.53286 16.0907 11.0449 9.46467 19.5519 12.6637C20.5819 13.0257 21.1449 11.4837 20.1199 11.0967C10.5509 7.49767 -0.153138 14.9527 0.00386214 25.1967C-0.163138 33.2547 6.94286 40.3617 15.0029 40.1947ZM25.6079 35.8007C26.2778 35.1269 26.8813 34.3902 27.4099 33.6007L34.0319 37.4567C36.7969 38.9667 37.3259 43.0647 35.0369 45.2307C32.8709 47.5117 28.7689 46.9917 27.2639 44.2257L23.4139 37.6127C24.2004 37.0788 24.9349 36.4721 25.6079 35.8007Z" fill="#FCAB01"/>
<path d="M18.9912 16.9371C19.9812 17.3981 20.6952 15.9281 19.7152 15.4371C17.6892 14.4616 15.4104 14.1391 13.1934 14.5142C10.9764 14.8893 8.93045 15.9434 7.33816 17.5311C0.535162 24.3231 5.47716 36.0911 15.0032 36.0211C23.6492 36.1161 28.9732 26.0351 23.8482 18.9371C23.2122 18.0521 21.8642 19.0091 22.4902 19.9021C23.7435 21.6662 24.3309 23.8175 24.1478 25.9738C23.9647 28.13 23.023 30.1515 21.4902 31.6791C17.9122 35.2481 12.0932 35.2471 8.51816 31.6811C1.37216 24.2591 9.64916 12.6211 18.9912 16.9371Z" fill="#FCAB01"/>
<path d="M14.4641 25.833C14.5477 25.9036 14.6443 25.957 14.7486 25.9903C14.8528 26.0235 14.9626 26.0359 15.0716 26.0267C15.1806 26.0175 15.2867 25.9869 15.3839 25.9367C15.4811 25.8865 15.5675 25.8176 15.6381 25.734L22.7271 17.355C23.8351 17.941 25.3521 17.735 26.2751 16.925L30.9491 20.323C30.4351 21.88 31.7001 23.557 33.3341 23.53C35.1621 23.577 36.4401 21.47 35.5431 19.884L44.1671 10.644V13.531C44.1841 14.624 45.8151 14.629 45.8341 13.531V8.531C45.8261 8.31244 45.7357 8.105 45.5809 7.95045C45.4262 7.79589 45.2186 7.70569 45.0001 7.698H40.0001C38.9081 7.716 38.9031 9.346 40.0001 9.365H43.0821L34.3301 18.74C33.5781 18.391 32.5821 18.494 31.9211 18.972L27.2631 15.585C28.1581 13.473 26.4681 10.983 24.1681 11.031C21.5321 10.951 19.8721 14.203 21.4511 16.283L14.3661 24.659C14.2233 24.8278 14.1535 25.0465 14.1718 25.2668C14.1902 25.4871 14.2953 25.6901 14.4641 25.833ZM33.3341 20.197C34.4291 20.216 34.4291 21.844 33.3341 21.863C32.2391 21.843 32.2391 20.216 33.3341 20.197ZM24.1681 12.697C25.4931 12.656 26.3211 14.297 25.5181 15.334C24.6231 16.636 22.4721 15.956 22.5021 14.364C22.5021 13.444 23.2491 12.697 24.1681 12.697Z" fill="#FCAB01"/>
<path d="M45.0009 1.03003H14.1709C11.4139 1.03003 9.1709 3.27303 9.1709 6.03003V9.31303C9.1859 10.409 10.8269 10.4 10.8369 9.31303V6.03003C10.838 5.14621 11.1896 4.29892 11.8146 3.67406C12.4397 3.0492 13.2871 2.69782 14.1709 2.69703H45.0009C45.8845 2.69809 46.7317 3.04958 47.3565 3.67441C47.9813 4.29924 48.3328 5.14639 48.3339 6.03003V31.028C48.3331 31.9118 47.9817 32.7591 47.3568 33.3839C46.7319 34.0088 45.8846 34.3602 45.0009 34.361H36.6189C36.3978 34.361 36.1858 34.4488 36.0295 34.6052C35.8732 34.7615 35.7854 34.9735 35.7854 35.1945C35.7854 35.4156 35.8732 35.6276 36.0295 35.7839C36.1858 35.9402 36.3978 36.028 36.6189 36.028H45.0009C47.7579 36.028 50.0009 33.785 50.0009 31.028V6.03003C50.0009 3.27303 47.7579 1.03003 45.0009 1.03003Z" fill="#FCAB01"/>
<path d="M36.6675 30.195C35.5755 30.212 35.5705 31.843 36.6675 31.862H45.8345C46.9265 31.844 46.9315 30.213 45.8345 30.195H36.6675ZM45.8345 26.862H40.8345C39.7405 26.879 39.7375 28.51 40.8345 28.528H45.8345C46.9275 28.511 46.9305 26.88 45.8345 26.862ZM20.0025 6.86305C21.0955 6.84505 21.0995 5.21504 20.0025 5.19604H13.3355C12.2425 5.21404 12.2395 6.84405 13.3355 6.86305H20.0025Z" fill="#FCAB01"/>
</g>
</g>
</g>
<defs>
<clipPath id="clip0_150_206">
<rect width="50" height="50" fill="white" transform="translate(0.000976562 0.0300293)"/>
</clipPath>
<clipPath id="clip1_150_206">
<rect width="50" height="50" fill="white" transform="translate(0.000976562 0.0300293)"/>
</clipPath>
<clipPath id="clip2_150_206">
<rect width="50" height="50" fill="white" transform="translate(0.000976562 0.0300293)"/>
</clipPath>
</defs>
</svg>
