<svg width="50" height="50" viewBox="0 0 50 50" fill="none" xmlns="http://www.w3.org/2000/svg">
<g clip-path="url(#clip0_150_230)">
<g clip-path="url(#clip1_150_230)">
<g clip-path="url(#clip2_150_230)">
<g clip-path="url(#clip3_150_230)">
<path d="M49.6125 1.98318C49.5438 1.58583 49.3538 1.21948 49.0686 0.934436C48.7834 0.649389 48.4169 0.45962 48.0195 0.391182C46.6395 0.155182 42.9645 -0.321818 38.6235 0.337182C33.2065 1.16018 28.6315 3.40518 25.0245 7.01118L22.7335 9.30318C19.3766 9.19734 16.0292 9.71405 12.8605 10.8272C9.71981 11.9274 6.80736 13.5939 4.2675 15.7442C4.06155 15.9189 3.89403 16.1344 3.7755 16.377C3.65697 16.6197 3.59001 16.8843 3.57882 17.1541C3.56764 17.4239 3.61249 17.6932 3.71054 17.9448C3.80859 18.1964 3.95771 18.425 4.1485 18.6162L8.7845 23.2512L8.0925 23.9442C7.3305 24.7052 7.3305 25.9442 8.0925 26.7062L10.2685 28.8812C8.50064 29.0911 6.82348 29.7791 5.4175 30.8712C5.20087 31.0402 5.0226 31.2533 4.89452 31.4964C4.76643 31.7394 4.69143 32.0069 4.6745 32.2812C4.65745 32.5581 4.69946 32.8355 4.79773 33.095C4.89599 33.3544 5.04828 33.59 5.2445 33.7862L7.9685 36.5112C8.05899 36.602 8.16652 36.6741 8.28493 36.7233C8.40333 36.7724 8.53028 36.7977 8.6585 36.7977C8.78671 36.7977 8.91366 36.7724 9.03207 36.7233C9.15047 36.6741 9.25801 36.602 9.3485 36.5112C9.53151 36.328 9.63431 36.0796 9.63431 35.8207C9.63431 35.5617 9.53151 35.3134 9.3485 35.1302L6.6275 32.4042C8.21 31.1817 10.1993 30.6091 12.1895 30.8032L19.2005 37.8142C19.3948 39.8055 18.8218 41.796 17.5985 43.3792L14.8735 40.6542C14.6879 40.4835 14.4436 40.3912 14.1915 40.3965C13.9395 40.4018 13.6992 40.5044 13.521 40.6827C13.3428 40.861 13.2405 41.1013 13.2353 41.3534C13.2302 41.6055 13.3227 41.8497 13.4935 42.0352L16.2175 44.7602C16.4139 44.9562 16.6498 45.1084 16.9094 45.2064C17.169 45.3045 17.4465 45.3464 17.7235 45.3292C17.9977 45.3124 18.2651 45.2375 18.5082 45.1096C18.7513 44.9817 18.9644 44.8036 19.1335 44.5872C20.225 43.1807 20.9123 41.5032 21.1215 39.7352L23.2975 41.9112C23.6785 42.2912 24.1785 42.4822 24.6785 42.4822C25.1785 42.4822 25.6785 42.2922 26.0605 41.9112L26.7525 41.2192L31.3885 45.8552C31.5799 46.0459 31.8087 46.195 32.0604 46.2931C32.3122 46.3912 32.5815 46.4361 32.8515 46.4252C33.1211 46.4135 33.3854 46.3462 33.6277 46.2274C33.87 46.1087 34.0851 45.9411 34.2595 45.7352C36.4096 43.1956 38.0762 40.2835 39.1765 37.1432C40.2902 33.9746 40.8073 30.6271 40.7015 27.2702L42.9925 24.9792C46.5985 21.3732 48.8445 16.7972 49.6665 11.3802C50.3265 7.03918 49.8485 3.36318 49.6125 1.98418V1.98318ZM47.6875 2.31318C47.9945 4.10718 48.5025 8.50318 47.2935 13.3852L36.6165 2.70818C41.4995 1.50018 45.8945 2.00818 47.6875 2.31318ZM5.5275 17.2352C7.88611 15.2383 10.5908 13.6907 13.5075 12.6692C15.8458 11.8474 18.2924 11.3747 20.7685 11.2662L10.1655 21.8712L5.5285 17.2362L5.5275 17.2352ZM24.6785 40.5292L9.4735 25.3242L12.2395 22.5582L27.4445 37.7642L24.6785 40.5292ZM37.3335 36.4962C36.3122 39.4117 34.7654 42.1153 32.7695 44.4732L28.1335 39.8372L38.7365 29.2342C38.6282 31.7106 38.1554 34.1576 37.3335 36.4962ZM41.6115 23.5962L28.8255 36.3832L13.6205 21.1772L26.4055 8.39118C28.9175 5.88118 31.7305 4.30618 34.4875 3.34118L46.6615 15.5152C45.6975 18.2722 44.1225 21.0852 41.6115 23.5972V23.5962Z" fill="#FDAC01"/>
<path d="M30.8973 11.7779C29.9349 11.7752 28.9815 11.9636 28.0923 12.3319C27.2032 12.7003 26.3959 13.2414 25.7173 13.9239C22.8623 16.7789 22.8623 21.4259 25.7173 24.2819C26.3971 24.9625 27.2046 25.5021 28.0936 25.8697C28.9825 26.2373 29.9353 26.4256 30.8973 26.4239C31.8593 26.4257 32.8121 26.2374 33.701 25.8698C34.59 25.5022 35.3976 24.9625 36.0773 24.2819C36.7596 23.6032 37.3006 22.7959 37.6688 21.9068C38.037 21.0176 38.2251 20.0642 38.2223 19.1019C38.2246 18.1398 38.0362 17.1867 37.6678 16.298C37.2995 15.4092 36.7585 14.6022 36.0763 13.9239C35.3977 13.2413 34.5905 12.7002 33.7013 12.3319C32.8121 11.9635 31.8597 11.7752 30.8973 11.7779ZM34.6953 22.9009C34.1969 23.3999 33.6048 23.7954 32.953 24.0649C32.3012 24.3343 31.6026 24.4723 30.8973 24.4709C30.192 24.4721 29.4935 24.3341 28.8417 24.0646C28.19 23.7952 27.5978 23.3997 27.0993 22.9009C26.0934 21.8928 25.5285 20.5269 25.5285 19.1029C25.5285 17.6788 26.0934 16.3129 27.0993 15.3049C27.5969 14.8046 28.1888 14.4079 28.8407 14.1379C29.4927 13.8679 30.1917 13.7299 30.8973 13.7319C32.3323 13.7319 33.6813 14.2899 34.6953 15.3049C35.1956 15.8025 35.5922 16.3944 35.8622 17.0463C36.1322 17.6982 36.2702 18.3972 36.2683 19.1029C36.2702 19.8085 36.1322 20.5075 35.8622 21.1594C35.5922 21.8113 35.1956 22.4032 34.6953 22.9009ZM8.65729 41.3429C8.47414 41.1602 8.226 41.0575 7.96729 41.0575C7.70859 41.0575 7.46045 41.1602 7.27729 41.3429L0.287293 48.3329C0.116498 48.5183 0.0239976 48.7626 0.0291304 49.0146C0.0342632 49.2667 0.136632 49.507 0.314834 49.6853C0.493037 49.8637 0.733277 49.9662 0.985329 49.9715C1.23738 49.9768 1.48173 49.8845 1.66729 49.7139L8.65729 42.7239C8.84031 42.5407 8.94311 42.2923 8.94311 42.0334C8.94311 41.7744 8.84031 41.5261 8.65729 41.3429ZM0.977293 43.0939C1.22729 43.0939 1.47729 42.9989 1.66729 42.8079L5.20529 39.2709C5.38348 39.0866 5.48211 38.8397 5.47991 38.5833C5.47771 38.327 5.37486 38.0818 5.19354 37.9006C5.01222 37.7194 4.76695 37.6168 4.51062 37.6147C4.25429 37.6127 4.00744 37.7115 3.82329 37.8899L0.286293 41.4269C0.149996 41.5635 0.0572166 41.7374 0.0196579 41.9267C-0.0179008 42.116 0.0014441 42.3122 0.0752521 42.4905C0.14906 42.6688 0.274025 42.8213 0.434382 42.9287C0.594739 43.036 0.784306 43.0935 0.977293 43.0939ZM10.7303 44.7949L7.19229 48.3329C7.02395 48.5187 6.93352 48.7622 6.93972 49.0129C6.94591 49.2636 7.04826 49.5023 7.22557 49.6796C7.40289 49.8569 7.64159 49.9592 7.89228 49.9654C8.14297 49.9716 8.38643 49.8812 8.57229 49.7129L12.1103 46.1759C12.2084 46.087 12.2874 45.9791 12.3426 45.8588C12.3977 45.7385 12.4278 45.6082 12.4311 45.4759C12.4344 45.3435 12.4107 45.2119 12.3616 45.089C12.3125 44.9661 12.2389 44.8545 12.1453 44.7609C12.0517 44.6673 11.94 44.5937 11.8171 44.5446C11.6942 44.4954 11.5626 44.4718 11.4303 44.475C11.298 44.4783 11.1677 44.5084 11.0473 44.5636C10.927 44.6187 10.8192 44.6978 10.7303 44.7959V44.7949ZM11.4203 39.5569C11.5512 39.561 11.6815 39.5389 11.8037 39.4917C11.9258 39.4445 12.0372 39.3733 12.1312 39.2822C12.2253 39.1911 12.3001 39.082 12.3512 38.9615C12.4022 38.8409 12.4285 38.7113 12.4285 38.5804C12.4285 38.4494 12.4022 38.3198 12.3512 38.1993C12.3001 38.0787 12.2253 37.9696 12.1312 37.8786C12.0372 37.7875 11.9258 37.7162 11.8037 37.669C11.6815 37.6218 11.5512 37.5997 11.4203 37.6039C11.1667 37.612 10.9262 37.7184 10.7497 37.9007C10.5732 38.0829 10.4745 38.3267 10.4745 38.5804C10.4745 38.8341 10.5732 39.0778 10.7497 39.2601C10.9262 39.4423 11.1667 39.5487 11.4203 39.5569Z" fill="#FDAC01"/>
</g>
</g>
</g>
</g>
<defs>
<clipPath id="clip0_150_230">
<rect width="50" height="50" fill="white" transform="translate(0.000976562 0.000488281)"/>
</clipPath>
<clipPath id="clip1_150_230">
<rect width="50" height="50" fill="white" transform="translate(0.000976562 0.000488281)"/>
</clipPath>
<clipPath id="clip2_150_230">
<rect width="50" height="50" fill="white" transform="translate(0.000976562 0.000488281)"/>
</clipPath>
<clipPath id="clip3_150_230">
<rect width="50" height="50" fill="white" transform="translate(0.000976562 0.000488281)"/>
</clipPath>
</defs>
</svg>
