<svg width="45" height="45" viewBox="0 0 45 45" fill="none" xmlns="http://www.w3.org/2000/svg">
<rect x="0.5" y="0.5" width="44" height="44" rx="4.5" fill="#F7F7F7" stroke="#D9D9D9"/>
<path d="M28.2672 15.4368C28.0108 15.4368 27.7603 15.5128 27.5471 15.6552C27.334 15.7976 27.1679 16 27.0698 16.2368C26.9717 16.4736 26.946 16.7342 26.9961 16.9856C27.0461 17.237 27.1695 17.4679 27.3507 17.6492C27.532 17.8304 27.7629 17.9538 28.0143 18.0038C28.2657 18.0539 28.5263 18.0282 28.7631 17.9301C28.9999 17.832 29.2023 17.6659 29.3447 17.4528C29.4871 17.2396 29.5632 16.9891 29.5632 16.7328C29.5632 16.389 29.4266 16.0594 29.1836 15.8163C28.9405 15.5733 28.6109 15.4368 28.2672 15.4368ZM33.2352 18.0504C33.2141 17.1543 33.0463 16.2677 32.7384 15.426C32.4637 14.7057 32.0363 14.0536 31.4856 13.5144C30.9508 12.9608 30.2971 12.5361 29.574 12.2724C28.7344 11.955 27.8469 11.7833 26.9496 11.7648C25.8048 11.7 25.4376 11.7 22.5 11.7C19.5624 11.7 19.1952 11.7 18.0504 11.7648C17.153 11.7833 16.2655 11.955 15.426 12.2724C14.7042 12.5387 14.051 12.9631 13.5144 13.5144C12.9608 14.0491 12.5361 14.7028 12.2724 15.426C11.955 16.2655 11.7833 17.153 11.7648 18.0504C11.7 19.1952 11.7 19.5624 11.7 22.5C11.7 25.4376 11.7 25.8048 11.7648 26.9496C11.7833 27.8469 11.955 28.7344 12.2724 29.574C12.5361 30.2971 12.9608 30.9508 13.5144 31.4856C14.051 32.0368 14.7042 32.4612 15.426 32.7276C16.2655 33.0449 17.153 33.2166 18.0504 33.2352C19.1952 33.3 19.5624 33.3 22.5 33.3C25.4376 33.3 25.8048 33.3 26.9496 33.2352C27.8469 33.2166 28.7344 33.0449 29.574 32.7276C30.2971 32.4638 30.9508 32.0391 31.4856 31.4856C32.0388 30.9483 32.4666 30.2956 32.7384 29.574C33.0463 28.7322 33.2141 27.8456 33.2352 26.9496C33.2352 25.8048 33.3 25.4376 33.3 22.5C33.3 19.5624 33.3 19.1952 33.2352 18.0504ZM31.2912 26.82C31.2833 27.5055 31.1591 28.1848 30.924 28.8288C30.7515 29.2988 30.4745 29.7234 30.114 30.0708C29.7637 30.4277 29.3398 30.7041 28.872 30.8808C28.2279 31.1159 27.5487 31.2401 26.8632 31.248C25.7832 31.302 25.3836 31.3128 22.5432 31.3128C19.7028 31.3128 19.3032 31.3128 18.2232 31.248C17.5113 31.2613 16.8025 31.1517 16.128 30.924C15.6806 30.7383 15.2762 30.4626 14.94 30.114C14.5815 29.767 14.308 29.342 14.1408 28.872C13.8771 28.2187 13.7308 27.524 13.7088 26.82C13.7088 25.74 13.644 25.3404 13.644 22.5C13.644 19.6596 13.644 19.26 13.7088 18.18C13.7136 17.4791 13.8415 16.7845 14.0868 16.128C14.2769 15.6721 14.5687 15.2657 14.94 14.94C15.2681 14.5686 15.6736 14.2737 16.128 14.076C16.7863 13.8384 17.4801 13.7142 18.18 13.7088C19.26 13.7088 19.6596 13.644 22.5 13.644C25.3404 13.644 25.74 13.644 26.82 13.7088C27.5055 13.7166 28.1848 13.8408 28.8288 14.076C29.3195 14.2581 29.76 14.5542 30.114 14.94C30.4679 15.2717 30.7444 15.6773 30.924 16.128C31.164 16.7856 31.2882 17.4799 31.2912 18.18C31.3452 19.26 31.356 19.6596 31.356 22.5C31.356 25.3404 31.3452 25.74 31.2912 26.82ZM22.5 16.9596C21.4046 16.9617 20.3345 17.2884 19.4248 17.8985C18.5151 18.5086 17.8067 19.3746 17.389 20.3872C16.9713 21.3998 16.8631 22.5134 17.0781 23.5874C17.2931 24.6615 17.8216 25.6476 18.5969 26.4214C19.3722 27.1952 20.3594 27.7218 21.4338 27.9347C22.5083 28.1476 23.6217 28.0372 24.6335 27.6176C25.6452 27.1979 26.5099 26.4878 27.1182 25.5769C27.7265 24.666 28.0511 23.5953 28.0512 22.5C28.0526 21.7711 27.9099 21.0491 27.6313 20.3755C27.3527 19.702 26.9437 19.0902 26.4278 18.5753C25.9119 18.0604 25.2993 17.6526 24.6252 17.3753C23.9511 17.098 23.2288 16.9567 22.5 16.9596ZM22.5 26.0964C21.7887 26.0964 21.0933 25.8854 20.5019 25.4902C19.9105 25.0951 19.4495 24.5334 19.1773 23.8762C18.9051 23.2191 18.8339 22.496 18.9727 21.7983C19.1114 21.1007 19.4539 20.4599 19.9569 19.9569C20.4599 19.4539 21.1007 19.1114 21.7983 18.9727C22.496 18.8339 23.2191 18.9051 23.8762 19.1773C24.5334 19.4495 25.0951 19.9105 25.4902 20.5019C25.8854 21.0933 26.0964 21.7887 26.0964 22.5C26.0964 22.9722 26.0033 23.4399 25.8226 23.8762C25.6419 24.3126 25.3769 24.709 25.043 25.043C24.709 25.3769 24.3126 25.6419 23.8762 25.8226C23.4399 26.0033 22.9722 26.0964 22.5 26.0964Z" fill="#303030"/>
</svg>
