<svg width="44" height="44" viewBox="0 0 44 44" fill="none" xmlns="http://www.w3.org/2000/svg">
<path d="M25.8133 38.5H3.66667C1.66833 38.4267 0.0733333 36.8317 0 34.8333V9.16667C0.0733333 7.16833 1.66833 5.57333 3.66667 5.5H40.3333C42.3317 5.57333 43.9267 7.16833 44 9.16667V28.4717C42.9367 27.5 41.7083 26.785 40.3333 26.29V9.16667H3.66667V34.8333H25.8133C25.7217 35.4383 25.6667 36.0433 25.6667 36.6667C25.6667 37.29 25.7217 37.9133 25.8133 38.5ZM25.6667 31.1667H7.33333V28.875C7.33333 25.8317 13.4567 24.2917 16.5 24.2917C19.5433 24.2917 25.6667 25.8317 25.6667 28.875V31.1667ZM25.6667 20.1667H33V22H25.6667V20.1667ZM16.5 12.8333C13.9883 12.8333 11.9167 14.905 11.9167 17.4167C11.9167 19.9283 13.9883 22 16.5 22C19.0117 22 21.0833 19.9283 21.0833 17.4167C21.0833 14.905 19.0117 12.8333 16.5 12.8333ZM25.6667 16.5H36.6667V18.3333H25.6667V16.5ZM25.6667 12.8333H36.6667V14.6667H25.6667V12.8333Z" fill="black"/>
<path d="M40.655 29.425L33.56 36.5751L31.085 34.0634L28.5 36.6667L33.5417 41.7634L43.2217 32.01L40.655 29.425Z" fill="black"/>
</svg>
