<svg width="64" height="64" viewBox="0 0 64 64" fill="none" xmlns="http://www.w3.org/2000/svg">
<mask id="mask0_0_2722" style="mask-type:alpha" maskUnits="userSpaceOnUse" x="0" y="0" width="64" height="64">
<rect width="64" height="64" fill="#D9D9D9"/>
</mask>
<g mask="url(#mask0_0_2722)">
<path d="M32.5333 35.518L45.754 22.2973L43.8667 20.3793L32.5333 31.7127L26.8 26.01L24.9127 27.8973L32.5333 35.518ZM21.6413 45.3333C20.4138 45.3333 19.3889 44.9222 18.5667 44.1C17.7444 43.2778 17.3333 42.2529 17.3333 41.0253V12.308C17.3333 11.0804 17.7444 10.0556 18.5667 9.23333C19.3889 8.41111 20.4138 8 21.6413 8H50.3587C51.5862 8 52.6111 8.41111 53.4333 9.23333C54.2556 10.0556 54.6667 11.0804 54.6667 12.308V41.0253C54.6667 42.2529 54.2556 43.2778 53.4333 44.1C52.6111 44.9222 51.5862 45.3333 50.3587 45.3333H21.6413ZM21.6413 42.6667H50.3587C50.7693 42.6667 51.1455 42.4958 51.4873 42.154C51.8291 41.8122 52 41.436 52 41.0253V12.308C52 11.8973 51.8291 11.5211 51.4873 11.1793C51.1455 10.8376 50.7693 10.6667 50.3587 10.6667H21.6413C21.2307 10.6667 20.8544 10.8376 20.5127 11.1793C20.1709 11.5211 20 11.8973 20 12.308V41.0253C20 41.436 20.1709 41.8122 20.5127 42.154C20.8544 42.4958 21.2307 42.6667 21.6413 42.6667ZM13.6413 53.3333C12.4138 53.3333 11.3889 52.9222 10.5667 52.1C9.74444 51.2778 9.33333 50.2531 9.33333 49.026V17.6413H12V49.026C12 49.4362 12.1709 49.8122 12.5127 50.154C12.8544 50.4958 13.2307 50.6667 13.6413 50.6667H45.0253V53.3333H13.6413Z" fill="black"/>
</g>
</svg>
