<svg width="20" height="20" viewBox="0 0 20 20" fill="none" xmlns="http://www.w3.org/2000/svg">
<path d="M5 8.33329V6.66663C5 3.90829 5.83333 1.66663 10 1.66663C14.1667 1.66663 15 3.90829 15 6.66663V8.33329" stroke="#00AF89" stroke-width="1.5" stroke-linecap="round" stroke-linejoin="round"/>
<path d="M10.0001 15.4167C11.1507 15.4167 12.0834 14.4839 12.0834 13.3333C12.0834 12.1827 11.1507 11.25 10.0001 11.25C8.84949 11.25 7.91675 12.1827 7.91675 13.3333C7.91675 14.4839 8.84949 15.4167 10.0001 15.4167Z" stroke="#00AF89" stroke-width="1.5" stroke-linecap="round" stroke-linejoin="round"/>
<path d="M14.1667 18.3334H5.83341C2.50008 18.3334 1.66675 17.5 1.66675 14.1667V12.5C1.66675 9.16671 2.50008 8.33337 5.83341 8.33337H14.1667C17.5001 8.33337 18.3334 9.16671 18.3334 12.5V14.1667C18.3334 17.5 17.5001 18.3334 14.1667 18.3334Z" stroke="#00AF89" stroke-width="1.5" stroke-linecap="round" stroke-linejoin="round"/>
</svg>
