<svg width="178" height="36" viewBox="0 0 178 36" fill="none" xmlns="http://www.w3.org/2000/svg">
<g clip-path="url(#clip0_151_1215)">
<path d="M138.537 34.6931C136.322 34.6931 134.384 34.192 132.722 33.19C131.061 32.1879 129.769 30.8299 128.846 29.1159C127.923 27.4017 127.461 25.503 127.461 23.4199C127.461 21.2573 127.923 19.3456 128.846 17.6842C129.795 15.9965 131.074 14.6648 132.683 13.6891C134.318 12.7134 136.137 12.2256 138.141 12.2256C139.829 12.2256 141.306 12.5024 142.572 13.0562C143.864 13.61 144.958 14.3747 145.855 15.3504C146.751 16.3262 147.437 17.4469 147.912 18.7127C148.386 19.952 148.624 21.297 148.624 22.7473C148.624 23.1166 148.597 23.499 148.545 23.8944C148.518 24.29 148.452 24.6328 148.347 24.923H131.733V20.9673H145.42L142.967 22.8264C143.205 21.6133 143.139 20.5322 142.769 19.583C142.427 18.6336 141.847 17.882 141.029 17.3282C140.238 16.7744 139.275 16.4976 138.141 16.4976C137.06 16.4976 136.098 16.7744 135.254 17.3282C134.41 17.8556 133.764 18.6467 133.316 19.7015C132.894 20.73 132.736 21.9826 132.841 23.4593C132.736 24.7779 132.907 25.9513 133.355 26.9799C133.83 27.9819 134.516 28.7599 135.412 29.3135C136.335 29.8673 137.39 30.1442 138.577 30.1442C139.763 30.1442 140.765 29.8937 141.583 29.3926C142.427 28.8917 143.086 28.2191 143.561 27.3753L147.753 29.4322C147.332 30.4606 146.672 31.3704 145.776 32.1615C144.879 32.9526 143.811 33.5724 142.572 34.0206C141.359 34.469 140.014 34.6931 138.537 34.6931Z" fill="#217AA8"/>
<path d="M121.995 34.4562C119.569 34.4562 117.683 33.797 116.338 32.4784C115.02 31.1337 114.361 29.2481 114.361 26.8221V17.3287H110.642V12.7007H111.038C112.093 12.7007 112.91 12.4238 113.49 11.8701C114.071 11.3163 114.361 10.512 114.361 9.45718V7.79585H119.542V12.7007H124.487V17.3287H119.542V26.5452C119.542 27.2572 119.661 27.8637 119.898 28.3648C120.162 28.8657 120.558 29.2481 121.085 29.5119C121.639 29.7755 122.338 29.9073 123.181 29.9073C123.366 29.9073 123.577 29.8943 123.814 29.8679C124.078 29.8415 124.329 29.8152 124.566 29.7888V34.219C124.197 34.2717 123.775 34.3244 123.3 34.3772C122.825 34.4299 122.39 34.4562 121.995 34.4562Z" fill="#217AA8"/>
<path d="M96.1525 34.6931C94.6494 34.6931 93.344 34.4426 92.2365 33.9415C91.1289 33.4406 90.272 32.7286 89.6654 31.8055C89.0589 30.8562 88.7556 29.7619 88.7556 28.5224C88.7556 27.3359 89.0192 26.281 89.5467 25.3581C90.0742 24.4086 90.8916 23.6175 91.9993 22.9846C93.1067 22.3519 94.5043 21.9035 96.192 21.6399L103.233 20.4926V24.4482L97.1809 25.4766C96.1525 25.6613 95.3878 25.991 94.8867 26.4655C94.3856 26.9402 94.1353 27.5599 94.1353 28.3246C94.1353 29.063 94.412 29.6564 94.9658 30.1046C95.546 30.5266 96.258 30.7375 97.1018 30.7375C98.1831 30.7375 99.1323 30.5133 99.9498 30.0651C100.794 29.5904 101.44 28.9444 101.888 28.127C102.363 27.3093 102.6 26.4128 102.6 25.4371V19.8993C102.6 18.9764 102.231 18.2116 101.493 17.6051C100.781 16.9722 99.8313 16.6558 98.6445 16.6558C97.5369 16.6558 96.548 16.959 95.6778 17.5656C94.834 18.1457 94.2143 18.9236 93.8187 19.8993L89.5863 17.8424C90.0082 16.7085 90.6674 15.7328 91.564 14.9153C92.4871 14.0715 93.5682 13.4122 94.8076 12.9376C96.0471 12.4629 97.392 12.2256 98.8423 12.2256C100.609 12.2256 102.165 12.5552 103.51 13.2144C104.855 13.8473 105.896 14.7439 106.635 15.9042C107.399 17.0382 107.782 18.3698 107.782 19.8993V34.2184H102.877V30.5399L103.985 30.4606C103.431 31.3837 102.771 32.1615 102.007 32.7944C101.242 33.401 100.372 33.8757 99.396 34.2184C98.4203 34.535 97.3393 34.6931 96.1525 34.6931Z" fill="#217AA8"/>
<path d="M79.6594 34.219V12.7007H84.8412V34.219H79.6594ZM79.6594 10.2878V4.75H84.8412V10.2878H79.6594Z" fill="#217AA8"/>
<path d="M69.6936 34.2184V4.27494H74.8754V34.2184H69.6936Z" fill="#217AA8"/>
<path d="M31.8573 34.2184V17.3283H28.0601V12.7003H31.8573V11.9883C31.8573 10.3533 32.187 8.96886 32.8462 7.83494C33.5319 6.67463 34.4811 5.79123 35.6942 5.18472C36.9073 4.57819 38.3444 4.27494 40.0059 4.27494C40.3222 4.27494 40.6652 4.3013 41.0342 4.35405C41.4299 4.38041 41.7595 4.41997 42.0231 4.47272V8.94248C41.7595 8.88975 41.509 8.86337 41.2715 8.86337C41.0606 8.83701 40.8628 8.82383 40.6782 8.82383C39.5179 8.82383 38.6213 9.08752 37.9884 9.61494C37.3555 10.116 37.0392 10.9071 37.0392 11.9883V12.7003H46.4533V17.3283H37.0392V34.2184H31.8573ZM60.1792 34.2184V12.7003H65.361V34.2184H60.1792ZM47.5213 34.2184V17.3283H43.7241V12.7003H47.5213V11.9883C47.5213 10.3533 47.851 8.96886 48.5102 7.83494C49.1695 6.67463 50.1057 5.79123 51.3188 5.18472C52.5581 4.57819 54.0084 4.27494 55.6699 4.27494C55.9862 4.27494 56.3292 4.3013 56.6982 4.35405C57.0939 4.38041 57.4102 4.41997 57.6475 4.47272V8.94248C57.4102 8.88975 57.173 8.86337 56.9355 8.86337C56.7246 8.83701 56.5268 8.82383 56.3422 8.82383C55.1819 8.82383 54.2853 9.08752 53.6524 9.61494C53.0195 10.116 52.7031 10.9071 52.7031 11.9883V12.7003H62.1173V17.3283H52.7031V34.2184H47.5213Z" fill="#217AA8"/>
<path d="M0 34.219L10.1658 4.75H17.1276L27.2933 34.219H21.4391L19.3427 27.8901H7.95067L5.81467 34.219H0ZM9.49333 23.1433H17.8L12.8951 8.46822H14.3982L9.49333 23.1433Z" fill="#217AA8"/>
<path d="M153.995 35.8008L170.286 17.9637L153.995 0.200783L153.99 9.95944L161.584 17.9726L153.995 25.9378V35.8008Z" fill="#217AA8"/>
<path d="M177.881 35.6428L166.489 23.3088L170.883 18.5548L177.881 25.8081V35.6428Z" fill="#F7A434"/>
<path d="M177.881 0.200783L166.489 12.463L170.859 17.2888L177.881 9.93146V0.200783Z" fill="#F7A434"/>
</g>
<defs>
<clipPath id="clip0_151_1215">
<rect width="178" height="35.6" fill="white" transform="translate(0 0.200001)"/>
</clipPath>
</defs>
</svg>
