<svg width="40" height="40" viewBox="0 0 40 40" fill="none" xmlns="http://www.w3.org/2000/svg">
<g clip-path="url(#clip0_553_2514)">
<path d="M27.7627 18.0575L10.9855 1.26544C10.2606 0.698363 9.72786 1.28946 9.64142 1.57783L3.27147 20.1961L0.237634 23.2287C-0.0792114 23.5459 -0.0792114 24.0553 0.237634 24.3773L4.67793 28.8229C4.95156 29.0968 5.55161 29.0968 5.82517 28.8229L8.859 25.7855L9.36787 25.6076C10.1839 27.3474 12.0512 28.3903 14.1154 28.3903C17.5188 28.3903 18.8053 26.5736 19.5013 25.3529C20.1253 24.2619 20.3173 23.07 20.0677 21.9406L27.4506 19.4031C27.8155 19.3407 28.2955 18.615 27.7627 18.0575ZM5.254 27.1023L1.96102 23.8054L3.98194 21.7821L7.27492 25.079L5.254 27.1023ZM15.6899 26.4919C13.7505 27.1792 11.72 26.5448 10.9183 25.0742L18.5268 22.4645C18.522 24.9588 16.7412 26.1266 15.6899 26.4919ZM8.63341 24.1514L4.90834 20.422L7.46212 12.9583L8.30216 13.7994C8.57096 14.0685 9.16619 14.0829 9.44948 13.7994C9.76632 13.4822 9.76632 12.9728 9.44948 12.6507L8.04776 11.2474L8.63341 9.54128L11.9744 12.8862C12.2337 13.1458 12.8337 13.1746 13.1218 12.8862C13.4386 12.569 13.4386 12.0596 13.1218 11.7376L9.22389 7.83513L10.7696 3.32717L25.7129 18.2881L8.63341 24.1514Z" fill="#237BAB"/>
<path d="M18.5445 0.0290909C18.2863 0.00896082 18.0697 0.385836 18.0641 0.853103L18.0002 5.15907C17.9919 5.62634 18.1946 6.01324 18.4529 6.02832C18.4557 6.02832 18.464 6.02832 18.4667 6.02832C18.7194 6.02832 18.9277 5.66155 18.936 5.20431L18.9999 0.898337C19.0055 0.431071 18.8028 0.0391171 18.5445 0.0290909Z" fill="#F7A434"/>
<path d="M25.7903 3.2395C25.5106 2.95793 25.0615 2.95793 24.7776 3.2395L22.2098 5.82466C21.9301 6.10623 21.9301 6.55839 22.2098 6.84425C22.4682 7.10022 22.9894 7.0789 23.2225 6.84425L25.7903 4.25909C26.0699 3.97745 26.0699 3.5253 25.7903 3.2395Z" fill="#F7A434"/>
<path d="M28.1262 10.0284L23.8236 10.0923C23.3567 10.0979 22.9902 10.3145 23.0002 10.5728C23.0102 10.8284 23.3918 11.0283 23.8487 11.0283C23.8537 11.0283 23.8688 11.0283 23.8738 11.0283L28.1764 10.9644C28.6433 10.9589 29.0098 10.7422 28.9998 10.4839C28.9847 10.2256 28.5982 10.0229 28.1262 10.0284Z" fill="#F7A434"/>
<path fill-rule="evenodd" clip-rule="evenodd" d="M40 37.4333C40 34.9849 38.0556 33 35.6571 33H28.3429C25.9444 33 24 34.9849 24 37.4333V39.3C24 39.6866 24.307 40 24.6857 40H39.3143C39.693 40 40 39.6866 40 39.3V37.4333ZM35.6571 34.4C37.2982 34.4 38.6286 35.7581 38.6286 37.4333V38.6H25.3714V37.4333C25.3714 35.7581 26.7018 34.4 28.3429 34.4H35.6571Z" fill="#F7A434"/>
<path fill-rule="evenodd" clip-rule="evenodd" d="M36 27C36 24.7909 34.2091 23 32 23C29.7909 23 28 24.7909 28 27C28 29.2091 29.7909 31 32 31C34.2091 31 36 29.2091 36 27ZM32 24.2632C33.5115 24.2632 34.7368 25.4885 34.7368 27C34.7368 28.5115 33.5115 29.7368 32 29.7368C30.4885 29.7368 29.2632 28.5115 29.2632 27C29.2632 25.4885 30.4885 24.2632 32 24.2632Z" fill="#F7A434"/>
</g>
<defs>
<clipPath id="clip0_553_2514">
<rect width="40" height="40" fill="white"/>
</clipPath>
</defs>
</svg>
