<?xml version="1.0" encoding="utf-8"?>
<!-- Generator: Adobe Illustrator 26.0.3, SVG Export Plug-In . SVG Version: 6.00 Build 0)  -->
<svg version="1.1" id="Layer_1" xmlns="http://www.w3.org/2000/svg" xmlns:xlink="http://www.w3.org/1999/xlink" x="0px" y="0px"
	 viewBox="0 0 250 203" style="enable-background:new 0 0 250 203;" xml:space="preserve">
<style type="text/css">
	.st0{fill:#0F0F0F;}
</style>
<path class="st0" d="M124.6,117c-33.6,0-67.2,0-100.8,0c-9.2,0-14.9-3.7-16.6-10.5c-2.5-9.8,4.2-17.9,15.2-18
	c23.9-0.1,47.9-0.1,71.8-0.1c44,0,87.9,0,131.9,0c0.9,0,1.8,0,2.8,0c8.7,0.4,14.6,6.2,14.7,14.2c0.1,8-5.8,13.9-14.6,14.2
	c-8.3,0.3-16.6,0.1-24.9,0.1C177.5,117,151.1,117,124.6,117C124.6,117,124.6,117,124.6,117z"/>
<path class="st0" d="M157,17.9c24.4,0,48.7,0,73.1,0c8.8,0,13.3,4.7,13.4,13.7c0.1,9.4-4.3,14.4-13.4,14.4c-49,0.1-97.9,0.1-146.9,0
	c-8.8,0-13.8-5.5-13.6-14.5c0.2-8.8,5-13.7,13.6-13.8C107.8,17.8,132.4,17.9,157,17.9z"/>
<path class="st0" d="M156.3,186.5c-24.1,0-48.3,0-72.4,0c-9.4,0-14.5-5.2-14.3-14.4c0.1-9,5-13.8,14.2-13.8c48.5,0,97,0,145.6,0
	c9.8,0,14.3,4.7,14.2,14.4c-0.1,9.3-4.7,13.8-14.1,13.8C205.1,186.5,180.7,186.5,156.3,186.5z"/>
</svg>
