<svg width="80" height="80" viewBox="0 0 80 80" fill="none" xmlns="http://www.w3.org/2000/svg">
<g opacity="0.5">
<path opacity="0.4" d="M5 17.3611V63.4444C5 71.9281 11.8774 78.8056 20.3611 78.8056H43.4028L74.125 48.0833V17.3611C74.125 8.87743 67.2476 2 58.7639 2H20.3611C11.8774 2 5 8.87743 5 17.3611Z" fill="black" fill-opacity="0.53"/>
<path d="M43.4023 63.4431V78.8043L74.1246 48.082H58.7635C50.2798 48.082 43.4023 54.9595 43.4023 63.4431Z" fill="black" fill-opacity="0.7"/>
<path fill-rule="evenodd" clip-rule="evenodd" d="M41.4813 20.241C37.7697 20.241 34.7609 23.2498 34.7609 26.9614C34.7609 30.6731 37.7697 33.6819 41.4813 33.6819C45.193 33.6819 48.2018 30.6731 48.2018 26.9614C48.2018 23.2498 45.193 20.241 41.4813 20.241ZM29.0004 26.9614C29.0004 20.0684 34.5883 14.4805 41.4813 14.4805C48.3743 14.4805 53.9623 20.0684 53.9623 26.9614C53.9623 33.8544 48.3743 39.4424 41.4813 39.4424C39.0783 39.4424 36.8339 38.7632 34.9296 37.5864L30.0769 42.439C28.9522 43.5638 27.1286 43.5638 26.0038 42.439C24.8789 41.3142 24.8789 39.4906 26.0038 38.3658L30.8563 33.5132C29.6796 31.6089 29.0004 29.3644 29.0004 26.9614Z" fill="black" fill-opacity="0.7"/>
</g>
</svg>
