<svg width="40" height="40" viewBox="0 0 40 40" fill="none" xmlns="http://www.w3.org/2000/svg">
<path d="M19.9988 21.248C20.6891 21.248 21.2488 20.6884 21.2488 19.998C21.2488 19.3077 20.6891 18.748 19.9988 18.748C19.3084 18.748 18.7488 19.3077 18.7488 19.998C18.7488 20.6884 19.3084 21.248 19.9988 21.248Z" fill="#F7A434"/>
<path d="M25.6524 17.2042L27.9337 15.0379L25.6537 12.8792C25.5354 12.7653 25.4407 12.6293 25.375 12.4789C25.3093 12.3285 25.2739 12.1665 25.2707 12.0024C25.2676 11.8383 25.2968 11.6752 25.3567 11.5223C25.4167 11.3695 25.5061 11.23 25.6199 11.1117C25.7338 10.9934 25.8698 10.8987 26.0202 10.833C26.1707 10.7673 26.3326 10.7319 26.4967 10.7287C26.6608 10.7256 26.8239 10.7548 26.9768 10.8147C27.1296 10.8747 27.2691 10.9641 27.3874 11.0779L29.9862 13.5442C30.3887 13.9317 30.6212 14.4754 30.6224 15.0354V15.0379C30.6224 15.5979 30.3912 16.1404 29.9887 16.5292L27.3887 19.0042C27.1498 19.2343 26.8293 19.36 26.4977 19.3538C26.1662 19.3476 25.8506 19.2099 25.6205 18.9711C25.3905 18.7322 25.2647 18.4117 25.2709 18.0801C25.2771 17.7485 25.4148 17.433 25.6537 17.2029L25.6524 17.2042Z" fill="#F7A434"/>
<path d="M29.4337 13.791V16.291H11.8787C11.5471 16.291 11.2292 16.1593 10.9948 15.9249C10.7604 15.6905 10.6287 15.3725 10.6287 15.041C10.6287 14.7095 10.7604 14.3916 10.9948 14.1571C11.2292 13.9227 11.5471 13.791 11.8787 13.791H29.4337Z" fill="#F7A434"/>
<path d="M14.3474 22.7963L12.0662 24.9626L14.3462 27.1213C14.4645 27.2352 14.5592 27.3712 14.6249 27.5216C14.6906 27.6721 14.726 27.834 14.7291 27.9981C14.7323 28.1622 14.703 28.3254 14.6431 28.4782C14.5832 28.631 14.4938 28.7706 14.3799 28.8888C14.2661 29.0071 14.1301 29.1018 13.9796 29.1675C13.8292 29.2332 13.6673 29.2686 13.5032 29.2718C13.3391 29.2749 13.1759 29.2457 13.0231 29.1858C12.8702 29.1259 12.7307 29.0364 12.6124 28.9226L10.0137 26.4563C9.81354 26.2628 9.65414 26.0311 9.54488 25.775C9.43561 25.5189 9.37868 25.2435 9.37744 24.9651V24.9626C9.37744 24.4026 9.60869 23.8601 10.0112 23.4713L12.6112 20.9963C12.7295 20.8824 12.869 20.7929 13.0219 20.7329C13.1747 20.6729 13.3379 20.6436 13.5021 20.6467C13.6663 20.6498 13.8283 20.6852 13.9788 20.7508C14.1293 20.8165 14.2654 20.9112 14.3793 21.0295C14.4932 21.1477 14.5827 21.2873 14.6427 21.4401C14.7027 21.593 14.732 21.7562 14.7289 21.9204C14.7259 22.0846 14.6905 22.2465 14.6248 22.397C14.5591 22.5476 14.4645 22.6837 14.3462 22.7976L14.3474 22.7963Z" fill="#F7A434"/>
<path d="M10.5662 26.2109V23.7109H28.1212C28.4527 23.7109 28.7706 23.8426 29.005 24.0771C29.2395 24.3115 29.3712 24.6294 29.3712 24.9609C29.3712 25.2925 29.2395 25.6104 29.005 25.8448C28.7706 26.0792 28.4527 26.2109 28.1212 26.2109H10.5662Z" fill="#F7A434"/>
<path d="M32.5 38.75H25C23.3424 38.75 21.7527 38.0915 20.5806 36.9194C19.4085 35.7473 18.75 34.1576 18.75 32.5V30.005C18.75 29.6735 18.8817 29.3555 19.1161 29.1211C19.3505 28.8867 19.6685 28.755 20 28.755C20.3315 28.755 20.6495 28.8867 20.8839 29.1211C21.1183 29.3555 21.25 29.6735 21.25 30.005V32.5C21.25 33.4946 21.6451 34.4484 22.3483 35.1517C23.0516 35.8549 24.0054 36.25 25 36.25H32.5C33.4946 36.25 34.4484 35.8549 35.1517 35.1517C35.8549 34.4484 36.25 33.4946 36.25 32.5V7.5C36.25 6.50544 35.8549 5.55161 35.1517 4.84835C34.4484 4.14509 33.4946 3.75 32.5 3.75H25C24.0054 3.75 23.0516 4.14509 22.3483 4.84835C21.6451 5.55161 21.25 6.50544 21.25 7.5V9.995C21.25 10.3265 21.1183 10.6445 20.8839 10.8789C20.6495 11.1133 20.3315 11.245 20 11.245C19.6685 11.245 19.3505 11.1133 19.1161 10.8789C18.8817 10.6445 18.75 10.3265 18.75 9.995V7.5C18.75 5.8424 19.4085 4.25269 20.5806 3.08058C21.7527 1.90848 23.3424 1.25 25 1.25H32.5C33.3208 1.25 34.1335 1.41166 34.8918 1.72575C35.6501 2.03984 36.3391 2.50022 36.9194 3.08058C37.4998 3.66095 37.9602 4.34994 38.2742 5.10823C38.5883 5.86651 38.75 6.67924 38.75 7.5V32.5C38.75 34.1576 38.0915 35.7473 36.9194 36.9194C35.7473 38.0915 34.1576 38.75 32.5 38.75Z" fill="#237BAB"/>
<path d="M15 38.75H7.5C4.05375 38.75 1.25 35.9462 1.25 32.5V7.5C1.25 4.05375 4.05375 1.25 7.5 1.25H15C18.4462 1.25 21.25 4.05375 21.25 7.5H18.75C18.75 5.4325 17.0675 3.75 15 3.75H7.5C5.4325 3.75 3.75 5.4325 3.75 7.5V32.5C3.75 34.5675 5.4325 36.25 7.5 36.25H15C17.0675 36.25 18.75 34.5675 18.75 32.5H21.25C21.25 35.9462 18.4462 38.75 15 38.75Z" fill="#237BAB"/>
</svg>
