<svg width="120" height="120" viewBox="0 0 120 120" fill="none" xmlns="http://www.w3.org/2000/svg">
<g clip-path="url(#clip0_176_42)">
<path d="M44.3572 93.334H8.19711V24.4252C8.19711 23.2948 7.2807 22.3784 6.15031 22.3784C5.01992 22.3784 4.10352 23.2948 4.10352 24.4252V95.3808C4.10352 96.5112 5.01992 97.4276 6.15031 97.4276H44.3572C45.4876 97.4276 46.404 96.5112 46.404 95.3808C46.404 94.2504 45.4876 93.334 44.3572 93.334Z" fill="#CCCCCC"/>
<path d="M73.831 0H6.15031C5.01992 0 4.10352 0.916406 4.10352 2.0468V17.6025C4.10352 18.7331 5.01992 19.6493 6.15031 19.6493C7.2807 19.6493 8.19711 18.7329 8.19711 17.6025V4.09359H71.7842V68.0902C71.7842 69.2206 72.7006 70.137 73.831 70.137C74.9614 70.137 75.8778 69.2206 75.8778 68.0902V2.0468C75.8778 0.916406 74.9614 0 73.831 0Z" fill="#CCCCCC"/>
<path d="M39.9903 25.6533C27.2748 25.6533 16.9297 35.9984 16.9297 48.7139C16.9297 61.4295 27.2748 71.7746 39.9903 71.7746C52.7059 71.7746 63.0509 61.4295 63.0509 48.7139C63.0507 35.9984 52.7056 25.6533 39.9903 25.6533ZM21.1353 50.7607H25.1291C25.4035 55.6845 26.6649 60.294 28.7588 63.9858C24.5893 60.9115 21.7191 56.1743 21.1353 50.7607ZM25.1291 46.6672H21.1353C21.7191 41.2536 24.5893 36.5164 28.7586 33.4421C26.6649 37.1339 25.4033 41.7432 25.1291 46.6672ZM37.9433 67.321C33.3889 65.7218 29.7582 58.9287 29.2311 50.7607H37.9433V67.321ZM37.9433 46.6672H29.2311C29.7584 38.4989 33.3891 31.7061 37.9433 30.1069V46.6672ZM42.0369 67.321V50.7607H50.7491C50.222 58.9287 46.591 65.7216 42.0369 67.321ZM42.0369 46.6672V30.1069C46.5913 31.7061 50.222 38.4992 50.7491 46.6672H42.0369ZM58.8451 46.6672H54.8513C54.5769 41.7434 53.3155 37.1339 51.2216 33.4421C55.3911 36.5164 58.2613 41.2533 58.8451 46.6672ZM51.222 63.9856C53.3155 60.2937 54.5771 55.6843 54.8518 50.7605H58.8456C58.2615 56.1743 55.3913 60.9115 51.222 63.9856Z" fill="#CCCCCC"/>
<path d="M51.998 14.7371H27.9823C26.852 14.7371 25.9355 15.6535 25.9355 16.7839C25.9355 17.9142 26.852 18.8307 27.9823 18.8307H51.998C53.1284 18.8307 54.0448 17.9142 54.0448 16.7839C54.0448 15.6535 53.1284 14.7371 51.998 14.7371Z" fill="#CCCCCC"/>
<path d="M113.85 73.1392H97.0278C95.8974 73.1392 94.981 74.0556 94.981 75.186C94.981 76.3163 95.8974 77.2328 97.0278 77.2328H111.803V115.907H53.2264V77.2328H90.2052C91.3356 77.2328 92.252 76.3163 92.252 75.186C92.252 74.0556 91.3356 73.1392 90.2052 73.1392H51.1796C50.0492 73.1392 49.1328 74.0556 49.1328 75.186V117.953C49.1328 119.084 50.0492 120 51.1796 120H113.85C114.98 120 115.897 119.084 115.897 117.953V75.186C115.897 74.0556 114.98 73.1392 113.85 73.1392Z" fill="#CCCCCC"/>
<path d="M106.579 83.5095H59.6571C58.5268 83.5095 57.6104 84.4259 57.6104 85.5563C57.6104 86.6867 58.5268 87.6031 59.6571 87.6031H106.579C107.71 87.6031 108.626 86.6867 108.626 85.5563C108.626 84.4259 107.71 83.5095 106.579 83.5095Z" fill="#CCCCCC"/>
<path d="M106.579 91.2417H101.573C100.443 91.2417 99.5264 92.1581 99.5264 93.2885C99.5264 94.4189 100.443 95.3353 101.573 95.3353H106.579C107.709 95.3353 108.626 94.4189 108.626 93.2885C108.626 92.1581 107.709 91.2417 106.579 91.2417Z" fill="#CCCCCC"/>
<path d="M94.7507 91.2417H59.6571C58.5268 91.2417 57.6104 92.1581 57.6104 93.2885C57.6104 94.4189 58.5268 95.3353 59.6571 95.3353H94.7507C95.8811 95.3353 96.7975 94.4189 96.7975 93.2885C96.7975 92.1581 95.8811 91.2417 94.7507 91.2417Z" fill="#CCCCCC"/>
<path d="M106.579 106.707H82.7587C81.6283 106.707 80.7119 107.623 80.7119 108.753C80.7119 109.884 81.6283 110.8 82.7587 110.8H106.579C107.71 110.8 108.626 109.884 108.626 108.753C108.626 107.623 107.71 106.707 106.579 106.707Z" fill="#CCCCCC"/>
<path d="M75.9361 106.707H59.6571C58.5268 106.707 57.6104 107.623 57.6104 108.753C57.6104 109.884 58.5268 110.8 59.6571 110.8H75.9361C77.0664 110.8 77.9828 109.884 77.9828 108.753C77.9828 107.623 77.0664 106.707 75.9361 106.707Z" fill="#CCCCCC"/>
<path d="M106.579 98.9741H59.6571C58.5268 98.9741 57.6104 99.8905 57.6104 101.021C57.6104 102.151 58.5268 103.068 59.6571 103.068H106.579C107.71 103.068 108.626 102.151 108.626 101.021C108.626 99.8905 107.71 98.9741 106.579 98.9741Z" fill="#CCCCCC"/>
</g>
<defs>
<clipPath id="clip0_176_42">
<rect width="120" height="120" fill="white"/>
</clipPath>
</defs>
</svg>
