<?xml version="1.0" encoding="utf-8"?>
<!-- Generator: Adobe Illustrator 24.3.0, SVG Export Plug-In . SVG Version: 6.00 Build 0)  -->
<svg version="1.1" id="Layer_1" xmlns="http://www.w3.org/2000/svg" xmlns:xlink="http://www.w3.org/1999/xlink" x="0px" y="0px"
	 viewBox="0 0 515.2 413.2" style="enable-background:new 0 0 515.2 413.2;" xml:space="preserve">
<style type="text/css">
	.st0{opacity:0.1;}
	.st1{fill-rule:evenodd;clip-rule:evenodd;fill:#CFD4FA;}
	.st2{fill:#FDA702;}
	.st3{fill:#003CFF;}
	.st4{opacity:0.4;fill:#FFFFFF;enable-background:new    ;}
	.st5{opacity:0.11;fill:#FFFFFF;enable-background:new    ;}
	.st6{fill:#FFFFFF;}
	.st7{fill:#2E2E9E;}
	.st8{fill:#1C1C7F;}
	.st9{fill:url(#SVGID_1_);}
	.st10{opacity:0.7;fill:#EBE4EA;enable-background:new    ;}
	.st11{fill:#FFC967;}
	.st12{fill:#FE6D60;}
	.st13{fill:#F3C29E;}
	.st14{fill:#6C351F;}
	.st15{fill:#EC999B;}
	.st16{fill:#EF728D;}
	.st17{fill:#20207F;}
	.st18{fill:#0A1B2C;}
	.st19{fill:#44449E;}
	.st20{fill:#F4C6BA;}
	.st21{fill:#F6B51D;}
	.st22{fill:url(#SVGID_2_);}
	.st23{fill:url(#SVGID_3_);}
	.st24{fill:#3A6C99;}
</style>
<g class="st0">
	<g>
		<g>
			<path class="st1" d="M382.8,130.2c-5.8,2.3-7-1-8.3-4.6c-2.1-6.5-2.2-6.6,3.6-10.1c2.4-1.4,3.2-3,3.1-5.8s-1.8-3.5-3.7-4.6
				c-1.9-1-5.1-2.4-5.2-3.6c-0.1-3.6,1.1-7.3,2-10.8c0.1-0.5,1.4-0.8,2.2-0.9c1.8-0.3,3.5-0.3,5.3-0.5c4.2-0.4,6.3-4.9,4-8.5
				c-4.2-6.5-4.2-6.5,1.1-12.2c0.5-0.6,1.1-1,1.6-1.6c1.2-1.6,2.6-1.8,4.2-0.7c1.3,0.8,2.7,1.5,4,2.2c3.8,1.9,8.1-0.7,8.1-4.9
				c-0.1-8.3-0.1-8.2,8.1-10.6c3.1-0.9,4.5,0,6.1,2.5c1.2,2,3,4.3,5,4.9c3.2,1,5.6-0.9,6.8-4.3c0.6-1.7,2.2-4.5,3.3-4.5
				c3.7,0.2,7.7,0.9,11,2.5c1.1,0.5,1.1,4.2,1.1,6.4c-0.1,2.8,1.3,3.9,3.5,5.1c2.3,1.3,3.7,0.5,5.4-0.7c6-4,5.9-3.8,11.4,0.8
				c3.2,2.7,4.2,5.1,1.5,8.9c-1.2,1.6-2.8,3.4-1.1,6.1c1.8,2.9,3.8,3.9,7.2,3.4c5.6-0.8,5.7-0.7,7.6,4.5c0.2,0.7,0.4,1.5,0.7,2.2
				c1.7,3.7,0.8,6.2-3,7.9c-2.7,1.2-5.4,2.9-4,6.6c0.5,1.5,1.5,3.2,2.8,3.9c6.9,3.8,6.8,3.7,5.1,11.6c-0.7,3.1-1.9,5.1-5.5,4.5
				c-0.6-0.1-1.3,0.1-1.9,0c-2.7-0.2-4.3,0.7-5.7,3.3c-1.4,2.6-0.5,4.1,0.8,6.1c1.2,1.8,3.3,4.7,2.6,5.7c-1.9,3.2-4.5,6.2-7.7,8.4
				c-1.1,0.7-4.3-1.4-6.3-2.5c-1.8-1-3.1-1.1-5.2,0c-3.1,1.7-3.4,3.9-3,6.9c0.8,5.6,0.7,5.6-4.7,7.5c-0.2,0.1-0.5,0.2-0.7,0.3
				c-6.2,2-6.3,2.1-9.8-3.5c-1.4-2.3-2.8-3.4-5.7-3.3c-3,0.1-3.8,1.8-4.9,3.9c-0.9,1.8-2.3,5-3.4,5c-3.7,0-7.7-0.9-11.1-2.3
				c-1-0.4-1.1-3.8-1-5.9c0.1-2.9-1.1-4.5-3.6-5.9c-2.9-1.6-4.5,0.2-6.4,1.4c-4.8,3.2-4.8,3.2-9.2-0.5c-0.4-0.3-0.7-0.7-1.1-1
				c-3.6-2.4-4.2-5.2-1.5-8.8c1.9-2.5,3-5.3-0.1-7.7C386.6,131.4,384.3,130.9,382.8,130.2z M428.3,141.2c18.6,0,33.8-15.1,33.8-33.7
				c0-18.4-15.4-33.9-33.7-33.9c-18.8,0-33.9,15.2-33.9,34C394.5,126.3,409.5,141.3,428.3,141.2z"/>
			<path class="st1" d="M459,107.7c-0.2,17-13.9,30.6-30.8,30.5s-31-14.3-30.7-31.1c0.3-17.2,14.1-30.6,31.3-30.4
				C445.7,76.9,459.1,90.7,459,107.7z M428.1,131.3c13.4,0,24.3-10.7,24.3-23.9c0-12.9-10.9-23.9-23.9-24.1
				c-13.1-0.1-24.1,10.8-24.1,24C404.4,120.7,414.9,131.3,428.1,131.3z"/>
		</g>
	</g>
	<path class="st1" d="M438.7,106.2c0,6.2-5,11.3-11.3,11.3c-6.2,0-11.3-5-11.3-11.3s5-11.3,11.3-11.3S438.7,100,438.7,106.2z"/>
</g>
<g>
	<path class="st2" d="M331.6,233.9v123.7c0.4,0,0.9,0.1,1.3,0.1h156.9c8.1,0,14.6-6.3,14.6-14.2v-95.4c0-7.9-6.5-14.2-14.6-14.2
		H332.9C332.4,233.8,332,233.8,331.6,233.9z"/>
	<path class="st3" d="M331.6,233.9v123.7c0.4,0,0.9,0.1,1.3,0.1h156.9c8.1,0,14.6-6.3,14.6-14.2v-95.4c0-7.9-6.5-14.2-14.6-14.2
		H332.9C332.4,233.8,332,233.8,331.6,233.9z"/>
	<path class="st3" d="M412.7,233.8h-84c-0.4,0-0.9,0-1.3,0.1v123.7c0.4,0,0.9,0.1,1.3,0.1h84V233.8z"/>
	<path class="st4" d="M489.7,233.8H332.9c-0.4,0-0.9,0-1.3,0.1v5c0.4-0.1,0.9-0.1,1.3-0.1h156.9c8.1,0,14.6,6.3,14.6,14.2v-5
		C504.3,240.2,497.8,233.8,489.7,233.8z"/>
	<path class="st5" d="M347.1,335.1c-5.1,2.7-10.4,5.3-15.6,8v14.5c0.4,0,0.9,0.1,1.3,0.1h156.9c8.1,0,14.6-6.3,14.6-14.2v-95.4
		C504.7,249.7,369.6,323.3,347.1,335.1z"/>
	<g>
		<path class="st6" d="M447.7,306.9h28.4c1,0,1.8-0.8,1.8-1.8s-0.8-1.8-1.8-1.8h-28.4c-1,0-1.8,0.8-1.8,1.8S446.7,306.9,447.7,306.9
			z"/>
		<path class="st6" d="M356.3,306.9h72.9c1,0,1.8-0.8,1.8-1.8s-0.8-1.8-1.8-1.8h-72.9c-1,0-1.8,0.8-1.8,1.8S355.3,306.9,356.3,306.9
			z"/>
	</g>
	<rect x="331.6" y="323.8" class="st3" width="172.8" height="15.7"/>
	<path class="st4" d="M444.2,276c0,2,1.6,3.5,3.5,3.5h27.2c2,0,3.5-1.6,3.5-3.5v-16.1c0-2-1.6-3.5-3.5-3.5h-27.2
		c-2,0-3.5,1.6-3.5,3.5V276z"/>
</g>
<g>
	<g>
		<g>
			<path class="st7" d="M371.4,399.8H103.6c-5.7,0-10.3-4.6-10.3-10.3V36.6c0-5.7,4.6-10.3,10.3-10.3h267.8
				c5.7,0,10.3,4.6,10.3,10.3v352.8C381.6,395.1,377,399.8,371.4,399.8z"/>
			<path class="st8" d="M393,38.7v348.6c0,6.8-5.5,12.4-12.3,12.4H370c6.5,0,11.8-5.2,11.8-11.8V38.1c0-6.5-5.2-11.8-11.8-11.8h10.7
				C387.4,26.4,393,31.9,393,38.7z"/>
		</g>
		
			<linearGradient id="SVGID_1_" gradientUnits="userSpaceOnUse" x1="114.9066" y1="193.0895" x2="360.1067" y2="193.0895" gradientTransform="matrix(1 0 0 -1 0 414)">
			<stop  offset="0.174" style="stop-color:#003CFF"/>
			<stop  offset="0.532" style="stop-color:#3363FF"/>
			<stop  offset="1" style="stop-color:#668AFF"/>
		</linearGradient>
		<path class="st9" d="M360.1,67.7v306.5c0,3.2-2.6,5.9-5.9,5.9H120.8c-3.2,0-5.9-2.6-5.9-5.9V67.7c0-3.2,2.6-5.9,5.9-5.9h233.3
			C357.4,61.7,360.1,64.4,360.1,67.7z"/>
		<g>
			<g>
				<path class="st10" d="M185.6,348.8h-54.8c-3.6,0-6.5-2.9-6.5-6.5v-54.8c0-3.6,2.9-6.5,6.5-6.5h54.8c3.6,0,6.5,2.9,6.5,6.5v54.8
					C192.2,345.9,189.1,348.8,185.6,348.8z"/>
			</g>
			<g>
				<path class="st10" d="M344.2,348.8h-54.8c-3.6,0-6.5-2.9-6.5-6.5v-54.8c0-3.6,2.9-6.5,6.5-6.5h54.8c3.6,0,6.5,2.9,6.5,6.5v54.8
					C350.8,345.9,347.9,348.8,344.2,348.8z"/>
			</g>
			<g>
				<path class="st10" d="M264.9,348.8H210c-3.6,0-6.5-2.9-6.5-6.5v-54.8c0-3.6,2.9-6.5,6.5-6.5h54.8c3.6,0,6.5,2.9,6.5,6.5v54.8
					C271.4,345.9,268.5,348.8,264.9,348.8z"/>
			</g>
		</g>
	</g>
	<g>
		
			<ellipse transform="matrix(0.7071 -0.7071 0.7071 0.7071 -48.5786 212.6118)" class="st11" cx="232.4" cy="164.9" rx="51.3" ry="51.3"/>
		<polygon class="st12" points="235.3,160.7 288.6,107.4 303.3,122.1 250,175.4 235.3,190.1 220.6,175.4 200.2,155 214.9,140.4 		
			"/>
	</g>
</g>
<g>
	<g>
		<path class="st13" d="M71.3,211.2c0.1-1.1,0.3-2.1,0.5-3c-0.2,0-0.4,0-0.6,0c-2.1,0-4-0.4-5.7-1.1c-1.8-0.2-3.4-0.6-4.9-1.3
			c0,0.3-0.1,0.5-0.1,0.8c-0.1,0.6-0.2,1.2-0.4,1.8c-0.6,2.4-1.5,4.2-2.3,5.6c6.3,6.8,13.9,3.7,13.9,3.7c-0.2-0.8-0.3-1.8-0.4-2.9
			C71.2,213.8,71.2,212.6,71.3,211.2z"/>
		<path class="st13" d="M95.7,193.7c-1.6,5.2-3,9.3-5.9,11.7c-0.2,0.2-0.4,0.3-0.6,0.4c-3.8,2.6-10.7,3.4-17.3,2.8
			c-6.1-0.6-12.2-2.5-15.2-5.5c-7.2-7-8.2-30.7,0.1-36.5c6.5-4.5,27.4-3.3,36.2,1.5l1.2,16.8l0.1,1l0,0c0.1,0,0.6-0.1,1.3-0.1
			c0.2,0,0.4,0,0.6,0c0.7,0,1.5,0,2.3,0.2c0,0.1,0,0.3-0.1,0.4c0.6,0.4,1.1,1,1.2,1.8C99.9,191,96.9,193,95.7,193.7z"/>
		<path class="st14" d="M86.4,197.6c-2.1,1.6-4.7-0.1-6.3-1.7c-0.5-0.5-1.4,0.3-0.8,0.8c2,1.9,5.2,3.8,7.9,1.9
			C87.6,198.2,87,197.2,86.4,197.6z"/>
		<path class="st15" d="M69.1,211.3c0.7,0.4,1.4,0.7,2.1,1.1c0-0.4,0-0.8,0.1-1.2c0.1-1.1,0.3-2.1,0.5-3c-0.2,0-0.4,0-0.6,0
			c-1.4,0-5-0.7-7.7-1.4c0.1,0.2,0.3,0.4,0.4,0.6C64.5,208.1,67.9,210.7,69.1,211.3z"/>
		<path class="st16" d="M79.1,188.8c-0.1,0.8,1.9,1.6,4.5,1.8c2.5,0.2,4.6-0.2,4.7-1s-1.9-1.6-4.5-1.8
			C81.3,187.5,79.2,188,79.1,188.8"/>
		<path class="st15" d="M92.7,168.1c-6.7-3.7-20.5-5.3-29.6-3.7c-1.3,2.4-2.3,4.4-2.4,5.1c-0.3,1.7,2,8.4,2,8.4s6.6-2.4,7.9-5.9
			c0,0,14.2,3.2,22.7,3.2L92.7,168.1z"/>
		<path class="st17" d="M69.7,169.7l1.3-5.1c-3,0.5-5.3,1.2-6.4,1.8c-3.3,2-5.2,10.5-5.2,10.5l0.4,4c0,0-0.1-0.2,0.5,1
			c0.7,1.2,4.1,11.3,3.7,10.6c-0.4-0.8,7.7-19.4,7.7-21.7C71.9,168.5,66.3,176.3,69.7,169.7C69.6,169.7,69.6,169.7,69.7,169.7"/>
		<path class="st17" d="M52.9,158c0,0,0.1,0,0.2,0c-0.1,0.1-0.2,0.1-0.3,0.2c-0.4,0.1-0.7,0.2-0.9,0.3c-1,0.7-1.7,1.8-2.3,3.1
			c-4.7,8.3-2.7,25.2,0.8,32.7c0,0,0,0.1,0.1,0.1c1,2,2,3.3,3.1,3.7c0.1,0,0.2,0.1,0.3,0.1c0.1,0,0.1,0,0.2,0s0.3,0,0.4,0
			c1.4-0.3,2.4-0.6,3.2-0.9c5.5-2-1.1-4.4-0.8-13.5c0.3-10.4,5-2.6,5-2.6s0.1-5.3,1-9.2c10.6,0.3,29.5-1,30.1-1.3
			C97.9,168.4,84.2,137.6,52.9,158z"/>
		<path class="st18" d="M57.4,157.5c1.3,0.3-4.4,0.5-4.4,0.5"/>
		<path class="st18" d="M50.6,174.9c-2.1-2.7-2.5-9.2-0.9-13.3"/>
		<path class="st19" d="M52.4,197.2c0,0,0-0.1-0.1-0.1c-3.6-7.7-5.5-24.5-0.8-32.7c0.5-1.4,1.3-2.5,2.3-3.1c0.1-0.1,0.5-0.2,0.9-0.3
			c0.1-0.1,0.2-0.1,0.3-0.2c-0.2,0-0.2,0-0.2,0c19.2-12.5,31.8-5.6,37.6,2c-4.6-8.5-17.8-18.7-39.4-4.7c0,0,0.1,0,0.2,0
			c-0.1,0.1-0.2,0.1-0.3,0.2c-0.4,0.1-0.7,0.2-0.9,0.3c-1,0.7-1.7,1.8-2.3,3.1c-4.7,8.3-2.7,25.2,0.8,32.7c0,0,0,0.1,0.1,0.1
			C51.2,195.6,51.8,196.5,52.4,197.2L52.4,197.2z"/>
		<path class="st14" d="M81.8,178.9c-0.2,0-0.4-0.1-0.6-0.2c-0.4-0.3-0.4-0.9-0.1-1.2c0.9-1,3.4-2.5,6.3-0.6
			c0.4,0.3,0.5,0.8,0.3,1.2c-0.3,0.4-0.8,0.5-1.2,0.3c-2.4-1.5-4,0.2-4.1,0.3C82.3,178.7,82,178.8,81.8,178.9z"/>
		<path class="st14" d="M84.2,182.9c-0.1,1.3,0.3,2.5,0.9,2.5c0.6,0.1,1.2-1,1.4-2.3c0.1-1.3-0.3-2.5-0.9-2.5
			C85,180.5,84.3,181.6,84.2,182.9"/>
		<path class="st13" d="M60,178.6"/>
		<path class="st13" d="M59.7,179.8c-0.4-1.3-3.8-3.3-6.2-2c-2.4,1.3-0.9,8.6,1.4,9.9c1.9,1,5.6-0.2,4.8,0.6"/>
		<path class="st14" d="M57.8,182.2c0.3,1.5,0,2.8-0.6,2.9c-0.6,0.1-0.4-1.2-0.6-2.7c-0.3-1.5-0.9-2.5-0.3-2.6
			C56.8,179.6,57.5,180.7,57.8,182.2"/>
		<path class="st14" d="M95.8,194c-0.2,0-0.4-0.1-0.4-0.3c-0.1-0.2,0.1-0.5,0.3-0.5c0.2-0.1,3.8-1.3,3.3-4.6
			c-0.1-0.7-0.4-1.1-0.9-1.5c-1.4-1-3.9-0.5-3.9-0.5c-0.2,0.1-0.4-0.1-0.5-0.3c-0.1-0.4-0.2-1.2-0.2-2.5c0-0.2,0.2-0.4,0.4-0.5
			c0.2,0,0.4,0.2,0.5,0.4c0,1,0.1,1.6,0.1,2c0.9-0.1,2.8-0.2,4.2,0.7c0.7,0.5,1.1,1.2,1.3,2.1c0.6,4.1-3.9,5.6-3.9,5.6
			C95.9,194,95.8,194,95.8,194z"/>
	</g>
	<g>
		<g>
			<path class="st20" d="M70.2,246.7c-0.9,0.9,7.6,15.8,12,16.8c8.2,1.9,24.8-1.9,24.8-1.9c11.9-3.9,8.2-4.9,14.3-8.3
				c-0.1-2.5-1.5-1.6-2.1-2.7c-11,0-22.3-2.5-33.1-0.6c-1.2,0.2-3.5-6.1-4-6.3C82.1,243.8,71.1,245.9,70.2,246.7z"/>
		</g>
		<path class="st20" d="M119.2,250.7c-0.1,0-0.2,0-0.3,0c-4.2,2.7-2.1,3.8-12.9,7.5c0,0-16.6,3.7-24.8,1.9
			c-3.2-0.7-8.5-8.7-10.9-13.4c-0.1,0-0.1,0.1-0.2,0.1c-0.9,0.9,7.6,15.8,12,16.8c8.2,1.9,24.8-1.9,24.8-1.9
			c11.9-3.9,8.2-4.9,14.3-8.3C121.2,250.8,119.8,251.8,119.2,250.7z"/>
		<g>
			<path class="st19" d="M47.5,292.9l33.1-4.2c0,0,1.8,41.7,0.2,51.7C79.1,350.2,61.2,357.8,47.5,292.9z"/>
			<path class="st19" d="M67.7,395.5c0,0-0.4-0.4-0.6,1.2c-0.2,1.5,0,5,1.2,6.1s28,2.6,28.7,0.1c0.6-2.3-21-10-21-10L67.7,395.5z"/>
			<path class="st20" d="M75.1,390l0.8,4.4c0,0-3.1,3.1-8.2,1.6l-0.9-5L75.1,390z"/>
			<path class="st19" d="M10.8,385.3c0,0-0.2-0.5-1.1,0.8c-0.8,1.3-2,4.6-1.4,6.1s24.5,13.9,26.2,11.8c1.5-1.9-15.1-17.7-15.1-17.7
				L10.8,385.3z"/>
			<path class="st20" d="M19.9,383.3l-1,4.3c0,0-4.1,1.6-8.1-1.9l1.2-5L19.9,383.3z"/>
			<path class="st17" d="M44.1,280.2c-7.3,20-12.7,44.4-12.9,45c-1.8,6-19.2,55.7-19.2,55.7l10.5,4.4c0,0,0.4,1.5,8.3-12.6
				c6.6-11.8,15.6-28.6,18.3-33.7c0.4-0.4,26-46.5,26-46.5L44.1,280.2z"/>
			<path class="st19" d="M81.4,331.8c0,0-1.1,24-2.2,40.1s-1.9,19.5-1.9,19.5l-11.4,0.4c0,0-4.8-57.7-5.8-63.9
				C59,321.7,81.4,331.8,81.4,331.8z"/>
		</g>
		<path class="st21" d="M81.4,262c0.3,4.5-0.7,28.9-0.2,29.7l-40.8-0.5c2.3-16.7,2.2-37.1,1.8-42.6c-1.3-19.3,0.9-32.9,19.5-33.8
			c2.8-0.7-1.3,0.4,2.7,0.2c5.2-0.2,5.3,1.9,10.1,3.2C79.3,219.6,80.9,253.3,81.4,262z"/>
		<path class="st21" d="M58.6,233.4l-3.7,22.4l15.1,19l11.1,6.9c0,0-0.5,4.6-2.5,4.6s-5.5,4.2-9.1,2.2c-3.5-2-11.8-6.6-16.6-9.8
			c-2.7-1.8-10.1-8.6-10.1-8.6l1-19L58.6,233.4z"/>
		<g>
			
				<linearGradient id="SVGID_2_" gradientUnits="userSpaceOnUse" x1="152.5912" y1="439.5892" x2="133.9908" y2="475.1296" gradientTransform="matrix(1 0 0 -1 0 698)">
				<stop  offset="5.376340e-02" style="stop-color:#1F8DEC"/>
				<stop  offset="0.9946" style="stop-color:#240075"/>
			</linearGradient>
			<path class="st22" d="M157.1,247.4l-2.3-6.6c-0.1-0.3-0.3-0.6-0.5-0.9l-1.9-5.4l-18.9,6.6l2,5.5c0,0.2,0.1,0.4,0.1,0.6l2.3,6.6
				c0.5,1.4,2.1,2.2,3.5,1.7s2.2-2.1,1.7-3.5l-0.7-1.9l8.8-3.1l0.7,2.1c0.5,1.4,2.1,2.2,3.5,1.7
				C156.8,250.3,157.6,248.8,157.1,247.4z"/>
			
				<linearGradient id="SVGID_3_" gradientUnits="userSpaceOnUse" x1="415.6305" y1="936.3762" x2="261.0035" y2="929.0135" gradientTransform="matrix(0.9418 -0.3361 -0.3361 -0.9418 100.1237 1237.4417)">
				<stop  offset="0.174" style="stop-color:#003CFF"/>
				<stop  offset="0.532" style="stop-color:#3363FF"/>
				<stop  offset="1" style="stop-color:#668AFF"/>
			</linearGradient>
			<path class="st23" d="M148.4,225.3l-55,19.6c-5.8-9-16.5-13.3-26.2-9.9c-11.5,4.1-17.2,17.6-12.7,30.1
				c4.4,12.6,17.4,19.3,28.9,15.3c10-3.5,15.6-14.3,13.9-25.3l54.9-19.5c2.9-1,4.3-4.2,3.3-7C154.4,225.7,151.3,224.3,148.4,225.3z
				 M79.6,270.1c-6.2,2.2-13.2-1.5-15.6-8.3c-2.4-6.7,0.7-14.1,6.8-16.3c6.2-2.2,13.2,1.5,15.7,8.3S85.9,267.9,79.6,270.1z"/>
			<path class="st20" d="M112.9,259.7L107,253c0,0,13.6-8.5,16.6-13.4c0.7-1.1,3.1-1.8,2.7,0.6c-0.4,2.4-3.3,5.4-3.3,5.4
				c3.6-2,4.5-4.6,5.3-5s1.5,0.2,1.6,2.3s-1,3.1-1,3.1s2.1,1.3,0.4,2.8C120.9,256.2,112.9,259.7,112.9,259.7z"/>
			<g>
				<path class="st20" d="M123.9,239c-0.1,0.1-0.3,0.3-0.3,0.4c0,0.1-0.1,0.1-0.1,0.2C123.6,239.4,123.8,239.2,123.9,239z"/>
				<path class="st20" d="M128.9,246c0,0,1.1-0.9,1-3.1c-0.1-2.1-0.8-2.7-1.6-2.3c-0.5,0.2-1,1.3-2.2,2.6c0.5,0.4,1.5,1.4,0.1,2.7
					c-7.4,6.6-14.5,10.1-16,10.7l2.7,3.1c0,0,8.1-3.4,16.2-10.8C131,247.3,128.9,246,128.9,246z"/>
			</g>
		</g>
		<polygon class="st24" points="59.3,210.5 56.9,215.8 72.8,222.9 75,217.8 		"/>
		<path class="st21" d="M48.5,218.6c-2.2,1.1-8.3,11.1-11.5,20.8c0.1,0,2.9,1.2,3,1.2l7.6,4.2l3.9,3.4l0,0c1.6-5.8,7-15.4,7-15.4
			l-2-17.1C56.7,215.8,52,216.8,48.5,218.6z"/>
		<g>
			<path class="st20" d="M39.7,240.1c-1.2,0-6.1,16.4-3.7,20.3c4.3,7.2,18.5,16.5,18.5,16.5c1.2-0.4,6.6,4,13.3,6.1
				c1.7-1.9,2.6-3.8,3-5c-7.7-7.9-13.7-17.8-22.6-24.2c-1-0.7,2-6.7,1.7-7.3C50.1,246.7,40.9,240.1,39.7,240.1z"/>
			<path class="st20" d="M83.9,280.3c-1.5,1.5-2.9,1.4-2.9,1.4s0.3,1.1-1.8,2.2c-1,0.5-4.6,0-4.6,0s0.7,1.4-1.6,1.9
				c-1.9,0.4-6.7-2.1-8.2-2.9c-2.1-1.1-4.6-3.2-4.6-3.2l0.3-3.9l0.2-3.6c0,0,4.2-1.6,5.4-2.2c1.2-0.5,6.2-1.3,8-2.7
				c1.6-1.4,3.3-1.4,3.3-0.4s-2,3.4-3.3,3.7c-1.4,0.4-2,0.9-0.8,1.3c0.2,0,0.4,0.1,0.7,0.2l0,0c9,1.9,8.6,0.7,9.8,0.8
				c1.2,0.1,1.8,1.4-0.2,2.8s-6,1.4-6.2,1.4c3.9,1.2,6.5,0,7.4,0.3C85.4,277.9,85.5,278.8,83.9,280.3z"/>
		</g>
	</g>
</g>
</svg>
