<svg width="40" height="40" viewBox="0 0 40 40" fill="none" xmlns="http://www.w3.org/2000/svg">
<path fill-rule="evenodd" clip-rule="evenodd" d="M35.625 12.8031C35.625 12.1465 35.4957 11.4963 35.2445 10.8897C34.9932 10.283 34.6249 9.73181 34.1606 9.2675L27.6075 2.71437C27.1432 2.25009 26.592 1.8818 25.9853 1.63054C25.3787 1.37928 24.7285 1.24998 24.0719 1.25H9.375C8.04892 1.25 6.77715 1.77678 5.83947 2.71447C4.90178 3.65215 4.375 4.92392 4.375 6.25V33.75C4.375 35.0761 4.90178 36.3479 5.83947 37.2855C6.77715 38.2232 8.04892 38.75 9.375 38.75H30.625C31.9511 38.75 33.2229 38.2232 34.1605 37.2855C35.0982 36.3479 35.625 35.0761 35.625 33.75V12.8031ZM32.3925 11.0356C32.8614 11.5044 33.1249 12.1401 33.125 12.8031V33.75C33.125 34.413 32.8616 35.0489 32.3928 35.5178C31.9239 35.9866 31.288 36.25 30.625 36.25H9.375C8.71196 36.25 8.07607 35.9866 7.60723 35.5178C7.13839 35.0489 6.875 34.413 6.875 33.75V6.25C6.875 5.58696 7.13839 4.95107 7.60723 4.48223C8.07607 4.01339 8.71196 3.75 9.375 3.75H24.0719C24.7349 3.75014 25.3706 4.01363 25.8394 4.4825L32.3925 11.0356Z" fill="#237BAB"/>
<path d="M21.25 15C21.25 14.6685 21.1183 14.3505 20.8839 14.1161C20.6495 13.8817 20.3315 13.75 20 13.75C19.6685 13.75 19.3505 13.8817 19.1161 14.1161C18.8817 14.3505 18.75 14.6685 18.75 15V18.75H16.875C16.5435 18.75 16.2255 18.8817 15.9911 19.1161C15.7567 19.3505 15.625 19.6685 15.625 20C15.625 20.3315 15.7567 20.6495 15.9911 20.8839C16.2255 21.1183 16.5435 21.25 16.875 21.25H20C20.3315 21.25 20.6495 21.1183 20.8839 20.8839C21.1183 20.6495 21.25 20.3315 21.25 20V15Z" fill="#F7A434"/>
<path fill-rule="evenodd" clip-rule="evenodd" d="M20 9.375C14.1319 9.375 9.375 14.1319 9.375 20C9.375 25.8681 14.1319 30.625 20 30.625C25.8681 30.625 30.625 25.8681 30.625 20C30.625 14.1319 25.8681 9.375 20 9.375ZM11.875 20C11.875 15.5125 15.5125 11.875 20 11.875C24.4875 11.875 28.125 15.5125 28.125 20C28.125 24.4875 24.4875 28.125 20 28.125C15.5125 28.125 11.875 24.4875 11.875 20Z" fill="#F7A434"/>
</svg>
