<svg width="150" height="150" viewBox="0 0 150 150" fill="none" xmlns="http://www.w3.org/2000/svg">
<path d="M65.1263 130.907H85.7307C86.5915 130.907 87.3333 130.595 87.956 129.973C88.5787 129.35 88.89 128.608 88.89 127.747C88.89 126.887 88.5787 126.145 87.956 125.522C87.3333 124.899 86.5915 124.588 85.7307 124.588H65.1263C64.2655 124.588 63.5237 124.899 62.901 125.522C62.2784 126.145 61.967 126.887 61.967 127.747C61.967 128.608 62.2784 129.35 62.901 129.973C63.5237 130.595 64.2655 130.907 65.1263 130.907ZM41.9122 150C38.3041 150 35.25 148.75 32.75 146.25C30.25 143.75 29 140.696 29 137.088V12.9122C29 9.30408 30.25 6.25001 32.75 3.75001C35.25 1.25 38.3041 0 41.9122 0H108.945C112.553 0 115.607 1.25 118.107 3.75001C120.607 6.25001 121.857 9.30408 121.857 12.9122V137.088C121.857 140.696 120.607 143.75 118.107 146.25C115.607 148.75 112.553 150 108.945 150H41.9122ZM39.7141 116.209V137.088C39.7141 137.637 39.9431 138.141 40.4009 138.599C40.8589 139.057 41.3626 139.286 41.9122 139.286H108.945C109.494 139.286 109.998 139.057 110.456 138.599C110.914 138.141 111.143 137.637 111.143 137.088V116.209H39.7141ZM39.7141 105.495H111.143V30.3569H39.7141V105.495ZM39.7141 19.6429H111.143V12.9122C111.143 12.3627 110.914 11.8589 110.456 11.4009C109.998 10.9431 109.494 10.7141 108.945 10.7141H41.9122C41.3626 10.7141 40.8589 10.9431 40.4009 11.4009C39.9431 11.8589 39.7141 12.3627 39.7141 12.9122V19.6429Z" fill="black"/>
</svg>
