<svg width="24" height="24" viewBox="0 0 24 24" fill="none" xmlns="http://www.w3.org/2000/svg">
<path d="M22.4938 8.1879L15.8746 1.56865C15.1163 0.810406 13.8826 0.810492 13.1244 1.56865L4.81849 9.87461H2.88216C1.80988 9.87461 0.9375 10.747 0.9375 11.8193V21.1803C0.9375 22.2526 1.80988 23.125 2.88216 23.125H17.7748C18.8471 23.125 19.7195 22.2526 19.7195 21.1803V13.7124L22.4938 10.938C23.2521 10.1798 23.2521 8.94615 22.4938 8.1879ZM14.0412 2.48537C14.1676 2.35901 14.3336 2.29578 14.4995 2.29578C14.6655 2.29578 14.8315 2.35901 14.9579 2.48537L18.3686 5.89609L14.3901 9.87461H6.65187L14.0412 2.48537ZM18.4231 21.1803C18.4231 21.5378 18.1323 21.8285 17.7748 21.8285H2.88216C2.52473 21.8285 2.23394 21.5378 2.23394 21.1803V11.8193C2.23394 11.4618 2.52473 11.1711 2.88216 11.1711H17.7748C18.1323 11.1711 18.4231 11.4618 18.4231 11.8193V21.1803ZM18.0386 9.89298C17.9512 9.88091 17.8631 9.87477 17.7748 9.87461H16.2235L19.2853 6.81276L20.2021 7.72952L18.0386 9.89298ZM21.5771 10.0214L19.7195 11.879V11.8193C19.7195 11.3265 19.5349 10.8763 19.2318 10.5333L21.1188 8.64624L21.5771 9.10457C21.8299 9.35733 21.8299 9.76861 21.5771 10.0214Z" fill="white"/>
<path d="M3.5304 18.5699H5.9426V19.8664H3.5304V18.5699ZM7.2584 18.5699H9.67061V19.8664H7.2584V18.5699ZM10.9864 18.5699H13.3987V19.8664H10.9864V18.5699ZM14.7144 18.5699H17.1266V19.8664H14.7144V18.5699ZM7.90662 13.1332H3.5304V17.0225H7.90662V13.1332ZM6.61018 15.7261H4.82684V14.4296H6.61018V15.7261Z" fill="white"/>
</svg>
