<?xml version="1.0" encoding="utf-8"?>
<!-- Generator: Adobe Illustrator 24.3.0, SVG Export Plug-In . SVG Version: 6.00 Build 0)  -->
<svg version="1.1" id="Layer_1" xmlns="http://www.w3.org/2000/svg" xmlns:xlink="http://www.w3.org/1999/xlink" x="0px" y="0px"
	 viewBox="0 0 150 150" style="enable-background:new 0 0 150 150;" xml:space="preserve">
<style type="text/css">
	.st0{fill:#000;}
</style>
<path class="st0" d="M74.9,142.8c-37.3,0-67.7-30.5-67.6-67.8c0-37.4,30.5-67.8,67.8-67.7c37.3,0.1,67.6,30.5,67.6,67.7
	C142.7,112.4,112.3,142.8,74.9,142.8z M48.4,63.6L48.4,63.6c0-2.9,0-5.8,0.3-8.7c1.2-8.8,5.7-15.2,14.1-18.5
	c5.9-2.3,11.9-2.5,18.1-1.8c12.6,1.4,20.8,10,21.2,22.7c0.1,4.1,0,8.2,0.1,12.3c0,0.8,0.2,1.6,0.6,2.3c2.6,4.9,1.8,10.5-2.1,14.5
	c-0.4,0.4-0.7,0.9-0.9,1.4c-1.6,5-4,9.6-7.4,13.6c-0.9,1-0.7,4.5,0.3,5.3c1.5,1.2,3,2.6,4.8,3.5c6.2,3.2,12.6,6.2,18.9,9.3
	c1,0.5,1.6,0.3,2.3-0.5c11.2-11.4,17.5-25.1,18.3-41c0.7-14.6-3.3-27.8-11.9-39.7c-18.2-25-52.9-32.7-79.9-17.7
	C19.5,34.9,7.3,64.3,15.5,92.5c3,10.3,8.5,19.3,16.2,26.8c0.5,0.5,0.9,1,1.8,0.6c5.8-2.8,11.6-5.3,17.3-8.2c2.5-1.3,4.7-3,7-4.7
	c1.2-0.9,1.4-4.5,0.4-5.6c-3.3-3.9-5.6-8.4-7.2-13.2c-0.2-0.6-0.6-1.3-1.1-1.8c-3.4-3.8-4.6-8.2-2.5-12.9c1-2.2,1.2-4.3,1.2-6.6
	C48.4,65.8,48.4,64.7,48.4,63.6z M112.4,124.3c-5.5-2.8-11.1-5.4-16.5-8.4c-2.7-1.5-5.2-3.6-7.7-5.6c-1.5-1.2-2.1-2.9-2-4.9
	c0.1-1.4-0.1-2.9,0.1-4.3c0.1-0.8,0.3-1.6,0.8-2.2c3.7-4,6.1-8.7,7.6-13.9c0.2-0.8,0.8-1.6,1.4-2.2c2.7-2.4,3.2-5.8,1.2-8.8
	c-0.5-0.8-0.9-1.9-0.9-2.8c-0.1-4.6,0-9.1-0.1-13.7C96.1,49.1,91.7,43.2,84,41c-5.2-1.5-10.4-1.6-15.7-0.5c-8.7,1.9-13.4,7-14.2,16
	c-0.4,4.7-0.2,9.5-0.2,14.2c0,1.3-0.3,2.5-1,3.6c-1.8,2.6-1.3,6,1,8c1.1,1,1.7,2.1,2.1,3.4c1.2,4.1,3,8,5.9,11.2
	c1.9,2,2.6,4.1,2.3,6.7c0,0.1,0,0.3,0,0.4c0.5,3.4-1.1,5.8-3.7,7.8c-0.8,0.6-1.5,1.2-2.4,1.8c-6.1,4.1-12.8,7-19.4,10
	c-0.4,0.2-0.8,0.4-1.3,0.6C59.9,141.8,92.2,140.7,112.4,124.3z"/>
</svg>
