<?xml version="1.0" encoding="utf-8"?>
<!-- Generator: Adobe Illustrator 24.3.0, SVG Export Plug-In . SVG Version: 6.00 Build 0)  -->
<svg version="1.1" id="Layer_1" xmlns="http://www.w3.org/2000/svg" xmlns:xlink="http://www.w3.org/1999/xlink" x="0px" y="0px"
	 viewBox="0 0 57 58" style="enable-background:new 0 0 57 58;" xml:space="preserve">
<style type="text/css">
	.st0{fill:#CCCCCC;}
</style>
<g>
	<path class="st0" d="M23.7,35.8c0,1,0,2,0,3.1c-0.1,0-0.2,0-0.3,0c-2,0-4,0-6,0c-3.9,0-7.1-2.7-7.9-6.5c-0.8-4.1,1.8-8.1,5.9-9.1
		c0.4-0.1,0.5-0.2,0.5-0.6c0.8-5.1,4.7-9.3,9.8-10.5c6.1-1.4,12.3,1.8,14.6,7.6c0.1,0.2,0.2,0.4,0.5,0.4c4.3,1.3,7.1,5.3,6.8,9.7
		c-0.3,4.5-3.8,8.3-8.3,8.9c-1.3,0.1-2.6,0.1-3.9,0.1c-0.7,0-1.4,0-2.1,0c0-1.1,0-2.1,0-3.1c0.3,0,0.6-0.1,0.9-0.1
		c1.8-0.4,3-1.5,3.6-3.2c0.6-1.8,0.2-3.4-1.1-4.7c-1.6-1.7-3.3-3.4-5-5c-1.8-1.8-4.7-1.7-6.5,0c-1.6,1.6-3.3,3.2-4.9,4.9
		c-1.4,1.4-1.8,3.1-1.1,5c0.7,1.8,2.1,2.9,4,3.1C23.4,35.7,23.6,35.7,23.7,35.8C23.7,35.8,23.7,35.8,23.7,35.8z"/>
	<path class="st0" d="M26.8,30.1c-0.7,0.7-1.3,1.3-2,2c-0.9,0.9-2.3,0.4-2.6-0.8c-0.1-0.5,0-1,0.4-1.4c1.6-1.6,3.2-3.2,4.8-4.8
		c0.6-0.6,1.6-0.6,2.2,0c1.6,1.6,3.2,3.2,4.8,4.8c0.6,0.6,0.6,1.6,0,2.2c-0.6,0.6-1.6,0.6-2.2,0c-0.7-0.6-1.3-1.3-2.1-2
		c0,0.1,0,0.3,0,0.4c0,3.8,0,7.5,0,11.3c0,0.2,0,0.5-0.1,0.7c-0.2,0.8-0.9,1.2-1.7,1.1C27.6,43.6,27,43,27,42.2c0-0.1,0-0.3,0-0.4
		c0-3.7,0-7.5,0-11.2c0-0.1,0-0.3,0-0.4C26.9,30.1,26.9,30.1,26.8,30.1z"/>
</g>
</svg>
