<svg width="40" height="40" viewBox="0 0 40 40" fill="none" xmlns="http://www.w3.org/2000/svg">
<path d="M26.3882 28.312H22.5484C22.2457 28.312 22 28.5494 22 28.8432V39.4688C22 39.762 22.2457 40 22.5484 40H26.3882C26.6915 40 26.9366 39.762 26.9366 39.4688V28.8438C26.9366 28.55 26.6915 28.3125 26.3882 28.3125V28.312ZM25.8398 38.9375H23.0968V29.375H25.8398V38.9375ZM32.415 31.4708H28.5746C28.2714 31.4708 28.0262 31.7088 28.0262 32.002V39.4688C28.0262 39.762 28.2714 40 28.5746 40H32.415C32.7177 40 32.9634 39.762 32.9634 39.4688V32.002C32.9634 31.7082 32.7182 31.4708 32.415 31.4708ZM31.8666 38.9375H29.123V32.5333H31.8666V38.9375ZM38.4516 23H34.6173C34.3146 23 34.0689 23.238 34.0689 23.5312V39.4688C34.0689 39.762 34.3146 40 34.6173 40H38.4516C38.7543 40 39 39.762 39 39.4688V23.5312C39 23.238 38.7543 23 38.4516 23ZM37.9032 38.9375H35.1657V24.0625H37.9032V38.9375Z" fill="#F7A434"/>
<path fill-rule="evenodd" clip-rule="evenodd" d="M10.9996 1C14.0371 1 16.4996 3.46243 16.4996 6.5C16.4996 9.53757 14.0371 12 10.9996 12C7.96206 12 5.49957 9.53757 5.49957 6.5C5.49957 3.46243 7.96206 1 10.9996 1ZM14.7627 6.5C14.7627 4.42166 13.0779 2.73684 10.9996 2.73684C8.92128 2.73684 7.23641 4.42167 7.23641 6.5C7.23641 8.57833 8.92128 10.2632 10.9996 10.2632C13.0779 10.2632 14.7627 8.57834 14.7627 6.5ZM16.0286 14.7499C19.3265 14.7499 22 17.4792 22 20.8458V23.4124C22 23.944 21.5779 24.3749 21.0571 24.3749H0.942857C0.422131 24.3749 0 23.944 0 23.4124V20.8458C0 17.4792 2.67355 14.7499 5.97143 14.7499H16.0286ZM20.1143 20.8458C20.1143 18.5423 18.285 16.6749 16.0286 16.6749H5.97143C3.715 16.6749 1.88571 18.5423 1.88571 20.8458V22.4499H20.1143V20.8458Z" fill="#237BAB"/>
</svg>
