<svg width="24" height="24" viewBox="0 0 24 24" fill="none" xmlns="http://www.w3.org/2000/svg">
<path d="M21.2888 4.55738L12.2888 0.807378C12.1039 0.730874 11.8961 0.730874 11.7112 0.807378L2.71125 4.55738C2.57463 4.61437 2.45794 4.71051 2.37586 4.8337C2.29378 4.95688 2.24999 5.1016 2.25 5.24963V9.48263C2.25526 11.9762 2.91133 14.4252 4.15332 16.5874C5.39531 18.7497 7.18021 20.5503 9.3315 21.8111L11.625 23.1476C11.7397 23.2146 11.8702 23.2498 12.003 23.2498C12.1358 23.2498 12.2663 23.2146 12.381 23.1476L14.6722 21.8111C16.8228 20.5498 18.607 18.749 19.8483 16.5868C21.0896 14.4246 21.7451 11.9758 21.75 9.48263V5.24963C21.75 5.1016 21.7062 4.95688 21.6241 4.8337C21.5421 4.71051 21.4254 4.61437 21.2888 4.55738ZM20.25 9.48263C20.2457 11.7141 19.6588 13.9058 18.5474 15.8408C17.436 17.7758 15.8386 19.3871 13.9133 20.5151L12 21.6311L10.0875 20.5151C8.16207 19.3871 6.56455 17.7759 5.45301 15.8409C4.34147 13.9059 3.75444 11.7142 3.75 9.48263V5.74988L12 2.31188L20.25 5.74988V9.48263Z" fill="white"/>
<path d="M8.78031 10.6265C8.63886 10.4899 8.44941 10.4143 8.25276 10.416C8.05611 10.4178 7.868 10.4966 7.72895 10.6357C7.58989 10.7747 7.51101 10.9629 7.50931 11.1595C7.5076 11.3561 7.58319 11.5456 7.71981 11.687L10.5323 14.4995C10.673 14.6402 10.8637 14.7191 11.0626 14.7191C11.2614 14.7191 11.4522 14.6402 11.5928 14.4995L16.2803 9.81205C16.4169 9.6706 16.4925 9.48115 16.4908 9.2845C16.4891 9.08785 16.4102 8.89974 16.2712 8.76069C16.1321 8.62163 15.944 8.54275 15.7474 8.54104C15.5507 8.53934 15.3613 8.61493 15.2198 8.75155L11.0626 12.9088L8.78031 10.6265Z" fill="white"/>
</svg>
