<?xml version="1.0" encoding="utf-8"?>
<!-- Generator: Adobe Illustrator 24.3.0, SVG Export Plug-In . SVG Version: 6.00 Build 0)  -->
<svg version="1.1" id="Layer_1" xmlns="http://www.w3.org/2000/svg" xmlns:xlink="http://www.w3.org/1999/xlink" x="0px" y="0px"
	 viewBox="0 0 450 408" style="enable-background:new 0 0 450 408;" xml:space="preserve">
<style type="text/css">
	.st0{opacity:0.1;}
	.st1{fill-rule:evenodd;clip-rule:evenodd;fill:#CFD4FA;}
	.st2{fill:#FDA702;}
	.st3{fill:#003CFF;}
	.st4{opacity:0.4;fill:#FFFFFF;enable-background:new    ;}
	.st5{opacity:0.11;fill:#FFFFFF;enable-background:new    ;}
	.st6{fill:#FFFFFF;}
	.st7{fill:#030349;}
	.st8{fill:#3838A0;}
	.st9{fill:#2C2C93;}
	.st10{fill:url(#SVGID_1_);}
	.st11{fill:url(#SVGID_2_);}
	.st12{fill:#0854FF;}
	.st13{fill:url(#SVGID_3_);}
	.st14{fill:url(#SVGID_4_);}
	.st15{fill:url(#SVGID_5_);}
	.st16{fill:#7D9EB7;}
	.st17{fill:#F3C29E;}
	.st18{fill:#6C351F;}
	.st19{fill:#EC999B;}
	.st20{fill:#EF728D;}
	.st21{fill:#20207F;}
	.st22{fill:#0A1B2C;}
	.st23{fill:#44449E;}
	.st24{fill:#F4C6BA;}
	.st25{fill:#F6B51D;}
	.st26{fill:url(#SVGID_6_);}
	.st27{fill:url(#SVGID_7_);}
	.st28{fill:#3A6C99;}
	.st29{fill:#F27D0C;}
</style>
<g>
	<g class="st0">
		<g>
			<g>
				<path class="st1" d="M320.2,126.4c-5.8,2.3-7-1-8.3-4.6c-2.1-6.5-2.2-6.6,3.6-10.1c2.4-1.4,3.2-3,3.1-5.8
					c-0.1-2.8-1.8-3.5-3.7-4.6c-1.9-1-5.1-2.4-5.2-3.6c-0.1-3.6,1.1-7.3,2-10.8c0.1-0.5,1.4-0.8,2.2-0.9c1.8-0.3,3.5-0.3,5.3-0.5
					c4.2-0.4,6.3-4.9,4-8.5c-4.2-6.5-4.2-6.5,1.1-12.2c0.5-0.6,1.1-1,1.6-1.6c1.2-1.6,2.6-1.8,4.2-0.7c1.3,0.8,2.7,1.5,4,2.2
					c3.8,1.9,8.1-0.7,8.1-4.9c-0.1-8.3-0.1-8.2,8.1-10.6c3.1-0.9,4.5,0,6.1,2.5c1.2,2,3,4.3,5,4.9c3.2,1,5.6-0.9,6.8-4.3
					c0.6-1.7,2.2-4.5,3.3-4.5c3.7,0.2,7.7,0.9,11,2.5c1.1,0.5,1.1,4.2,1.1,6.4c-0.1,2.8,1.3,3.9,3.5,5.1c2.3,1.3,3.7,0.5,5.4-0.7
					c6-4,5.9-3.8,11.4,0.8c3.2,2.7,4.2,5.1,1.5,8.9c-1.2,1.6-2.8,3.4-1.1,6.1c1.8,2.9,3.8,3.9,7.2,3.4c5.6-0.8,5.7-0.7,7.6,4.5
					c0.2,0.7,0.4,1.5,0.7,2.2c1.7,3.7,0.8,6.2-3,7.9c-2.7,1.2-5.4,2.9-4,6.6c0.5,1.5,1.5,3.2,2.8,3.9c6.9,3.8,6.8,3.7,5.1,11.6
					c-0.7,3.1-1.9,5.1-5.5,4.5c-0.6-0.1-1.3,0.1-1.9,0c-2.7-0.2-4.3,0.7-5.7,3.3c-1.4,2.6-0.5,4.1,0.8,6.1c1.2,1.8,3.3,4.7,2.6,5.7
					c-1.9,3.2-4.5,6.2-7.7,8.4c-1.1,0.7-4.3-1.4-6.3-2.5c-1.8-1-3.1-1.1-5.2,0c-3.1,1.7-3.4,3.9-3,6.9c0.8,5.6,0.7,5.6-4.7,7.5
					c-0.2,0.1-0.5,0.2-0.7,0.3c-6.2,2-6.3,2.1-9.8-3.5c-1.4-2.3-2.8-3.4-5.7-3.3c-3,0.1-3.8,1.8-4.9,3.9c-0.9,1.8-2.3,5-3.4,5
					c-3.7,0-7.7-0.9-11.1-2.3c-1-0.4-1.1-3.8-1-5.9c0.1-2.9-1.1-4.5-3.6-5.9c-2.9-1.6-4.5,0.2-6.4,1.4c-4.8,3.2-4.8,3.2-9.2-0.5
					c-0.4-0.3-0.7-0.7-1.1-1c-3.6-2.4-4.2-5.2-1.5-8.8c1.9-2.5,3-5.3-0.1-7.7C324,127.6,321.7,127.1,320.2,126.4z M365.7,137.4
					c18.6,0,33.8-15.1,33.8-33.7c0-18.4-15.4-33.9-33.7-33.9c-18.8,0-33.9,15.2-33.9,34C331.9,122.5,346.9,137.5,365.7,137.4z"/>
				<path class="st1" d="M396.4,103.9c-0.2,17-13.9,30.6-30.8,30.5c-16.9-0.1-31-14.3-30.7-31.1c0.3-17.2,14.1-30.6,31.3-30.4
					C383.1,73.1,396.5,86.9,396.4,103.9z M365.5,127.5c13.4,0,24.3-10.7,24.3-23.9c0-12.9-10.9-23.9-23.9-24.1
					c-13.1-0.1-24.1,10.8-24.1,24C341.8,116.9,352.3,127.5,365.5,127.5z"/>
			</g>
		</g>
		<path class="st1" d="M376.1,102.4c0,6.2-5,11.3-11.3,11.3c-6.2,0-11.3-5-11.3-11.3s5-11.3,11.3-11.3S376.1,96.2,376.1,102.4z"/>
	</g>
	<g class="st0">
		<g>
			<g>
				<g>
					<path class="st1" d="M62.7,106.5c-3.9,1.6-4.7-0.7-5.5-3.1c-1.4-4.4-1.5-4.4,2.4-6.8c1.6-1,2.1-2.1,2.1-3.9
						c0-1.9-1.2-2.4-2.5-3.1s-3.5-1.6-3.5-2.5c0-2.4,0.8-4.8,1.4-7.3c0.1-0.3,1-0.6,1.5-0.6c1.2-0.2,2.4-0.2,3.6-0.3
						c2.8-0.2,4.3-3.3,2.7-5.7c-2.8-4.4-2.8-4.4,0.7-8.3c0.4-0.4,0.8-0.7,1.1-1.1c0.8-1.1,1.7-1.2,2.9-0.5c0.9,0.6,1.8,1,2.7,1.5
						c2.6,1.3,5.4-0.5,5.4-3.3c-0.1-5.6-0.1-5.5,5.4-7.2c2.1-0.6,3.1,0,4.1,1.7c0.8,1.3,2,2.9,3.4,3.4c2.2,0.7,3.8-0.6,4.6-2.9
						c0.4-1.2,1.5-3.1,2.2-3c2.5,0.1,5.1,0.6,7.5,1.7c0.8,0.4,0.8,2.8,0.7,4.3c-0.1,1.9,0.9,2.6,2.4,3.5s2.5,0.3,3.7-0.5
						c4.1-2.7,4-2.6,7.7,0.5c2.2,1.9,2.8,3.5,1,6c-0.8,1.1-1.9,2.3-0.8,4.2c1.2,2,2.6,2.6,4.8,2.3c3.8-0.6,3.8-0.5,5.1,3.1
						c0.2,0.5,0.3,1,0.5,1.5c1.1,2.5,0.5,4.2-2.1,5.3c-1.8,0.8-3.6,2-2.7,4.4c0.4,1,1,2.1,1.9,2.6c4.6,2.6,4.6,2.5,3.4,7.9
						c-0.5,2.1-1.3,3.5-3.7,3c-0.4-0.1-0.9,0-1.3,0c-1.8-0.1-2.9,0.5-3.8,2.2s-0.4,2.8,0.6,4.1c0.8,1.2,2.2,3.2,1.8,3.9
						c-1.3,2.2-3.1,4.2-5.1,5.6c-0.7,0.5-2.9-0.9-4.3-1.7c-1.2-0.7-2.1-0.7-3.5,0c-2.1,1.1-2.3,2.7-2,4.7c0.5,3.8,0.5,3.8-3.2,5
						c-0.2,0.1-0.3,0.1-0.5,0.2c-4.2,1.4-4.3,1.4-6.6-2.4c-0.9-1.5-1.9-2.3-3.8-2.2c-2,0.1-2.6,1.2-3.3,2.7
						c-0.6,1.2-1.5,3.4-2.3,3.4c-2.5,0-5.1-0.6-7.5-1.5c-0.7-0.3-0.7-2.6-0.7-4c0.1-2-0.7-3-2.5-4c-2-1.1-3,0.1-4.3,1
						c-3.3,2.2-3.3,2.2-6.2-0.4c-0.3-0.2-0.5-0.5-0.8-0.7c-2.4-1.6-2.9-3.5-1-5.9c1.3-1.7,2-3.6,0-5.2
						C65.2,107.4,63.7,107,62.7,106.5z M93.5,114c12.7,0,22.9-10.3,23-22.9c0-12.5-10.4-23-22.9-23c-12.8-0.1-23.1,10.3-23,23.1
						C70.6,103.8,80.8,114,93.5,114z"/>
					<path class="st1" d="M93.3,107.3c9.1,0,16.4-7.3,16.4-16.1S102.3,75,93.6,74.9c-8.9-0.1-16.3,7.3-16.3,16.2
						C77.3,100.1,84.4,107.3,93.3,107.3z"/>
				</g>
			</g>
		</g>
		<g>
			<g>
				<g>
					<path class="st1" d="M11.5,74.4c-2.4,1-2.9-0.4-3.4-2c-0.9-2.6-0.9-2.7,1.5-4.1c1-0.6,1.3-1.3,1.3-2.4c0-1.2-0.8-1.5-1.6-1.9
						c-0.7-0.6-2.1-1.2-2.1-1.7c0-1.5,0.5-3,0.9-4.5c0.1-0.2,0.6-0.4,0.9-0.4c0.7-0.1,1.5-0.1,2.2-0.2c1.8-0.1,2.6-2,1.7-3.5
						c-1.8-2.7-1.8-2.7,0.5-5.2c0.2-0.2,0.5-0.4,0.7-0.7c0.5-0.7,1.1-0.7,1.8-0.3c0.5,0.3,1.1,0.6,1.7,0.9c1.6,0.8,3.4-0.3,3.4-2.1
						c-0.1-3.5,0-3.4,3.4-4.4c1.3-0.4,1.9,0,2.6,1.1c0.5,0.8,1.3,1.8,2.1,2.1c1.4,0.4,2.4-0.4,2.9-1.8c0.3-0.7,0.9-1.9,1.4-1.9
						c1.6,0.1,3.2,0.4,4.6,1c0.5,0.2,0.5,1.8,0.4,2.7c0,1.2,0.6,1.6,1.5,2.2c1,0.6,1.6,0.2,2.3-0.3c2.5-1.7,2.5-1.6,4.7,0.3
						c1.3,1.2,1.8,2.2,0.6,3.7c-0.5,0.7-1.2,1.4-0.5,2.6c0.8,1.2,1.6,1.6,3,1.4c2.4-0.4,2.4-0.3,3.2,1.9c0.1,0.3,0.2,0.6,0.3,0.9
						c0.7,1.5,0.3,2.6-1.3,3.3c-1.1,0.5-2.3,1.2-1.7,2.8c0.2,0.6,0.7,1.3,1.2,1.6c2.9,1.6,2.9,1.5,2.1,4.8c-0.3,1.3-0.8,2.1-2.3,1.9
						c-0.3,0-0.5,0-0.8,0c-1.1-0.1-1.8,0.3-2.4,1.4c-0.6,1.1-0.2,1.7,0.3,2.6c0.5,0.8,1.4,2,1.1,2.4c-0.8,1.3-1.9,2.6-3.2,3.5
						c-0.5,0.3-1.8-0.6-2.7-1c-0.8-0.4-1.3-0.5-2.2,0c-1.3,0.7-1.4,1.7-1.2,2.9c0.3,2.3,0.3,2.3-2,3.1c-0.1,0-0.2,0.1-0.3,0.1
						c-2.6,0.8-2.7,0.9-4.1-1.5c-0.6-1-1.2-1.4-2.4-1.4c-1.3,0-1.6,0.8-2,1.6s-1,2.1-1.4,2.1c-1.6,0-3.2-0.4-4.6-1
						c-0.4-0.2-0.5-1.6-0.4-2.5c0-1.2-0.5-1.9-1.5-2.5c-1.2-0.7-1.9,0.1-2.7,0.6c-2,1.4-2,1.4-3.8-0.2c-0.2-0.1-0.3-0.3-0.5-0.4
						c-1.5-1-1.8-2.2-0.6-3.7c0.8-1,1.3-2.2,0-3.2C13.1,74.9,12.2,74.7,11.5,74.4z M30.7,73c4.5,0,8.2-3.6,8.2-8.2
						c0-4.4-3.7-8.2-8.2-8.3c-4.5,0-8.2,3.7-8.2,8.3C22.6,69.4,26.2,73,30.7,73z"/>
				</g>
			</g>
		</g>
	</g>
	<g>
		<g>
			<path class="st2" d="M268.1,175.7v123.7c0.4,0,0.9,0.1,1.3,0.1h156.9c8.1,0,14.6-6.3,14.6-14.2v-95.4c0-7.9-6.5-14.2-14.6-14.2
				H269.4C268.9,175.6,268.5,175.6,268.1,175.7z"/>
			<path class="st3" d="M268.1,175.7v123.7c0.4,0,0.9,0.1,1.3,0.1h156.9c8.1,0,14.6-6.3,14.6-14.2v-95.4c0-7.9-6.5-14.2-14.6-14.2
				H269.4C268.9,175.6,268.5,175.6,268.1,175.7z"/>
			<path class="st3" d="M349.2,175.6h-84c-0.4,0-0.9,0-1.3,0.1v123.7c0.4,0,0.9,0.1,1.3,0.1h84V175.6z"/>
			<path class="st4" d="M426.2,175.6H269.4c-0.4,0-0.9,0-1.3,0.1v5c0.4-0.1,0.9-0.1,1.3-0.1h156.9c8.1,0,14.6,6.3,14.6,14.2v-5
				C440.8,182,434.3,175.6,426.2,175.6z"/>
			<path class="st5" d="M283.6,276.9c-5.1,2.7-10.4,5.3-15.6,8v14.5c0.4,0,0.9,0.1,1.3,0.1h156.9c8.1,0,14.6-6.3,14.6-14.2v-95.4
				C441.2,191.5,306.1,265.1,283.6,276.9z"/>
			<g>
				<path class="st6" d="M384.2,248.7h28.4c1,0,1.8-0.8,1.8-1.8s-0.8-1.8-1.8-1.8h-28.4c-1,0-1.8,0.8-1.8,1.8
					S383.2,248.7,384.2,248.7z"/>
				<path class="st6" d="M292.8,248.7h72.9c1,0,1.8-0.8,1.8-1.8s-0.8-1.8-1.8-1.8h-72.9c-1,0-1.8,0.8-1.8,1.8
					S291.8,248.7,292.8,248.7z"/>
			</g>
			<rect x="268.1" y="265.6" class="st3" width="172.8" height="15.7"/>
			<path class="st4" d="M380.7,217.8c0,2,1.6,3.5,3.5,3.5h27.2c2,0,3.5-1.6,3.5-3.5v-16.1c0-2-1.6-3.5-3.5-3.5h-27.2
				c-2,0-3.5,1.6-3.5,3.5V217.8z"/>
		</g>
		<g>
			<g>
				<g>
					<path class="st7" d="M342.9,372.4c0,13.2-10.4,23.9-23.3,23.9H163.3c-12.9,0-23.3-10.7-23.3-23.9V37.8
						c0-13.2,10.5-23.9,23.3-23.9h156.4c12.9,0,23.3,10.7,23.3,23.9L342.9,372.4L342.9,372.4z"/>
					<path class="st8" d="M319.6,13.9H163.3c-12.9,0-23.3,10.7-23.3,23.9v4.8c0-13.2,10.5-23.9,23.3-23.9h156.4
						c12.9,0,23.3,10.7,23.3,23.9v-4.8C342.9,24.6,332.4,13.9,319.6,13.9z"/>
					<rect x="149.9" y="38.4" class="st9" width="183" height="333.5"/>
					
						<linearGradient id="SVGID_1_" gradientUnits="userSpaceOnUse" x1="214.5378" y1="-328.7708" x2="237.1322" y2="-118.6407" gradientTransform="matrix(1 0 0 1 0 284)">
						<stop  offset="0.174" style="stop-color:#003CFF"/>
						<stop  offset="0.532" style="stop-color:#3363FF"/>
						<stop  offset="1" style="stop-color:#668AFF"/>
					</linearGradient>
					<rect x="149.9" y="47.2" class="st10" width="183" height="315.7"/>
				</g>
				
					<linearGradient id="SVGID_2_" gradientUnits="userSpaceOnUse" x1="244.2121" y1="2.3869" x2="250.6608" y2="102.3416" gradientTransform="matrix(1 0 0 1 0 284)">
					<stop  offset="5.376340e-02" style="stop-color:#FFFFFF"/>
					<stop  offset="1" style="stop-color:#A6C2E7"/>
				</linearGradient>
				<rect x="189.2" y="290.5" class="st11" width="116" height="84.4"/>
				<g>
					<g>
						<g>
							<g>
								<polygon class="st12" points="273.1,239.3 271.4,239.3 271.4,249.5 288.7,264.9 305.2,264.6 305.2,262.8 289.3,263.1 
									273.1,248.8 								"/>
								<polygon class="st12" points="283.4,228.4 281.7,228.4 281.7,238.8 299,254.1 315.4,253.8 315.4,252.1 299.6,252.4 
									283.4,238 								"/>
								<path class="st12" d="M312.4,264.2c0,2.3-1.9,4.2-4.2,4.2s-4.2-1.9-4.2-4.2c0-2.3,1.9-4.2,4.2-4.2
									C310.5,259.9,312.4,261.8,312.4,264.2z M310.7,264.2c0-1.4-1.1-2.5-2.5-2.5c-1.4,0-2.5,1.1-2.5,2.5s1.1,2.5,2.5,2.5
									C309.6,266.8,310.7,265.6,310.7,264.2z"/>
								<path class="st12" d="M322.3,253.9c0,2.3-1.9,4.2-4.2,4.2c-2.3,0-4.2-1.9-4.2-4.2s1.9-4.2,4.2-4.2
									C320.4,249.7,322.3,251.6,322.3,253.9z M320.6,253.9c0-1.4-1.1-2.5-2.5-2.5c-1.4,0-2.5,1.1-2.5,2.5s1.1,2.5,2.5,2.5
									C319.3,256.5,320.6,255.3,320.6,253.9z"/>
							</g>
						</g>
						<g>
							<g>
								<polygon class="st12" points="215.3,239.3 217,239.3 217,249.5 199.8,264.9 183.3,264.6 183.3,262.8 199.1,263.1 
									215.3,248.8 								"/>
								<polygon class="st12" points="205.1,228.4 206.8,228.4 206.8,238.8 189.5,254.1 173.1,253.8 173.1,252.1 188.9,252.4 
									205.1,238 								"/>
								<path class="st12" d="M180.4,259.9c2.3,0,4.2,1.9,4.2,4.2c0,2.3-1.9,4.2-4.2,4.2s-4.2-1.9-4.2-4.2
									C176,261.8,178,259.9,180.4,259.9z M180.4,266.8c1.4,0,2.5-1.1,2.5-2.5s-1.1-2.5-2.5-2.5s-2.5,1.1-2.5,2.5
									C177.8,265.6,179,266.8,180.4,266.8z"/>
								<path class="st12" d="M170.5,249.6c2.3,0,4.2,1.9,4.2,4.2s-1.9,4.2-4.2,4.2s-4.2-1.9-4.2-4.2
									C166.3,251.6,168.2,249.6,170.5,249.6z M170.5,256.5c1.4,0,2.5-1.1,2.5-2.5s-1.1-2.5-2.5-2.5s-2.5,1.1-2.5,2.5
									C168,255.3,169.1,256.5,170.5,256.5z"/>
							</g>
						</g>
						<g>
							<g>
								<g>
									<path class="st12" d="M184.2,145.8c-19.4,50.8,26,97.6,58.6,113.2c32.6-15.6,78-62.4,58.6-113.2
										C263.3,133.1,222.5,133.1,184.2,145.8z"/>
								</g>
							</g>
							<g>
								
									<linearGradient id="SVGID_3_" gradientUnits="userSpaceOnUse" x1="246.9752" y1="-272.1724" x2="240.6754" y2="-18.0865" gradientTransform="matrix(1 0 0 1 0 284)">
									<stop  offset="5.376340e-02" style="stop-color:#1F8DEC"/>
									<stop  offset="0.9946" style="stop-color:#240075"/>
								</linearGradient>
								<path class="st13" d="M196.6,154.1c-0.2,0.5-0.4,0.9-0.5,1.4c-17.4,39,19.6,77.1,46.8,89.3c27.2-12.2,64.2-50.3,46.8-89.3
									c-0.2-0.5-0.4-1-0.5-1.4c0.5-0.2-22.7-7.8-46-7C219.8,146.4,196.4,154.1,196.6,154.1z"/>
							</g>
						</g>
						<g>
							<path class="st12" d="M259.8,181.4h-1.4v-4.7c0-7.6-6.8-13.8-15.2-13.8S228,169,228,176.7v4.7h-1.3c-2.1,0-3.8,1.6-3.8,3.5
								V215c0,1.9,1.7,3.5,3.8,3.5h33.2c2.1,0,3.8-1.6,3.8-3.5v-30.1C263.8,182.9,262,181.4,259.8,181.4z M235.6,176.6
								c0-3.8,3.4-6.9,7.7-6.9c4.2,0,7.8,3.1,7.8,6.9v4.7h-15.4v-4.7H235.6z"/>
							
								<linearGradient id="SVGID_4_" gradientUnits="userSpaceOnUse" x1="256.5535" y1="-178.7934" x2="239.1606" y2="-57.0402" gradientTransform="matrix(1 0 0 1 0 284)">
								<stop  offset="5.376340e-02" style="stop-color:#1F8DEC"/>
								<stop  offset="0.9946" style="stop-color:#240075"/>
							</linearGradient>
							<path class="st14" d="M249.9,197.3c0-3.3-2.9-5.9-6.5-5.9s-6.5,2.6-6.5,5.9c0,2.1,1.2,4,3.1,5v5.5c0,1.7,1.5,3.1,3.4,3.1
								s3.4-1.4,3.4-3.1v-5.5C248.6,201.3,249.9,199.4,249.9,197.3z"/>
						</g>
					</g>
					<g>
						<g>
							<g>
								<path class="st12" d="M242.2,65.5c-2.3,0-4.2-1.9-4.2-4.2s1.9-4.2,4.2-4.2s4.2,1.9,4.2,4.2
									C246.5,63.5,244.6,65.5,242.2,65.5z M242.2,58.6c-1.4,0-2.5,1.1-2.5,2.5s1.1,2.5,2.5,2.5s2.5-1.1,2.5-2.5
									C244.8,59.8,243.6,58.6,242.2,58.6z"/>
								<path class="st12" d="M264.5,70.2c-2.3,0-4.2-1.9-4.2-4.2s1.9-4.2,4.2-4.2c2.3,0,4.2,1.9,4.2,4.2
									C268.7,68.3,266.8,70.2,264.5,70.2z M264.5,63.3c-1.4,0-2.5,1.1-2.5,2.5s1.1,2.5,2.5,2.5c1.4,0,2.5-1.1,2.5-2.5
									C267,64.5,265.9,63.3,264.5,63.3z"/>
								<g>
									<rect x="241.4" y="64.2" class="st12" width="1.7" height="75.7"/>
									<polygon class="st12" points="234.6,140 232.8,140 232.8,97.1 211,81.2 212,79.8 234.6,96.3 									"/>
									<polygon class="st12" points="251.7,140.8 250,140.8 250,77 262.3,67.4 263.3,68.7 251.7,77.8 									"/>
									<path class="st12" d="M209.4,83c-2.3,0-4.2-1.9-4.2-4.2c0-2.3,1.9-4.2,4.2-4.2s4.2,1.9,4.2,4.2S211.7,83,209.4,83z
										 M209.4,76.2c-1.4,0-2.5,1.1-2.5,2.5s1.1,2.5,2.5,2.5s2.5-1.1,2.5-2.5S210.8,76.2,209.4,76.2z"/>
								</g>
							</g>
						</g>
						<g>
							<g>
								<g>
									<polygon class="st12" points="218.1,141.2 219.9,141.2 219.9,130.1 181.7,130.6 181.8,132.3 218.1,131.8 									"/>
									<polygon class="st12" points="218.1,127.5 219.9,127.5 219.9,116.4 170.3,117 170.3,118.7 218.1,118.1 									"/>
									<polygon class="st12" points="218.1,137.8 219.9,137.8 219.9,102.2 181.7,102.7 181.8,104.4 218.1,103.9 									"/>
									<path class="st12" d="M174.6,103.4c0-2.3,1.9-4.2,4.2-4.2s4.2,1.9,4.2,4.2c0,2.3-1.9,4.2-4.2,4.2
										C176.6,107.8,174.6,105.8,174.6,103.4z M176.3,103.4c0,1.4,1.1,2.5,2.5,2.5s2.5-1.1,2.5-2.5s-1.1-2.5-2.5-2.5
										S176.3,102,176.3,103.4z"/>
									<path class="st12" d="M174.6,131.2c0-2.3,1.9-4.2,4.2-4.2s4.2,1.9,4.2,4.2s-1.9,4.2-4.2,4.2
										C176.6,135.5,174.6,133.5,174.6,131.2z M176.3,131.2c0,1.4,1.1,2.5,2.5,2.5s2.5-1.1,2.5-2.5s-1.1-2.5-2.5-2.5
										S176.3,129.8,176.3,131.2z"/>
									<path class="st12" d="M163.6,117.1c0-2.3,1.9-4.2,4.2-4.2s4.2,1.9,4.2,4.2c0,2.3-1.9,4.2-4.2,4.2
										C165.5,121.5,163.6,119.4,163.6,117.1z M165.3,117.1c0,1.4,1.1,2.5,2.5,2.5s2.5-1.1,2.5-2.5s-1.1-2.5-2.5-2.5
										C166.4,114.6,165.3,115.7,165.3,117.1z"/>
								</g>
								<g>
									<polygon class="st12" points="264.7,141.2 263,141.2 263,130.1 301.1,130.6 301.1,132.3 264.7,131.8 									"/>
									<polygon class="st12" points="264.7,127.5 263,127.5 263,116.4 312.5,117 312.5,118.7 264.7,118.1 									"/>
									<polygon class="st12" points="264.7,133.9 263,133.9 263,102.2 301.1,102.7 301.1,104.4 264.7,103.9 									"/>
									<path class="st12" d="M303.9,107.8c-2.3,0-4.2-1.9-4.2-4.2c0-2.3,1.9-4.2,4.2-4.2c2.3,0,4.2,1.9,4.2,4.2
										C308.2,105.8,306.3,107.8,303.9,107.8z M303.9,100.9c-1.4,0-2.5,1.1-2.5,2.5s1.1,2.5,2.5,2.5c1.4,0,2.5-1.1,2.5-2.5
										C306.5,102,305.4,100.9,303.9,100.9z"/>
									<path class="st12" d="M303.9,135.5c-2.3,0-4.2-1.9-4.2-4.2s1.9-4.2,4.2-4.2c2.3,0,4.2,1.9,4.2,4.2
										C308.2,133.5,306.3,135.5,303.9,135.5z M303.9,128.7c-1.4,0-2.5,1.1-2.5,2.5s1.1,2.5,2.5,2.5c1.4,0,2.5-1.1,2.5-2.5
										C306.5,129.8,305.4,128.7,303.9,128.7z"/>
									<path class="st12" d="M315,121.5c-2.3,0-4.2-1.9-4.2-4.2c0-2.3,1.9-4.2,4.2-4.2c2.3,0,4.2,1.9,4.2,4.2
										C319.3,119.4,317.4,121.5,315,121.5z M315,114.6c-1.4,0-2.5,1.1-2.5,2.5s1.1,2.5,2.5,2.5c1.4,0,2.5-1.1,2.5-2.5
										C317.6,115.7,316.4,114.6,315,114.6z"/>
								</g>
							</g>
						</g>
					</g>
				</g>
				<g>
					<path class="st7" d="M319.8,290.5c0,4.8-5.2,8.8-11.8,8.8H174.8c-6.4,0-11.8-3.9-11.8-8.8l0,0c0-4.8,5.2-8.9,11.8-8.9h133.1
						C314.5,281.7,319.8,285.6,319.8,290.5L319.8,290.5z"/>
					<path class="st9" d="M305,289.7c0,1.1-1.2,2.1-2.8,2.1H181.7c-1.5,0-2.8-0.9-2.8-2.1l0,0c0-1.1,1.2-2.1,2.8-2.1h120.5
						C303.7,287.6,305,288.6,305,289.7L305,289.7z"/>
					
						<linearGradient id="SVGID_5_" gradientUnits="userSpaceOnUse" x1="241.5844" y1="4.8926" x2="242.5891" y2="61.13" gradientTransform="matrix(1 0 0 1 0 284)">
						<stop  offset="5.376340e-02" style="stop-color:#FFFFFF"/>
						<stop  offset="0.8172" style="stop-color:#A6C2E7"/>
						<stop  offset="0.9888" style="stop-color:#94C2E7"/>
						<stop  offset="0.9946" style="stop-color:#93C2E7"/>
					</linearGradient>
					<rect x="184.2" y="289.7" class="st15" width="116" height="67.3"/>
					<g>
						<path class="st16" d="M238.4,305c0,1.4-1.1,2.5-2.5,2.5h-36.2c-1.4,0-2.5-1.1-2.5-2.5l0,0c0-1.4,1.1-2.5,2.5-2.5h36.2
							C237.2,302.5,238.4,303.6,238.4,305L238.4,305z"/>
						<path class="st16" d="M250.9,320.1c0,1.4-1.1,2.5-2.5,2.5h-48.7c-1.4,0-2.5-1.1-2.5-2.5l0,0c0-1.4,1.1-2.5,2.5-2.5h48.7
							C249.8,317.6,250.9,318.7,250.9,320.1L250.9,320.1z"/>
						<path class="st16" d="M289,320.1c0,1.4-1.1,2.5-2.5,2.5H269c-1.4,0-2.5-1.1-2.5-2.5l0,0c0-1.4,1.1-2.5,2.5-2.5h17.6
							C287.9,317.6,289,318.7,289,320.1L289,320.1z"/>
						<path class="st16" d="M250.9,336.7c0,1.4-1.1,2.5-2.5,2.5h-48.7c-1.4,0-2.5-1.1-2.5-2.5l0,0c0-1.4,1.1-2.5,2.5-2.5h48.7
							C249.8,334.1,250.9,335.3,250.9,336.7L250.9,336.7z"/>
						<path class="st16" d="M289,336.7c0,1.4-1.1,2.5-2.5,2.5H269c-1.4,0-2.5-1.1-2.5-2.5l0,0c0-1.4,1.1-2.5,2.5-2.5h17.6
							C287.9,334.1,289,335.3,289,336.7L289,336.7z"/>
					</g>
				</g>
			</g>
			<g>
				<g>
					<path class="st17" d="M91.6,203.8c0.1-1.1,0.3-2.1,0.5-3c-0.2,0-0.4,0-0.6,0c-2.1,0-4-0.4-5.7-1.1c-1.8-0.2-3.4-0.6-4.9-1.3
						c0,0.3-0.1,0.5-0.1,0.8c-0.1,0.6-0.2,1.2-0.4,1.8c-0.6,2.4-1.5,4.2-2.3,5.6c6.3,6.8,13.9,3.7,13.9,3.7
						c-0.2-0.8-0.3-1.8-0.4-2.9C91.5,206.4,91.5,205.2,91.6,203.8z"/>
					<path class="st17" d="M116,186.3c-1.6,5.2-3,9.3-5.9,11.7c-0.2,0.2-0.4,0.3-0.6,0.4c-3.8,2.6-10.7,3.4-17.3,2.8
						c-6.1-0.6-12.2-2.5-15.2-5.5c-7.2-7-8.2-30.7,0.1-36.5c6.5-4.5,27.4-3.3,36.2,1.5l1.2,16.8l0.1,1l0,0c0.1,0,0.6-0.1,1.3-0.1
						c0.2,0,0.4,0,0.6,0c0.7,0,1.5,0,2.3,0.2c0,0.1,0,0.3-0.1,0.4c0.6,0.4,1.1,1,1.2,1.8C120.2,183.6,117.2,185.6,116,186.3z"/>
					<path class="st18" d="M106.7,190.2c-2.1,1.6-4.7-0.1-6.3-1.7c-0.5-0.5-1.4,0.3-0.8,0.8c2,1.9,5.2,3.8,7.9,1.9
						C107.9,190.8,107.3,189.8,106.7,190.2z"/>
					<path class="st19" d="M89.4,203.9c0.7,0.4,1.4,0.7,2.1,1.1c0-0.4,0-0.8,0.1-1.2c0.1-1.1,0.3-2.1,0.5-3c-0.2,0-0.4,0-0.6,0
						c-1.4,0-5-0.7-7.7-1.4c0.1,0.2,0.3,0.4,0.4,0.6C84.8,200.7,88.2,203.3,89.4,203.9z"/>
					<path class="st20" d="M99.4,181.4c-0.1,0.8,1.9,1.6,4.5,1.8c2.5,0.2,4.6-0.2,4.7-1s-1.9-1.6-4.5-1.8
						C101.6,180.1,99.5,180.6,99.4,181.4"/>
					<path class="st19" d="M113,160.7c-6.7-3.7-20.5-5.3-29.6-3.7c-1.3,2.4-2.3,4.4-2.4,5.1c-0.3,1.7,2,8.4,2,8.4s6.6-2.4,7.9-5.9
						c0,0,14.2,3.2,22.7,3.2L113,160.7z"/>
					<path class="st21" d="M90,162.3l1.3-5.1c-3,0.5-5.3,1.2-6.4,1.8c-3.3,2-5.2,10.5-5.2,10.5l0.4,4c0,0-0.1-0.2,0.5,1
						c0.7,1.2,4.1,11.3,3.7,10.6c-0.4-0.8,7.7-19.4,7.7-21.7C92.2,161.1,86.6,168.9,90,162.3C89.9,162.3,89.9,162.3,90,162.3"/>
					<path class="st21" d="M73.2,150.6c0,0,0.1,0,0.2,0c-0.1,0.1-0.2,0.1-0.3,0.2c-0.4,0.1-0.7,0.2-0.9,0.3c-1,0.7-1.7,1.8-2.3,3.1
						c-4.7,8.3-2.7,25.2,0.8,32.7c0,0,0,0.1,0.1,0.1c1,2,2,3.3,3.1,3.7c0.1,0,0.2,0.1,0.3,0.1c0.1,0,0.1,0,0.2,0s0.3,0,0.4,0
						c1.4-0.3,2.4-0.6,3.2-0.9c5.5-2-1.1-4.4-0.8-13.5c0.3-10.4,5-2.6,5-2.6s0.1-5.3,1-9.2c10.6,0.3,29.5-1,30.1-1.3
						C118.2,161,104.5,130.2,73.2,150.6z"/>
					<path class="st22" d="M77.7,150.1c1.3,0.3-4.4,0.5-4.4,0.5"/>
					<path class="st22" d="M70.9,167.5c-2.1-2.7-2.5-9.2-0.9-13.3"/>
					<path class="st23" d="M72.7,189.8c0,0,0-0.1-0.1-0.1c-3.6-7.7-5.5-24.5-0.8-32.7c0.5-1.4,1.3-2.5,2.3-3.1
						c0.1-0.1,0.5-0.2,0.9-0.3c0.1-0.1,0.2-0.1,0.3-0.2c-0.2,0-0.2,0-0.2,0c19.2-12.5,31.8-5.6,37.6,2c-4.6-8.5-17.8-18.7-39.4-4.7
						c0,0,0.1,0,0.2,0c-0.1,0.1-0.2,0.1-0.3,0.2c-0.4,0.1-0.7,0.2-0.9,0.3c-1,0.7-1.7,1.8-2.3,3.1c-4.7,8.3-2.7,25.2,0.8,32.7
						c0,0,0,0.1,0.1,0.1C71.5,188.2,72.1,189.1,72.7,189.8L72.7,189.8z"/>
					<path class="st18" d="M102.1,171.5c-0.2,0-0.4-0.1-0.6-0.2c-0.4-0.3-0.4-0.9-0.1-1.2c0.9-1,3.4-2.5,6.3-0.6
						c0.4,0.3,0.5,0.8,0.3,1.2c-0.3,0.4-0.8,0.5-1.2,0.3c-2.4-1.5-4,0.2-4.1,0.3C102.6,171.3,102.3,171.4,102.1,171.5z"/>
					<path class="st18" d="M104.5,175.5c-0.1,1.3,0.3,2.5,0.9,2.5c0.6,0.1,1.2-1,1.4-2.3c0.1-1.3-0.3-2.5-0.9-2.5
						C105.3,173.1,104.6,174.2,104.5,175.5"/>
					<path class="st17" d="M80.3,171.2"/>
					<path class="st17" d="M80,172.4c-0.4-1.3-3.8-3.3-6.2-2c-2.4,1.3-0.9,8.6,1.4,9.9c1.9,1,5.6-0.2,4.8,0.6"/>
					<path class="st18" d="M78.1,174.8c0.3,1.5,0,2.8-0.6,2.9c-0.6,0.1-0.4-1.2-0.6-2.7c-0.3-1.5-0.9-2.5-0.3-2.6
						C77.1,172.2,77.8,173.3,78.1,174.8"/>
					<path class="st18" d="M116.1,186.6c-0.2,0-0.4-0.1-0.4-0.3c-0.1-0.2,0.1-0.5,0.3-0.5c0.2-0.1,3.8-1.3,3.3-4.6
						c-0.1-0.7-0.4-1.1-0.9-1.5c-1.4-1-3.9-0.5-3.9-0.5c-0.2,0.1-0.4-0.1-0.5-0.3c-0.1-0.4-0.2-1.2-0.2-2.5c0-0.2,0.2-0.4,0.4-0.5
						c0.2,0,0.4,0.2,0.5,0.4c0,1,0.1,1.6,0.1,2c0.9-0.1,2.8-0.2,4.2,0.7c0.7,0.5,1.1,1.2,1.3,2.1c0.6,4.1-3.9,5.6-3.9,5.6
						C116.2,186.6,116.1,186.6,116.1,186.6z"/>
				</g>
				<g>
					<g>
						<path class="st24" d="M90.5,239.3c-0.9,0.9,7.6,15.8,12,16.8c8.2,1.9,24.8-1.9,24.8-1.9c11.9-3.9,8.2-4.9,14.3-8.3
							c-0.1-2.5-1.5-1.6-2.1-2.7c-11,0-22.3-2.5-33.1-0.6c-1.2,0.2-3.5-6.1-4-6.3C102.4,236.4,91.4,238.5,90.5,239.3z"/>
					</g>
					<path class="st24" d="M139.5,243.3c-0.1,0-0.2,0-0.3,0c-4.2,2.7-2.1,3.8-12.9,7.5c0,0-16.6,3.7-24.8,1.9
						c-3.2-0.7-8.5-8.7-10.9-13.4c-0.1,0-0.1,0.1-0.2,0.1c-0.9,0.9,7.6,15.8,12,16.8c8.2,1.9,24.8-1.9,24.8-1.9
						c11.9-3.9,8.2-4.9,14.3-8.3C141.5,243.4,140.1,244.4,139.5,243.3z"/>
					<g>
						<path class="st23" d="M67.8,285.5l33.1-4.2c0,0,1.8,41.7,0.2,51.7C99.4,342.8,81.5,350.4,67.8,285.5z"/>
						<path class="st23" d="M88,388.1c0,0-0.4-0.4-0.6,1.2c-0.2,1.5,0,5,1.2,6.1s28,2.6,28.7,0.1c0.6-2.3-21-10-21-10L88,388.1z"/>
						<path class="st24" d="M95.4,382.6l0.8,4.4c0,0-3.1,3.1-8.2,1.6l-0.9-5L95.4,382.6z"/>
						<path class="st23" d="M31.1,377.9c0,0-0.2-0.5-1.1,0.8c-0.8,1.3-2,4.6-1.4,6.1s24.5,13.9,26.2,11.8
							c1.5-1.9-15.1-17.7-15.1-17.7L31.1,377.9z"/>
						<path class="st24" d="M40.2,375.9l-1,4.3c0,0-4.1,1.6-8.1-1.9l1.2-5L40.2,375.9z"/>
						<path class="st21" d="M64.4,272.8c-7.3,20-12.7,44.4-12.9,45c-1.8,6-19.2,55.7-19.2,55.7l10.5,4.4c0,0,0.4,1.5,8.3-12.6
							c6.6-11.8,15.6-28.6,18.3-33.7c0.4-0.4,26-46.5,26-46.5L64.4,272.8z"/>
						<path class="st23" d="M101.7,324.4c0,0-1.1,24-2.2,40.1S97.6,384,97.6,384l-11.4,0.4c0,0-4.8-57.7-5.8-63.9
							C79.3,314.3,101.7,324.4,101.7,324.4z"/>
					</g>
					<path class="st25" d="M101.7,254.6c0.3,4.5-0.7,28.9-0.2,29.7l-40.8-0.5c2.3-16.7,2.2-37.1,1.8-42.6
						c-1.3-19.3,0.9-32.9,19.5-33.8c2.8-0.7-1.3,0.4,2.7,0.2c5.2-0.2,5.3,1.9,10.1,3.2C99.6,212.2,101.2,245.9,101.7,254.6z"/>
					<path class="st25" d="M78.9,226l-3.7,22.4l15.1,19l11.1,6.9c0,0-0.5,4.6-2.5,4.6s-5.5,4.2-9.1,2.2c-3.5-2-11.8-6.6-16.6-9.8
						c-2.7-1.8-10.1-8.6-10.1-8.6l1-19L78.9,226z"/>
					<g>
						
							<linearGradient id="SVGID_6_" gradientUnits="userSpaceOnUse" x1="172.9186" y1="-32.9516" x2="154.3182" y2="-68.492" gradientTransform="matrix(1 0 0 1 0 284)">
							<stop  offset="5.376340e-02" style="stop-color:#1F8DEC"/>
							<stop  offset="0.9946" style="stop-color:#240075"/>
						</linearGradient>
						<path class="st26" d="M177.4,240l-2.3-6.6c-0.1-0.3-0.3-0.6-0.5-0.9l-1.9-5.4l-18.9,6.6l2,5.5c0,0.2,0.1,0.4,0.1,0.6l2.3,6.6
							c0.5,1.4,2.1,2.2,3.5,1.7s2.2-2.1,1.7-3.5l-0.7-1.9l8.8-3.1l0.7,2.1c0.5,1.4,2.1,2.2,3.5,1.7
							C177.1,242.9,177.9,241.4,177.4,240z"/>
						
							<linearGradient id="SVGID_7_" gradientUnits="userSpaceOnUse" x1="379.0345" y1="-476.1233" x2="224.4075" y2="-468.7607" gradientTransform="matrix(0.9418 -0.3361 0.3361 0.9418 0.2262 784.3131)">
							<stop  offset="0.174" style="stop-color:#003CFF"/>
							<stop  offset="0.532" style="stop-color:#3363FF"/>
							<stop  offset="1" style="stop-color:#668AFF"/>
						</linearGradient>
						<path class="st27" d="M168.7,217.9l-55,19.6c-5.8-9-16.5-13.3-26.2-9.9c-11.5,4.1-17.2,17.6-12.7,30.1
							c4.4,12.6,17.4,19.3,28.9,15.3c10-3.5,15.6-14.3,13.9-25.3l54.9-19.5c2.9-1,4.3-4.2,3.3-7
							C174.7,218.3,171.6,216.9,168.7,217.9z M99.9,262.7c-6.2,2.2-13.2-1.5-15.6-8.3c-2.4-6.7,0.7-14.1,6.8-16.3
							c6.2-2.2,13.2,1.5,15.7,8.3C109.3,253.2,106.2,260.5,99.9,262.7z"/>
						<path class="st24" d="M133.2,252.3l-5.9-6.7c0,0,13.6-8.5,16.6-13.4c0.7-1.1,3.1-1.8,2.7,0.6c-0.4,2.4-3.3,5.4-3.3,5.4
							c3.6-2,4.5-4.6,5.3-5s1.5,0.2,1.6,2.3s-1,3.1-1,3.1s2.1,1.3,0.4,2.8C141.2,248.8,133.2,252.3,133.2,252.3z"/>
						<g>
							<path class="st24" d="M144.2,231.6c-0.1,0.1-0.3,0.3-0.3,0.4c0,0.1-0.1,0.1-0.1,0.2C143.9,232,144.1,231.8,144.2,231.6z"/>
							<path class="st24" d="M149.2,238.6c0,0,1.1-0.9,1-3.1c-0.1-2.1-0.8-2.7-1.6-2.3c-0.5,0.2-1,1.3-2.2,2.6
								c0.5,0.4,1.5,1.4,0.1,2.7c-7.4,6.6-14.5,10.1-16,10.7l2.7,3.1c0,0,8.1-3.4,16.2-10.8C151.3,239.9,149.2,238.6,149.2,238.6z"
								/>
						</g>
					</g>
					<polygon class="st28" points="79.6,203.1 77.2,208.4 93.1,215.5 95.3,210.4 					"/>
					<path class="st25" d="M68.8,211.2c-2.2,1.1-8.3,11.1-11.5,20.8c0.1,0,2.9,1.2,3,1.2l7.6,4.2l3.9,3.4l0,0c1.6-5.8,7-15.4,7-15.4
						l-2-17.1C77,208.4,72.3,209.4,68.8,211.2z"/>
					<g>
						<path class="st24" d="M60,232.7c-1.2,0-6.1,16.4-3.7,20.3c4.3,7.2,18.5,16.5,18.5,16.5c1.2-0.4,6.6,4,13.3,6.1
							c1.7-1.9,2.6-3.8,3-5c-7.7-7.9-13.7-17.8-22.6-24.2c-1-0.7,2-6.7,1.7-7.3C70.4,239.3,61.2,232.7,60,232.7z"/>
						<path class="st24" d="M104.2,272.9c-1.5,1.5-2.9,1.4-2.9,1.4s0.3,1.1-1.8,2.2c-1,0.5-4.6,0-4.6,0s0.7,1.4-1.6,1.9
							c-1.9,0.4-6.7-2.1-8.2-2.9c-2.1-1.1-4.6-3.2-4.6-3.2l0.3-3.9l0.2-3.6c0,0,4.2-1.6,5.4-2.2c1.2-0.5,6.2-1.3,8-2.7
							c1.6-1.4,3.3-1.4,3.3-0.4s-2,3.4-3.3,3.7c-1.4,0.4-2,0.9-0.8,1.3c0.2,0,0.4,0.1,0.7,0.2l0,0c9,1.9,8.6,0.7,9.8,0.8
							c1.2,0.1,1.8,1.4-0.2,2.8s-6,1.4-6.2,1.4c3.9,1.2,6.5,0,7.4,0.3C105.7,270.5,105.8,271.4,104.2,272.9z"/>
					</g>
				</g>
			</g>
		</g>
		<g>
			<g>
				<g>
					<path class="st2" d="M338.9,388.7c0,3.5,3.3,6.3,7.4,6.3h60.9c4,0,7.4-2.8,7.4-6.3v-9.5c0-3.5-3.3-6.3-7.4-6.3h-61
						c-4,0-7.4,2.8-7.4,6.3v9.5H338.9z"/>
					<path class="st29" d="M346.2,387.6h61c4,0,7.4-2.8,7.4-6.3v7.4c0,3.5-3.3,6.3-7.4,6.3h-61c-4,0-7.4-2.8-7.4-6.3v-7.4
						C338.9,384.8,342.1,387.6,346.2,387.6z"/>
					<rect x="402.9" y="373.2" class="st29" width="4.3" height="20.3"/>
					<rect x="393.5" y="373.2" class="st29" width="4.3" height="20.3"/>
					<rect x="384.1" y="373.2" class="st29" width="4.3" height="20.3"/>
					<rect x="374.7" y="373.2" class="st29" width="4.3" height="20.3"/>
					<rect x="365.4" y="373.2" class="st29" width="4.3" height="20.3"/>
					<rect x="356" y="373.2" class="st29" width="4.3" height="20.3"/>
					<rect x="346.6" y="373.2" class="st29" width="4.3" height="20.3"/>
				</g>
				<g>
					<path class="st2" d="M114.1,347.8c0,3.5,3.3,6.3,7.4,6.3h60.9c4,0,7.4-2.8,7.4-6.3v-9.5c0-3.5-3.3-6.3-7.4-6.3h-60.9
						c-4,0-7.4,2.8-7.4,6.3C114.1,338.3,114.1,347.8,114.1,347.8z"/>
					<path class="st29" d="M121.5,346.7h60.9c4,0,7.4-2.8,7.4-6.3v7.4c0,3.5-3.3,6.3-7.4,6.3h-60.9c-4,0-7.4-2.8-7.4-6.3v-7.4
						C114.1,343.9,117.3,346.7,121.5,346.7z"/>
					<rect x="178.2" y="332.3" class="st29" width="4.3" height="20.3"/>
					<rect x="168.8" y="332.3" class="st29" width="4.3" height="20.3"/>
					<rect x="159.4" y="332.3" class="st29" width="4.3" height="20.3"/>
					<rect x="150.1" y="332.3" class="st29" width="4.3" height="20.3"/>
					<rect x="140.7" y="332.3" class="st29" width="4.3" height="20.3"/>
					<rect x="131.2" y="332.3" class="st29" width="4.3" height="20.3"/>
					<rect x="121.9" y="332.3" class="st29" width="4.3" height="20.3"/>
				</g>
				<g>
					<path class="st2" d="M100.7,368.7c0,3.5,3.3,6.3,7.4,6.3H169c4,0,7.4-2.8,7.4-6.3v-9.5c0-3.5-3.3-6.3-7.4-6.3h-60.9
						c-4,0-7.4,2.8-7.4,6.3V368.7z"/>
					<path class="st29" d="M108.1,367.7H169c4,0,7.4-2.8,7.4-6.3v7.4c0,3.5-3.3,6.3-7.4,6.3h-60.9c-4,0-7.4-2.8-7.4-6.3v-7.4
						C100.7,364.9,104,367.7,108.1,367.7z"/>
					<rect x="164.8" y="353.2" class="st29" width="4.3" height="20.3"/>
					<rect x="155.4" y="353.2" class="st29" width="4.3" height="20.3"/>
					<rect x="146" y="353.2" class="st29" width="4.3" height="20.3"/>
					<rect x="136.7" y="353.2" class="st29" width="4.3" height="20.3"/>
					<rect x="127.3" y="353.2" class="st29" width="4.3" height="20.3"/>
					<rect x="117.9" y="353.2" class="st29" width="4.3" height="20.3"/>
					<rect x="108.6" y="353.2" class="st29" width="4.3" height="20.3"/>
				</g>
				<g>
					<path class="st2" d="M114.6,390.2c0,3.5,3.3,6.3,7.4,6.3h60.9c4,0,7.4-2.8,7.4-6.3v-9.5c0-3.5-3.3-6.3-7.4-6.3H122
						c-4,0-7.4,2.8-7.4,6.3C114.6,380.7,114.6,390.2,114.6,390.2z"/>
					<path class="st29" d="M122,389.2h60.9c4,0,7.4-2.8,7.4-6.3v7.4c0,3.5-3.3,6.3-7.4,6.3H122c-4,0-7.4-2.8-7.4-6.3v-7.4
						C114.6,386.4,117.9,389.2,122,389.2z"/>
					<rect x="178.7" y="374.7" class="st29" width="4.3" height="20.3"/>
					<rect x="169.3" y="374.7" class="st29" width="4.3" height="20.3"/>
					<rect x="159.9" y="374.7" class="st29" width="4.3" height="20.3"/>
					<rect x="150.6" y="374.7" class="st29" width="4.3" height="20.3"/>
					<rect x="141.2" y="374.7" class="st29" width="4.3" height="20.3"/>
					<rect x="131.8" y="374.7" class="st29" width="4.3" height="20.3"/>
					<rect x="122.5" y="374.7" class="st29" width="4.3" height="20.3"/>
				</g>
			</g>
			<g>
				<g>
					<path class="st29" d="M345.2,328.6c0-21.8,17.6-39.4,39.4-39.4s39.4,17.6,39.4,39.4S406.4,368,384.6,368
						C362.8,367.9,345.2,350.3,345.2,328.6z"/>
					<path class="st2" d="M337.7,332.3c0-21.8,17.6-39.4,39.4-39.4s39.4,17.6,39.4,39.4s-17.6,39.4-39.4,39.4
						C355.3,371.6,337.7,354.1,337.7,332.3z"/>
					<path class="st29" d="M374.3,364.2c9.4,0,17.7-4.2,23.3-11c-5.2,4.3-12,6.9-19.2,6.9c-16.7,0-30.2-13.5-30.2-30.2
						c0-7.4,2.6-14,6.9-19.2c-6.7,5.5-11,13.9-11,23.3C344.1,350.7,357.7,364.2,374.3,364.2z"/>
					<g>
						<g>
							<g>
								<g>
									<path class="st29" d="M369.4,339c0.1,0.1,0.3,0.3,0.8,0.6c0.4,0.3,1,0.5,1.6,0.8c0.6,0.3,1.4,0.6,2.2,0.9s1.6,0.5,2.4,0.6
										V336l-1.4-0.3c-1.5-0.4-2.8-0.8-4-1.3s-2.2-1.1-3-1.8s-1.5-1.6-1.9-2.6c-0.4-1-0.7-2.2-0.7-3.6c0-1.6,0.3-3,0.9-4.2
										c0.6-1.2,1.3-2.1,2.3-2.8c1-0.7,2.1-1.3,3.3-1.7c1.3-0.4,2.6-0.6,4-0.7v-5h3v5.1c2,0.2,4,0.6,5.9,1.2
										c2,0.6,3.7,1.5,5.3,2.5L387,327c-0.1-0.1-0.4-0.4-0.9-0.7c-0.5-0.3-1.1-0.7-1.9-1c-0.8-0.4-1.7-0.7-2.6-1
										c-1-0.3-2-0.6-3-0.7v5.8l2.1,0.6c1.4,0.4,2.6,0.9,3.7,1.4c1,0.5,1.9,1.1,2.6,1.7c0.7,0.7,1.2,1.4,1.5,2.3s0.5,1.9,0.5,3
										c0,1.5-0.3,2.8-0.8,4s-1.2,2.2-2.1,3c-0.9,0.8-1.9,1.5-3.1,2s-2.5,0.8-3.9,0.9v4.4h-3v-4.4c-1.9-0.2-3.6-0.6-5.3-1.3
										c-1.6-0.7-3.1-1.3-4.3-2L369.4,339z M381.5,339.3c0-0.7-0.3-1.3-0.8-1.7c-0.5-0.4-1.3-0.8-2.3-1.1v5.3
										C380.5,341.7,381.5,340.8,381.5,339.3z M373,325.5c0,0.7,0.3,1.3,0.9,1.8c0.6,0.4,1.4,0.8,2.4,1.1v-5.2
										C374.1,323.3,373,324.1,373,325.5z"/>
								</g>
							</g>
						</g>
					</g>
				</g>
			</g>
		</g>
	</g>
</g>
</svg>
