<svg width="16" height="16" viewBox="0 0 16 16" fill="none" xmlns="http://www.w3.org/2000/svg">
<g clip-path="url(#clip0_158_2)">
<path d="M9.404 1.05C8.992 -0.35 7.008 -0.35 6.595 1.05L6.495 1.39C6.267 2.166 5.453 2.609 4.677 2.381C4.577 2.352 4.481 2.312 4.39 2.262L4.08 2.092C2.797 1.394 1.394 2.797 2.093 4.079L2.262 4.39C2.708 5.21 2.285 6.231 1.39 6.495L1.05 6.595C-0.35 7.008 -0.35 8.992 1.05 9.404L1.39 9.505C2.165 9.734 2.609 10.547 2.381 11.322C2.352 11.422 2.312 11.518 2.262 11.609L2.092 11.92C1.394 13.203 2.797 14.606 4.079 13.907L4.39 13.738C5.1 13.351 5.989 13.613 6.376 14.322C6.426 14.414 6.466 14.51 6.495 14.609L6.595 14.95C7.008 16.349 8.992 16.349 9.404 14.95L9.505 14.609C9.734 13.834 10.547 13.39 11.322 13.619C11.422 13.648 11.518 13.688 11.609 13.738L11.92 13.908C13.203 14.605 14.606 13.203 13.907 11.921L13.738 11.609C13.351 10.9 13.613 10.01 14.322 9.624C14.414 9.574 14.51 9.534 14.609 9.505L14.95 9.404C16.349 8.992 16.349 7.008 14.95 6.595L14.609 6.495C13.834 6.266 13.39 5.453 13.619 4.677C13.648 4.577 13.688 4.481 13.738 4.39L13.908 4.08C14.605 2.797 13.203 1.394 11.921 2.093L11.609 2.262C10.9 2.649 10.011 2.387 9.624 1.677C9.574 1.586 9.534 1.49 9.505 1.39L9.404 1.05ZM8 10.93C6.382 10.93 5.07 9.618 5.07 8C5.07 6.382 6.382 5.07 8 5.07C9.617 5.071 10.928 6.383 10.928 8C10.928 9.617 9.617 10.928 8 10.928V10.93Z" fill="black"/>
</g>
<defs>
<clipPath id="clip0_158_2">
<rect width="16" height="16" fill="white"/>
</clipPath>
</defs>
</svg>
