<svg width="17" height="20" viewBox="0 0 17 20" fill="none" xmlns="http://www.w3.org/2000/svg">
<path d="M7.88846 0.545602C7.7548 0.575305 7.50604 0.668125 7.33154 0.75352C6.90457 0.961437 6.47759 1.3847 6.27339 1.80053L6.1323 2.08642H5.9578C5.57538 2.08642 5.18925 2.26463 4.88851 2.58022C4.50238 2.99235 4.43555 3.25595 4.43555 4.42549C4.43555 4.88588 4.4504 5.35741 4.47267 5.47993C4.58406 6.15937 5.11499 6.69031 5.79444 6.80169C6.08404 6.84996 10.7325 6.84996 11.0221 6.80169C11.7015 6.69031 12.2325 6.15937 12.3438 5.47993C12.3661 5.35741 12.381 4.88588 12.381 4.42549C12.381 3.5307 12.3401 3.22625 12.1953 2.93665C12.0914 2.73616 11.7832 2.40943 11.5864 2.29434C11.3748 2.17181 11.0369 2.07899 10.8401 2.09013L10.6768 2.10127L10.5208 1.78939C10.2498 1.25104 9.74858 0.82035 9.14339 0.612433C8.7981 0.493623 8.24489 0.46392 7.88846 0.545602Z" fill="#333333"/>
<path d="M2.59403 4.12524C1.56186 4.66731 0.811876 5.6772 0.574256 6.83931C0.503713 7.19202 0.5 7.35167 0.5 11.5843C0.5 15.3936 0.507426 16.0025 0.559405 16.2698C0.823015 17.6584 1.81062 18.8057 3.15095 19.2735C3.80069 19.5037 3.73757 19.5 8.40829 19.5C12.9639 19.5 13.001 19.5 13.5691 19.3106C14.7646 18.9171 15.6854 18.0223 16.1087 16.8342C16.3203 16.2439 16.3166 16.307 16.3166 11.5657C16.3166 7.35167 16.3129 7.19202 16.2423 6.83931C16.0047 5.67348 15.2547 4.6636 14.23 4.12895L13.9404 3.97673V4.80468C13.9404 5.71432 13.9107 5.92595 13.7213 6.41233C13.5691 6.8096 13.35 7.13633 13.0159 7.4742C12.678 7.80835 12.3513 8.02741 11.954 8.17963C11.3748 8.40611 11.4231 8.4024 8.28205 8.39126L5.41948 8.38012L5.05933 8.25389C4.27964 7.98656 3.64475 7.45935 3.25491 6.76505C3.19179 6.65367 3.08412 6.40119 3.01729 6.20813L2.89848 5.85541L2.8762 4.91978L2.85764 3.98415L2.59403 4.12524ZM11.9317 10.0917C12.2659 10.2588 12.4293 10.6115 12.3402 10.9754C12.2808 11.2241 12.0246 11.4877 11.7795 11.5472C11.5308 11.6103 5.28581 11.6103 5.03706 11.5472C4.79201 11.4877 4.53583 11.2241 4.47642 10.9754C4.38731 10.6115 4.55068 10.2588 4.88483 10.0917L5.08161 9.9952H8.40829H11.735L11.9317 10.0917ZM11.7795 13.1956C12.0246 13.255 12.2808 13.5187 12.3402 13.7674C12.4293 14.1313 12.2659 14.484 11.9317 14.6511L11.735 14.7476H8.40829H5.08161L4.88483 14.6511C4.38731 14.4023 4.29821 13.7451 4.71775 13.3813C4.80686 13.2996 4.94424 13.2142 5.02221 13.1956C5.23384 13.1399 11.5568 13.1399 11.7795 13.1956ZM8.83898 16.4629C8.91695 16.5186 9.02462 16.6263 9.0766 16.7042C9.15456 16.8193 9.16942 16.8825 9.16942 17.1238C9.16942 17.3726 9.15828 17.4245 9.06917 17.5545C9.01348 17.6325 8.90581 17.7401 8.82784 17.7921L8.69046 17.8849L6.90831 17.8961C5.70536 17.9035 5.0779 17.8961 4.98508 17.8664C4.43929 17.7067 4.27593 16.9382 4.7029 16.5409C4.91082 16.3441 4.90711 16.3441 6.87119 16.3552L8.69418 16.3627L8.83898 16.4629Z" fill="#333333"/>
</svg>
