<svg width="45" height="45" viewBox="0 0 45 45" fill="none" xmlns="http://www.w3.org/2000/svg">
<rect x="0.5" y="0.5" width="44" height="44" rx="4.5" fill="#F7F7F7" stroke="#D9D9D9"/>
<path d="M31.8386 24.6334C31.9795 23.974 32.0497 23.3016 32.048 22.6274C32.041 21.3946 31.7911 20.1753 31.3126 19.0391C30.834 17.903 30.1363 16.8723 29.2591 16.006C28.382 15.1397 27.3427 14.4548 26.2007 13.9904C25.0587 13.526 23.8364 13.2912 22.6036 13.2995C22.0643 13.2982 21.5259 13.3451 20.995 13.4399C20.1707 12.922 19.2234 12.633 18.2504 12.6026C17.2774 12.5723 16.3139 12.8017 15.4589 13.2672C14.604 13.7327 13.8885 14.4176 13.386 15.2513C12.8835 16.0851 12.6122 17.0377 12.6 18.0111C12.6006 18.9707 12.8582 19.9127 13.3459 20.7392C13.2249 21.3537 13.1624 21.9784 13.1592 22.6047C13.1695 23.829 13.4229 25.039 13.9047 26.1646C14.3864 27.2901 15.087 28.3088 15.9656 29.1614C16.8442 30.014 17.8835 30.6836 19.023 31.1314C20.1625 31.5791 21.3796 31.796 22.6036 31.7696C23.1827 31.7739 23.7608 31.7189 24.3288 31.6054C25.1125 32.0807 26.0023 32.3534 26.9177 32.399C27.8413 32.4165 28.7539 32.1958 29.5675 31.7581C30.381 31.3205 31.0681 30.6807 31.5626 29.9004C32.057 29.1201 32.3422 28.2256 32.3905 27.303C32.4389 26.3805 32.2488 25.4611 31.8386 24.6334ZM26.8939 26.4525C26.4842 27.0016 25.9261 27.4223 25.2854 27.6649C24.4924 27.9805 23.6435 28.1311 22.7904 28.1075C21.7994 28.1396 20.8153 27.9319 19.9218 27.5019C19.3993 27.2235 18.9512 26.8236 18.6155 26.3359C18.3174 25.9283 18.1472 25.4413 18.1264 24.9367C18.1241 24.8085 18.15 24.6814 18.2025 24.5644C18.2549 24.4473 18.3325 24.3433 18.4298 24.2598C18.6394 24.0693 18.9155 23.9689 19.1984 23.9801C19.4273 23.9707 19.6517 24.0456 19.829 24.1907C20.0235 24.3721 20.1748 24.595 20.2716 24.8427C20.3914 25.1533 20.5566 25.4444 20.7618 25.7065C20.9495 25.9528 21.1986 26.1456 21.484 26.2657C21.8748 26.4304 22.2963 26.5099 22.7202 26.4989C23.3199 26.5317 23.915 26.377 24.4228 26.0563C24.6188 25.9417 24.782 25.7784 24.8964 25.5823C25.0108 25.3862 25.0727 25.1638 25.0759 24.9367C25.0827 24.7763 25.0549 24.6163 24.9946 24.4675C24.9342 24.3187 24.8427 24.1846 24.7262 24.0742C24.4693 23.831 24.1568 23.6545 23.816 23.5601C23.4436 23.4436 22.9296 23.327 22.3002 23.1878C21.5774 23.0349 20.868 22.8244 20.1788 22.5583C19.6491 22.3461 19.1831 22.0006 18.826 21.5554C18.4883 21.1063 18.3152 20.5547 18.3359 19.9932C18.3352 19.4199 18.5238 18.8624 18.8725 18.4072C19.2675 17.9149 19.7926 17.5432 20.3882 17.3341C21.1443 17.0676 21.9426 16.9414 22.744 16.9617C23.3751 16.9536 24.0039 17.0398 24.6095 17.2175C25.0807 17.354 25.523 17.5754 25.9147 17.8707C26.2269 18.1033 26.4887 18.3968 26.6846 18.7333C26.8342 18.9964 26.9144 19.2932 26.9177 19.5959C26.9181 19.7271 26.8913 19.857 26.8391 19.9774C26.7869 20.0978 26.7104 20.2061 26.6143 20.2955C26.5185 20.3959 26.4025 20.4749 26.2739 20.5272C26.1453 20.5795 26.0071 20.6039 25.8683 20.5988C25.6431 20.6122 25.4204 20.5461 25.239 20.4121C25.0516 20.2369 24.8941 20.0324 24.7726 19.8065C24.587 19.4364 24.3246 19.1103 24.0028 18.8499C23.5714 18.58 23.0642 18.4573 22.5572 18.5001C22.0336 18.4757 21.5144 18.6056 21.0641 18.8737C20.9023 18.9607 20.7658 19.088 20.6678 19.2433C20.5699 19.3986 20.5137 19.5766 20.5048 19.7601C20.5061 19.9616 20.5715 20.1575 20.6916 20.3193C20.8361 20.4925 21.0201 20.6284 21.2282 20.7155C21.4408 20.8314 21.6681 20.9179 21.904 20.9724C22.1372 21.0426 22.5108 21.1355 23.0462 21.2521C23.6994 21.3924 24.3062 21.5554 24.8427 21.7184C25.3286 21.8623 25.7916 22.0742 26.2182 22.3478C26.5813 22.5865 26.8846 22.9057 27.1045 23.2806C27.3292 23.704 27.4415 24.1779 27.4305 24.6571C27.4582 25.2988 27.2692 25.9312 26.8939 26.4525Z" fill="#303030"/>
</svg>
