<?xml version="1.0" encoding="utf-8"?>
<!-- Generator: Adobe Illustrator 24.3.0, SVG Export Plug-In . SVG Version: 6.00 Build 0)  -->
<svg version="1.1" id="Layer_1" xmlns="http://www.w3.org/2000/svg" xmlns:xlink="http://www.w3.org/1999/xlink" x="0px" y="0px"
	 viewBox="0 0 150 150" style="enable-background:new 0 0 150 150;" xml:space="preserve">
<style type="text/css">
	.st0{fill:#9F9F9F;}
</style>
<path class="st0" d="M124.5,74.8c0,16.2,0.1,32.3,0,48.5c-0.1,10.2-4.8,17.8-13.9,22.5c-3.4,1.8-7.1,2.5-10.9,2.5
	c-16.1,0-32.1,0-48.2,0c-14.1,0-24.9-10.8-24.9-24.9c0-11.3,0-22.7,0-34c0-21,0-42,0-62.9c0-9.1,3.9-16.3,11.6-21.3
	c4-2.6,8.4-3.7,13.2-3.7c16.1,0,32.1,0,48.2,0c14.2,0,24.9,10.7,25,24.9C124.5,42.5,124.5,58.6,124.5,74.8z M112.2,68.7
	c0-12,0-24,0-36c0-4.8-2.2-6.9-6.9-6.9c-19.9,0-39.8,0-59.6,0c-4.7,0-6.9,2.2-6.9,6.8c0,24,0,48,0,72c0,4.7,2.2,6.8,6.8,6.8
	c19.9,0,39.8,0,59.6,0c4.8,0,6.9-2.1,6.9-6.9C112.2,92.6,112.2,80.7,112.2,68.7z M75.4,135.9C75.4,135.9,75.4,135.9,75.4,135.9
	c2.1,0,4.2,0,6.3,0c3.7-0.1,6-2.5,6-6.1c0-3.6-2.3-6-6-6.1c-4.2-0.1-8.4-0.1-12.6,0c-3.6,0.1-6,2.5-5.9,6.1c0,3.5,2.3,5.9,5.9,6
	C71.3,135.9,73.4,135.9,75.4,135.9z"/>
</svg>
