<?xml version="1.0" encoding="utf-8"?>
<!-- Generator: Adobe Illustrator 24.3.0, SVG Export Plug-In . SVG Version: 6.00 Build 0)  -->
<svg version="1.1" id="Layer_1" xmlns="http://www.w3.org/2000/svg" xmlns:xlink="http://www.w3.org/1999/xlink" x="0px" y="0px"
	 viewBox="0 0 450 413.2" style="enable-background:new 0 0 450 413.2;" xml:space="preserve">
<style type="text/css">
	.st0{fill:#C76668;}
	.st1{fill:#B0494C;}
	.st2{fill:#2E2E9E;}
	.st3{fill:#1C1C7F;}
	.st4{fill:#15156B;}
	.st5{fill:#1A2E35;}
	.st6{fill:url(#SVGID_1_);}
	.st7{fill:#6B5EFF;}
	.st8{opacity:0.6;fill:#FFFFFF;}
	.st9{opacity:0.5;fill:#B0494C;}
	.st10{fill:#E1E1E1;}
	.st11{fill:#D268CC;}
	.st12{fill:#3F3CD3;}
	.st13{fill:#413EC1;}
	.st14{fill:#FAFAFA;}
	.st15{opacity:0.25;fill:#F5F5F5;}
	.st16{fill:url(#XMLID_2_);}
	.st17{fill:url(#XMLID_3_);}
	.st18{fill:url(#XMLID_4_);}
	.st19{fill:url(#XMLID_5_);}
	.st20{opacity:0.2;}
	.st21{opacity:0.25;}
	.st22{fill:url(#XMLID_6_);}
	.st23{fill:url(#XMLID_8_);}
	.st24{fill:url(#XMLID_18_);}
</style>
<g id="Device_00000139985893829169397050000004091343212197289636_">
	<g>
		<path class="st0" d="M375.3,312.4L375.3,312.4c-0.1,0-0.1-0.1-0.2-0.1c-0.5-0.3-1-0.6-1.5-0.9c-17.7-10.2-31.7-21.2-37.7-39.2
			c-6.8-20.5-48.5-38.3-49.2-23.6c-0.7,15-144.8-56.9-144.8-56.9L172,324.1c0,0,24.8,10.9,53.6,23.7c24.7,11,37.4,14,49.4,17.3
			c6.2,1.7,11.1,3.3,15,5.9c15.7,10.5,44.3,31,47.8,33.5c0.1,0.1,0.2,0.1,0.3,0.2c0,0,0.1,0,0.1,0l0,0c5.1,3.4,11.6,3.5,18.7-0.6
			c16.3-9.4,29.6-37.4,29.6-62.6C386.3,327.2,382,316.9,375.3,312.4z"/>
		<path class="st1" d="M291.9,265.9l1.1-16.5c-1.3-1-3.1-2.6-4.9-4.2c-0.8,0.8-1.3,2-1.4,3.5c-0.2,3.3-7.4,2.4-18.6-1.2c0,0,0,0,0,0
			l6.5,28.3l-89.8,54c3.4,1.5,7.5,3.3,12,5.3l81.6-47.5c5,22.4,26.8,25.8,26.8,25.8L291.9,265.9z"/>
	</g>
	<g id="Mobile_4_">
		<g>
			<path class="st2" d="M285.7,268.8l-46.8-206c-1.1-5-4.5-6.1-7.6-7.2c-3-1.1-7.8-1.6-11.3,0.4l-89.9,51.9c-3.5,2-5.7,6.6-4.9,10.2
				l46.8,206c0.8,3.6,4.1,5.5,7.2,6.6c3,1.1,8.2,2.2,11.7,0.2l89.9-51.9C284.3,276.9,286.8,273.8,285.7,268.8z"/>
			<path class="st3" d="M279.7,271l-92.5,53.4l-47-206.9l-14.3-5.1c-0.9,1.8-1.2,3.9-0.8,5.7l46.8,206c0.8,3.6,4.1,5.5,7.2,6.6
				c3,1.1,8.2,2.2,11.7,0.2l89.9-51.9c2.2-1.3,4.2-3.1,4.9-5.8c0,0-0.4-0.2-0.4-0.2L279.7,271z"/>
		</g>
		<path class="st4" d="M231.2,61.5L141,113.6c-2.5,1.4-4,4.6-3.4,7.1L184,325.2c0.9,3.8,4.7,5.2,8.5,3l87.8-50.7
			c2.8-1.6,4.5-5.2,3.9-8.1L237.4,63.8C236.8,60.9,234,59.9,231.2,61.5z"/>
		<g>
			<path class="st5" d="M234.6,73.2l43.6,192c0.6,2.7-1,6.2-3.7,7.7l-81.3,46.9c-2.6,1.5-5.3,0.6-5.9-2.1l-43.9-193.3
				c-0.5-2.2,0.5-4.9,2.3-6.6c0.1-0.1,0.3-0.3,0.4-0.4c0.3-0.2,0.6-0.5,1-0.7l22.9-13.2c0,0,0.7-0.4,1.5-0.9
				c0.8-0.5,1.6-0.2,1.8,0.7c0.2,0.8,1.1,1.1,1.9,0.6l26.7-15.4c0.9-0.5,1.4-1.6,1.2-2.4c-0.2-0.8,0.3-1.8,1-2.3
				c0,0,0.1-0.1,0.2-0.1l22.4-12.9l0.5-0.3C230.4,68.6,233.8,69.8,234.6,73.2z"/>
			<linearGradient id="SVGID_1_" gradientUnits="userSpaceOnUse" x1="143.2479" y1="194.7684" x2="277.0681" y2="194.7684">
				<stop  offset="0.174" style="stop-color:#003CFF"/>
				<stop  offset="0.532" style="stop-color:#3363FF"/>
				<stop  offset="1" style="stop-color:#668AFF"/>
			</linearGradient>
			<path class="st6" d="M273.3,272.3c2.6-1.5,4.3-5,3.7-7.7l-43.6-192c-0.3-1.2-0.9-2.2-1.8-2.8c-1.3-0.4-2.9-0.2-4.4,0.7l-0.5,0.3
				l-22.4,12.9c-0.1,0-0.1,0.1-0.2,0.1c-0.7,0.5-1.2,1.5-1,2.3c0.2,0.8-0.4,1.9-1.2,2.4l-26.7,15.4c-0.5,0.3-0.9,0.3-1.3,0.2
				c-0.3-0.1-1.1-0.5-1.3-0.6c-0.3-0.1-0.5-0.4-0.6-0.8c0-0.1,0-0.2-0.1-0.2c-0.2,0-0.3,0.1-0.5,0.2c-0.8,0.5-1.5,0.9-1.5,0.9
				l-22.9,13.2c-0.3,0.2-0.7,0.4-1,0.7c-0.1,0.1-0.3,0.3-0.4,0.4c-1.8,1.7-2.8,4.4-2.3,6.6l43.9,193.3c0.2,0.9,0.7,1.7,1.3,2.2
				c1,0.2,2.2,0,3.3-0.6L273.3,272.3z"/>
			<g>
				<path class="st7" d="M178.1,96.4l12.2-7.1c0.7-0.4,1.4-0.2,1.6,0.5c0.2,0.7-0.3,1.6-1,2L178.7,99c-0.7,0.4-1.4,0.2-1.6-0.5
					C176.9,97.8,177.4,96.9,178.1,96.4z"/>
				<g>
					<path class="st7" d="M196.5,85.3c0.8-0.5,1.6-0.2,1.8,0.7c0.2,0.8-0.3,1.9-1.1,2.4c-0.8,0.5-1.6,0.2-1.8-0.7
						C195.1,86.8,195.6,85.7,196.5,85.3z"/>
				</g>
			</g>
		</g>
		<g>
			<g>
				<path class="st7" d="M139.7,140.6c-0.3-1.4-1.9-3-3.5-3.6c-0.8-0.3-1.4-0.3-1.8,0c-0.3,0.2-1.5,0.8-1.8,1
					c-0.4,0.3-0.6,0.8-0.5,1.5l3.6,15.7c0.3,1.4,1.9,3,3.5,3.6c0.7,0.3,1.4,0.3,1.8,0c0.3-0.2,1.5-0.9,1.8-1
					c0.4-0.3,0.6-0.8,0.5-1.5L139.7,140.6z"/>
				<path class="st2" d="M138,141.6l3.6,15.7c0.3,1.4-0.7,2.1-2.3,1.5c-1.6-0.6-3.2-2.2-3.5-3.6l-3.6-15.7c-0.3-1.4,0.7-2.1,2.3-1.5
					C136.1,138.6,137.7,140.2,138,141.6z"/>
			</g>
			<g>
				<path class="st7" d="M146,168c-0.3-1.4-1.9-3-3.5-3.6c-0.8-0.3-1.4-0.3-1.8,0c-0.3,0.2-1.5,0.8-1.8,1c-0.4,0.3-0.6,0.8-0.5,1.5
					l3.6,15.7c0.3,1.4,1.9,3,3.5,3.6c0.7,0.3,1.4,0.3,1.8,0c0.3-0.2,1.5-0.9,1.8-1c0.4-0.3,0.6-0.8,0.5-1.5L146,168z"/>
				<path class="st2" d="M144.2,169.1l3.6,15.7c0.3,1.4-0.7,2.1-2.3,1.5c-1.6-0.6-3.2-2.2-3.5-3.6l-3.6-15.7
					c-0.3-1.4,0.7-2.1,2.3-1.5C142.4,166,143.9,167.6,144.2,169.1z"/>
			</g>
		</g>
	</g>
	<g id="Thumb">
		<path id="XMLID_00000083050273210807042030000007825839434334329773_" class="st0" d="M353.6,317.1c-7-15.1-15.2-35.9-20.7-54.5
			c-5.5-18.6-11.2-31.7-13.6-35.8c-3.2-5.6-8.3-12.2-18-16.2c-4.9-2-14-4.5-22.6-8.5c-8.7-4.1-17.4-9-22.3-11.7
			c-4.9-2.7-9.3,7.3-3,20c5.1,10.4,14.3,16.7,19,19.2c5.6,3,10.6,7.5,12.2,10.3c1.4,2.3,3,7.9,1.7,14.6c-1.8,9.3-11.5,41,18.9,58.8
			l12,26.1L353.6,317.1z"/>
		<path id="XMLID_00000053526960500184437280000013430467124677386894_" class="st0" d="M261.4,197.6c0,0,10.4,5.7,13,5.9
			c2.6,0.2,2-2.6,2-2.6l0,0c-4.8-2.8-13.8-7.8-19.9-10.5C257.3,191,259.9,193.6,261.4,197.6z"/>
		<path id="XMLID_00000031912451070386183350000010907757017668655023_" class="st8" d="M261.4,197.6c0,0,10.4,5.7,13,5.9
			c2.6,0.2,2-2.6,2-2.6l0,0c-4.8-2.8-13.8-7.8-19.9-10.5C257.3,191,259.9,193.6,261.4,197.6z"/>
		<path id="XMLID_00000074417565686428114240000013090049948592777126_" class="st1" d="M276.3,200.9L276.3,200.9
			c0,0-1.1-0.7-1.6-0.9c1.2,1.9,0.2,3.5,0.2,3.5l0,0C276.8,203.2,276.3,200.9,276.3,200.9z"/>
	</g>
	<g id="Fingers">
		<g id="XMLID_00000085946078585012718530000006421975023602968484_">
			<g id="XMLID_00000047746824680146056740000001458528284922510269_">
				<path id="XMLID_4779_" class="st0" d="M141.9,191.7c-6.5-4.2-14.9-6.3-19.1-1.2c-4.2,5.1-2.1,14.8,2.3,18.9
					c6.7,6.3,24.3,15.3,24.3,15.3L141.9,191.7z"/>
				<path id="XMLID_4499_" class="st9" d="M141.9,191.7c-0.7-0.5-1.5-0.9-2.3-1.3l0,0c0,0,4.4,19.4,5.1,22.5
					c0.7,3.1-12.1-3.1-17.6-7.4c-5.3-4.2-6.4-9.2-6.5-9.5c-0.6,4.9,1.4,10.6,4.4,13.5c6.7,6.3,24.3,15.3,24.3,15.3L141.9,191.7z"/>
			</g>
			<g id="XMLID_4586_">
				<path id="XMLID_4713_" class="st1" d="M154.9,314.3c3.6,3.9,17,9.5,17,9.5l-5.8-25.7L154.9,314.3z"/>
			</g>
			<g id="XMLID_4583_">
				<path id="XMLID_4585_" class="st1" d="M138.6,246c3.8,4.1,17.9,10,17.9,10l-6.2-27.1L138.6,246z"/>
			</g>
			<g id="XMLID_4581_">
				<path id="XMLID_4582_" class="st1" d="M143.6,270.6c5.3,5.8,18.8,10.9,18.8,10.9l-5.8-25.4L143.6,270.6z"/>
			</g>
		</g>
		<g id="XMLID_4488_">
			<path id="XMLID_4584_" class="st0" d="M138.9,221.2c6.6-2.1,10.7,0,13.6,5.7c1.1,2.1,2,5.7,2.3,10.3c0.4,4.6-2.6,10.9-8.3,11.4
				c-0.1,0-0.2,0-0.3,0c-9.1,0.6-11.2-3.9-12.9-11.6C131.7,229.4,133.1,223.1,138.9,221.2z"/>
			<path id="XMLID_4500_" class="st9" d="M147.2,221.2c0.6,0.3,4.1,2.4,5.8,10.1c1.9,8.4-1.9,11.1-6.4,12.9
				c-4.5,1.8-11.4,0.3-12.4-3.9l0,0c1.7,5.6,4.4,8.7,12.1,8.2c0.1,0,0.2,0,0.3,0c5.6-0.4,8.6-6.7,8.3-11.4
				c-0.4-4.6-1.3-8.2-2.3-10.3C151.1,224.1,149.4,222.2,147.2,221.2z"/>
		</g>
		<g id="XMLID_4494_">
			<path id="XMLID_4580_" class="st0" d="M145.1,248c6-1.9,9.8,0,12.4,5.2c1,2,1.8,5.2,2.1,9.4c0.4,4.2-2.4,10-7.5,10.4
				c-0.1,0-0.2,0-0.2,0c-8.3,0.5-10.2-3.6-11.8-10.6C138.5,255.5,139.8,249.7,145.1,248z"/>
			<path id="XMLID_4502_" class="st9" d="M154.3,249c1.2,1.1,2.5,4.1,3.1,9c0.8,6.4,0.1,9.7-5.3,11.4c-5.6,1.7-9.6-0.1-10.9-2.8
				c1.6,4.4,4.1,6.9,10.7,6.5c0.1,0,0.2,0,0.2,0c5.1-0.4,7.9-6.2,7.5-10.4c-0.4-4.2-1.2-7.5-2.1-9.4
				C156.7,251.4,155.6,250,154.3,249z"/>
		</g>
		<g id="XMLID_4501_">
			<path id="XMLID_4587_" class="st0" d="M155.2,290.8c6.2-2,11.7-0.1,12.9,5.4l2.2,9.8c1.2,5.2-2.5,10.3-7.8,10.8
				c-0.1,0-0.2,0-0.3,0c-8.7,0.5-10.3-7.1-11.3-11.1C150,301.7,149.7,292.6,155.2,290.8z"/>
			<path id="XMLID_4572_" class="st9" d="M163.6,290.7c3.4,2.3,3.7,8.4,4.8,14.3c0.8,4.1-0.6,7.9-6.1,9.2c-5.5,1.3-8.8-1.6-10.3-4.7
				l0,0c1.3,3.7,3.9,7.7,10.2,7.3c0.1,0,0.2,0,0.3,0c5.3-0.4,9-5.5,7.8-10.8l-2.2-9.8C167.5,293.5,165.9,291.7,163.6,290.7z"/>
		</g>
	</g>
</g>
<g id="Message">
	<g id="XMLID_423_">
		<path class="st10" d="M176.5,217l64.9-37.5c2.2-1.2,3.4-4.3,2.9-6.9l-10-44.2c-0.6-2.5-2.8-3.6-5-2.4l-64.9,37.5
			c-2.2,1.2-3.4,4.3-2.9,6.9l10,44.2C172.1,217.2,174.3,218.3,176.5,217z"/>
		<path id="XMLID_465_" class="st11" d="M164.9,169.4c-0.2-0.8,0.3-1.7,1-2.1l68.4-39.5c0.7-0.4,2.1-0.5,3-0.2l1.9,0.7
			c0.9,0.3,1.8,1.2,2,2l10.5,46.4c0.2,0.8-0.3,1.7-1,2.1l-68.4,39.5c-0.7,0.4-2.1,0.5-3,0.2l-1.9-0.7c-0.9-0.3-1.8-1.2-2-2
			L164.9,169.4z"/>
		<path id="XMLID_464_" class="st7" d="M164.9,169.4c-0.2-0.8,0.3-1.7,1-2.1l68.4-39.5c0.7-0.4,2.1-0.5,3-0.2l1.9,0.7
			c0.9,0.3,1.8,1.2,2,2l10.5,46.4c0.2,0.8-0.3,1.7-1,2.1l-68.4,39.5c-0.7,0.4-2.1,0.5-3,0.2l-1.9-0.7c-0.9-0.3-1.8-1.2-2-2
			L164.9,169.4z"/>
		<path id="XMLID_463_" class="st7" d="M172.3,170.8l-7.2-2.6c-0.2,0.4-0.3,0.8-0.2,1.2l10.5,46.4c0.2,0.8,1.1,1.6,2,2l1.9,0.7
			c0.9,0.3,2.3,0.2,3-0.2l0.8-0.4L172.3,170.8z"/>
		<path id="XMLID_461_" class="st11" d="M241.2,130.2l10.5,46.4c0.1,0.4,0,0.8-0.2,1.2c-0.2,0.3-0.4,0.6-0.7,0.8l-0.1,0
			c0,0-0.1,0-0.1,0.1l-68.4,39.5l0,0c-0.4,0.2-0.7,0.2-1,0.2c-0.3-0.1-0.6-0.4-0.6-0.8l-10.5-46.4c-0.2-0.8,0.5-1.3,1.4-1.1
			l33.5,4.1l4.4,0.5c1,0.1,2.1-0.3,2.5-1l3.7-5.7l24.6-38.1C240.5,129.4,241,129.5,241.2,130.2z"/>
		<path id="XMLID_503_" class="st2" d="M241.2,130.2l10.5,46.4c0.1,0.4,0,0.8-0.2,1.2c-0.2,0.3-0.4,0.6-0.7,0.8l-0.1,0
			c0,0-0.1,0-0.1,0.1l-68.4,39.5l0,0c-0.4,0.2-0.7,0.2-1,0.2c-0.3-0.1-0.6-0.4-0.6-0.8l-10.5-46.4c-0.2-0.8,0.5-1.3,1.4-1.1
			l33.5,4.1l4.4,0.5c1,0.1,2.1-0.3,2.5-1l3.7-5.7l24.6-38.1C240.5,129.4,241,129.5,241.2,130.2z"/>
		<path id="XMLID_459_" class="st11" d="M250.7,178.7C250.7,178.7,250.7,178.7,250.7,178.7l0.1-0.1c0.3-0.2,0.5-0.5,0.7-0.8
			c0.2-0.4,0.3-0.8,0.2-1.2l-36.2-8.4l26.5,15.6L250.7,178.7z"/>
		<path id="XMLID_456_" class="st11" d="M250.7,178.7C250.7,178.7,250.7,178.7,250.7,178.7l0.1-0.1c0.3-0.2,0.5-0.5,0.7-0.8
			c0.2-0.4,0.3-0.8,0.2-1.2l-36.2-8.4l26.5,15.6L250.7,178.7z"/>
		<path id="XMLID_494_" class="st7" d="M250.7,178.7C250.7,178.7,250.7,178.7,250.7,178.7l0.1-0.1c0.3-0.2,0.5-0.5,0.7-0.8
			c0.2-0.4,0.3-0.8,0.2-1.2l-36.2-8.4l26.5,15.6L250.7,178.7z"/>
		<path id="XMLID_455_" class="st11" d="M180.6,217.7c0.1,0.4,0.3,0.6,0.6,0.8c0.3,0.1,0.6,0,1-0.2l0,0l23.6-13.6l-0.8-30.4
			l-24.6,42.6L180.6,217.7z"/>
		<path id="XMLID_451_" class="st11" d="M180.6,217.7c0.1,0.4,0.3,0.6,0.6,0.8c0.3,0.1,0.6,0,1-0.2l0,0l23.6-13.6l-0.8-30.4
			l-24.6,42.6L180.6,217.7z"/>
		<path id="XMLID_495_" class="st7" d="M180.6,217.7c0.1,0.4,0.3,0.6,0.6,0.8c0.3,0.1,0.6,0,1-0.2l0,0l23.6-13.6l-0.8-30.4
			l-24.6,42.6L180.6,217.7z"/>
		<path id="XMLID_424_" class="st11" d="M251.5,177.8c-0.2,0.3-0.4,0.6-0.7,0.8l-0.1,0l-68.5,39.6l0,0c-0.4,0.2-0.7,0.2-1,0.2
			l26.1-48.4c1.1-2,4-2.9,6.8-2.2L251.5,177.8z"/>
		<path id="XMLID_506_" class="st2" d="M251.5,177.8c-0.2,0.3-0.4,0.6-0.7,0.8l-0.1,0l-68.5,39.6l0,0c-0.4,0.2-0.7,0.2-1,0.2
			l26.1-48.4c1.1-2,4-2.9,6.8-2.2L251.5,177.8z"/>
	</g>
	<path id="XMLID_420_" class="st11" d="M170.4,170.1l37.5,10.1c2.8,0.7,5.7-0.2,6.7-2.2l26-48.4L170.4,170.1z"/>
	<path id="XMLID_462_" class="st12" d="M170.4,170.1l37.5,10.1c2.8,0.7,5.7-0.2,6.7-2.2l26-48.4L170.4,170.1z"/>
	<path id="XMLID_419_" class="st11" d="M170.4,170.1l37.3,8.3c2.7,0.6,5.3-0.3,6.3-2.2l26.5-46.6L170.4,170.1z"/>
	<path id="XMLID_508_" class="st2" d="M170.4,170.1l37.3,8.3c2.7,0.6,5.3-0.3,6.3-2.2l26.5-46.6L170.4,170.1z"/>
</g>
<g id="Button">
	<path class="st10" d="M200.2,256l42.8-24.7c1.4-0.8,2.3-2.8,1.9-4.5l-4.7-20.8c-0.4-1.7-1.8-2.4-3.3-1.5l-42.8,24.7
		c-1.4,0.8-2.3,2.8-1.9,4.5l4.7,20.8C197.3,256.1,198.8,256.8,200.2,256z"/>
	<g>
		<path class="st13" d="M251.4,227.9l-4.2-18.3c-0.5-2.3-2.1-2.8-3.5-3.3s-3.6-0.7-5.2,0.2l-41.2,23.8c-1.6,0.9-2.6,3-2.2,4.7
			l4.2,18.3c0.4,1.6,1.9,2.5,3.3,3c1.4,0.5,3.7,1,5.4,0.1l41.2-23.8C250.8,231.6,251.9,230.2,251.4,227.9z"/>
		<path class="st12" d="M251.4,227.9l-4.2-18.3c-0.5-2.3-2.1-2.8-3.5-3.3c-1.4-0.5-3.6-0.7-5.2,0.2l-41.2,23.8
			c-0.8,0.4-1.4,1.1-1.8,1.9l5.3,2.7l2.3-0.4l4.8,21.8l41.2-23.8C250.8,231.6,251.9,230.2,251.4,227.9z"/>
		<path class="st11" d="M243.7,209.1L202.4,233c-1.1,0.6-1.8,2.1-1.6,3.3l4,17.5c0.4,1.8,2.1,2.4,3.9,1.4l40.2-23.2
			c1.3-0.7,2.1-2.4,1.8-3.7l-4.2-18.1C246.2,208.8,245,208.4,243.7,209.1z"/>
		<path class="st7" d="M243.7,209.1L202.4,233c-1.1,0.6-1.8,2.1-1.6,3.3l4,17.5c0.4,1.8,2.1,2.4,3.9,1.4l40.2-23.2
			c1.3-0.7,2.1-2.4,1.8-3.7l-4.2-18.1C246.2,208.8,245,208.4,243.7,209.1z"/>
	</g>
	<g>
		<path class="st14" d="M211.2,233.6c0.6-0.3,1.2-0.5,1.7-0.6c0.5,0,1,0,1.3,0.2c0.4,0.2,0.7,0.4,0.9,0.7c0.2,0.3,0.4,0.6,0.5,1
			c0,0.1,0,0.3,0,0.4c-0.1,0.1-0.1,0.2-0.2,0.3l-0.9,0.5c-0.2,0.1-0.3,0.1-0.4,0.1c-0.1,0-0.2-0.1-0.3-0.2c-0.2-0.2-0.5-0.4-0.8-0.4
			c-0.3-0.1-0.8,0.1-1.3,0.4c-0.2,0.1-0.5,0.3-0.6,0.5c-0.2,0.2-0.4,0.4-0.5,0.6c-0.1,0.2-0.2,0.4-0.3,0.7c0,0.2,0,0.5,0,0.7
			c0.1,0.3,0.2,0.5,0.3,0.6c0.1,0.1,0.3,0.2,0.5,0.2c0.2,0,0.5,0,0.9-0.1c0.4-0.1,0.8-0.2,1.3-0.3c0.6-0.2,1.1-0.2,1.5-0.2
			c0.4,0,0.8,0.1,1.1,0.2c0.3,0.2,0.6,0.4,0.8,0.7c0.2,0.3,0.4,0.7,0.5,1.2c0.1,0.6,0.2,1.1,0.1,1.7c-0.1,0.6-0.2,1.1-0.5,1.7
			c-0.3,0.5-0.6,1-1.1,1.5c-0.4,0.5-1,0.9-1.6,1.2c-0.5,0.3-1,0.5-1.5,0.6c-0.5,0.1-1,0.1-1.4,0c-0.4-0.1-0.8-0.3-1.1-0.6
			c-0.3-0.3-0.6-0.7-0.7-1.3c0-0.1,0-0.3,0-0.4c0.1-0.1,0.1-0.2,0.2-0.3l0.9-0.5c0.2-0.1,0.3-0.1,0.4-0.1c0.1,0,0.2,0.1,0.3,0.2
			c0.1,0.1,0.2,0.2,0.3,0.3c0.1,0.1,0.3,0.2,0.5,0.2c0.2,0,0.4,0,0.6,0c0.2-0.1,0.5-0.2,0.9-0.4c0.3-0.2,0.5-0.3,0.8-0.5
			c0.2-0.2,0.4-0.4,0.6-0.7c0.2-0.2,0.3-0.5,0.4-0.7c0.1-0.3,0.1-0.5,0-0.8c-0.1-0.3-0.2-0.5-0.3-0.6c-0.2-0.1-0.4-0.1-0.7-0.1
			c-0.3,0-0.6,0.1-1,0.2c-0.4,0.1-0.9,0.2-1.4,0.3c-0.5,0.1-0.9,0.2-1.3,0.2c-0.4,0-0.7-0.1-1-0.3c-0.3-0.2-0.5-0.4-0.7-0.8
			c-0.2-0.3-0.4-0.8-0.5-1.3c-0.1-0.6-0.2-1.1-0.1-1.7c0.1-0.6,0.2-1.1,0.5-1.6c0.2-0.5,0.6-1,1-1.4
			C210.2,234.3,210.7,233.9,211.2,233.6z"/>
		<path class="st14" d="M225.5,237.6c0.1-0.1,0.2-0.1,0.3,0c0.1,0.1,0.2,0.2,0.2,0.3l0.3,1.3c0,0.1,0,0.3,0,0.4
			c0,0.1-0.1,0.2-0.2,0.3l-6,3.4c-0.1,0.1-0.2,0.1-0.3,0c-0.1-0.1-0.2-0.2-0.2-0.3l-2.7-11.9c0-0.1,0-0.3,0-0.4
			c0-0.1,0.1-0.2,0.2-0.3l5.8-3.4c0.1-0.1,0.2-0.1,0.3,0c0.1,0.1,0.2,0.2,0.2,0.3l0.3,1.3c0,0.1,0,0.3,0,0.4c0,0.1-0.1,0.2-0.2,0.3
			l-4.4,2.5l0.7,2.9l4.1-2.4c0.1-0.1,0.2-0.1,0.3,0c0.1,0.1,0.2,0.2,0.2,0.3l0.3,1.3c0,0.1,0,0.3,0,0.4c0,0.1-0.1,0.2-0.2,0.3
			l-4.1,2.4l0.7,3.1L225.5,237.6z"/>
		<path class="st14" d="M234.2,235.1c-0.2,0.1-0.3,0.1-0.4,0c-0.1-0.1-0.2-0.1-0.2-0.2l-5.5-5.5l1.7,7.6c0,0.1,0,0.3,0,0.4
			c0,0.1-0.1,0.2-0.2,0.3l-1.1,0.6c-0.1,0.1-0.2,0.1-0.3,0c-0.1-0.1-0.2-0.2-0.2-0.3l-2.7-11.9c0-0.1,0-0.3,0-0.4
			c0-0.1,0.1-0.2,0.2-0.3l0.9-0.5c0.2-0.1,0.3-0.1,0.4,0c0.1,0.1,0.2,0.1,0.2,0.2l5.5,5.5l-1.7-7.6c0-0.1,0-0.3,0-0.4
			c0-0.1,0.1-0.2,0.2-0.3l1.1-0.6c0.1-0.1,0.2-0.1,0.3,0c0.1,0.1,0.2,0.2,0.2,0.3l2.7,11.9c0,0.1,0,0.3,0,0.4c0,0.1-0.1,0.2-0.2,0.3
			L234.2,235.1z"/>
		<path class="st14" d="M238.4,218.1c0.7-0.4,1.3-0.6,1.8-0.6c0.5,0,1,0.1,1.5,0.3c0.4,0.3,0.8,0.6,1.1,1.2c0.3,0.5,0.6,1.2,0.8,1.9
			c0.2,0.9,0.5,1.8,0.6,2.7c0.1,0.8,0.2,1.6,0.2,2.3c0,0.7-0.2,1.4-0.4,2c-0.2,0.6-0.6,1.2-1,1.7c-0.4,0.5-1,1-1.6,1.3l-3.4,2
			c-0.1,0.1-0.2,0.1-0.3,0c-0.1-0.1-0.2-0.2-0.2-0.3l-2.7-11.9c0-0.1,0-0.3,0-0.4c0-0.1,0.1-0.2,0.2-0.3L238.4,218.1z M241.8,221.9
			c-0.1-0.4-0.2-0.7-0.4-1c-0.2-0.3-0.4-0.5-0.6-0.6c-0.2-0.1-0.5-0.2-0.8-0.2c-0.3,0-0.7,0.1-1.1,0.4l-1.8,1l1.9,8.3l1.9-1.1
			c0.4-0.2,0.7-0.5,0.9-0.8c0.2-0.3,0.4-0.6,0.5-1c0.1-0.4,0.2-0.7,0.2-1.1c0-0.4,0-0.8-0.1-1.2C242.2,223.7,242,222.8,241.8,221.9z
			"/>
	</g>
</g>
<path id="Lines" class="st15" d="M264.3,100.5c0.2,0.4,0.4,0.7,0.7,0.9c0.6,0.4,1.4,0.5,2.1,0.2l32.8-13.4c0.5-0.2,0.9-0.6,1.2-1.2
	c0.2-0.5,0.2-1.1,0-1.7c-0.1-0.4-0.4-0.7-0.7-0.9l-0.1-0.1c-0.6-0.4-1.4-0.5-2.1-0.2l-32.8,13.4c-0.5,0.2-0.9,0.6-1.2,1.2
	C264.1,99.3,264.1,99.9,264.3,100.5z M83.8,171.8c0.2,0.4,0.4,0.7,0.7,0.9c0.6,0.4,1.4,0.5,2.1,0.2l32.8-13.4
	c0.5-0.2,0.9-0.6,1.2-1.2c0.2-0.5,0.2-1.1,0-1.7c-0.1-0.4-0.4-0.7-0.7-0.9l-0.1-0.1c-0.6-0.4-1.4-0.5-2.1-0.2L85,169
	c-0.5,0.2-0.9,0.6-1.2,1.2C83.6,170.6,83.6,171.2,83.8,171.8z M250.1,62.6c0,0.6,0.3,1.1,0.7,1.5l0.1,0.1c0.9,0.7,2.2,0.7,3-0.2
	l23.8-26.3c0.4-0.4,0.6-1,0.6-1.6c0-0.6-0.3-1.1-0.7-1.5l-0.1-0.1c-0.9-0.7-2.2-0.6-3,0.2l-23.8,26.3
	C250.3,61.5,250.1,62.1,250.1,62.6z M212.6,45.6c-0.1,0.8,0.3,1.6,1,2c0.3,0.2,0.6,0.3,1,0.3c0.6,0.1,1.1-0.1,1.6-0.5
	c0.4-0.4,0.7-0.9,0.8-1.5l3.3-35.3c0.1-0.8-0.3-1.5-0.9-2l-0.1,0c-0.3-0.2-0.6-0.3-1-0.3c-1.2-0.1-2.2,0.8-2.3,1.9L212.6,45.6z
	 M161.4,28.4l8.4,34.4c0.1,0.4,0.3,0.8,0.6,1c0.5,0.5,1.3,0.7,2,0.5c0.6-0.1,1-0.5,1.3-1c0.3-0.5,0.4-1.1,0.3-1.6l-8.4-34.4
	c-0.1-0.4-0.3-0.7-0.5-1l-0.1-0.1c-0.5-0.5-1.3-0.7-2-0.5c-0.6,0.1-1,0.5-1.3,1C161.4,27.3,161.3,27.8,161.4,28.4z M102.6,63
	c-0.6,0.9-0.5,2.1,0.2,2.8c0.1,0.1,0.1,0.1,0.2,0.2l28.5,21.1c0.5,0.3,1,0.5,1.6,0.4c0.6-0.1,1.1-0.4,1.4-0.8
	c0.5-0.6,0.6-1.4,0.2-2.1c-0.1-0.3-0.3-0.5-0.5-0.7c-0.1-0.1-0.1-0.1-0.2-0.2l-28.5-21.1c-0.5-0.3-1-0.5-1.6-0.4
	C103.5,62.3,103,62.6,102.6,63z M109.6,117.8c-0.1-0.2-0.3-0.4-0.5-0.6c-0.4-0.3-0.9-0.5-1.4-0.5l-35.4-0.8c-0.6,0-1.1,0.2-1.5,0.6
	c-0.4,0.4-0.7,0.9-0.7,1.5c0,0.6,0.3,1.3,0.7,1.7c0.4,0.3,0.9,0.5,1.4,0.5l35.4,0.8c0.6,0,1.1-0.2,1.5-0.6c0.4-0.4,0.7-0.9,0.7-1.5
	C109.8,118.5,109.7,118.2,109.6,117.8z"/>
<g id="Paper_Plane_00000155143326359432712580000014423743696213121165_">
	<g id="XMLID_00000144307593156711888250000004292936838122334853_">
		<polygon id="XMLID_00000039852430452484798360000013793487899505145527_" class="st11" points="76.6,265.7 119.9,240.2 
			89.8,273.6 		"/>
		<linearGradient id="XMLID_2_" gradientUnits="userSpaceOnUse" x1="76.5858" y1="256.8571" x2="119.8535" y2="256.8571">
			<stop  offset="0.174" style="stop-color:#003CFF"/>
			<stop  offset="0.532" style="stop-color:#3363FF"/>
			<stop  offset="1" style="stop-color:#668AFF"/>
		</linearGradient>
		<polygon id="XMLID_00000065056331247558321190000003791273931474720441_" class="st16" points="76.6,265.7 119.9,240.2 
			89.8,273.6 		"/>
		<polygon id="XMLID_00000074436789218940744810000004584471955753164214_" class="st11" points="119.9,240.2 71.5,260.4 
			58.3,252.5 		"/>
		<linearGradient id="XMLID_3_" gradientUnits="userSpaceOnUse" x1="58.2865" y1="250.2611" x2="119.8535" y2="250.2611">
			<stop  offset="0.174" style="stop-color:#003CFF"/>
			<stop  offset="0.532" style="stop-color:#3363FF"/>
			<stop  offset="1" style="stop-color:#668AFF"/>
		</linearGradient>
		<polygon id="XMLID_00000112628899502156828800000001268802612486556849_" class="st17" points="119.9,240.2 71.5,260.4 
			58.3,252.5 		"/>
		<polygon id="XMLID_00000054256371411726939100000015799476297728120506_" class="st11" points="71.5,260.4 74.5,272.8 76.6,265.7 
			119.9,240.2 		"/>
		<linearGradient id="XMLID_4_" gradientUnits="userSpaceOnUse" x1="71.5199" y1="256.4839" x2="119.8535" y2="256.4839">
			<stop  offset="0.174" style="stop-color:#003CFF"/>
			<stop  offset="0.532" style="stop-color:#3363FF"/>
			<stop  offset="1" style="stop-color:#668AFF"/>
		</linearGradient>
		<polygon id="XMLID_00000173860190483542915280000018301545068942114476_" class="st18" points="71.5,260.4 74.5,272.8 76.6,265.7 
			119.9,240.2 		"/>
		<linearGradient id="XMLID_5_" gradientUnits="userSpaceOnUse" x1="74.4664" y1="269.2723" x2="80.9968" y2="269.2723">
			<stop  offset="0.174" style="stop-color:#003CFF"/>
			<stop  offset="0.532" style="stop-color:#3363FF"/>
			<stop  offset="1" style="stop-color:#668AFF"/>
		</linearGradient>
		<polygon id="XMLID_00000021801423010702734850000011321768125982270094_" class="st19" points="74.5,272.8 81,268.3 76.6,265.7 		
			"/>
		<polygon id="XMLID_00000081610091619502510910000017455719595403592332_" class="st20" points="76.6,265.7 81,268.3 80,269.1 		
			"/>
	</g>
	<g id="XMLID_00000130645751197552862800000012125538787487642802_" class="st21">
		<g>
			<path class="st10" d="M64,276.6c-0.2,0-0.5-0.1-0.6-0.3c-0.3-0.3-0.3-0.9,0-1.2c0.9-0.8,1.8-1.6,2.6-2.3c0.4-0.3,0.9-0.2,1.2,0.1
				c0.3,0.4,0.2,0.9-0.1,1.2c-0.8,0.7-1.7,1.4-2.5,2.2C64.4,276.6,64.2,276.6,64,276.6z"/>
		</g>
		<g>
			<path class="st10" d="M127.5,374c-1.7,0-3.3,0-5-0.1c-0.5,0-0.8-0.4-0.8-0.9c0-0.5,0.4-0.8,0.9-0.8c2.2,0.1,4.4,0.1,6.7,0.1
				c0,0,0,0,0,0c0.5,0,0.8,0.4,0.9,0.8c0,0.5-0.4,0.9-0.8,0.9C128.7,374,128.1,374,127.5,374z M134.8,373.8c-0.5,0-0.8-0.4-0.8-0.8
				c0-0.5,0.3-0.9,0.8-0.9c2.2-0.1,4.4-0.3,6.6-0.4c0.5,0,0.9,0.3,0.9,0.8c0,0.5-0.3,0.9-0.8,0.9
				C139.3,373.5,137.1,373.7,134.8,373.8C134.9,373.8,134.9,373.8,134.8,373.8z M117,373.6C117,373.6,117,373.6,117,373.6
				c-2.3-0.2-4.6-0.4-6.8-0.7c-0.5-0.1-0.8-0.5-0.7-1c0.1-0.5,0.5-0.8,1-0.7c2.2,0.3,4.4,0.5,6.6,0.7c0.5,0,0.8,0.4,0.8,0.9
				C117.8,373.3,117.5,373.6,117,373.6z M147.1,372.8c-0.4,0-0.8-0.3-0.8-0.8c-0.1-0.5,0.3-0.9,0.7-0.9c2.2-0.3,4.4-0.6,6.6-0.9
				c0.5-0.1,0.9,0.2,1,0.7c0.1,0.5-0.2,0.9-0.7,1c-2.2,0.3-4.5,0.7-6.7,0.9C147.1,372.8,147.1,372.8,147.1,372.8z M159.4,370.9
				c-0.4,0.1-0.9-0.2-0.9-0.7c-0.1-0.5,0.2-0.9,0.7-1c2.1-0.4,4.3-0.8,6.5-1.3c0.5-0.1,0.9,0.2,1,0.6c0.1,0.5-0.2,0.9-0.6,1
				C163.8,370,161.6,370.5,159.4,370.9C159.4,370.9,159.4,370.9,159.4,370.9z M171.4,368.2c-0.4,0.1-0.8-0.2-0.9-0.6
				c-0.1-0.5,0.2-0.9,0.6-1c2.1-0.5,4.3-1.2,6.4-1.8c0.4-0.1,0.9,0.1,1.1,0.6c0.1,0.5-0.1,0.9-0.6,1.1
				C175.8,367.1,173.6,367.7,171.4,368.2C171.5,368.2,171.4,368.2,171.4,368.2z M183.5,364.7c-0.4,0.1-0.8-0.2-0.9-0.6
				c-0.1-0.5,0.1-0.9,0.6-1c2.1-0.6,4.3-1.2,6.4-1.9c0.4-0.1,0.9,0.1,1.1,0.6c0.1,0.4-0.1,0.9-0.6,1.1
				C187.9,363.5,185.7,364.1,183.5,364.7C183.6,364.7,183.5,364.7,183.5,364.7z M104.8,372.1c0,0-0.1,0-0.1,0
				c-2.2-0.4-4.5-0.8-6.6-1.3c-0.5-0.1-0.7-0.6-0.6-1c0.1-0.5,0.6-0.7,1-0.6c2.1,0.5,4.3,0.9,6.5,1.3c0.5,0.1,0.8,0.5,0.7,1
				C105.6,371.8,105.2,372.1,104.8,372.1z M92.9,369.4c-0.1,0-0.2,0-0.2,0c-2.2-0.6-4.3-1.3-6.4-2.1c-0.4-0.2-0.7-0.6-0.5-1.1
				c0.2-0.4,0.6-0.7,1.1-0.5c2,0.7,4.2,1.4,6.3,2.1c0.5,0.1,0.7,0.6,0.6,1.1C93.6,369.1,93.2,369.4,92.9,369.4z M81.3,365.2
				c-0.1,0-0.2,0-0.3-0.1c-2.1-0.9-4.1-1.9-6.1-2.9c-0.4-0.2-0.6-0.7-0.4-1.2c0.2-0.4,0.7-0.6,1.2-0.4c1.9,1,3.9,2,6,2.9
				c0.4,0.2,0.6,0.7,0.4,1.1C82,365,81.7,365.2,81.3,365.2z M70.5,359.5c-0.2,0-0.3,0-0.5-0.1c-1.9-1.2-3.8-2.5-5.6-3.8
				c-0.4-0.3-0.4-0.8-0.2-1.2c0.3-0.4,0.8-0.4,1.2-0.2c1.7,1.3,3.5,2.6,5.4,3.8c0.4,0.2,0.5,0.8,0.3,1.2
				C71,359.4,70.8,359.5,70.5,359.5z M60.7,352.2c-0.2,0-0.4-0.1-0.6-0.2c-1.7-1.5-3.3-3.2-4.8-4.8c-0.3-0.4-0.3-0.9,0.1-1.2
				c0.4-0.3,0.9-0.3,1.2,0.1c1.4,1.6,3,3.2,4.6,4.7c0.3,0.3,0.4,0.9,0.1,1.2C61.1,352.1,60.9,352.2,60.7,352.2z M52.5,343
				c-0.3,0-0.5-0.1-0.7-0.4c-1.3-1.9-2.5-3.8-3.6-5.8c-0.2-0.4-0.1-0.9,0.4-1.1c0.4-0.2,0.9-0.1,1.1,0.4c1,1.9,2.1,3.8,3.4,5.6
				c0.3,0.4,0.2,0.9-0.2,1.2C52.8,343,52.7,343,52.5,343z M46.7,332.2c-0.3,0-0.7-0.2-0.8-0.6c-0.6-1.6-1.1-3.3-1.4-4.9
				c-0.1-0.6-0.2-1.1-0.3-1.7c-0.1-0.5,0.2-0.9,0.7-1c0.5-0.1,0.9,0.2,1,0.7c0.1,0.5,0.2,1.1,0.3,1.6c0.3,1.6,0.8,3.1,1.3,4.7
				c0.2,0.4-0.1,0.9-0.5,1.1C46.9,332.2,46.8,332.2,46.7,332.2z M44.5,320.2c-0.5,0-0.8-0.4-0.9-0.8c0-0.5,0-1.1,0-1.6
				c0-1.7,0.1-3.4,0.3-5.2c0.1-0.5,0.5-0.8,0.9-0.7c0.5,0.1,0.8,0.5,0.8,0.9c-0.2,1.7-0.3,3.4-0.3,5c0,0.5,0,1,0,1.6
				C45.4,319.8,45,320.2,44.5,320.2C44.5,320.2,44.5,320.2,44.5,320.2z M45.7,308c-0.1,0-0.1,0-0.2,0c-0.5-0.1-0.7-0.6-0.6-1
				c0.5-2.2,1.1-4.4,1.9-6.5c0.2-0.4,0.6-0.7,1.1-0.5c0.4,0.2,0.7,0.6,0.5,1.1c-0.8,2.1-1.4,4.2-1.9,6.3
				C46.4,307.8,46.1,308,45.7,308z M49.7,296.5c-0.1,0-0.2,0-0.4-0.1c-0.4-0.2-0.6-0.7-0.4-1.1c0.9-2,2-4,3.2-6
				c0.2-0.4,0.8-0.5,1.2-0.3c0.4,0.2,0.5,0.8,0.3,1.2c-1.1,1.9-2.2,3.9-3.1,5.8C50.3,296.3,50,296.5,49.7,296.5z M55.9,285.9
				c-0.2,0-0.3-0.1-0.5-0.2c-0.4-0.3-0.5-0.8-0.2-1.2c1.3-1.9,2.7-3.6,4.2-5.3c0.3-0.4,0.8-0.4,1.2-0.1c0.4,0.3,0.4,0.8,0.1,1.2
				c-1.4,1.6-2.8,3.4-4.1,5.2C56.5,285.8,56.2,285.9,55.9,285.9z"/>
		</g>
	</g>
</g>
<g id="Paper_Plane_00000039850744295183196580000002878973702924756655_">
	<polygon id="XMLID_00000080204988798178041860000005547245601653884586_" class="st11" points="347.7,246.2 396.3,216.6 
		417.3,223.9 	"/>
	<linearGradient id="XMLID_6_" gradientUnits="userSpaceOnUse" x1="347.6587" y1="231.3887" x2="417.3041" y2="231.3887">
		<stop  offset="0.174" style="stop-color:#003CFF"/>
		<stop  offset="0.532" style="stop-color:#3363FF"/>
		<stop  offset="1" style="stop-color:#668AFF"/>
	</linearGradient>
	<polygon id="XMLID_00000094581950922111764020000017957577250586846601_" class="st22" points="347.7,246.2 396.3,216.6 
		417.3,223.9 	"/>
	<polygon id="XMLID_00000127751074376477567160000015487507760703768708_" class="st11" points="347.7,246.2 389.9,212.6 381,201.7 
			"/>
	<linearGradient id="XMLID_8_" gradientUnits="userSpaceOnUse" x1="347.6587" y1="223.9583" x2="389.9238" y2="223.9583">
		<stop  offset="0.174" style="stop-color:#003CFF"/>
		<stop  offset="0.532" style="stop-color:#3363FF"/>
		<stop  offset="1" style="stop-color:#668AFF"/>
	</linearGradient>
	<polygon id="XMLID_00000171703590016949982390000012333794000613417884_" class="st23" points="347.7,246.2 389.9,212.6 381,201.7 
			"/>
	<polygon id="XMLID_00000102516154537143708790000013466995995884910755_" class="st11" points="389.9,212.6 389.7,220.6 
		347.7,246.2 	"/>
	<linearGradient id="XMLID_18_" gradientUnits="userSpaceOnUse" x1="347.6587" y1="229.3849" x2="389.9238" y2="229.3849">
		<stop  offset="0.174" style="stop-color:#003CFF"/>
		<stop  offset="0.532" style="stop-color:#3363FF"/>
		<stop  offset="1" style="stop-color:#668AFF"/>
	</linearGradient>
	<polygon id="XMLID_00000137096016047657331050000011155783745239109022_" class="st24" points="389.9,212.6 389.7,220.6 
		347.7,246.2 	"/>
	<g id="XMLID_00000135680657670727095520000015355280546762730168_" class="st21">
		<path class="st10" d="M404.2,200.6c-0.1,0-0.2,0-0.4-0.1c-0.4-0.2-0.6-0.7-0.4-1.1c1-2,1.8-4,2.5-6.2c0.1-0.4,0.6-0.7,1.1-0.6
			c0.4,0.1,0.7,0.6,0.6,1.1c-0.7,2.2-1.6,4.4-2.6,6.4C404.9,200.4,404.5,200.6,404.2,200.6z M408.1,188.8c0,0-0.1,0-0.1,0
			c-0.5-0.1-0.8-0.5-0.7-1c0.3-1.9,0.5-3.8,0.6-5.7c0-0.3,0-0.6,0-0.9c0-0.5,0.4-0.8,0.9-0.8c0,0,0,0,0,0c0.5,0,0.8,0.4,0.8,0.9
			c0,0.3,0,0.6,0,0.9c-0.1,2-0.3,4-0.6,6C408.9,188.5,408.5,188.8,408.1,188.8z M396.7,210.6C396.7,210.5,396.6,210.5,396.7,210.6
			c-0.4-0.4-0.4-0.9-0.1-1.3c1.4-1.3,2.6-2.8,3.8-4.3c0.2-0.2,0.4-0.5,0.6-0.7c0.3-0.4,0.8-0.5,1.2-0.2c0,0,0,0,0,0
			c0.4,0.3,0.4,0.8,0.2,1.2c-0.2,0.3-0.4,0.5-0.6,0.8c-1.2,1.6-2.6,3.1-4,4.5C397.5,210.8,397,210.8,396.7,210.6z M408.4,176.4
			c-0.4,0-0.8-0.3-0.8-0.8c-0.2-2.2-0.6-4.4-1.2-6.6c-0.1-0.5,0.2-0.9,0.6-1c0.5-0.1,0.9,0.2,1,0.6c0.6,2.2,1,4.5,1.2,6.8
			c0.1,0.5-0.3,0.9-0.8,0.9C408.5,176.4,408.5,176.4,408.4,176.4z M405.5,164.3c-0.3,0-0.6-0.2-0.8-0.5c-0.8-2.1-1.8-4.1-2.8-6
			c-0.2-0.4-0.1-0.9,0.3-1.2c0.4-0.2,0.9-0.1,1.2,0.3c1.1,2,2.1,4.1,2.9,6.3c0.2,0.4,0,0.9-0.5,1.1
			C405.7,164.3,405.6,164.3,405.5,164.3z M399.5,153.3c-0.3,0-0.5-0.1-0.7-0.4c-1.3-1.8-2.7-3.5-4.2-5.2c-0.3-0.3-0.3-0.9,0-1.2
			c0.3-0.3,0.9-0.3,1.2,0c1.6,1.7,3,3.5,4.4,5.4c0.3,0.4,0.2,0.9-0.2,1.2C399.9,153.3,399.7,153.3,399.5,153.3z M391.2,144.1
			c-0.2,0-0.4-0.1-0.5-0.2c-1-0.9-2-1.7-3.1-2.6c-0.7-0.5-1.4-1.1-2.2-1.6c-0.4-0.3-0.5-0.8-0.2-1.2c0.3-0.4,0.8-0.5,1.2-0.2
			c0.8,0.5,1.5,1.1,2.2,1.6c1.1,0.8,2.2,1.7,3.2,2.6c0.4,0.3,0.4,0.8,0.1,1.2C391.7,144,391.4,144.1,391.2,144.1z M381.1,136.8
			c-0.1,0-0.3,0-0.4-0.1c-1.9-1.1-3.9-2.2-5.9-3.2c-0.4-0.2-0.6-0.7-0.4-1.1c0.2-0.4,0.7-0.6,1.1-0.4c2.1,1,4.1,2.1,6,3.3
			c0.4,0.2,0.5,0.8,0.3,1.2C381.7,136.6,381.4,136.8,381.1,136.8z M370,131.2c-0.1,0-0.2,0-0.3-0.1c-2-0.9-4.2-1.7-6.3-2.4
			c-0.4-0.2-0.7-0.6-0.5-1.1c0.2-0.4,0.6-0.7,1.1-0.5c2.2,0.8,4.3,1.6,6.4,2.5c0.4,0.2,0.6,0.7,0.5,1.1
			C370.7,131,370.3,131.2,370,131.2z M358.2,127c-0.1,0-0.1,0-0.2,0c-2.1-0.6-4.3-1.2-6.5-1.7c-0.5-0.1-0.7-0.6-0.6-1
			c0.1-0.5,0.6-0.7,1-0.6c2.3,0.5,4.5,1.1,6.6,1.8c0.4,0.1,0.7,0.6,0.6,1.1C359,126.8,358.6,127,358.2,127z M289.8,124.4
			c-0.4,0-0.7-0.3-0.8-0.7c-0.1-0.5,0.2-0.9,0.6-1c2.2-0.5,4.5-0.9,6.7-1.3c0.5-0.1,0.9,0.2,1,0.7c0.1,0.5-0.2,0.9-0.7,1
			c-2.2,0.4-4.5,0.8-6.6,1.3C289.9,124.4,289.8,124.4,289.8,124.4z M278,128.4c-0.4,0.1-0.8-0.2-0.9-0.5c-0.2-0.4,0-0.9,0.5-1.1
			c2.1-0.8,4.2-1.7,6.4-2.4c0.4-0.2,0.9,0.1,1.1,0.5c0.2,0.4-0.1,0.9-0.5,1.1c-2.2,0.7-4.3,1.5-6.3,2.4
			C278.2,128.4,278.1,128.4,278,128.4z M346.1,124.1c0,0-0.1,0-0.1,0c-2.2-0.4-4.4-0.8-6.7-1.1c-0.5-0.1-0.8-0.5-0.7-1
			c0.1-0.5,0.5-0.8,1-0.7c2.3,0.3,4.6,0.7,6.8,1.1c0.5,0.1,0.8,0.5,0.7,1C346.9,123.8,346.5,124.1,346.1,124.1z M302.1,122.4
			c-0.4,0-0.8-0.3-0.8-0.8c-0.1-0.5,0.3-0.9,0.7-0.9c2.2-0.3,4.5-0.5,6.8-0.6c0.5,0,0.9,0.3,0.9,0.8c0,0.5-0.3,0.9-0.8,0.9
			c-2.3,0.1-4.5,0.3-6.7,0.6C302.2,122.4,302.1,122.4,302.1,122.4z M333.8,122.3C333.7,122.3,333.7,122.3,333.8,122.3
			c-2.3-0.2-4.6-0.4-6.8-0.5c-0.5,0-0.8-0.4-0.8-0.9c0-0.5,0.4-0.8,0.9-0.8c0,0,0,0,0,0c2.3,0.1,4.6,0.3,6.8,0.6
			c0.5,0,0.8,0.5,0.8,0.9C334.6,121.9,334.2,122.3,333.8,122.3z M314.5,121.5c-0.4,0-0.8-0.4-0.8-0.8c0-0.5,0.4-0.9,0.8-0.9
			c2.3-0.1,4.6-0.1,6.8,0c0,0,0,0,0,0c0.5,0,0.8,0.4,0.8,0.9c0,0.5-0.4,0.8-0.9,0.8C319.1,121.4,316.8,121.4,314.5,121.5
			C314.5,121.5,314.5,121.5,314.5,121.5z"/>
	</g>
</g>
</svg>
