<svg width="24" height="24" viewBox="0 0 24 24" fill="none" xmlns="http://www.w3.org/2000/svg">
<path d="M19.1624 17.2377L19.1388 17.2099C17.9911 15.8507 16.4199 14.9256 14.6713 14.5463C15.5875 13.8909 16.2958 12.9631 16.6777 11.8824H18.0844C18.8726 11.8824 19.5138 11.2412 19.5138 10.453V10.0294C19.5138 5.60199 15.9118 2 11.4844 2C7.05701 2 3.45501 5.60199 3.45501 10.0294V10.453C3.45501 11.2412 4.09625 11.8824 4.88441 11.8824H6.24011C6.62828 12.9808 7.35385 13.9211 8.29189 14.5782C6.59916 14.9756 5.08045 15.8868 3.96321 17.2098L3.93949 17.238C2.65257 18.762 2 20.4928 2 22.3824V23H21.1021V22.3824C21.1021 20.4928 20.4495 18.762 19.1624 17.2377ZM11.4589 14.3415C9.74661 14.3415 8.26512 13.3349 7.57472 11.8824H10.6609V10.6471H7.20351C7.17522 10.4471 7.161 10.2454 7.16094 10.0435C7.16094 7.67354 9.08902 5.74545 11.4589 5.74545C13.8288 5.74545 15.7569 7.67354 15.7569 10.0435C15.7569 12.4134 13.8289 14.3415 11.4589 14.3415ZM18.2786 10.453C18.2785 10.5044 18.258 10.5537 18.2217 10.5901C18.1853 10.6265 18.1359 10.647 18.0845 10.6471H16.9592C16.9808 10.4488 16.9923 10.2474 16.9923 10.0435C16.9923 9.82987 16.9797 9.61917 16.956 9.41176H18.2502C18.2687 9.61526 18.2786 9.82118 18.2786 10.0294V10.453ZM11.4845 3.23529C14.5886 3.23529 17.2132 5.32788 18.0217 8.17647H16.6678C15.9001 6.04131 13.8551 4.51016 11.4589 4.51016C9.06275 4.51016 7.01772 6.04131 6.25011 8.17647H4.94721C5.75571 5.32788 8.38029 3.23529 11.4845 3.23529ZM4.88445 10.6471C4.83299 10.647 4.78364 10.6266 4.74725 10.5902C4.71086 10.5538 4.69039 10.5044 4.69035 10.453V10.0294C4.69035 9.82118 4.70031 9.61526 4.71872 9.41176H5.96192C5.93786 9.62148 5.92575 9.8324 5.92564 10.0435C5.92564 10.2474 5.93709 10.4488 5.95871 10.6471H4.88445ZM3.26375 21.7647C3.38971 20.4126 3.93295 19.1604 4.88334 18.035L4.90706 18.0069C6.20507 16.4698 8.15004 15.5882 10.2433 15.5882H12.8589C14.9521 15.5882 16.8971 16.4698 18.1952 18.0071L18.2188 18.0349C19.1691 19.1604 19.7124 20.4126 19.8383 21.7647H3.26375Z" fill="white"/>
</svg>
