<svg width="318" height="215" viewBox="0 0 318 215" fill="none" xmlns="http://www.w3.org/2000/svg">
<path d="M265.756 68.685C284.722 68.685 300.098 53.3093 300.098 34.3425C300.098 15.3757 284.722 0 265.756 0C246.789 0 231.413 15.3757 231.413 34.3425C231.413 53.3093 246.789 68.685 265.756 68.685Z" fill="#F7B348"/>
<path d="M293.66 34.342C293.66 39.7185 292.138 44.743 289.496 49.0054C288.726 50.2504 287.86 51.4331 286.905 52.5425C281.79 58.484 274.212 62.245 265.757 62.245C250.344 62.245 237.854 49.7515 237.854 34.342C237.854 26.3693 241.196 19.1777 246.559 14.0971C246.878 13.792 247.204 13.4951 247.538 13.207C252.426 8.99004 258.794 6.43896 265.757 6.43896C281.166 6.43896 293.66 18.9325 293.66 34.342Z" fill="#E1901B"/>
<path d="M274.551 36.5546C273.887 35.6846 272.967 35.0442 271.793 34.6334C272.674 34.1836 273.354 33.5727 273.833 32.8008C274.313 32.027 274.551 31.1535 274.551 30.1743C274.551 28.5323 273.867 27.2253 272.499 26.2594C271.129 25.2912 269.133 24.8061 266.514 24.8061H265.941V22.8125H263.534V24.8061H261.498V22.8125H259.092V24.8061H256.012V45.3421H259.092V47.432H261.498V45.3421H263.534V47.432H265.941V45.3421H267.101C269.839 45.3421 271.931 44.8532 273.378 43.874C274.826 42.8967 275.549 41.5082 275.549 39.709C275.549 38.4759 275.216 37.4243 274.551 36.5546ZM261.76 29.0003H265.751C265.816 29.0003 265.879 29.0003 265.94 29.0022C267.769 29.0447 268.685 29.6983 268.685 30.9663C268.685 32.2528 267.769 32.9171 265.94 32.96C265.879 32.9618 265.816 32.9618 265.751 32.9618H261.76V29.0003ZM266.631 41.1452H261.76V36.9802H266.631C268.665 36.9802 269.681 37.6744 269.681 39.0625C269.681 40.4506 268.665 41.1452 266.631 41.1452Z" fill="#FFC467"/>
<path d="M317.68 192.613V208.244C317.68 210.655 316.313 212.608 314.625 212.608H217.075C215.389 212.608 214.021 210.656 214.021 208.244V192.613C214.021 190.203 215.389 188.25 217.075 188.25H314.625C314.881 188.251 315.135 188.296 315.376 188.384C316.637 188.837 317.586 190.413 317.673 192.327C317.678 192.42 317.68 192.516 317.68 192.613Z" fill="#EDEDEF"/>
<path d="M311.626 188.99H220.075C216.732 188.99 214.021 186.28 214.021 182.936V170.687C214.021 167.343 216.732 164.632 220.075 164.632H311.626C314.97 164.632 317.68 167.343 317.68 170.687V182.936C317.68 186.28 314.969 188.99 311.626 188.99Z" fill="#C9CAD0"/>
<path d="M308.188 144.464V160.095C308.188 162.507 306.822 164.46 305.134 164.46H207.584C205.898 164.46 204.529 162.507 204.529 160.095V144.464C204.529 142.055 205.898 140.102 207.584 140.102H305.134C305.39 140.103 305.644 140.148 305.884 140.236C307.146 140.689 308.095 142.265 308.181 144.178C308.187 144.271 308.188 144.368 308.188 144.464Z" fill="#EDEDEF"/>
<path d="M300.854 140.841H211.863C207.813 140.841 204.529 137.558 204.529 133.507V123.818C204.529 119.767 207.813 116.483 211.863 116.483H300.854C304.905 116.483 308.188 119.767 308.188 123.818V133.507C308.188 137.558 304.905 140.841 300.854 140.841Z" fill="#C9CAD0"/>
<path d="M317.68 96.8336V112.464C317.68 114.876 316.313 116.829 314.625 116.829H217.075C215.389 116.829 214.021 114.876 214.021 112.464V96.8336C214.021 94.4239 215.389 92.4712 217.075 92.4712H314.625C314.881 92.4719 315.135 92.5172 315.376 92.605C316.637 93.0578 317.586 94.6338 317.673 96.5475C317.678 96.6404 317.68 96.737 317.68 96.8336Z" fill="#EDEDEF"/>
<path d="M310.346 93.2106H221.355C217.305 93.2106 214.021 89.9271 214.021 85.8765V76.1872C214.021 72.1366 217.305 68.853 221.355 68.853H310.346C314.396 68.853 317.68 72.1366 317.68 76.1872V85.8765C317.68 89.9271 314.396 93.2106 310.346 93.2106Z" fill="#C9CAD0"/>
<path d="M233.522 206.144H85.4307V87.6509H233.522C235.511 87.6509 237.139 89.2785 237.139 91.2676V202.527C237.139 204.516 235.511 206.144 233.522 206.144Z" fill="#052F47"/>
<path d="M231.64 204.963H86.1045V89.1851H231.64C233.589 89.1851 235.184 90.7797 235.184 92.729V201.419C235.184 203.368 233.589 204.963 231.64 204.963Z" fill="#0E5881"/>
<path d="M221.568 119.126C211.77 127.669 196.909 126.653 188.369 116.858C187.396 115.744 186.53 114.541 185.782 113.264C184.672 111.369 183.836 109.327 183.299 107.198C183.163 106.672 183.047 106.143 182.95 105.609C182.152 101.194 182.626 96.643 184.316 92.4868C185.66 89.1923 187.774 86.1539 190.64 83.6555C200.434 75.1151 215.299 76.1356 223.839 85.9303C225.439 87.7613 226.744 89.8296 227.709 92.0613C229.512 96.2244 230.039 100.773 229.328 105.149C229.246 105.686 229.142 106.219 229.015 106.746C228.521 108.886 227.726 110.945 226.656 112.862C225.372 115.169 223.669 117.294 221.568 119.126Z" fill="#F7B348"/>
<path d="M205.439 119.896C215.683 119.896 223.987 111.592 223.987 101.348C223.987 91.1048 215.683 82.8008 205.439 82.8008C195.196 82.8008 186.892 91.1048 186.892 101.348C186.892 111.592 195.196 119.896 205.439 119.896Z" fill="#E1901B"/>
<path d="M193.689 109.597L196.2 107.408C194.739 105.586 193.723 103.425 193.428 101.942L197.194 100.042C197.573 101.679 198.37 103.724 199.862 105.435C201.172 106.937 202.667 107.453 203.709 106.545C204.718 105.665 204.598 104.279 203.547 101.744C202.04 98.0897 201.688 95.0123 204.234 92.7921C206.569 90.7556 209.811 90.7962 212.823 93.1524L215.33 90.9663L217.59 93.5587L215.261 95.5902C216.721 97.3868 217.373 98.9162 217.73 100.163L214.063 101.977C213.781 101.044 213.322 99.2887 211.67 97.3944C210.19 95.6967 208.949 95.7956 208.212 96.4383C207.353 97.1875 207.585 98.6017 208.709 101.562C210.345 105.667 209.984 108.186 207.592 110.272C205.246 112.317 201.825 112.4 198.658 109.829L195.95 112.19L193.689 109.597ZM136.374 76.8145C143.117 87.9294 139.575 102.397 128.465 109.138C127.201 109.906 125.867 110.554 124.482 111.072C122.425 111.841 120.269 112.316 118.08 112.482C117.539 112.525 116.997 112.549 116.455 112.554C111.969 112.585 107.566 111.34 103.76 108.964C100.743 107.077 98.111 104.474 96.1393 101.223C89.3994 90.1129 92.9459 75.642 104.056 68.9021C106.134 67.639 108.395 66.7061 110.758 66.1365C115.169 65.0721 119.741 65.3309 123.93 66.7792C124.441 66.9516 124.95 67.1434 125.45 67.3605C127.474 68.2136 129.366 69.3483 131.073 70.7309C133.126 72.3907 134.928 74.4313 136.374 76.8145Z" fill="#F7B348"/>
<path d="M116.101 108.215C126.344 108.215 134.648 99.9107 134.648 89.6672C134.648 79.4237 126.344 71.1196 116.101 71.1196C105.857 71.1196 97.5532 79.4237 97.5532 89.6672C97.5532 99.9107 105.857 108.215 116.101 108.215Z" fill="#E1901B"/>
<path d="M122.22 102.655L120.492 99.8069C118.448 100.935 116.144 101.566 114.633 101.603L113.404 97.5677C115.082 97.4741 117.233 97.0387 119.174 95.8613C120.879 94.8271 121.642 93.4421 120.926 92.2609C120.231 91.1157 118.845 90.9971 116.167 91.6C112.309 92.4599 109.217 92.281 107.465 89.393C105.858 86.7438 106.452 83.5561 109.288 80.9918L107.563 78.1482L110.504 76.3645L112.107 79.0072C114.127 77.8753 115.745 77.4945 117.035 77.3558L118.196 81.2794C117.228 81.3973 115.42 81.5496 113.271 82.8532C111.345 84.0215 111.231 85.2614 111.738 86.0973C112.329 87.072 113.763 87.0845 116.872 86.4839C121.195 85.5736 123.616 86.36 125.262 89.0728C126.876 91.7342 126.373 95.1182 123.298 97.7996L125.161 100.872L122.22 102.655ZM199.993 110.713C190.194 119.256 175.334 118.24 166.794 108.445C165.82 107.331 164.954 106.128 164.207 104.851C163.097 102.956 162.261 100.914 161.723 98.7845C161.588 98.2593 161.472 97.7295 161.374 97.1959C160.577 92.7808 161.051 88.2299 162.741 84.0738C164.085 80.7792 166.199 77.7408 169.065 75.2424C178.859 66.7021 193.723 67.7226 202.264 77.5172C203.863 79.3483 205.169 81.4166 206.134 83.6482C207.937 87.8113 208.463 92.3602 207.753 96.7363C207.671 97.2727 207.567 97.8055 207.44 98.3332C206.945 100.473 206.151 102.532 205.08 104.449C203.796 106.756 202.094 108.88 199.993 110.713Z" fill="#F7B348"/>
<path d="M183.863 111.482C194.107 111.482 202.411 103.178 202.411 92.9348C202.411 82.6912 194.107 74.3872 183.863 74.3872C173.62 74.3872 165.316 82.6912 165.316 92.9348C165.316 103.178 173.62 111.482 183.863 111.482Z" fill="#E1901B"/>
<path d="M172.114 101.184L174.624 98.9945C173.164 97.1725 172.148 95.011 171.852 93.5286L175.619 91.6281C175.998 93.2652 176.795 95.3108 178.286 97.0213C179.597 98.5239 181.092 99.0396 182.133 98.1313C183.143 97.251 183.023 95.8655 181.971 93.33C180.464 89.6762 180.112 86.5988 182.658 84.3785C184.994 82.342 188.236 82.3826 191.247 84.7389L193.754 82.5527L196.015 85.1451L193.685 87.1766C195.146 88.9732 195.798 90.5027 196.155 91.7498L192.487 93.5638C192.206 92.6305 191.746 90.8752 190.095 88.9808C188.614 87.2831 187.373 87.382 186.636 88.0247C185.777 88.7739 186.01 90.1881 187.133 93.1489C188.769 97.2536 188.408 99.7729 186.016 101.858C183.67 103.904 180.25 103.987 177.082 101.415L174.374 103.776L172.114 101.184Z" fill="#F7B348"/>
<path d="M174.116 85.0518C174.116 98.0519 163.583 108.584 150.588 108.584C149.081 108.584 147.605 108.443 146.179 108.172C144.021 107.763 141.932 107.051 139.974 106.057C139.49 105.814 139.014 105.554 138.548 105.276C134.696 102.976 131.577 99.6275 129.556 95.6221C127.956 92.4439 127.056 88.8534 127.056 85.0518C127.056 72.0569 137.593 61.5244 150.588 61.5244C153.02 61.5222 155.437 61.8972 157.753 62.6363C162.076 64.0137 165.85 66.6061 168.682 70.0178C169.032 70.4321 169.365 70.861 169.68 71.3032C170.967 73.0821 171.997 75.034 172.739 77.1011C173.633 79.5851 174.116 82.2642 174.116 85.0518Z" fill="#F7B348"/>
<path d="M163.229 98.6398C170.473 91.3964 170.472 79.6527 163.229 72.4096C155.986 65.1664 144.242 65.1666 136.999 72.41C129.756 79.6534 129.756 91.3971 136.999 98.6403C144.243 105.883 155.986 105.883 163.229 98.6398Z" fill="#E1901B"/>
<path d="M148.611 99.8024V96.4714C146.278 96.3752 143.981 95.72 142.67 94.9682L143.713 90.8805C145.196 91.6706 147.262 92.4144 149.531 92.4144C151.525 92.4144 152.896 91.6262 152.896 90.2446C152.896 88.905 151.773 88.0853 149.17 87.2115C145.426 85.9458 142.875 84.1886 142.875 80.8107C142.875 77.7124 145.036 75.2951 148.791 74.5736V71.2476H152.231V74.3386C154.545 74.4186 156.126 74.9324 157.301 75.4827L156.257 79.4393C155.369 79.0383 153.744 78.2308 151.231 78.2308C148.978 78.2308 148.237 79.2312 148.237 80.2089C148.237 81.3488 149.456 82.1029 152.426 83.2018C156.595 84.6665 158.256 86.5942 158.256 89.7675C158.256 92.8802 156.071 95.5127 152.051 96.21V99.8031H148.611V99.8024Z" fill="#F7B348"/>
<path d="M232.446 95.6302V204.762C232.446 207.052 230.573 208.924 228.284 208.924H82.0664V91.4683H228.284C230.573 91.4683 232.446 93.3414 232.446 95.6302Z" fill="#237BAB"/>
<path d="M82.0659 91.4688C82.0659 91.4688 82.4983 90.4286 83.257 89.3933C84.3464 87.9059 85.4306 87.6509 85.4306 87.6509H88.9923C88.9923 87.6509 87.4053 88.6555 86.9058 89.4964C86.4064 90.3376 86.1044 91.4684 86.1044 91.4684H82.0659V91.4688Z" fill="#237BAB"/>
<path d="M237 157H212.425C211.091 157 210 155.903 210 154.562V139.438C210 138.097 211.091 137 212.425 137H237V157Z" fill="#052F47"/>
<path d="M151.964 166.048C151.964 189.732 132.776 208.921 109.101 208.921C106.354 208.921 103.667 208.664 101.068 208.17C97.0762 207.409 93.2822 206.105 89.7644 204.316C88.8814 203.873 88.0145 203.399 87.1656 202.894C80.1703 198.724 74.469 192.608 70.7834 185.305C67.8685 179.515 66.228 172.974 66.228 166.048C66.228 142.373 85.4266 123.185 109.101 123.185C113.656 123.185 118.043 123.896 122.154 125.21C130.029 127.72 136.906 132.443 142.064 138.658C142.702 139.413 143.309 140.194 143.882 141C146.227 144.241 148.104 147.797 149.455 151.562C151.085 156.088 151.964 160.969 151.964 166.048Z" fill="#F7B348"/>
<path d="M132.133 190.803C145.329 177.606 145.329 156.211 132.132 143.015C118.936 129.819 97.5408 129.82 84.3449 143.016C71.149 156.212 71.1494 177.608 84.3457 190.803C97.5421 203.999 118.937 203.999 132.133 190.803Z" fill="#E1901B"/>
<path d="M105.5 192.921V186.853C101.249 186.678 97.0649 185.484 94.6753 184.114L96.5757 176.667C99.2776 178.107 103.04 179.461 107.175 179.461C110.807 179.461 113.305 178.025 113.305 175.508C113.305 173.068 111.259 171.574 106.518 169.982C99.6967 167.676 95.0486 164.475 95.0486 158.321C95.0486 152.676 98.9866 148.272 105.827 146.958V140.898H112.093V146.53C116.309 146.676 119.19 147.611 121.33 148.614L119.43 155.822C117.811 155.091 114.851 153.62 110.272 153.62C106.168 153.62 104.818 155.442 104.818 157.223C104.818 159.3 107.039 160.674 112.449 162.676C120.044 165.344 123.072 168.856 123.072 174.637C123.072 180.308 119.09 185.104 111.766 186.375V192.921H105.5V192.921Z" fill="#F7B348"/>
<path d="M33.97 41.3054C36.387 40.3383 39.5258 34.9349 38.9229 33.847C38.2321 32.6014 35.6988 28.8509 35.6988 28.8509C35.6988 28.8509 33.6044 30.6251 31.9946 28.2082C30.3825 25.7913 30.3825 22.2447 33.6044 23.0519C31.8324 18.8607 31.8324 12.0946 36.9884 9.83761C42.1447 7.5806 46.9785 7.74317 50.3625 14.1891C52.8803 18.9835 53.5866 23.3721 52.6196 27.8857C51.942 31.042 50.5558 31.9101 49.1215 32.4805C48.5072 32.7241 47.8823 32.9125 47.301 33.202C46.2286 33.7393 46.9494 34.9342 46.9319 36.1779C46.9164 37.1737 48.9097 39.2629 49.4099 39.693" fill="#F4C0B3"/>
<path d="M52.5789 18.6115C52.4849 18.7669 52.3716 18.9162 52.2485 19.0553C50.6444 17.9245 50.8452 15.1441 49.1248 14.2013C48.5772 13.9001 47.9743 13.7443 47.4465 13.4074C46.4483 14.4897 45.7874 15.5849 44.3099 16.2041C42.9067 16.7907 41.345 16.9074 39.8285 16.8001C40.2658 18.5433 39.6405 20.507 38.2763 21.6802C37.7515 22.1274 37.1292 22.4677 36.6692 22.9861C36.0439 23.6894 35.7847 24.697 35.9886 25.6141C35.4766 24.8592 34.9162 24.1104 34.1481 23.6212C33.3799 23.1286 32.356 22.947 31.5557 23.3813C31.6788 21.8746 30.8167 20.5396 30.0425 19.1947C29.8637 18.8838 29.693 18.5683 29.5306 18.2485C28.5453 16.2685 28.2604 13.9095 28.9538 11.8098C29.6473 9.71307 31.381 7.93429 33.5228 7.38671C35.0977 6.98503 36.8344 7.22452 38.3119 6.54431C39.3521 6.06456 40.1559 5.17366 41.1798 4.65829C43.0916 3.69576 45.6646 4.34414 46.8928 6.09715C47.3434 6.73871 47.6348 7.50987 48.2343 8.01235C48.6716 8.37842 49.229 8.56637 49.7088 8.87104C50.8816 9.61643 51.4944 10.9742 52.042 12.2509C52.5149 13.3559 52.9912 14.4802 53.1371 15.6728C53.2561 16.68 53.1102 17.7593 52.5789 18.6115Z" fill="#363B44"/>
<path d="M46.3391 195.221L45.8007 203.002L51.2927 204.07L52.3701 195.221H46.3391ZM29.4741 194.219L29.0864 205.913L34.1132 205.529L36.2512 193.701L29.4741 194.219Z" fill="#F4C0B3"/>
<path d="M59.1923 207.939V207.948C59.171 208.76 59.0746 209.569 58.9043 210.364H43.6134C42.7066 210.364 42.0059 209.452 42.1294 208.43C42.1954 207.882 42.2677 207.37 42.3458 206.893C43.7275 198.123 46.6279 200.485 46.6279 200.485C47.5575 205.442 51.5387 202.107 51.5387 202.107C52.2458 203.216 53.8829 203.351 55.5589 203.666C56.3316 203.802 57.1107 203.982 57.8114 204.315C58.9827 204.865 59.2313 206.506 59.1923 207.939ZM47.6727 111.694C47.3559 115.363 46.8886 120.176 46.3267 125.647V125.656C43.4997 153.103 38.2971 197.135 38.2971 197.135L36.864 197.027L27.9871 196.369L27.9238 104.889L42.1772 104.781L44.7745 104.763H44.9568L48.1085 104.736V104.791C48.132 105.862 47.9736 108.287 47.6727 111.694Z" fill="#363B44"/>
<path d="M68.7675 152.706C68.0233 161.945 54.9102 197.152 54.9102 197.152H44.6479C44.6479 197.152 51.8222 157.646 51.8222 155.185C51.8222 154.365 50.7372 148.443 49.2961 140.917V140.908C48.3934 136.157 47.3403 130.794 46.3267 125.656V125.647C45.6775 122.303 45.028 119.067 44.4581 116.174C43.2068 109.891 42.2727 105.258 42.1776 104.781C42.1696 104.754 42.1696 104.736 42.1696 104.736L44.7749 104.763H44.9571L48.1088 104.79L59.9866 104.889C59.9866 104.889 61.1268 109.495 62.5839 115.913V115.931C65.3468 128.072 69.2507 146.667 68.7675 152.706ZM38.9285 211.224L29.6086 211.162C28.5984 211.155 27.7844 210.217 27.7901 209.067L27.8056 206.021L28.9728 202.36C28.9728 202.36 29.1558 202.19 29.4737 201.976C30.5306 201.226 33.0639 199.854 34.8165 202.399C34.8078 202.57 34.8067 202.75 34.8218 202.922C34.8942 204.238 35.4573 205.576 36.1182 206.428C36.4566 206.863 36.8272 207.172 37.1671 207.273C37.8314 207.467 38.3028 208.182 38.5908 209.14C38.6609 209.356 38.7151 209.591 38.7614 209.844C38.8462 210.277 38.9069 210.746 38.9285 211.224Z" fill="#363B44"/>
<path d="M81.3313 46.0025C81.3313 46.0025 82.7341 42.01 82.7341 40.5131C82.7341 39.0159 84.2249 38.4172 84.2249 40.5131C84.2249 42.6091 85.9787 42.0103 87.3815 39.6146C88.7844 37.2193 90.3627 31.4301 91.1521 34.7239C91.941 38.0177 90.1876 45.0044 88.5214 46.0025C86.8556 47.0007 84.4879 49.6954 84.4879 49.6954C84.4879 49.6954 80.9807 48.997 81.3313 46.0025Z" fill="#F9C8C6"/>
<path d="M25.4479 87.0234C25.4479 87.0234 28.6614 90.2051 29.8672 90.2051C31.073 90.2051 33.5316 88.7431 32.9272 90.5492C32.3227 92.3552 30.6198 92.1832 30.3931 93.6448C30.1665 95.1068 33.5316 96.3107 32.7005 98.8906C31.8695 101.47 27.5226 100.094 25.4827 96.9985C23.4429 93.9025 22.0483 91.1509 22.0483 91.1509L25.4479 87.0234Z" fill="#F4C0B3"/>
<path d="M87.1782 49.3379C87.1782 49.3379 75.7677 75.3784 72.7983 77.6316C72.5027 77.8529 72.1574 77.9984 71.7925 78.0553C69.2585 78.5331 64.8241 75.9552 61.1183 72.6742C60.8489 72.44 60.5878 72.1964 60.3263 71.9531C60.3184 71.944 60.3104 71.944 60.3104 71.944V71.9349C59.0989 70.7992 57.9901 69.6002 57.0875 68.4285C52.9304 63.0202 53.3105 43.4066 56.8738 39.1973L66.3285 56.5936C66.3285 56.5936 68.2369 61.3077 70.2798 59.1265C70.2798 59.1265 70.2877 59.1265 70.2877 59.1174C70.3988 59.0003 70.5094 58.865 70.6204 58.7028C70.6996 58.5857 70.747 58.5137 70.747 58.5137C72.8691 55.1244 81.2389 42.74 81.2389 42.74L85.1982 47.1389L86.2354 48.2928L87.1782 49.3379ZM28.8263 55.3681C28.5095 57.1616 28.1772 58.3155 28.1772 58.3155C28.1772 58.3155 12.4035 63.9672 13.2588 66.2295C13.8526 67.8158 18.0495 73.9812 21.7158 79.2452C21.8264 79.3983 21.9375 79.5518 22.0485 79.7139C23.8352 82.2732 25.638 84.8212 27.4568 87.3577L22.3732 93.6312C22.3732 93.6312 13.3937 84.8608 6.52832 76.2981C-0.337072 67.735 -3.10869 62.9307 4.80979 55.1161C12.7283 47.3014 27.029 39.6937 27.029 39.6937C30.1568 44.3892 29.5312 51.4198 28.8263 55.3681Z" fill="#F68F03"/>
<path opacity="0.1" d="M46.5782 36.668L46.5513 36.8052L46.6866 36.6514L46.5782 36.668Z" fill="black"/>
<path opacity="0.13" d="M13.2589 66.2296C13.8527 67.8158 18.0495 73.9813 21.7158 79.2453C12.2058 65.7699 10.1943 66.2656 12.1501 63.6967C19.2769 58.1803 28.8264 55.3682 28.8264 55.3682C28.5096 57.1617 28.1773 58.3156 28.1773 58.3156C28.1773 58.3156 12.4036 63.9669 13.2589 66.2296Z" fill="black"/>
<path d="M51.0577 105.324H34.8247V39.1866L38.1905 36.5942L38.6437 37.0626C40.8443 39.3374 44.1885 39.3905 46.444 37.1862L47.0495 36.5942L51.0577 39.1866V105.324Z" fill="#E6E9F4"/>
<path d="M37.2251 37.338L38.5704 106.712C34.7222 106.432 31.3488 105.918 29.2502 105.549C27.8644 105.306 26.8033 104.044 26.637 102.457C26.0352 96.6615 25.0215 81.5005 27.4525 58.3173C27.4525 58.3173 25.3777 43.8233 26.518 40.0198C27.8958 39.0285 31.7838 37.9466 33.5418 37.4509C33.5577 37.4509 33.5736 37.4418 33.5891 37.4418C33.5501 37.3335 37.2251 37.338 37.2251 37.338ZM51.549 37.2706C52.4755 37.5858 55.8568 38.6496 56.8781 39.1994C61.5422 42.6785 60.7343 58.705 61.0117 68.4485C61.0511 69.7914 61.0829 71.0984 61.1147 72.3512C61.1147 72.4592 61.1227 72.5676 61.1227 72.6756C61.1307 72.9549 61.1386 73.2255 61.1386 73.496C61.1625 74.2983 61.1784 75.0914 61.1939 75.8576C61.5028 90.3425 61.3205 98.4547 61.1701 102.295C61.0988 103.962 60.0139 105.35 58.5648 105.621C58.5489 105.621 58.533 105.63 58.5174 105.63C56.3635 106.017 52.9427 106.531 48.6906 106.765L47.7087 37H47.764" fill="#F68F03"/>
<path d="M121.149 30.259C121.149 42.8908 110.915 53.125 98.2879 53.125C96.8229 53.125 95.3894 52.9883 94.0036 52.7245C91.9072 52.3269 89.8776 51.6349 87.9749 50.6691C87.5038 50.4329 87.0415 50.1797 86.5887 49.9101C82.8459 47.6747 79.8157 44.4215 77.8513 40.5296C76.2965 37.4416 75.4219 33.9526 75.4219 30.2586C75.4219 17.6317 85.6614 7.39747 98.2879 7.39747C100.65 7.39529 102.999 7.75975 105.25 8.47785C109.45 9.81629 113.118 12.3352 115.868 15.6502C116.209 16.0528 116.532 16.4695 116.838 16.8992C118.089 18.6277 119.09 20.5243 119.81 22.5326C120.68 24.9469 121.149 27.5503 121.149 30.259Z" fill="#F7B348"/>
<path d="M110.572 43.4628C117.61 36.4245 117.61 25.0134 110.572 17.9753C103.534 10.9373 92.1224 10.9375 85.0843 17.9758C78.0463 25.0141 78.0465 36.4252 85.0848 43.4632C92.1231 50.5013 103.534 50.5011 110.572 43.4628Z" fill="#E1901B"/>
<path d="M96.3675 44.5922V41.3556C94.1006 41.262 91.8686 40.6254 90.5942 39.8952L91.6079 35.9231C93.0491 36.6908 95.056 37.4135 97.2611 37.4135C99.1982 37.4135 100.531 36.6476 100.531 35.305C100.531 34.0033 99.4392 33.2068 96.9105 32.3575C93.2726 31.1275 90.7936 29.4203 90.7936 26.1383C90.7936 23.1275 92.8937 20.7788 96.5422 20.0777V16.8457H99.8841V19.8492C102.132 19.9269 103.669 20.426 104.81 20.9607L103.797 24.8051C102.934 24.4156 101.355 23.6308 98.9125 23.6308C96.7237 23.6308 96.0037 24.6028 96.0037 25.5528C96.0037 26.6604 97.1883 27.3933 100.074 28.4612C104.124 29.8841 105.739 31.7573 105.739 34.8408C105.739 37.8652 103.616 40.4231 99.7091 41.101V44.5922H96.3675Z" fill="#F7B348"/>
</svg>
