<svg width="40" height="40" viewBox="0 0 40 40" fill="none" xmlns="http://www.w3.org/2000/svg">
<g clip-path="url(#clip0_559_2507)">
<path d="M20.3 39.0157V39.9824H21.2667V39.0157H20.3ZM0.966667 39.0157H0V39.9824H0.966667V39.0157ZM28.0333 39.0333V40H29V39.0333H28.0333ZM15.4667 17.7629C15.4667 20.4299 13.3036 22.5924 10.6333 22.5924V24.5258C14.3701 24.5258 17.4 21.4988 17.4 17.7629H15.4667ZM10.6333 22.5924C7.96307 22.5924 5.8 20.4299 5.8 17.7629H3.86667C3.86667 21.4988 6.89653 24.5258 10.6333 24.5258V22.5924ZM5.8 17.7629C5.8 15.0959 7.96307 12.9333 10.6333 12.9333V11C6.89653 11 3.86667 14.027 3.86667 17.7629H5.8ZM10.6333 12.9333C13.3036 12.9333 15.4667 15.0959 15.4667 17.7629H17.4C17.4 14.027 14.3701 11 10.6333 11V12.9333ZM20.3 38.0491H0.966667V39.9824H20.3V38.0491ZM1.93333 39.0157C1.93333 39.013 1.93333 39.0103 1.93333 39.0076C1.93333 39.0049 1.93333 39.0022 1.93333 38.9997C1.93333 38.997 1.93333 38.9943 1.93333 38.9916C1.93333 38.9889 1.93333 38.9862 1.93333 38.9835C1.93333 38.9809 1.93333 38.9782 1.93333 38.9755C1.93333 38.9728 1.93333 38.9701 1.93333 38.9674C1.93333 38.9647 1.93333 38.9622 1.93333 38.9595C1.93333 38.9568 1.93333 38.9541 1.93333 38.9514C1.93333 38.9487 1.93333 38.9461 1.93333 38.9434C1.93333 38.9407 1.93333 38.938 1.93333 38.9353C1.93333 38.9326 1.93333 38.9299 1.93333 38.9274C1.93333 38.9247 1.93333 38.922 1.93333 38.9193C1.93333 38.9166 1.93333 38.9139 1.93333 38.9113C1.93333 38.9086 1.93333 38.9059 1.93333 38.9032C1.93333 38.9005 1.93333 38.8978 1.93333 38.8953C1.93333 38.8926 1.93333 38.8899 1.93333 38.8872C1.93333 38.8845 1.93333 38.882 1.93333 38.8792C1.93333 38.8765 1.93333 38.8738 1.93333 38.8711C1.93333 38.8684 1.93333 38.8659 1.93333 38.8632C1.93333 38.8605 1.93333 38.8578 1.93333 38.8551C1.93333 38.8526 1.93333 38.8499 1.93333 38.8472C1.93333 38.8444 1.93333 38.8417 1.93333 38.839C1.93333 38.8365 1.93333 38.8338 1.93333 38.8311C1.93333 38.8284 1.93333 38.8257 1.93333 38.8232C1.93333 38.8205 1.93333 38.8178 1.93333 38.8151C1.93333 38.8124 1.93333 38.8098 1.93333 38.8071C1.93333 38.8044 1.93333 38.8017 1.93333 38.799C1.93333 38.7965 1.93333 38.7938 1.93333 38.7911C1.93333 38.7884 1.93333 38.7857 1.93333 38.7832C1.93333 38.7805 1.93333 38.7777 1.93333 38.775C1.93333 38.7725 1.93333 38.7698 1.93333 38.7671C1.93333 38.7644 1.93333 38.7617 1.93333 38.7592C1.93333 38.7565 1.93333 38.7538 1.93333 38.7511C1.93333 38.7484 1.93333 38.7458 1.93333 38.7431C1.93333 38.7404 1.93333 38.7377 1.93333 38.7352C1.93333 38.7325 1.93333 38.7298 1.93333 38.7271C1.93333 38.7246 1.93333 38.7219 1.93333 38.7192C1.93333 38.7165 1.93333 38.7138 1.93333 38.7112C1.93333 38.7085 1.93333 38.7058 1.93333 38.7031C1.93333 38.7006 1.93333 38.6979 1.93333 38.6952C1.93333 38.6925 1.93333 38.69 1.93333 38.6873C1.93333 38.6846 1.93333 38.6819 1.93333 38.6793C1.93333 38.6766 1.93333 38.6739 1.93333 38.6712C1.93333 38.6687 1.93333 38.666 1.93333 38.6633C1.93333 38.6606 1.93333 38.6581 1.93333 38.6554C1.93333 38.6527 1.93333 38.65 1.93333 38.6474C1.93333 38.6447 1.93333 38.642 1.93333 38.6393C1.93333 38.6368 1.93333 38.6341 1.93333 38.6314C1.93333 38.6287 1.93333 38.6262 1.93333 38.6235C1.93333 38.6208 1.93333 38.6181 1.93333 38.6155C1.93333 38.6128 1.93333 38.6101 1.93333 38.6076C1.93333 38.6049 1.93333 38.6022 1.93333 38.5995C1.93333 38.597 1.93333 38.5943 1.93333 38.5916C1.93333 38.5891 1.93333 38.5863 1.93333 38.5836C1.93333 38.5809 1.93333 38.5784 1.93333 38.5757C1.93333 38.573 1.93333 38.5703 1.93333 38.5678C1.93333 38.5651 1.93333 38.5624 1.93333 38.5599C1.93333 38.5572 1.93333 38.5544 1.93333 38.5517C1.93333 38.5492 1.93333 38.5465 1.93333 38.5438C1.93333 38.5413 1.93333 38.5386 1.93333 38.5359C1.93333 38.5334 1.93333 38.5307 1.93333 38.528C1.93333 38.5253 1.93333 38.5227 1.93333 38.52C1.93333 38.5173 1.93333 38.5148 1.93333 38.5121C1.93333 38.5094 1.93333 38.5069 1.93333 38.5042C1.93333 38.5015 1.93333 38.499 1.93333 38.4963C1.93333 38.4935 1.93333 38.4908 1.93333 38.4883C1.93333 38.4856 1.93333 38.4829 1.93333 38.4804C1.93333 38.4777 1.93333 38.475 1.93333 38.4725C1.93333 38.4698 1.93333 38.4671 1.93333 38.4645C1.93333 38.4618 1.93333 38.4591 1.93333 38.4566C1.93333 38.4539 1.93333 38.4512 1.93333 38.4487C1.93333 38.446 1.93333 38.4433 1.93333 38.4408C1.93333 38.4381 1.93333 38.4354 1.93333 38.4328C1.93333 38.4301 1.93333 38.4274 1.93333 38.4249C1.93333 38.4222 1.93333 38.4195 1.93333 38.417C1.93333 38.4143 1.93333 38.4116 1.93333 38.4091C1.93333 38.4064 1.93333 38.4036 1.93333 38.4011C1.93333 38.3984 1.93333 38.3957 1.93333 38.3932C1.93333 38.3905 1.93333 38.3878 1.93333 38.3853C1.93333 38.3826 1.93333 38.3801 1.93333 38.3774C1.93333 38.3746 1.93333 38.3721 1.93333 38.3694C1.93333 38.3667 1.93333 38.3642 1.93333 38.3615C1.93333 38.3588 1.93333 38.3563 1.93333 38.3536C1.93333 38.3511 1.93333 38.3484 1.93333 38.3456C1.93333 38.3431 1.93333 38.3404 1.93333 38.3377C1.93333 38.3352 1.93333 38.3325 1.93333 38.3298C1.93333 38.3273 1.93333 38.3246 1.93333 38.3221C1.93333 38.3194 1.93333 38.3166 1.93333 38.3141C1.93333 38.3114 1.93333 38.3089 1.93333 38.3062C1.93333 38.3035 1.93333 38.301 1.93333 38.2983C1.93333 38.2956 1.93333 38.2931 1.93333 38.2904C1.93333 38.2878 1.93333 38.2851 1.93333 38.2824C1.93333 38.2799 1.93333 38.2772 1.93333 38.2747C1.93333 38.272 1.93333 38.2693 1.93333 38.2668C1.93333 38.2641 1.93333 38.2615 1.93333 38.2588C1.93333 38.2561 1.93333 38.2536 1.93333 38.2509C1.93333 38.2484 1.93333 38.2457 1.93333 38.243C1.93333 38.2405 1.93333 38.2378 1.93333 38.2353C1.93333 38.2325 1.93333 38.2298 1.93333 38.2273C1.93333 38.2246 1.93333 38.2221 1.93333 38.2194C1.93333 38.2169 1.93333 38.2142 1.93333 38.2115C1.93333 38.209 1.93333 38.2063 1.93333 38.2037C1.93333 38.201 1.93333 38.1983 1.93333 38.1958C1.93333 38.1931 1.93333 38.1906 1.93333 38.1879C1.93333 38.1854 1.93333 38.1827 1.93333 38.18C1.93333 38.1774 1.93333 38.1747 1.93333 38.1722C1.93333 38.1695 1.93333 38.167 1.93333 38.1643C1.93333 38.1618 1.93333 38.1591 1.93333 38.1564C1.93333 38.1539 1.93333 38.1512 1.93333 38.1486C1.93333 38.1459 1.93333 38.1434 1.93333 38.1407C1.93333 38.1382 1.93333 38.1355 1.93333 38.1328C1.93333 38.1303 1.93333 38.1276 1.93333 38.1251C1.93333 38.1223 1.93333 38.1198 1.93333 38.1171C1.93333 38.1146 1.93333 38.1119 1.93333 38.1094C1.93333 38.1067 1.93333 38.104 1.93333 38.1015C1.93333 38.0988 1.93333 38.0962 1.93333 38.0935C1.93333 38.091 1.93333 38.0883 1.93333 38.0858C1.93333 38.0831 1.93333 38.0806 1.93333 38.0779C1.93333 38.0754 1.93333 38.0727 1.93333 38.0701C1.93333 38.0674 1.93333 38.0649 1.93333 38.0622C1.93333 38.0595 1.93333 38.057 1.93333 38.0543C1.93333 38.0518 1.93333 38.0491 1.93333 38.0466C1.93333 38.0439 1.93333 38.0413 1.93333 38.0386C1.93333 38.0361 1.93333 38.0334 1.93333 38.0309C1.93333 38.0282 1.93333 38.0257 1.93333 38.023C1.93333 38.0205 1.93333 38.0178 1.93333 38.0152C1.93333 38.0125 1.93333 38.01 1.93333 38.0073C1.93333 38.0048 1.93333 38.0021 1.93333 37.9996C1.93333 37.9969 1.93333 37.9944 1.93333 37.9917C1.93333 37.9891 1.93333 37.9864 1.93333 37.9839C1.93333 37.9812 1.93333 37.9787 1.93333 37.976C1.93333 37.9735 1.93333 37.9708 1.93333 37.9683C1.93333 37.9656 1.93333 37.963 1.93333 37.9605C1.93333 37.9578 1.93333 37.9553 1.93333 37.9526C1.93333 37.9501 1.93333 37.9474 1.93333 37.9449C1.93333 37.9422 1.93333 37.9396 1.93333 37.9369C1.93333 37.9344 1.93333 37.9317 1.93333 37.9292C1.93333 37.9265 1.93333 37.924 1.93333 37.9213C1.93333 37.9188 1.93333 37.9163 1.93333 37.9135C1.93333 37.911 1.93333 37.9083 1.93333 37.9058C1.93333 37.9031 1.93333 37.9006 1.93333 37.8979C1.93333 37.8954 1.93333 37.8927 1.93333 37.8902C1.93333 37.8876 1.93333 37.8849 1.93333 37.8824C1.93333 37.8797 1.93333 37.8772 1.93333 37.8745C1.93333 37.872 1.93333 37.8693 1.93333 37.8668C1.93333 37.8642 1.93333 37.8615 1.93333 37.859C1.93333 37.8563 1.93333 37.8538 1.93333 37.8511C1.93333 37.8486 1.93333 37.8459 1.93333 37.8434C1.93333 37.8409 1.93333 37.8381 1.93333 37.8356C1.93333 37.8329 1.93333 37.8304 1.93333 37.8277C1.93333 37.8252 1.93333 37.8227 1.93333 37.82C1.93333 37.8175 1.93333 37.8148 1.93333 37.8122C1.93333 37.8097 1.93333 37.807 1.93333 37.8045C1.93333 37.8018 1.93333 37.7993 1.93333 37.7966C1.93333 37.7941 1.93333 37.7916 1.93333 37.7888C1.93333 37.7863 1.93333 37.7836 1.93333 37.7811C1.93333 37.7786 1.93333 37.7759 1.93333 37.7734C1.93333 37.7707 1.93333 37.7682 1.93333 37.7656C1.93333 37.7629 1.93333 37.7604 1.93333 37.7577C1.93333 37.7552 1.93333 37.7527 1.93333 37.75C1.93333 37.7475 1.93333 37.745 1.93333 37.7423C1.93333 37.7397 1.93333 37.737 1.93333 37.7345C1.93333 37.732 1.93333 37.7293 1.93333 37.7268C1.93333 37.7241 1.93333 37.7216 1.93333 37.7191C1.93333 37.7163 1.93333 37.7138 1.93333 37.7113C1.93333 37.7086 1.93333 37.7061 1.93333 37.7034C1.93333 37.7009 1.93333 37.6984 1.93333 37.6957C1.93333 37.6931 1.93333 37.6906 1.93333 37.6879C1.93333 37.6854 1.93333 37.6829 1.93333 37.6802C1.93333 37.6777 1.93333 37.675 1.93333 37.6725C1.93333 37.6699 1.93333 37.6672 1.93333 37.6647C1.93333 37.6622 1.93333 37.6595 1.93333 37.657C1.93333 37.6545 1.93333 37.6518 1.93333 37.6493C1.93333 37.6467 1.93333 37.644 1.93333 37.6415C1.93333 37.639 1.93333 37.6363 1.93333 37.6338C1.93333 37.6311 1.93333 37.6286 1.93333 37.6261C1.93333 37.6234 1.93333 37.6208 1.93333 37.6183C1.93333 37.6156 1.93333 37.6131 1.93333 37.6106C1.93333 37.6079 1.93333 37.6054 1.93333 37.6029C1.93333 37.6003 1.93333 37.5976 1.93333 37.5951C1.93333 37.5926 1.93333 37.5899 1.93333 37.5874C1.93333 37.5849 1.93333 37.5822 1.93333 37.5797C1.93333 37.5771 1.93333 37.5744 1.93333 37.5719C1.93333 37.5694 1.93333 37.5667 1.93333 37.5642C1.93333 37.5617 1.93333 37.559 1.93333 37.5565C1.93333 37.5539 1.93333 37.5514 1.93333 37.5487C1.93333 37.5462 1.93333 37.5437 1.93333 37.541C1.93333 37.5385 1.93333 37.536 1.93333 37.5333C1.93333 37.5307 1.93333 37.5282 1.93333 37.5257C1.93333 37.523 1.93333 37.5205 1.93333 37.518C1.93333 37.5153 1.93333 37.5128 1.93333 37.5103C1.93333 37.5077 1.93333 37.505 1.93333 37.5025C1.93333 37.5 1.93333 37.4973 1.93333 37.4948C1.93333 37.4923 1.93333 37.4898 1.93333 37.4871C1.93333 37.4845 1.93333 37.482 1.93333 37.4793C1.93333 37.4768 1.93333 37.4743 1.93333 37.4718C1.93333 37.4691 1.93333 37.4666 1.93333 37.464C1.93333 37.4615 1.93333 37.4588 1.93333 37.4563C1.93333 37.4538 1.93333 37.4513 1.93333 37.4486C1.93333 37.4461 1.93333 37.4436 1.93333 37.441C1.93333 37.4383 1.93333 37.4358 1.93333 37.4333C1.93333 37.4308 1.93333 37.4281 1.93333 37.4256C1.93333 37.4231 1.93333 37.4205 1.93333 37.4178C1.93333 37.4153 1.93333 37.4128 1.93333 37.4103C1.93333 37.4076 1.93333 37.4051 1.93333 37.4026C1.93333 37.4001 1.93333 37.3973 1.93333 37.3948C1.93333 37.3923 1.93333 37.3898 1.93333 37.3871C1.93333 37.3846 1.93333 37.3821 1.93333 37.3796C1.93333 37.377 1.93333 37.3743 1.93333 37.3718C1.93333 37.3693 1.93333 37.3668 1.93333 37.3641C1.93333 37.3616 1.93333 37.3591 1.93333 37.3566C1.93333 37.354 1.93333 37.3513 1.93333 37.3488C1.93333 37.3463 1.93333 37.3438 1.93333 37.3413C1.93333 37.3386 1.93333 37.3361 1.93333 37.3335C1.93333 37.331 1.93333 37.3285 1.93333 37.3258C1.93333 37.3233 1.93333 37.3208 1.93333 37.3183C1.93333 37.3158 1.93333 37.3131 1.93333 37.3105C1.93333 37.308 1.93333 37.3055 1.93333 37.303C1.93333 37.3003 1.93333 37.2978 1.93333 37.2953C1.93333 37.2928 1.93333 37.2902 1.93333 37.2875C1.93333 37.285 1.93333 37.2825 1.93333 37.28C1.93333 37.2775 1.93333 37.275 1.93333 37.2723C1.93333 37.2697 1.93333 37.2672 1.93333 37.2647C1.93333 37.2622 1.93333 37.2597 1.93333 37.257C1.93333 37.2545 1.93333 37.252 1.93333 37.2494C1.93333 37.2469 1.93333 37.2444 1.93333 37.2417C1.93333 37.2392 1.93333 37.2367 1.93333 37.2342C1.93333 37.2317 1.93333 37.2291 1.93333 37.2264C1.93333 37.2239 1.93333 37.2214 1.93333 37.2189C1.93333 37.2164 1.93333 37.2139 1.93333 37.2114C1.93333 37.2087 1.93333 37.2061 1.93333 37.2036C1.93333 37.2011 1.93333 37.1986 1.93333 37.1961C1.93333 37.1936 1.93333 37.1909 1.93333 37.1884C1.93333 37.1858 1.93333 37.1833 1.93333 37.1808C1.93333 37.1783 1.93333 37.1758 1.93333 37.1731C1.93333 37.1706 1.93333 37.1681 1.93333 37.1655C1.93333 37.163 1.93333 37.1605 1.93333 37.158C1.93333 37.1555 1.93333 37.1528 1.93333 37.1503C1.93333 37.1478 1.93333 37.1452 1.93333 37.1427C1.93333 37.1402 1.93333 37.1377 1.93333 37.1352C1.93333 37.1327 1.93333 37.13 1.93333 37.1275C1.93333 37.1249 1.93333 37.1224 1.93333 37.1199C1.93333 37.1174 1.93333 37.1149 1.93333 37.1124C1.93333 37.1099 1.93333 37.1073 1.93333 37.1046C1.93333 37.1021 1.93333 37.0996 1.93333 37.0971C1.93333 37.0946 1.93333 37.0921 1.93333 37.0896C1.93333 37.087 1.93333 37.0845 1.93333 37.082C1.93333 37.0795 1.93333 37.0768 1.93333 37.0743C1.93333 37.0718 1.93333 37.0693 1.93333 37.0667C1.93333 37.0642 1.93333 37.0617 1.93333 37.0592C1.93333 37.0567 1.93333 37.0542 1.93333 37.0517C1.93333 37.0492 1.93333 37.0466 1.93333 37.0441C1.93333 37.0414 1.93333 37.0389 1.93333 37.0364C1.93333 37.0339 1.93333 37.0314 1.93333 37.0289C1.93333 37.0263 1.93333 37.0238 1.93333 37.0213C1.93333 37.0188 1.93333 37.0163 1.93333 37.0138C1.93333 37.0113 1.93333 37.0087 1.93333 37.0062C1.93333 37.0037 1.93333 37.0012 1.93333 36.9987C1.93333 36.996 1.93333 36.9935 1.93333 36.991C1.93333 36.9884 1.93333 36.9859 1.93333 36.9834C1.93333 36.9809 1.93333 36.9784 1.93333 36.9759C1.93333 36.9734 1.93333 36.9709 1.93333 36.9683C1.93333 36.9658 1.93333 36.9633 1.93333 36.9608C1.93333 36.9583 1.93333 36.9558 1.93333 36.9533C1.93333 36.9507 1.93333 36.9482 1.93333 36.9457C1.93333 36.9432 1.93333 36.9407 1.93333 36.9382C1.93333 36.9357 1.93333 36.9332 1.93333 36.9306C1.93333 36.9281 1.93333 36.9256 1.93333 36.9231C1.93333 36.9206 1.93333 36.9181 1.93333 36.9156C1.93333 36.913 1.93333 36.9105 1.93333 36.908C1.93333 36.9055 1.93333 36.903 1.93333 36.9005C1.93333 36.898 1.93333 36.8955 1.93333 36.8929C1.93333 36.8904 1.93333 36.8879 1.93333 36.8854C1.93333 36.8829 1.93333 36.8804 1.93333 36.8779C1.93333 36.8753 1.93333 36.8728 1.93333 36.8703C1.93333 36.8678 1.93333 36.8653 1.93333 36.8628C1.93333 36.8603 1.93333 36.8578 1.93333 36.8552C1.93333 36.8527 1.93333 36.8502 1.93333 36.8477C1.93333 36.8452 1.93333 36.8427 1.93333 36.8402C1.93333 36.8376 1.93333 36.8351 1.93333 36.8326C1.93333 36.8301 1.93333 36.8278 1.93333 36.8253C1.93333 36.8228 1.93333 36.8202 1.93333 36.8177C1.93333 36.8152 1.93333 36.8127 1.93333 36.8102C1.93333 36.8077 1.93333 36.8052 1.93333 36.8027C1.93333 36.8001 1.93333 36.7976 1.93333 36.7951C1.93333 36.7926 1.93333 36.7901 1.93333 36.7876C1.93333 36.7851 1.93333 36.7827 1.93333 36.7802C1.93333 36.7777 1.93333 36.7752 1.93333 36.7727C1.93333 36.7702 1.93333 36.7677 1.93333 36.7651C1.93333 36.7626 1.93333 36.7601 1.93333 36.7576C1.93333 36.7551 1.93333 36.7526 1.93333 36.7501C1.93333 36.7477 1.93333 36.7452 1.93333 36.7427C1.93333 36.7402 1.93333 36.7377 1.93333 36.7352C1.93333 36.7327 1.93333 36.7302 1.93333 36.7276C1.93333 36.7251 1.93333 36.7226 1.93333 36.7203C1.93333 36.7178 1.93333 36.7153 1.93333 36.7128C1.93333 36.7102 1.93333 36.7077 1.93333 36.7052C1.93333 36.7027 1.93333 36.7002 1.93333 36.6979C1.93333 36.6954 1.93333 36.6928 1.93333 36.6903C1.93333 36.6878 1.93333 36.6853 1.93333 36.6828C1.93333 36.6803 1.93333 36.6778 1.93333 36.6754C1.93333 36.6729 1.93333 36.6704 1.93333 36.6679C1.93333 36.6654 1.93333 36.6629 1.93333 36.6604C1.93333 36.6578 1.93333 36.6555 1.93333 36.653C1.93333 36.6505 1.93333 36.648 1.93333 36.6455C1.93333 36.643 1.93333 36.6404 1.93333 36.6381C1.93333 36.6356 1.93333 36.6331 1.93333 36.6306C1.93333 36.6281 1.93333 36.6256 1.93333 36.623C1.93333 36.6207 1.93333 36.6182 1.93333 36.6157C1.93333 36.6132 1.93333 36.6107 1.93333 36.6082C1.93333 36.6058 1.93333 36.6033 1.93333 36.6008C1.93333 36.5983 1.93333 36.5958 1.93333 36.5933C1.93333 36.591 1.93333 36.5884 1.93333 36.5859C1.93333 36.5834 1.93333 36.5809 1.93333 36.5784C1.93333 36.5761 1.93333 36.5736 1.93333 36.571C1.93333 36.5685 1.93333 36.566 1.93333 36.5635C1.93333 36.5612 1.93333 36.5587 1.93333 36.5562C1.93333 36.5536 1.93333 36.5511 1.93333 36.5488C1.93333 36.5463 1.93333 36.5438 1.93333 36.5413C1.93333 36.5388 1.93333 36.5364 1.93333 36.5339C1.93333 36.5314 1.93333 36.5289 1.93333 36.5264C1.93333 36.5241 1.93333 36.5215 1.93333 36.519C1.93333 36.5165 1.93333 36.514 1.93333 36.5117C1.93333 36.5092 1.93333 36.5067 1.93333 36.5041C1.93333 36.5016 1.93333 36.4993 1.93333 36.4968C1.93333 36.4943 1.93333 36.4918 1.93333 36.4895C1.93333 36.4869 1.93333 36.4844 1.93333 36.4819C1.93333 36.4794 1.93333 36.4771 1.93333 36.4746C1.93333 36.4721 1.93333 36.4695 1.93333 36.4672C1.93333 36.4647 1.93333 36.4622 1.93333 36.4597C1.93333 36.4574 1.93333 36.4548 1.93333 36.4523C1.93333 36.4498 1.93333 36.4473 1.93333 36.445C1.93333 36.4425 1.93333 36.44 1.93333 36.4374C1.93333 36.4351 1.93333 36.4326 1.93333 36.4301C1.93333 36.4278 1.93333 36.4253 1.93333 36.4228C1.93333 36.4202 1.93333 36.4179 1.93333 36.4154C1.93333 36.4129 1.93333 36.4104 1.93333 36.4081C1.93333 36.4055 1.93333 36.403 1.93333 36.4005C1.93333 36.3982 1.93333 36.3957 1.93333 36.3932C1.93333 36.3909 1.93333 36.3883 1.93333 36.3858C1.93333 36.3833 1.93333 36.381 1.93333 36.3785C1.93333 36.376 1.93333 36.3735 1.93333 36.3711C1.93333 36.3686 1.93333 36.3661 1.93333 36.3638C1.93333 36.3613 1.93333 36.3588 1.93333 36.3564C1.93333 36.3539 1.93333 36.3514 1.93333 36.3489C1.93333 36.3466 1.93333 36.3441 1.93333 36.3416C1.93333 36.3392 1.93333 36.3367 1.93333 36.3342C1.93333 36.3319 1.93333 36.3294 1.93333 36.3269C1.93333 36.3243 1.93333 36.322 1.93333 36.3195C1.93333 36.317 1.93333 36.3147 1.93333 36.3122C1.93333 36.3097 1.93333 36.3073 1.93333 36.3048C1.93333 36.3023 1.93333 36.3 1.93333 36.2975C1.93333 36.295 1.93333 36.2926 1.93333 36.2901C1.93333 36.2876 1.93333 36.2853 1.93333 36.2828C1.93333 36.2803 1.93333 36.2779 1.93333 36.2754C1.93333 36.2729 1.93333 36.2706 1.93333 36.2681C1.93333 36.2656 1.93333 36.2633 1.93333 36.2607C1.93333 36.2582 1.93333 36.2559 1.93333 36.2534C1.93333 36.2511 1.93333 36.2486 1.93333 36.246C1.93333 36.2437 1.93333 36.2412 1.93333 36.2387C1.93333 36.2364 1.93333 36.2339 1.93333 36.2314C1.93333 36.229 1.93333 36.2265 1.93333 36.2242C1.93333 36.2217 1.93333 36.2192 1.93333 36.2169C1.93333 36.2143 1.93333 36.2118 1.93333 36.2095C1.93333 36.207 1.93333 36.2047 1.93333 36.2022C1.93333 36.1996 1.93333 36.1973 1.93333 36.1948C1.93333 36.1925 1.93333 36.19 1.93333 36.1875C1.93333 36.1851 1.93333 36.1826 1.93333 36.1801C1.93333 36.1778 1.93333 36.1753 1.93333 36.173C1.93333 36.1705 1.93333 36.1679 1.93333 36.1656C1.93333 36.1631 1.93333 36.1608 1.93333 36.1583C1.93333 36.156 1.93333 36.1534 1.93333 36.1509C1.93333 36.1486 1.93333 36.1461 1.93333 36.1438C1.93333 36.1413 1.93333 36.1387 1.93333 36.1364C1.93333 36.1339 1.93333 36.1316 1.93333 36.1291C1.93333 36.1268 1.93333 36.1242 1.93333 36.1217C1.93333 36.1194 1.93333 36.1169 1.93333 36.1146C1.93333 36.1121 1.93333 36.1097 1.93333 36.1072C1.93333 36.1047 1.93333 36.1024 1.93333 36.0999C1.93333 36.0976 1.93333 36.0951 1.93333 36.0927C1.93333 36.0902 1.93333 36.0879 1.93333 36.0854C1.93333 36.0829 1.93333 36.0806 1.93333 36.078C1.93333 36.0757 1.93333 36.0732 1.93333 36.0709C1.93333 36.0684 1.93333 36.0661 1.93333 36.0635C1.93333 36.0612 1.93333 36.0587 1.93333 36.0564C1.93333 36.0539 1.93333 36.0514 1.93333 36.049C1.93333 36.0465 1.93333 36.0442 1.93333 36.0417C1.93333 36.0394 1.93333 36.0369 1.93333 36.0345C1.93333 36.032 1.93333 36.0297 1.93333 36.0272C1.93333 36.0249 1.93333 36.0224 1.93333 36.02C1.93333 36.0175 1.93333 36.0152 1.93333 36.0127C1.93333 36.0104 1.93333 36.0079 1.93333 36.0055C1.93333 36.003 1.93333 36.0007 1.93333 35.9982C1.93333 35.9959 1.93333 35.9934 1.93333 35.991C1.93333 35.9885 1.93333 35.9862 1.93333 35.9837C1.93333 35.9814 1.93333 35.9789 1.93333 35.9765C1.93333 35.974 1.93333 35.9717 1.93333 35.9692C1.93333 35.9669 1.93333 35.9644 1.93333 35.962C1.93333 35.9595 1.93333 35.9572 1.93333 35.9549C1.93333 35.9524 1.93333 35.9501 1.93333 35.9475C1.93333 35.9452 1.93333 35.9427 1.93333 35.9404C1.93333 35.9379 1.93333 35.9356 1.93333 35.933C1.93333 35.9307 1.93333 35.9282 1.93333 35.9259C1.93333 35.9236 1.93333 35.9211 1.93333 35.9187C1.93333 35.9162 1.93333 35.9139 1.93333 35.9114C1.93333 35.9091 1.93333 35.9066 1.93333 35.9042C1.93333 35.9019 1.93333 35.8994 1.93333 35.8971C1.93333 35.8946 1.93333 35.8922 1.93333 35.8897C1.93333 35.8874 1.93333 35.8851 1.93333 35.8826C1.93333 35.8803 1.93333 35.8777 1.93333 35.8754C1.93333 35.8729 1.93333 35.8706 1.93333 35.8683C1.93333 35.8658 1.93333 35.8634 1.93333 35.8609C1.93333 35.8586 1.93333 35.8563 1.93333 35.8538C1.93333 35.8515 1.93333 35.8489 1.93333 35.8466C1.93333 35.8441 1.93333 35.8418 1.93333 35.8395C1.93333 35.837 1.93333 35.8346 1.93333 35.8323C1.93333 35.8298 1.93333 35.8275 1.93333 35.825C1.93333 35.8226 1.93333 35.8203 1.93333 35.8178C1.93333 35.8155 1.93333 35.813 1.93333 35.8107C1.93333 35.8083 1.93333 35.8058 1.93333 35.8035C1.93333 35.8012 1.93333 35.7987 1.93333 35.7964C1.93333 35.7938 1.93333 35.7915 1.93333 35.7892C1.93333 35.7867 1.93333 35.7844 1.93333 35.782C1.93333 35.7795 1.93333 35.7772 1.93333 35.7747C1.93333 35.7724 1.93333 35.7701 1.93333 35.7675C1.93333 35.7652 1.93333 35.7629 1.93333 35.7604C1.93333 35.7581 1.93333 35.7558 1.93333 35.7532C1.93333 35.7509 1.93333 35.7486 1.93333 35.7461C1.93333 35.7438 1.93333 35.7414 1.93333 35.7389C1.93333 35.7366 1.93333 35.7343 1.93333 35.7318C1.93333 35.7295 1.93333 35.7271 1.93333 35.7246C1.93333 35.7223 1.93333 35.72 1.93333 35.7175C1.93333 35.7152 1.93333 35.7128 1.93333 35.7103C1.93333 35.708 1.93333 35.7057 1.93333 35.7032C1.93333 35.7008 1.93333 35.6985 1.93333 35.696C1.93333 35.6937 1.93333 35.6914 1.93333 35.6891C1.93333 35.6865 1.93333 35.6842 1.93333 35.6819C1.93333 35.6794 1.93333 35.6771 1.93333 35.6747C1.93333 35.6722 1.93333 35.6699 1.93333 35.6676C1.93333 35.6653 1.93333 35.6628 1.93333 35.6604C1.93333 35.6581 1.93333 35.6556 1.93333 35.6533C1.93333 35.651 1.93333 35.6486 1.93333 35.6461C1.93333 35.6438 1.93333 35.6415 1.93333 35.639C1.93333 35.6367 1.93333 35.6343 1.93333 35.632C1.93333 35.6295 1.93333 35.6272 1.93333 35.6249C1.93333 35.6225 1.93333 35.62 1.93333 35.6177C1.93333 35.6154 1.93333 35.6131 1.93333 35.6106C1.93333 35.6082 1.93333 35.6059 1.93333 35.6036C1.93333 35.6011 1.93333 35.5988 1.93333 35.5964C1.93333 35.5941 1.93333 35.5916 1.93333 35.5893C1.93333 35.587 1.93333 35.5847 1.93333 35.5821C1.93333 35.5798 1.93333 35.5775 1.93333 35.5752C1.93333 35.5727 1.93333 35.5703 1.93333 35.568C1.93333 35.5657 1.93333 35.5634 1.93333 35.5609C1.93333 35.5586 1.93333 35.5562 1.93333 35.5539C1.93333 35.5514 1.93333 35.5491 1.93333 35.5468C1.93333 35.5444 1.93333 35.5421 1.93333 35.5396C1.93333 35.5373 1.93333 35.535 1.93333 35.5326C1.93333 35.5303 1.93333 35.5278 1.93333 35.5255C1.93333 35.5232 1.93333 35.5209 1.93333 35.5185C1.93333 35.516 1.93333 35.5137 1.93333 35.5114C1.93333 35.5091 1.93333 35.5067 1.93333 35.5042C1.93333 35.5019 1.93333 35.4996 1.93333 35.4973C1.93333 35.4949 1.93333 35.4924 1.93333 35.4901C1.93333 35.4878 1.93333 35.4855 1.93333 35.4832C1.93333 35.4808 1.93333 35.4783 1.93333 35.476C1.93333 35.4737 1.93333 35.4714 1.93333 35.469C1.93333 35.4667 1.93333 35.4642 1.93333 35.4619C1.93333 35.4596 1.93333 35.4572 1.93333 35.4549C1.93333 35.4526 1.93333 35.4503 1.93333 35.4478C1.93333 35.4455 1.93333 35.4431 1.93333 35.4408C1.93333 35.4385 1.93333 35.4362 1.93333 35.4339C1.93333 35.4313 1.93333 35.429 1.93333 35.4267C1.93333 35.4244 1.93333 35.4221 1.93333 35.4197C1.93333 35.4174 1.93333 35.4149 1.93333 35.4126C1.93333 35.4103 1.93333 35.4079 1.93333 35.4056C1.93333 35.4033 1.93333 35.401 1.93333 35.3987C1.93333 35.3963 1.93333 35.3938 1.93333 35.3915C1.93333 35.3892 1.93333 35.3869 1.93333 35.3846C1.93333 35.3822 1.93333 35.3799 1.93333 35.3776C1.93333 35.3753 1.93333 35.3728 1.93333 35.3704C1.93333 35.3681 1.93333 35.3658 1.93333 35.3635C1.93333 35.3612 1.93333 35.3588 1.93333 35.3565C1.93333 35.3542 1.93333 35.3519 1.93333 35.3496C1.93333 35.347 1.93333 35.3447 1.93333 35.3424C1.93333 35.3401 1.93333 35.3378 1.93333 35.3354C1.93333 35.3331 1.93333 35.3308 1.93333 35.3285C1.93333 35.3262 1.93333 35.3238 1.93333 35.3215C1.93333 35.3192 1.93333 35.3169 1.93333 35.3144C1.93333 35.3121 1.93333 35.3097 1.93333 35.3074C1.93333 35.3051 1.93333 35.3028 1.93333 35.3005C1.93333 35.2981 1.93333 35.2958 1.93333 35.2935C1.93333 35.2912 1.93333 35.2889 1.93333 35.2865C1.93333 35.2842 1.93333 35.2819 1.93333 35.2796C1.93333 35.2773 1.93333 35.2749 1.93333 35.2726C1.93333 35.2703 1.93333 35.268 1.93333 35.2657C1.93333 35.2633 1.93333 35.261 1.93333 35.2587C1.93333 35.2564 1.93333 35.2541 1.93333 35.2517C1.93333 35.2492 1.93333 35.2469 1.93333 35.2446C1.93333 35.2423 1.93333 35.2399 1.93333 35.2376C1.93333 35.2353 1.93333 35.233 1.93333 35.2307C1.93333 35.2283 1.93333 35.226 1.93333 35.2237C1.93333 35.2214 1.93333 35.2191 1.93333 35.2167C1.93333 35.2144 1.93333 35.2121 1.93333 35.2098C1.93333 35.2077 1.93333 35.2053 1.93333 35.203C1.93333 35.2007 1.93333 35.1984 1.93333 35.1961C1.93333 35.1937 1.93333 35.1914 1.93333 35.1891C1.93333 35.1868 1.93333 35.1845 1.93333 35.1821C1.93333 35.1798 1.93333 35.1775 1.93333 35.1752C1.93333 35.1729 1.93333 35.1705 1.93333 35.1682C1.93333 35.1659 1.93333 35.1636 1.93333 35.1613C1.93333 35.1589 1.93333 35.1566 1.93333 35.1543H0C0 35.1566 0 35.1589 0 35.1613C0 35.1636 0 35.1659 0 35.1682C0 35.1705 0 35.1729 0 35.1752C0 35.1775 0 35.1798 0 35.1821C0 35.1845 0 35.1868 0 35.1891C0 35.1914 0 35.1937 0 35.1961C0 35.1984 0 35.2007 0 35.203C0 35.2053 0 35.2077 0 35.2098C0 35.2121 0 35.2144 0 35.2167C0 35.2191 0 35.2214 0 35.2237C0 35.226 0 35.2283 0 35.2307C0 35.233 0 35.2353 0 35.2376C0 35.2399 0 35.2423 0 35.2446C0 35.2469 0 35.2492 0 35.2517C0 35.2541 0 35.2564 0 35.2587C0 35.261 0 35.2633 0 35.2657C0 35.268 0 35.2703 0 35.2726C0 35.2749 0 35.2773 0 35.2796C0 35.2819 0 35.2842 0 35.2865C0 35.2889 0 35.2912 0 35.2935C0 35.2958 0 35.2981 0 35.3005C0 35.3028 0 35.3051 0 35.3074C0 35.3097 0 35.3121 0 35.3144C0 35.3169 0 35.3192 0 35.3215C0 35.3238 0 35.3262 0 35.3285C0 35.3308 0 35.3331 0 35.3354C0 35.3378 0 35.3401 0 35.3424C0 35.3447 0 35.347 0 35.3496C0 35.3519 0 35.3542 0 35.3565C0 35.3588 0 35.3612 0 35.3635C0 35.3658 0 35.3681 0 35.3704C0 35.3728 0 35.3753 0 35.3776C0 35.3799 0 35.3822 0 35.3846C0 35.3869 0 35.3892 0 35.3915C0 35.3938 0 35.3963 0 35.3987C0 35.401 0 35.4033 0 35.4056C0 35.4079 0 35.4103 0 35.4126C0 35.4149 0 35.4174 0 35.4197C0 35.4221 0 35.4244 0 35.4267C0 35.429 0 35.4313 0 35.4339C0 35.4362 0 35.4385 0 35.4408C0 35.4431 0 35.4455 0 35.4478C0 35.4503 0 35.4526 0 35.4549C0 35.4572 0 35.4596 0 35.4619C0 35.4642 0 35.4667 0 35.469C0 35.4714 0 35.4737 0 35.476C0 35.4783 0 35.4808 0 35.4832C0 35.4855 0 35.4878 0 35.4901C0 35.4924 0 35.4949 0 35.4973C0 35.4996 0 35.5019 0 35.5042C0 35.5067 0 35.5091 0 35.5114C0 35.5137 0 35.516 0 35.5185C0 35.5209 0 35.5232 0 35.5255C0 35.5278 0 35.5303 0 35.5326C0 35.535 0 35.5373 0 35.5396C0 35.5421 0 35.5444 0 35.5468C0 35.5491 0 35.5514 0 35.5539C0 35.5562 0 35.5586 0 35.5609C0 35.5634 0 35.5657 0 35.568C0 35.5703 0 35.5727 0 35.5752C0 35.5775 0 35.5798 0 35.5821C0 35.5847 0 35.587 0 35.5893C0 35.5916 0 35.5941 0 35.5964C0 35.5988 0 35.6011 0 35.6036C0 35.6059 0 35.6082 0 35.6106C0 35.6131 0 35.6154 0 35.6177C0 35.62 0 35.6225 0 35.6249C0 35.6272 0 35.6295 0 35.632C0 35.6343 0 35.6367 0 35.639C0 35.6415 0 35.6438 0 35.6461C0 35.6486 0 35.651 0 35.6533C0 35.6556 0 35.6581 0 35.6604C0 35.6628 0 35.6653 0 35.6676C0 35.6699 0 35.6722 0 35.6747C0 35.6771 0 35.6794 0 35.6819C0 35.6842 0 35.6865 0 35.6891C0 35.6914 0 35.6937 0 35.696C0 35.6985 0 35.7008 0 35.7032C0 35.7057 0 35.708 0 35.7103C0 35.7128 0 35.7152 0 35.7175C0 35.72 0 35.7223 0 35.7246C0 35.7271 0 35.7295 0 35.7318C0 35.7343 0 35.7366 0 35.7389C0 35.7414 0 35.7438 0 35.7461C0 35.7486 0 35.7509 0 35.7532C0 35.7558 0 35.7581 0 35.7604C0 35.7629 0 35.7652 0 35.7675C0 35.7701 0 35.7724 0 35.7747C0 35.7772 0 35.7795 0 35.782C0 35.7844 0 35.7867 0 35.7892C0 35.7915 0 35.7938 0 35.7964C0 35.7987 0 35.8012 0 35.8035C0 35.8058 0 35.8083 0 35.8107C0 35.813 0 35.8155 0 35.8178C0 35.8203 0 35.8226 0 35.825C0 35.8275 0 35.8298 0 35.8323C0 35.8346 0 35.837 0 35.8395C0 35.8418 0 35.8441 0 35.8466C0 35.8489 0 35.8515 0 35.8538C0 35.8563 0 35.8586 0 35.8609C0 35.8634 0 35.8658 0 35.8683C0 35.8706 0 35.8729 0 35.8754C0 35.8777 0 35.8803 0 35.8826C0 35.8851 0 35.8874 0 35.8897C0 35.8922 0 35.8946 0 35.8971C0 35.8994 0 35.9019 0 35.9042C0 35.9066 0 35.9091 0 35.9114C0 35.9139 0 35.9162 0 35.9187C0 35.9211 0 35.9236 0 35.9259C0 35.9282 0 35.9307 0 35.933C0 35.9356 0 35.9379 0 35.9404C0 35.9427 0 35.9452 0 35.9475C0 35.9501 0 35.9524 0 35.9549C0 35.9572 0 35.9595 0 35.962C0 35.9644 0 35.9669 0 35.9692C0 35.9717 0 35.974 0 35.9765C0 35.9789 0 35.9814 0 35.9837C0 35.9862 0 35.9885 0 35.991C0 35.9934 0 35.9959 0 35.9982C0 36.0007 0 36.003 0 36.0055C0 36.0079 0 36.0104 0 36.0127C0 36.0152 0 36.0175 0 36.02C0 36.0224 0 36.0249 0 36.0272C0 36.0297 0 36.032 0 36.0345C0 36.0369 0 36.0394 0 36.0417C0 36.0442 0 36.0465 0 36.049C0 36.0514 0 36.0539 0 36.0564C0 36.0587 0 36.0612 0 36.0635C0 36.0661 0 36.0684 0 36.0709C0 36.0732 0 36.0757 0 36.078C0 36.0806 0 36.0829 0 36.0854C0 36.0879 0 36.0902 0 36.0927C0 36.0951 0 36.0976 0 36.0999C0 36.1024 0 36.1047 0 36.1072C0 36.1097 0 36.1121 0 36.1146C0 36.1169 0 36.1194 0 36.1217C0 36.1242 0 36.1268 0 36.1291C0 36.1316 0 36.1339 0 36.1364C0 36.1387 0 36.1413 0 36.1438C0 36.1461 0 36.1486 0 36.1509C0 36.1534 0 36.156 0 36.1583C0 36.1608 0 36.1631 0 36.1656C0 36.1679 0 36.1705 0 36.173C0 36.1753 0 36.1778 0 36.1801C0 36.1826 0 36.1851 0 36.1875C0 36.19 0 36.1925 0 36.1948C0 36.1973 0 36.1996 0 36.2022C0 36.2047 0 36.207 0 36.2095C0 36.2118 0 36.2143 0 36.2169C0 36.2192 0 36.2217 0 36.2242C0 36.2265 0 36.229 0 36.2314C0 36.2339 0 36.2364 0 36.2387C0 36.2412 0 36.2437 0 36.246C0 36.2486 0 36.2511 0 36.2534C0 36.2559 0 36.2582 0 36.2607C0 36.2633 0 36.2656 0 36.2681C0 36.2706 0 36.2729 0 36.2754C0 36.2779 0 36.2803 0 36.2828C0 36.2853 0 36.2876 0 36.2901C0 36.2926 0 36.295 0 36.2975C0 36.3 0 36.3023 0 36.3048C0 36.3073 0 36.3097 0 36.3122C0 36.3147 0 36.317 0 36.3195C0 36.322 0 36.3243 0 36.3269C0 36.3294 0 36.3319 0 36.3342C0 36.3367 0 36.3392 0 36.3416C0 36.3441 0 36.3466 0 36.3489C0 36.3514 0 36.3539 0 36.3564C0 36.3588 0 36.3613 0 36.3638C0 36.3661 0 36.3686 0 36.3711C0 36.3735 0 36.376 0 36.3785C0 36.381 0 36.3833 0 36.3858C0 36.3883 0 36.3909 0 36.3932C0 36.3957 0 36.3982 0 36.4005C0 36.403 0 36.4055 0 36.4081C0 36.4104 0 36.4129 0 36.4154C0 36.4179 0 36.4202 0 36.4228C0 36.4253 0 36.4278 0 36.4301C0 36.4326 0 36.4351 0 36.4374C0 36.44 0 36.4425 0 36.445C0 36.4473 0 36.4498 0 36.4523C0 36.4548 0 36.4574 0 36.4597C0 36.4622 0 36.4647 0 36.4672C0 36.4695 0 36.4721 0 36.4746C0 36.4771 0 36.4794 0 36.4819C0 36.4844 0 36.4869 0 36.4895C0 36.4918 0 36.4943 0 36.4968C0 36.4993 0 36.5016 0 36.5041C0 36.5067 0 36.5092 0 36.5117C0 36.514 0 36.5165 0 36.519C0 36.5215 0 36.5241 0 36.5264C0 36.5289 0 36.5314 0 36.5339C0 36.5364 0 36.5388 0 36.5413C0 36.5438 0 36.5463 0 36.5488C0 36.5511 0 36.5536 0 36.5562C0 36.5587 0 36.5612 0 36.5635C0 36.566 0 36.5685 0 36.571C0 36.5736 0 36.5761 0 36.5784C0 36.5809 0 36.5834 0 36.5859C0 36.5884 0 36.591 0 36.5933C0 36.5958 0 36.5983 0 36.6008C0 36.6033 0 36.6058 0 36.6082C0 36.6107 0 36.6132 0 36.6157C0 36.6182 0 36.6207 0 36.623C0 36.6256 0 36.6281 0 36.6306C0 36.6331 0 36.6356 0 36.6381C0 36.6404 0 36.643 0 36.6455C0 36.648 0 36.6505 0 36.653C0 36.6555 0 36.6578 0 36.6604C0 36.6629 0 36.6654 0 36.6679C0 36.6704 0 36.6729 0 36.6754C0 36.6778 0 36.6803 0 36.6828C0 36.6853 0 36.6878 0 36.6903C0 36.6928 0 36.6954 0 36.6979C0 36.7002 0 36.7027 0 36.7052C0 36.7077 0 36.7102 0 36.7128C0 36.7153 0 36.7178 0 36.7203C0 36.7226 0 36.7251 0 36.7276C0 36.7302 0 36.7327 0 36.7352C0 36.7377 0 36.7402 0 36.7427C0 36.7452 0 36.7477 0 36.7501C0 36.7526 0 36.7551 0 36.7576C0 36.7601 0 36.7626 0 36.7651C0 36.7677 0 36.7702 0 36.7727C0 36.7752 0 36.7777 0 36.7802C0 36.7827 0 36.7851 0 36.7876C0 36.7901 0 36.7926 0 36.7951C0 36.7976 0 36.8001 0 36.8027C0 36.8052 0 36.8077 0 36.8102C0 36.8127 0 36.8152 0 36.8177C0 36.8202 0 36.8228 0 36.8253C0 36.8278 0 36.8301 0 36.8326C0 36.8351 0 36.8376 0 36.8402C0 36.8427 0 36.8452 0 36.8477C0 36.8502 0 36.8527 0 36.8552C0 36.8578 0 36.8603 0 36.8628C0 36.8653 0 36.8678 0 36.8703C0 36.8728 0 36.8753 0 36.8779C0 36.8804 0 36.8829 0 36.8854C0 36.8879 0 36.8904 0 36.8929C0 36.8955 0 36.898 0 36.9005C0 36.903 0 36.9055 0 36.908C0 36.9105 0 36.913 0 36.9156C0 36.9181 0 36.9206 0 36.9231C0 36.9256 0 36.9281 0 36.9306C0 36.9332 0 36.9357 0 36.9382C0 36.9407 0 36.9432 0 36.9457C0 36.9482 0 36.9507 0 36.9533C0 36.9558 0 36.9583 0 36.9608C0 36.9633 0 36.9658 0 36.9683C0 36.9709 0 36.9734 0 36.9759C0 36.9784 0 36.9809 0 36.9834C0 36.9859 0 36.9884 0 36.991C0 36.9935 0 36.996 0 36.9987C0 37.0012 0 37.0037 0 37.0062C0 37.0087 0 37.0113 0 37.0138C0 37.0163 0 37.0188 0 37.0213C0 37.0238 0 37.0263 0 37.0289C0 37.0314 0 37.0339 0 37.0364C0 37.0389 0 37.0414 0 37.0441C0 37.0466 0 37.0492 0 37.0517C0 37.0542 0 37.0567 0 37.0592C0 37.0617 0 37.0642 0 37.0667C0 37.0693 0 37.0718 0 37.0743C0 37.0768 0 37.0795 0 37.082C0 37.0845 0 37.087 0 37.0896C0 37.0921 0 37.0946 0 37.0971C0 37.0996 0 37.1021 0 37.1046C0 37.1073 0 37.1099 0 37.1124C0 37.1149 0 37.1174 0 37.1199C0 37.1224 0 37.1249 0 37.1275C0 37.13 0 37.1327 0 37.1352C0 37.1377 0 37.1402 0 37.1427C0 37.1452 0 37.1478 0 37.1503C0 37.1528 0 37.1555 0 37.158C0 37.1605 0 37.163 0 37.1655C0 37.1681 0 37.1706 0 37.1731C0 37.1758 0 37.1783 0 37.1808C0 37.1833 0 37.1858 0 37.1884C0 37.1909 0 37.1936 0 37.1961C0 37.1986 0 37.2011 0 37.2036C0 37.2061 0 37.2087 0 37.2114C0 37.2139 0 37.2164 0 37.2189C0 37.2214 0 37.2239 0 37.2264C0 37.2291 0 37.2317 0 37.2342C0 37.2367 0 37.2392 0 37.2417C0 37.2444 0 37.2469 0 37.2494C0 37.252 0 37.2545 0 37.257C0 37.2597 0 37.2622 0 37.2647C0 37.2672 0 37.2697 0 37.2723C0 37.275 0 37.2775 0 37.28C0 37.2825 0 37.285 0 37.2875C0 37.2902 0 37.2928 0 37.2953C0 37.2978 0 37.3003 0 37.303C0 37.3055 0 37.308 0 37.3105C0 37.3131 0 37.3158 0 37.3183C0 37.3208 0 37.3233 0 37.3258C0 37.3285 0 37.331 0 37.3335C0 37.3361 0 37.3386 0 37.3413C0 37.3438 0 37.3463 0 37.3488C0 37.3513 0 37.354 0 37.3566C0 37.3591 0 37.3616 0 37.3641C0 37.3668 0 37.3693 0 37.3718C0 37.3743 0 37.377 0 37.3796C0 37.3821 0 37.3846 0 37.3871C0 37.3898 0 37.3923 0 37.3948C0 37.3973 0 37.4001 0 37.4026C0 37.4051 0 37.4076 0 37.4103C0 37.4128 0 37.4153 0 37.4178C0 37.4205 0 37.4231 0 37.4256C0 37.4281 0 37.4308 0 37.4333C0 37.4358 0 37.4383 0 37.441C0 37.4436 0 37.4461 0 37.4486C0 37.4513 0 37.4538 0 37.4563C0 37.4588 0 37.4615 0 37.464C0 37.4666 0 37.4691 0 37.4718C0 37.4743 0 37.4768 0 37.4793C0 37.482 0 37.4845 0 37.4871C0 37.4898 0 37.4923 0 37.4948C0 37.4973 0 37.5 0 37.5025C0 37.505 0 37.5077 0 37.5103C0 37.5128 0 37.5153 0 37.518C0 37.5205 0 37.523 0 37.5257C0 37.5282 0 37.5307 0 37.5333C0 37.536 0 37.5385 0 37.541C0 37.5437 0 37.5462 0 37.5487C0 37.5514 0 37.5539 0 37.5565C0 37.559 0 37.5617 0 37.5642C0 37.5667 0 37.5694 0 37.5719C0 37.5744 0 37.5771 0 37.5797C0 37.5822 0 37.5849 0 37.5874C0 37.5899 0 37.5926 0 37.5951C0 37.5976 0 37.6003 0 37.6029C0 37.6054 0 37.6079 0 37.6106C0 37.6131 0 37.6156 0 37.6183C0 37.6208 0 37.6234 0 37.6261C0 37.6286 0 37.6311 0 37.6338C0 37.6363 0 37.639 0 37.6415C0 37.644 0 37.6467 0 37.6493C0 37.6518 0 37.6545 0 37.657C0 37.6595 0 37.6622 0 37.6647C0 37.6672 0 37.6699 0 37.6725C0 37.675 0 37.6777 0 37.6802C0 37.6829 0 37.6854 0 37.6879C0 37.6906 0 37.6931 0 37.6957C0 37.6984 0 37.7009 0 37.7034C0 37.7061 0 37.7086 0 37.7113C0 37.7138 0 37.7163 0 37.7191C0 37.7216 0 37.7241 0 37.7268C0 37.7293 0 37.732 0 37.7345C0 37.737 0 37.7397 0 37.7423C0 37.745 0 37.7475 0 37.75C0 37.7527 0 37.7552 0 37.7577C0 37.7604 0 37.7629 0 37.7656C0 37.7682 0 37.7707 0 37.7734C0 37.7759 0 37.7786 0 37.7811C0 37.7836 0 37.7863 0 37.7888C0 37.7916 0 37.7941 0 37.7966C0 37.7993 0 37.8018 0 37.8045C0 37.807 0 37.8097 0 37.8122C0 37.8148 0 37.8175 0 37.82C0 37.8227 0 37.8252 0 37.8277C0 37.8304 0 37.8329 0 37.8356C0 37.8381 0 37.8409 0 37.8434C0 37.8459 0 37.8486 0 37.8511C0 37.8538 0 37.8563 0 37.859C0 37.8615 0 37.8642 0 37.8668C0 37.8693 0 37.872 0 37.8745C0 37.8772 0 37.8797 0 37.8824C0 37.8849 0 37.8876 0 37.8902C0 37.8927 0 37.8954 0 37.8979C0 37.9006 0 37.9031 0 37.9058C0 37.9083 0 37.911 0 37.9135C0 37.9163 0 37.9188 0 37.9213C0 37.924 0 37.9265 0 37.9292C0 37.9317 0 37.9344 0 37.9369C0 37.9396 0 37.9422 0 37.9449C0 37.9474 0 37.9501 0 37.9526C0 37.9553 0 37.9578 0 37.9605C0 37.963 0 37.9656 0 37.9683C0 37.9708 0 37.9735 0 37.976C0 37.9787 0 37.9812 0 37.9839C0 37.9864 0 37.9891 0 37.9917C0 37.9944 0 37.9969 0 37.9996C0 38.0021 0 38.0048 0 38.0073C0 38.01 0 38.0125 0 38.0152C0 38.0178 0 38.0205 0 38.023C0 38.0257 0 38.0282 0 38.0309C0 38.0334 0 38.0361 0 38.0386C0 38.0413 0 38.0439 0 38.0466C0 38.0491 0 38.0518 0 38.0543C0 38.057 0 38.0595 0 38.0622C0 38.0649 0 38.0674 0 38.0701C0 38.0727 0 38.0754 0 38.0779C0 38.0806 0 38.0831 0 38.0858C0 38.0883 0 38.091 0 38.0935C0 38.0962 0 38.0988 0 38.1015C0 38.104 0 38.1067 0 38.1094C0 38.1119 0 38.1146 0 38.1171C0 38.1198 0 38.1223 0 38.1251C0 38.1276 0 38.1303 0 38.1328C0 38.1355 0 38.1382 0 38.1407C0 38.1434 0 38.1459 0 38.1486C0 38.1512 0 38.1539 0 38.1564C0 38.1591 0 38.1618 0 38.1643C0 38.167 0 38.1695 0 38.1722C0 38.1747 0 38.1774 0 38.18C0 38.1827 0 38.1854 0 38.1879C0 38.1906 0 38.1931 0 38.1958C0 38.1983 0 38.201 0 38.2037C0 38.2063 0 38.209 0 38.2115C0 38.2142 0 38.2169 0 38.2194C0 38.2221 0 38.2246 0 38.2273C0 38.2298 0 38.2325 0 38.2353C0 38.2378 0 38.2405 0 38.243C0 38.2457 0 38.2484 0 38.2509C0 38.2536 0 38.2561 0 38.2588C0 38.2615 0 38.2641 0 38.2668C0 38.2693 0 38.272 0 38.2747C0 38.2772 0 38.2799 0 38.2824C0 38.2851 0 38.2878 0 38.2904C0 38.2931 0 38.2956 0 38.2983C0 38.301 0 38.3035 0 38.3062C0 38.3089 0 38.3114 0 38.3141C0 38.3166 0 38.3194 0 38.3221C0 38.3246 0 38.3273 0 38.3298C0 38.3325 0 38.3352 0 38.3377C0 38.3404 0 38.3431 0 38.3456C0 38.3484 0 38.3511 0 38.3536C0 38.3563 0 38.3588 0 38.3615C0 38.3642 0 38.3667 0 38.3694C0 38.3721 0 38.3746 0 38.3774C0 38.3801 0 38.3826 0 38.3853C0 38.3878 0 38.3905 0 38.3932C0 38.3957 0 38.3984 0 38.4011C0 38.4036 0 38.4064 0 38.4091C0 38.4116 0 38.4143 0 38.417C0 38.4195 0 38.4222 0 38.4249C0 38.4274 0 38.4301 0 38.4328C0 38.4354 0 38.4381 0 38.4408C0 38.4433 0 38.446 0 38.4487C0 38.4512 0 38.4539 0 38.4566C0 38.4591 0 38.4618 0 38.4645C0 38.4671 0 38.4698 0 38.4725C0 38.475 0 38.4777 0 38.4804C0 38.4829 0 38.4856 0 38.4883C0 38.4908 0 38.4935 0 38.4963C0 38.499 0 38.5015 0 38.5042C0 38.5069 0 38.5094 0 38.5121C0 38.5148 0 38.5173 0 38.52C0 38.5227 0 38.5253 0 38.528C0 38.5307 0 38.5334 0 38.5359C0 38.5386 0 38.5413 0 38.5438C0 38.5465 0 38.5492 0 38.5517C0 38.5544 0 38.5572 0 38.5599C0 38.5624 0 38.5651 0 38.5678C0 38.5703 0 38.573 0 38.5757C0 38.5784 0 38.5809 0 38.5836C0 38.5863 0 38.5891 0 38.5916C0 38.5943 0 38.597 0 38.5995C0 38.6022 0 38.6049 0 38.6076C0 38.6101 0 38.6128 0 38.6155C0 38.6181 0 38.6208 0 38.6235C0 38.6262 0 38.6287 0 38.6314C0 38.6341 0 38.6368 0 38.6393C0 38.642 0 38.6447 0 38.6474C0 38.65 0 38.6527 0 38.6554C0 38.6581 0 38.6606 0 38.6633C0 38.666 0 38.6687 0 38.6712C0 38.6739 0 38.6766 0 38.6793C0 38.6819 0 38.6846 0 38.6873C0 38.69 0 38.6925 0 38.6952C0 38.6979 0 38.7006 0 38.7031C0 38.7058 0 38.7085 0 38.7112C0 38.7138 0 38.7165 0 38.7192C0 38.7219 0 38.7246 0 38.7271C0 38.7298 0 38.7325 0 38.7352C0 38.7377 0 38.7404 0 38.7431C0 38.7458 0 38.7484 0 38.7511C0 38.7538 0 38.7565 0 38.7592C0 38.7617 0 38.7644 0 38.7671C0 38.7698 0 38.7725 0 38.775C0 38.7777 0 38.7805 0 38.7832C0 38.7857 0 38.7884 0 38.7911C0 38.7938 0 38.7965 0 38.799C0 38.8017 0 38.8044 0 38.8071C0 38.8098 0 38.8124 0 38.8151C0 38.8178 0 38.8205 0 38.8232C0 38.8257 0 38.8284 0 38.8311C0 38.8338 0 38.8365 0 38.839C0 38.8417 0 38.8444 0 38.8472C0 38.8499 0 38.8526 0 38.8551C0 38.8578 0 38.8605 0 38.8632C0 38.8659 0 38.8684 0 38.8711C0 38.8738 0 38.8765 0 38.8792C0 38.882 0 38.8845 0 38.8872C0 38.8899 0 38.8926 0 38.8953C0 38.8978 0 38.9005 0 38.9032C0 38.9059 0 38.9086 0 38.9113C0 38.9139 0 38.9166 0 38.9193C0 38.922 0 38.9247 0 38.9274C0 38.9299 0 38.9326 0 38.9353C0 38.938 0 38.9407 0 38.9434C0 38.9461 0 38.9487 0 38.9514C0 38.9541 0 38.9568 0 38.9595C0 38.9622 0 38.9647 0 38.9674C0 38.9701 0 38.9728 0 38.9755C0 38.9782 0 38.9809 0 38.9835C0 38.9862 0 38.9889 0 38.9916C0 38.9943 0 38.997 0 38.9997C0 39.0022 0 39.0049 0 39.0076C0 39.0103 0 39.013 0 39.0157H1.93333ZM6.76667 30.322H14.5V28.3887H6.76667V30.322ZM19.3333 35.1543C19.3333 35.1566 19.3333 35.1589 19.3333 35.1613C19.3333 35.1636 19.3333 35.1659 19.3333 35.1682C19.3333 35.1705 19.3333 35.1729 19.3333 35.1752C19.3333 35.1775 19.3333 35.1798 19.3333 35.1821C19.3333 35.1845 19.3333 35.1868 19.3333 35.1891C19.3333 35.1914 19.3333 35.1937 19.3333 35.1961C19.3333 35.1984 19.3333 35.2007 19.3333 35.203C19.3333 35.2053 19.3333 35.2077 19.3333 35.2098C19.3333 35.2121 19.3333 35.2144 19.3333 35.2167C19.3333 35.2191 19.3333 35.2214 19.3333 35.2237C19.3333 35.226 19.3333 35.2283 19.3333 35.2307C19.3333 35.233 19.3333 35.2353 19.3333 35.2376C19.3333 35.2399 19.3333 35.2423 19.3333 35.2446C19.3333 35.2469 19.3333 35.2492 19.3333 35.2517C19.3333 35.2541 19.3333 35.2564 19.3333 35.2587C19.3333 35.261 19.3333 35.2633 19.3333 35.2657C19.3333 35.268 19.3333 35.2703 19.3333 35.2726C19.3333 35.2749 19.3333 35.2773 19.3333 35.2796C19.3333 35.2819 19.3333 35.2842 19.3333 35.2865C19.3333 35.2889 19.3333 35.2912 19.3333 35.2935C19.3333 35.2958 19.3333 35.2981 19.3333 35.3005C19.3333 35.3028 19.3333 35.3051 19.3333 35.3074C19.3333 35.3097 19.3333 35.3121 19.3333 35.3144C19.3333 35.3169 19.3333 35.3192 19.3333 35.3215C19.3333 35.3238 19.3333 35.3262 19.3333 35.3285C19.3333 35.3308 19.3333 35.3331 19.3333 35.3354C19.3333 35.3378 19.3333 35.3401 19.3333 35.3424C19.3333 35.3447 19.3333 35.347 19.3333 35.3496C19.3333 35.3519 19.3333 35.3542 19.3333 35.3565C19.3333 35.3588 19.3333 35.3612 19.3333 35.3635C19.3333 35.3658 19.3333 35.3681 19.3333 35.3704C19.3333 35.3728 19.3333 35.3753 19.3333 35.3776C19.3333 35.3799 19.3333 35.3822 19.3333 35.3846C19.3333 35.3869 19.3333 35.3892 19.3333 35.3915C19.3333 35.3938 19.3333 35.3963 19.3333 35.3987C19.3333 35.401 19.3333 35.4033 19.3333 35.4056C19.3333 35.4079 19.3333 35.4103 19.3333 35.4126C19.3333 35.4149 19.3333 35.4174 19.3333 35.4197C19.3333 35.4221 19.3333 35.4244 19.3333 35.4267C19.3333 35.429 19.3333 35.4313 19.3333 35.4339C19.3333 35.4362 19.3333 35.4385 19.3333 35.4408C19.3333 35.4431 19.3333 35.4455 19.3333 35.4478C19.3333 35.4503 19.3333 35.4526 19.3333 35.4549C19.3333 35.4572 19.3333 35.4596 19.3333 35.4619C19.3333 35.4642 19.3333 35.4667 19.3333 35.469C19.3333 35.4714 19.3333 35.4737 19.3333 35.476C19.3333 35.4783 19.3333 35.4808 19.3333 35.4832C19.3333 35.4855 19.3333 35.4878 19.3333 35.4901C19.3333 35.4924 19.3333 35.4949 19.3333 35.4973C19.3333 35.4996 19.3333 35.5019 19.3333 35.5042C19.3333 35.5067 19.3333 35.5091 19.3333 35.5114C19.3333 35.5137 19.3333 35.516 19.3333 35.5185C19.3333 35.5209 19.3333 35.5232 19.3333 35.5255C19.3333 35.5278 19.3333 35.5303 19.3333 35.5326C19.3333 35.535 19.3333 35.5373 19.3333 35.5396C19.3333 35.5421 19.3333 35.5444 19.3333 35.5468C19.3333 35.5491 19.3333 35.5514 19.3333 35.5539C19.3333 35.5562 19.3333 35.5586 19.3333 35.5609C19.3333 35.5634 19.3333 35.5657 19.3333 35.568C19.3333 35.5703 19.3333 35.5727 19.3333 35.5752C19.3333 35.5775 19.3333 35.5798 19.3333 35.5821C19.3333 35.5847 19.3333 35.587 19.3333 35.5893C19.3333 35.5916 19.3333 35.5941 19.3333 35.5964C19.3333 35.5988 19.3333 35.6011 19.3333 35.6036C19.3333 35.6059 19.3333 35.6082 19.3333 35.6106C19.3333 35.6131 19.3333 35.6154 19.3333 35.6177C19.3333 35.62 19.3333 35.6225 19.3333 35.6249C19.3333 35.6272 19.3333 35.6295 19.3333 35.632C19.3333 35.6343 19.3333 35.6367 19.3333 35.639C19.3333 35.6415 19.3333 35.6438 19.3333 35.6461C19.3333 35.6486 19.3333 35.651 19.3333 35.6533C19.3333 35.6556 19.3333 35.6581 19.3333 35.6604C19.3333 35.6628 19.3333 35.6653 19.3333 35.6676C19.3333 35.6699 19.3333 35.6722 19.3333 35.6747C19.3333 35.6771 19.3333 35.6794 19.3333 35.6819C19.3333 35.6842 19.3333 35.6865 19.3333 35.6891C19.3333 35.6914 19.3333 35.6937 19.3333 35.696C19.3333 35.6985 19.3333 35.7008 19.3333 35.7032C19.3333 35.7057 19.3333 35.708 19.3333 35.7103C19.3333 35.7128 19.3333 35.7152 19.3333 35.7175C19.3333 35.72 19.3333 35.7223 19.3333 35.7246C19.3333 35.7271 19.3333 35.7295 19.3333 35.7318C19.3333 35.7343 19.3333 35.7366 19.3333 35.7389C19.3333 35.7414 19.3333 35.7438 19.3333 35.7461C19.3333 35.7486 19.3333 35.7509 19.3333 35.7532C19.3333 35.7558 19.3333 35.7581 19.3333 35.7604C19.3333 35.7629 19.3333 35.7652 19.3333 35.7675C19.3333 35.7701 19.3333 35.7724 19.3333 35.7747C19.3333 35.7772 19.3333 35.7795 19.3333 35.782C19.3333 35.7844 19.3333 35.7867 19.3333 35.7892C19.3333 35.7915 19.3333 35.7938 19.3333 35.7964C19.3333 35.7987 19.3333 35.8012 19.3333 35.8035C19.3333 35.8058 19.3333 35.8083 19.3333 35.8107C19.3333 35.813 19.3333 35.8155 19.3333 35.8178C19.3333 35.8203 19.3333 35.8226 19.3333 35.825C19.3333 35.8275 19.3333 35.8298 19.3333 35.8323C19.3333 35.8346 19.3333 35.837 19.3333 35.8395C19.3333 35.8418 19.3333 35.8441 19.3333 35.8466C19.3333 35.8489 19.3333 35.8515 19.3333 35.8538C19.3333 35.8563 19.3333 35.8586 19.3333 35.8609C19.3333 35.8634 19.3333 35.8658 19.3333 35.8683C19.3333 35.8706 19.3333 35.8729 19.3333 35.8754C19.3333 35.8777 19.3333 35.8803 19.3333 35.8826C19.3333 35.8851 19.3333 35.8874 19.3333 35.8897C19.3333 35.8922 19.3333 35.8946 19.3333 35.8971C19.3333 35.8994 19.3333 35.9019 19.3333 35.9042C19.3333 35.9066 19.3333 35.9091 19.3333 35.9114C19.3333 35.9139 19.3333 35.9162 19.3333 35.9187C19.3333 35.9211 19.3333 35.9236 19.3333 35.9259C19.3333 35.9282 19.3333 35.9307 19.3333 35.933C19.3333 35.9356 19.3333 35.9379 19.3333 35.9404C19.3333 35.9427 19.3333 35.9452 19.3333 35.9475C19.3333 35.9501 19.3333 35.9524 19.3333 35.9549C19.3333 35.9572 19.3333 35.9595 19.3333 35.962C19.3333 35.9644 19.3333 35.9669 19.3333 35.9692C19.3333 35.9717 19.3333 35.974 19.3333 35.9765C19.3333 35.9789 19.3333 35.9814 19.3333 35.9837C19.3333 35.9862 19.3333 35.9885 19.3333 35.991C19.3333 35.9934 19.3333 35.9959 19.3333 35.9982C19.3333 36.0007 19.3333 36.003 19.3333 36.0055C19.3333 36.0079 19.3333 36.0104 19.3333 36.0127C19.3333 36.0152 19.3333 36.0175 19.3333 36.02C19.3333 36.0224 19.3333 36.0249 19.3333 36.0272C19.3333 36.0297 19.3333 36.032 19.3333 36.0345C19.3333 36.0369 19.3333 36.0394 19.3333 36.0417C19.3333 36.0442 19.3333 36.0465 19.3333 36.049C19.3333 36.0514 19.3333 36.0539 19.3333 36.0564C19.3333 36.0587 19.3333 36.0612 19.3333 36.0635C19.3333 36.0661 19.3333 36.0684 19.3333 36.0709C19.3333 36.0732 19.3333 36.0757 19.3333 36.078C19.3333 36.0806 19.3333 36.0829 19.3333 36.0854C19.3333 36.0879 19.3333 36.0902 19.3333 36.0927C19.3333 36.0951 19.3333 36.0976 19.3333 36.0999C19.3333 36.1024 19.3333 36.1047 19.3333 36.1072C19.3333 36.1097 19.3333 36.1121 19.3333 36.1146C19.3333 36.1169 19.3333 36.1194 19.3333 36.1217C19.3333 36.1242 19.3333 36.1268 19.3333 36.1291C19.3333 36.1316 19.3333 36.1339 19.3333 36.1364C19.3333 36.1387 19.3333 36.1413 19.3333 36.1438C19.3333 36.1461 19.3333 36.1486 19.3333 36.1509C19.3333 36.1534 19.3333 36.156 19.3333 36.1583C19.3333 36.1608 19.3333 36.1631 19.3333 36.1656C19.3333 36.1679 19.3333 36.1705 19.3333 36.173C19.3333 36.1753 19.3333 36.1778 19.3333 36.1801C19.3333 36.1826 19.3333 36.1851 19.3333 36.1875C19.3333 36.19 19.3333 36.1923 19.3333 36.1948C19.3333 36.1973 19.3333 36.1996 19.3333 36.2022C19.3333 36.2047 19.3333 36.207 19.3333 36.2095C19.3333 36.2118 19.3333 36.2143 19.3333 36.2169C19.3333 36.2192 19.3333 36.2217 19.3333 36.2242C19.3333 36.2265 19.3333 36.229 19.3333 36.2314C19.3333 36.2339 19.3333 36.2364 19.3333 36.2387C19.3333 36.2412 19.3333 36.2437 19.3333 36.246C19.3333 36.2486 19.3333 36.2511 19.3333 36.2534C19.3333 36.2559 19.3333 36.2582 19.3333 36.2607C19.3333 36.2633 19.3333 36.2656 19.3333 36.2681C19.3333 36.2706 19.3333 36.2729 19.3333 36.2754C19.3333 36.2779 19.3333 36.2803 19.3333 36.2828C19.3333 36.2853 19.3333 36.2876 19.3333 36.2901C19.3333 36.2926 19.3333 36.295 19.3333 36.2975C19.3333 36.3 19.3333 36.3023 19.3333 36.3048C19.3333 36.3073 19.3333 36.3097 19.3333 36.3122C19.3333 36.3147 19.3333 36.317 19.3333 36.3195C19.3333 36.322 19.3333 36.3243 19.3333 36.3269C19.3333 36.3294 19.3333 36.3319 19.3333 36.3342C19.3333 36.3367 19.3333 36.3392 19.3333 36.3416C19.3333 36.3441 19.3333 36.3466 19.3333 36.3489C19.3333 36.3514 19.3333 36.3539 19.3333 36.3564C19.3333 36.3588 19.3333 36.3613 19.3333 36.3638C19.3333 36.3661 19.3333 36.3686 19.3333 36.3711C19.3333 36.3735 19.3333 36.376 19.3333 36.3785C19.3333 36.381 19.3333 36.3833 19.3333 36.3858C19.3333 36.3883 19.3333 36.3909 19.3333 36.3932C19.3333 36.3957 19.3333 36.3982 19.3333 36.4005C19.3333 36.403 19.3333 36.4055 19.3333 36.4081C19.3333 36.4104 19.3333 36.4129 19.3333 36.4154C19.3333 36.4179 19.3333 36.4202 19.3333 36.4228C19.3333 36.4253 19.3333 36.4278 19.3333 36.4301C19.3333 36.4326 19.3333 36.4351 19.3333 36.4374C19.3333 36.44 19.3333 36.4425 19.3333 36.445C19.3333 36.4473 19.3333 36.4498 19.3333 36.4523C19.3333 36.4548 19.3333 36.4574 19.3333 36.4597C19.3333 36.4622 19.3333 36.4647 19.3333 36.4672C19.3333 36.4695 19.3333 36.4721 19.3333 36.4746C19.3333 36.4771 19.3333 36.4794 19.3333 36.4819C19.3333 36.4844 19.3333 36.4869 19.3333 36.4895C19.3333 36.4918 19.3333 36.4943 19.3333 36.4968C19.3333 36.4993 19.3333 36.5016 19.3333 36.5041C19.3333 36.5067 19.3333 36.5092 19.3333 36.5117C19.3333 36.514 19.3333 36.5165 19.3333 36.519C19.3333 36.5215 19.3333 36.5241 19.3333 36.5264C19.3333 36.5289 19.3333 36.5314 19.3333 36.5339C19.3333 36.5364 19.3333 36.5388 19.3333 36.5413C19.3333 36.5438 19.3333 36.5463 19.3333 36.5488C19.3333 36.5511 19.3333 36.5536 19.3333 36.5562C19.3333 36.5587 19.3333 36.5612 19.3333 36.5635C19.3333 36.566 19.3333 36.5685 19.3333 36.571C19.3333 36.5736 19.3333 36.5761 19.3333 36.5784C19.3333 36.5809 19.3333 36.5834 19.3333 36.5859C19.3333 36.5884 19.3333 36.591 19.3333 36.5933C19.3333 36.5958 19.3333 36.5983 19.3333 36.6008C19.3333 36.6033 19.3333 36.6058 19.3333 36.6082C19.3333 36.6107 19.3333 36.6132 19.3333 36.6157C19.3333 36.6182 19.3333 36.6207 19.3333 36.623C19.3333 36.6256 19.3333 36.6281 19.3333 36.6306C19.3333 36.6331 19.3333 36.6356 19.3333 36.6381C19.3333 36.6404 19.3333 36.643 19.3333 36.6455C19.3333 36.648 19.3333 36.6505 19.3333 36.653C19.3333 36.6555 19.3333 36.6578 19.3333 36.6604C19.3333 36.6629 19.3333 36.6654 19.3333 36.6679C19.3333 36.6704 19.3333 36.6729 19.3333 36.6754C19.3333 36.6778 19.3333 36.6803 19.3333 36.6828C19.3333 36.6853 19.3333 36.6878 19.3333 36.6903C19.3333 36.6928 19.3333 36.6954 19.3333 36.6979C19.3333 36.7002 19.3333 36.7027 19.3333 36.7052C19.3333 36.7077 19.3333 36.7102 19.3333 36.7128C19.3333 36.7153 19.3333 36.7178 19.3333 36.7203C19.3333 36.7226 19.3333 36.7251 19.3333 36.7276C19.3333 36.7302 19.3333 36.7327 19.3333 36.7352C19.3333 36.7377 19.3333 36.7402 19.3333 36.7427C19.3333 36.7452 19.3333 36.7477 19.3333 36.7501C19.3333 36.7526 19.3333 36.7551 19.3333 36.7576C19.3333 36.7601 19.3333 36.7626 19.3333 36.7651C19.3333 36.7677 19.3333 36.7702 19.3333 36.7727C19.3333 36.7752 19.3333 36.7777 19.3333 36.7802C19.3333 36.7827 19.3333 36.7851 19.3333 36.7876C19.3333 36.7901 19.3333 36.7926 19.3333 36.7951C19.3333 36.7976 19.3333 36.8001 19.3333 36.8027C19.3333 36.8052 19.3333 36.8077 19.3333 36.8102C19.3333 36.8127 19.3333 36.8152 19.3333 36.8177C19.3333 36.8202 19.3333 36.8228 19.3333 36.8253C19.3333 36.8278 19.3333 36.8301 19.3333 36.8326C19.3333 36.8351 19.3333 36.8376 19.3333 36.8402C19.3333 36.8427 19.3333 36.8452 19.3333 36.8477C19.3333 36.8502 19.3333 36.8527 19.3333 36.8552C19.3333 36.8578 19.3333 36.8603 19.3333 36.8628C19.3333 36.8653 19.3333 36.8678 19.3333 36.8703C19.3333 36.8728 19.3333 36.8753 19.3333 36.8779C19.3333 36.8804 19.3333 36.8829 19.3333 36.8854C19.3333 36.8879 19.3333 36.8904 19.3333 36.8929C19.3333 36.8955 19.3333 36.898 19.3333 36.9005C19.3333 36.903 19.3333 36.9055 19.3333 36.908C19.3333 36.9105 19.3333 36.913 19.3333 36.9156C19.3333 36.9181 19.3333 36.9206 19.3333 36.9231C19.3333 36.9256 19.3333 36.9281 19.3333 36.9306C19.3333 36.9332 19.3333 36.9357 19.3333 36.9382C19.3333 36.9407 19.3333 36.9432 19.3333 36.9457C19.3333 36.9482 19.3333 36.9507 19.3333 36.9533C19.3333 36.9558 19.3333 36.9583 19.3333 36.9608C19.3333 36.9633 19.3333 36.9658 19.3333 36.9683C19.3333 36.9709 19.3333 36.9734 19.3333 36.9759C19.3333 36.9784 19.3333 36.9809 19.3333 36.9834C19.3333 36.9859 19.3333 36.9884 19.3333 36.991C19.3333 36.9935 19.3333 36.996 19.3333 36.9987C19.3333 37.0012 19.3333 37.0037 19.3333 37.0062C19.3333 37.0087 19.3333 37.0113 19.3333 37.0138C19.3333 37.0163 19.3333 37.0188 19.3333 37.0213C19.3333 37.0238 19.3333 37.0263 19.3333 37.0289C19.3333 37.0314 19.3333 37.0339 19.3333 37.0364C19.3333 37.0389 19.3333 37.0414 19.3333 37.0441C19.3333 37.0466 19.3333 37.0492 19.3333 37.0517C19.3333 37.0542 19.3333 37.0567 19.3333 37.0592C19.3333 37.0617 19.3333 37.0642 19.3333 37.0667C19.3333 37.0693 19.3333 37.0718 19.3333 37.0743C19.3333 37.0768 19.3333 37.0795 19.3333 37.082C19.3333 37.0845 19.3333 37.087 19.3333 37.0896C19.3333 37.0921 19.3333 37.0946 19.3333 37.0971C19.3333 37.0996 19.3333 37.1021 19.3333 37.1046C19.3333 37.1073 19.3333 37.1099 19.3333 37.1124C19.3333 37.1149 19.3333 37.1174 19.3333 37.1199C19.3333 37.1224 19.3333 37.1249 19.3333 37.1275C19.3333 37.13 19.3333 37.1327 19.3333 37.1352C19.3333 37.1377 19.3333 37.1402 19.3333 37.1427C19.3333 37.1452 19.3333 37.1478 19.3333 37.1503C19.3333 37.1528 19.3333 37.1555 19.3333 37.158C19.3333 37.1605 19.3333 37.163 19.3333 37.1655C19.3333 37.1681 19.3333 37.1706 19.3333 37.1731C19.3333 37.1758 19.3333 37.1783 19.3333 37.1808C19.3333 37.1833 19.3333 37.1858 19.3333 37.1884C19.3333 37.1909 19.3333 37.1936 19.3333 37.1961C19.3333 37.1986 19.3333 37.2011 19.3333 37.2036C19.3333 37.2061 19.3333 37.2087 19.3333 37.2114C19.3333 37.2139 19.3333 37.2164 19.3333 37.2189C19.3333 37.2214 19.3333 37.2239 19.3333 37.2264C19.3333 37.2291 19.3333 37.2317 19.3333 37.2342C19.3333 37.2367 19.3333 37.2392 19.3333 37.2417C19.3333 37.2444 19.3333 37.2469 19.3333 37.2494C19.3333 37.252 19.3333 37.2545 19.3333 37.257C19.3333 37.2597 19.3333 37.2622 19.3333 37.2647C19.3333 37.2672 19.3333 37.2697 19.3333 37.2723C19.3333 37.275 19.3333 37.2775 19.3333 37.28C19.3333 37.2825 19.3333 37.285 19.3333 37.2875C19.3333 37.2902 19.3333 37.2928 19.3333 37.2953C19.3333 37.2978 19.3333 37.3003 19.3333 37.303C19.3333 37.3055 19.3333 37.308 19.3333 37.3105C19.3333 37.3131 19.3333 37.3158 19.3333 37.3183C19.3333 37.3208 19.3333 37.3233 19.3333 37.3258C19.3333 37.3285 19.3333 37.331 19.3333 37.3335C19.3333 37.3361 19.3333 37.3386 19.3333 37.3413C19.3333 37.3438 19.3333 37.3463 19.3333 37.3488C19.3333 37.3513 19.3333 37.354 19.3333 37.3566C19.3333 37.3591 19.3333 37.3616 19.3333 37.3641C19.3333 37.3668 19.3333 37.3693 19.3333 37.3718C19.3333 37.3743 19.3333 37.377 19.3333 37.3796C19.3333 37.3821 19.3333 37.3846 19.3333 37.3871C19.3333 37.3898 19.3333 37.3923 19.3333 37.3948C19.3333 37.3973 19.3333 37.4001 19.3333 37.4026C19.3333 37.4051 19.3333 37.4076 19.3333 37.4103C19.3333 37.4128 19.3333 37.4153 19.3333 37.4178C19.3333 37.4205 19.3333 37.4231 19.3333 37.4256C19.3333 37.4281 19.3333 37.4308 19.3333 37.4333C19.3333 37.4358 19.3333 37.4383 19.3333 37.441C19.3333 37.4436 19.3333 37.4461 19.3333 37.4486C19.3333 37.4513 19.3333 37.4538 19.3333 37.4563C19.3333 37.4588 19.3333 37.4615 19.3333 37.464C19.3333 37.4666 19.3333 37.4691 19.3333 37.4718C19.3333 37.4743 19.3333 37.4768 19.3333 37.4793C19.3333 37.482 19.3333 37.4845 19.3333 37.4871C19.3333 37.4898 19.3333 37.4923 19.3333 37.4948C19.3333 37.4973 19.3333 37.5 19.3333 37.5025C19.3333 37.505 19.3333 37.5077 19.3333 37.5103C19.3333 37.5128 19.3333 37.5153 19.3333 37.518C19.3333 37.5205 19.3333 37.523 19.3333 37.5257C19.3333 37.5282 19.3333 37.5307 19.3333 37.5333C19.3333 37.536 19.3333 37.5385 19.3333 37.541C19.3333 37.5437 19.3333 37.5462 19.3333 37.5487C19.3333 37.5514 19.3333 37.5539 19.3333 37.5565C19.3333 37.559 19.3333 37.5617 19.3333 37.5642C19.3333 37.5667 19.3333 37.5694 19.3333 37.5719C19.3333 37.5744 19.3333 37.5771 19.3333 37.5797C19.3333 37.5822 19.3333 37.5849 19.3333 37.5874C19.3333 37.5899 19.3333 37.5926 19.3333 37.5951C19.3333 37.5976 19.3333 37.6003 19.3333 37.6029C19.3333 37.6054 19.3333 37.6079 19.3333 37.6106C19.3333 37.6131 19.3333 37.6156 19.3333 37.6183C19.3333 37.6208 19.3333 37.6234 19.3333 37.6261C19.3333 37.6286 19.3333 37.6311 19.3333 37.6338C19.3333 37.6363 19.3333 37.639 19.3333 37.6415C19.3333 37.644 19.3333 37.6467 19.3333 37.6493C19.3333 37.6518 19.3333 37.6545 19.3333 37.657C19.3333 37.6595 19.3333 37.6622 19.3333 37.6647C19.3333 37.6672 19.3333 37.6699 19.3333 37.6725C19.3333 37.675 19.3333 37.6777 19.3333 37.6802C19.3333 37.6829 19.3333 37.6854 19.3333 37.6879C19.3333 37.6906 19.3333 37.6931 19.3333 37.6957C19.3333 37.6984 19.3333 37.7009 19.3333 37.7034C19.3333 37.7061 19.3333 37.7086 19.3333 37.7113C19.3333 37.7138 19.3333 37.7163 19.3333 37.7191C19.3333 37.7216 19.3333 37.7241 19.3333 37.7268C19.3333 37.7293 19.3333 37.732 19.3333 37.7345C19.3333 37.737 19.3333 37.7397 19.3333 37.7423C19.3333 37.745 19.3333 37.7475 19.3333 37.75C19.3333 37.7527 19.3333 37.7552 19.3333 37.7577C19.3333 37.7604 19.3333 37.7629 19.3333 37.7656C19.3333 37.7682 19.3333 37.7707 19.3333 37.7734C19.3333 37.7759 19.3333 37.7786 19.3333 37.7811C19.3333 37.7836 19.3333 37.7863 19.3333 37.7888C19.3333 37.7916 19.3333 37.7941 19.3333 37.7966C19.3333 37.7993 19.3333 37.8018 19.3333 37.8045C19.3333 37.807 19.3333 37.8097 19.3333 37.8122C19.3333 37.8148 19.3333 37.8175 19.3333 37.82C19.3333 37.8227 19.3333 37.8252 19.3333 37.8277C19.3333 37.8304 19.3333 37.8329 19.3333 37.8356C19.3333 37.8381 19.3333 37.8409 19.3333 37.8434C19.3333 37.8459 19.3333 37.8486 19.3333 37.8511C19.3333 37.8538 19.3333 37.8563 19.3333 37.859C19.3333 37.8615 19.3333 37.8642 19.3333 37.8668C19.3333 37.8693 19.3333 37.872 19.3333 37.8745C19.3333 37.8772 19.3333 37.8797 19.3333 37.8824C19.3333 37.8849 19.3333 37.8876 19.3333 37.8902C19.3333 37.8927 19.3333 37.8954 19.3333 37.8979C19.3333 37.9006 19.3333 37.9031 19.3333 37.9058C19.3333 37.9083 19.3333 37.911 19.3333 37.9135C19.3333 37.9163 19.3333 37.9188 19.3333 37.9213C19.3333 37.924 19.3333 37.9265 19.3333 37.9292C19.3333 37.9317 19.3333 37.9344 19.3333 37.9369C19.3333 37.9396 19.3333 37.9422 19.3333 37.9449C19.3333 37.9474 19.3333 37.9501 19.3333 37.9526C19.3333 37.9553 19.3333 37.9578 19.3333 37.9605C19.3333 37.963 19.3333 37.9656 19.3333 37.9683C19.3333 37.9708 19.3333 37.9735 19.3333 37.976C19.3333 37.9787 19.3333 37.9812 19.3333 37.9839C19.3333 37.9864 19.3333 37.9891 19.3333 37.9917C19.3333 37.9944 19.3333 37.9969 19.3333 37.9996C19.3333 38.0021 19.3333 38.0048 19.3333 38.0073C19.3333 38.01 19.3333 38.0125 19.3333 38.0152C19.3333 38.0178 19.3333 38.0205 19.3333 38.023C19.3333 38.0257 19.3333 38.0282 19.3333 38.0309C19.3333 38.0334 19.3333 38.0361 19.3333 38.0386C19.3333 38.0413 19.3333 38.0439 19.3333 38.0466C19.3333 38.0491 19.3333 38.0518 19.3333 38.0543C19.3333 38.057 19.3333 38.0595 19.3333 38.0622C19.3333 38.0649 19.3333 38.0674 19.3333 38.0701C19.3333 38.0727 19.3333 38.0754 19.3333 38.0779C19.3333 38.0806 19.3333 38.0831 19.3333 38.0858C19.3333 38.0883 19.3333 38.091 19.3333 38.0935C19.3333 38.0962 19.3333 38.0988 19.3333 38.1015C19.3333 38.104 19.3333 38.1067 19.3333 38.1094C19.3333 38.1119 19.3333 38.1146 19.3333 38.1171C19.3333 38.1198 19.3333 38.1223 19.3333 38.1251C19.3333 38.1276 19.3333 38.1303 19.3333 38.1328C19.3333 38.1355 19.3333 38.1382 19.3333 38.1407C19.3333 38.1434 19.3333 38.1459 19.3333 38.1486C19.3333 38.1512 19.3333 38.1539 19.3333 38.1564C19.3333 38.1591 19.3333 38.1618 19.3333 38.1643C19.3333 38.167 19.3333 38.1695 19.3333 38.1722C19.3333 38.1747 19.3333 38.1774 19.3333 38.18C19.3333 38.1827 19.3333 38.1854 19.3333 38.1879C19.3333 38.1906 19.3333 38.1931 19.3333 38.1958C19.3333 38.1983 19.3333 38.201 19.3333 38.2037C19.3333 38.2063 19.3333 38.209 19.3333 38.2115C19.3333 38.2142 19.3333 38.2169 19.3333 38.2194C19.3333 38.2221 19.3333 38.2246 19.3333 38.2273C19.3333 38.2298 19.3333 38.2325 19.3333 38.2353C19.3333 38.2378 19.3333 38.2405 19.3333 38.243C19.3333 38.2457 19.3333 38.2484 19.3333 38.2509C19.3333 38.2536 19.3333 38.2561 19.3333 38.2588C19.3333 38.2615 19.3333 38.2641 19.3333 38.2668C19.3333 38.2693 19.3333 38.272 19.3333 38.2747C19.3333 38.2772 19.3333 38.2799 19.3333 38.2824C19.3333 38.2851 19.3333 38.2878 19.3333 38.2904C19.3333 38.2931 19.3333 38.2956 19.3333 38.2983C19.3333 38.301 19.3333 38.3035 19.3333 38.3062C19.3333 38.3089 19.3333 38.3114 19.3333 38.3141C19.3333 38.3166 19.3333 38.3194 19.3333 38.3221C19.3333 38.3246 19.3333 38.3273 19.3333 38.3298C19.3333 38.3325 19.3333 38.3352 19.3333 38.3377C19.3333 38.3404 19.3333 38.3431 19.3333 38.3456C19.3333 38.3484 19.3333 38.3511 19.3333 38.3536C19.3333 38.3563 19.3333 38.3588 19.3333 38.3615C19.3333 38.3642 19.3333 38.3667 19.3333 38.3694C19.3333 38.3721 19.3333 38.3746 19.3333 38.3774C19.3333 38.3801 19.3333 38.3826 19.3333 38.3853C19.3333 38.3878 19.3333 38.3905 19.3333 38.3932C19.3333 38.3957 19.3333 38.3984 19.3333 38.4011C19.3333 38.4036 19.3333 38.4064 19.3333 38.4091C19.3333 38.4116 19.3333 38.4143 19.3333 38.417C19.3333 38.4195 19.3333 38.4222 19.3333 38.4249C19.3333 38.4274 19.3333 38.4301 19.3333 38.4328C19.3333 38.4354 19.3333 38.4381 19.3333 38.4408C19.3333 38.4433 19.3333 38.446 19.3333 38.4487C19.3333 38.4512 19.3333 38.4539 19.3333 38.4566C19.3333 38.4591 19.3333 38.4618 19.3333 38.4645C19.3333 38.4671 19.3333 38.4698 19.3333 38.4725C19.3333 38.475 19.3333 38.4777 19.3333 38.4804C19.3333 38.4829 19.3333 38.4856 19.3333 38.4883C19.3333 38.4908 19.3333 38.4935 19.3333 38.4963C19.3333 38.499 19.3333 38.5015 19.3333 38.5042C19.3333 38.5069 19.3333 38.5094 19.3333 38.5121C19.3333 38.5148 19.3333 38.5173 19.3333 38.52C19.3333 38.5227 19.3333 38.5253 19.3333 38.528C19.3333 38.5307 19.3333 38.5334 19.3333 38.5359C19.3333 38.5386 19.3333 38.5413 19.3333 38.5438C19.3333 38.5465 19.3333 38.5492 19.3333 38.5517C19.3333 38.5544 19.3333 38.5572 19.3333 38.5599C19.3333 38.5624 19.3333 38.5651 19.3333 38.5678C19.3333 38.5703 19.3333 38.573 19.3333 38.5757C19.3333 38.5784 19.3333 38.5809 19.3333 38.5836C19.3333 38.5863 19.3333 38.5891 19.3333 38.5916C19.3333 38.5943 19.3333 38.597 19.3333 38.5995C19.3333 38.6022 19.3333 38.6049 19.3333 38.6076C19.3333 38.6101 19.3333 38.6128 19.3333 38.6155C19.3333 38.6181 19.3333 38.6208 19.3333 38.6235C19.3333 38.6262 19.3333 38.6287 19.3333 38.6314C19.3333 38.6341 19.3333 38.6368 19.3333 38.6393C19.3333 38.642 19.3333 38.6447 19.3333 38.6474C19.3333 38.65 19.3333 38.6527 19.3333 38.6554C19.3333 38.6581 19.3333 38.6606 19.3333 38.6633C19.3333 38.666 19.3333 38.6687 19.3333 38.6712C19.3333 38.6739 19.3333 38.6766 19.3333 38.6793C19.3333 38.6819 19.3333 38.6846 19.3333 38.6873C19.3333 38.69 19.3333 38.6925 19.3333 38.6952C19.3333 38.6979 19.3333 38.7006 19.3333 38.7031C19.3333 38.7058 19.3333 38.7085 19.3333 38.7112C19.3333 38.7138 19.3333 38.7165 19.3333 38.7192C19.3333 38.7219 19.3333 38.7246 19.3333 38.7271C19.3333 38.7298 19.3333 38.7325 19.3333 38.7352C19.3333 38.7377 19.3333 38.7404 19.3333 38.7431C19.3333 38.7458 19.3333 38.7484 19.3333 38.7511C19.3333 38.7538 19.3333 38.7565 19.3333 38.7592C19.3333 38.7617 19.3333 38.7644 19.3333 38.7671C19.3333 38.7698 19.3333 38.7725 19.3333 38.775C19.3333 38.7777 19.3333 38.7805 19.3333 38.7832C19.3333 38.7857 19.3333 38.7884 19.3333 38.7911C19.3333 38.7938 19.3333 38.7965 19.3333 38.799C19.3333 38.8017 19.3333 38.8044 19.3333 38.8071C19.3333 38.8098 19.3333 38.8124 19.3333 38.8151C19.3333 38.8178 19.3333 38.8205 19.3333 38.8232C19.3333 38.8257 19.3333 38.8284 19.3333 38.8311C19.3333 38.8338 19.3333 38.8365 19.3333 38.839C19.3333 38.8417 19.3333 38.8444 19.3333 38.8472C19.3333 38.8499 19.3333 38.8526 19.3333 38.8551C19.3333 38.8578 19.3333 38.8605 19.3333 38.8632C19.3333 38.8659 19.3333 38.8684 19.3333 38.8711C19.3333 38.8738 19.3333 38.8765 19.3333 38.8792C19.3333 38.882 19.3333 38.8845 19.3333 38.8872C19.3333 38.8899 19.3333 38.8926 19.3333 38.8953C19.3333 38.8978 19.3333 38.9005 19.3333 38.9032C19.3333 38.9059 19.3333 38.9086 19.3333 38.9113C19.3333 38.9139 19.3333 38.9166 19.3333 38.9193C19.3333 38.922 19.3333 38.9247 19.3333 38.9274C19.3333 38.9299 19.3333 38.9326 19.3333 38.9353C19.3333 38.938 19.3333 38.9407 19.3333 38.9434C19.3333 38.9461 19.3333 38.9487 19.3333 38.9514C19.3333 38.9541 19.3333 38.9568 19.3333 38.9595C19.3333 38.9622 19.3333 38.9647 19.3333 38.9674C19.3333 38.9701 19.3333 38.9728 19.3333 38.9755C19.3333 38.9782 19.3333 38.9809 19.3333 38.9835C19.3333 38.9862 19.3333 38.9889 19.3333 38.9916C19.3333 38.9943 19.3333 38.997 19.3333 38.9997C19.3333 39.0022 19.3333 39.0049 19.3333 39.0076C19.3333 39.0103 19.3333 39.013 19.3333 39.0157H21.2667C21.2667 39.013 21.2667 39.0103 21.2667 39.0076C21.2667 39.0049 21.2667 39.0022 21.2667 38.9997C21.2667 38.997 21.2667 38.9943 21.2667 38.9916C21.2667 38.9889 21.2667 38.9862 21.2667 38.9835C21.2667 38.9809 21.2667 38.9782 21.2667 38.9755C21.2667 38.9728 21.2667 38.9701 21.2667 38.9674C21.2667 38.9647 21.2667 38.9622 21.2667 38.9595C21.2667 38.9568 21.2667 38.9541 21.2667 38.9514C21.2667 38.9487 21.2667 38.9461 21.2667 38.9434C21.2667 38.9407 21.2667 38.938 21.2667 38.9353C21.2667 38.9326 21.2667 38.9299 21.2667 38.9274C21.2667 38.9247 21.2667 38.922 21.2667 38.9193C21.2667 38.9166 21.2667 38.9139 21.2667 38.9113C21.2667 38.9086 21.2667 38.9059 21.2667 38.9032C21.2667 38.9005 21.2667 38.8978 21.2667 38.8953C21.2667 38.8926 21.2667 38.8899 21.2667 38.8872C21.2667 38.8845 21.2667 38.882 21.2667 38.8792C21.2667 38.8765 21.2667 38.8738 21.2667 38.8711C21.2667 38.8684 21.2667 38.8659 21.2667 38.8632C21.2667 38.8605 21.2667 38.8578 21.2667 38.8551C21.2667 38.8526 21.2667 38.8499 21.2667 38.8472C21.2667 38.8444 21.2667 38.8417 21.2667 38.839C21.2667 38.8365 21.2667 38.8338 21.2667 38.8311C21.2667 38.8284 21.2667 38.8257 21.2667 38.8232C21.2667 38.8205 21.2667 38.8178 21.2667 38.8151C21.2667 38.8124 21.2667 38.8098 21.2667 38.8071C21.2667 38.8044 21.2667 38.8017 21.2667 38.799C21.2667 38.7965 21.2667 38.7938 21.2667 38.7911C21.2667 38.7884 21.2667 38.7857 21.2667 38.7832C21.2667 38.7805 21.2667 38.7777 21.2667 38.775C21.2667 38.7725 21.2667 38.7698 21.2667 38.7671C21.2667 38.7644 21.2667 38.7617 21.2667 38.7592C21.2667 38.7565 21.2667 38.7538 21.2667 38.7511C21.2667 38.7484 21.2667 38.7458 21.2667 38.7431C21.2667 38.7404 21.2667 38.7377 21.2667 38.7352C21.2667 38.7325 21.2667 38.7298 21.2667 38.7271C21.2667 38.7246 21.2667 38.7219 21.2667 38.7192C21.2667 38.7165 21.2667 38.7138 21.2667 38.7112C21.2667 38.7085 21.2667 38.7058 21.2667 38.7031C21.2667 38.7006 21.2667 38.6979 21.2667 38.6952C21.2667 38.6925 21.2667 38.69 21.2667 38.6873C21.2667 38.6846 21.2667 38.6819 21.2667 38.6793C21.2667 38.6766 21.2667 38.6739 21.2667 38.6712C21.2667 38.6687 21.2667 38.666 21.2667 38.6633C21.2667 38.6606 21.2667 38.6581 21.2667 38.6554C21.2667 38.6527 21.2667 38.65 21.2667 38.6474C21.2667 38.6447 21.2667 38.642 21.2667 38.6393C21.2667 38.6368 21.2667 38.6341 21.2667 38.6314C21.2667 38.6287 21.2667 38.6262 21.2667 38.6235C21.2667 38.6208 21.2667 38.6181 21.2667 38.6155C21.2667 38.6128 21.2667 38.6101 21.2667 38.6076C21.2667 38.6049 21.2667 38.6022 21.2667 38.5995C21.2667 38.597 21.2667 38.5943 21.2667 38.5916C21.2667 38.5891 21.2667 38.5863 21.2667 38.5836C21.2667 38.5809 21.2667 38.5784 21.2667 38.5757C21.2667 38.573 21.2667 38.5703 21.2667 38.5678C21.2667 38.5651 21.2667 38.5624 21.2667 38.5599C21.2667 38.5572 21.2667 38.5544 21.2667 38.5517C21.2667 38.5492 21.2667 38.5465 21.2667 38.5438C21.2667 38.5413 21.2667 38.5386 21.2667 38.5359C21.2667 38.5334 21.2667 38.5307 21.2667 38.528C21.2667 38.5253 21.2667 38.5227 21.2667 38.52C21.2667 38.5173 21.2667 38.5148 21.2667 38.5121C21.2667 38.5094 21.2667 38.5069 21.2667 38.5042C21.2667 38.5015 21.2667 38.499 21.2667 38.4963C21.2667 38.4935 21.2667 38.4908 21.2667 38.4883C21.2667 38.4856 21.2667 38.4829 21.2667 38.4804C21.2667 38.4777 21.2667 38.475 21.2667 38.4725C21.2667 38.4698 21.2667 38.4671 21.2667 38.4645C21.2667 38.4618 21.2667 38.4591 21.2667 38.4566C21.2667 38.4539 21.2667 38.4512 21.2667 38.4487C21.2667 38.446 21.2667 38.4433 21.2667 38.4408C21.2667 38.4381 21.2667 38.4354 21.2667 38.4328C21.2667 38.4301 21.2667 38.4274 21.2667 38.4249C21.2667 38.4222 21.2667 38.4195 21.2667 38.417C21.2667 38.4143 21.2667 38.4116 21.2667 38.4091C21.2667 38.4064 21.2667 38.4036 21.2667 38.4011C21.2667 38.3984 21.2667 38.3957 21.2667 38.3932C21.2667 38.3905 21.2667 38.3878 21.2667 38.3853C21.2667 38.3826 21.2667 38.3801 21.2667 38.3774C21.2667 38.3746 21.2667 38.3721 21.2667 38.3694C21.2667 38.3667 21.2667 38.3642 21.2667 38.3615C21.2667 38.3588 21.2667 38.3563 21.2667 38.3536C21.2667 38.3511 21.2667 38.3484 21.2667 38.3456C21.2667 38.3431 21.2667 38.3404 21.2667 38.3377C21.2667 38.3352 21.2667 38.3325 21.2667 38.3298C21.2667 38.3273 21.2667 38.3246 21.2667 38.3221C21.2667 38.3194 21.2667 38.3166 21.2667 38.3141C21.2667 38.3114 21.2667 38.3089 21.2667 38.3062C21.2667 38.3035 21.2667 38.301 21.2667 38.2983C21.2667 38.2956 21.2667 38.2931 21.2667 38.2904C21.2667 38.2878 21.2667 38.2851 21.2667 38.2824C21.2667 38.2799 21.2667 38.2772 21.2667 38.2747C21.2667 38.272 21.2667 38.2693 21.2667 38.2668C21.2667 38.2641 21.2667 38.2615 21.2667 38.2588C21.2667 38.2561 21.2667 38.2536 21.2667 38.2509C21.2667 38.2484 21.2667 38.2457 21.2667 38.243C21.2667 38.2405 21.2667 38.2378 21.2667 38.2353C21.2667 38.2325 21.2667 38.2298 21.2667 38.2273C21.2667 38.2246 21.2667 38.2221 21.2667 38.2194C21.2667 38.2169 21.2667 38.2142 21.2667 38.2115C21.2667 38.209 21.2667 38.2063 21.2667 38.2037C21.2667 38.201 21.2667 38.1983 21.2667 38.1958C21.2667 38.1931 21.2667 38.1906 21.2667 38.1879C21.2667 38.1854 21.2667 38.1827 21.2667 38.18C21.2667 38.1774 21.2667 38.1747 21.2667 38.1722C21.2667 38.1695 21.2667 38.167 21.2667 38.1643C21.2667 38.1618 21.2667 38.1591 21.2667 38.1564C21.2667 38.1539 21.2667 38.1512 21.2667 38.1486C21.2667 38.1459 21.2667 38.1434 21.2667 38.1407C21.2667 38.1382 21.2667 38.1355 21.2667 38.1328C21.2667 38.1303 21.2667 38.1276 21.2667 38.1251C21.2667 38.1223 21.2667 38.1198 21.2667 38.1171C21.2667 38.1146 21.2667 38.1119 21.2667 38.1094C21.2667 38.1067 21.2667 38.104 21.2667 38.1015C21.2667 38.0988 21.2667 38.0962 21.2667 38.0935C21.2667 38.091 21.2667 38.0883 21.2667 38.0858C21.2667 38.0831 21.2667 38.0806 21.2667 38.0779C21.2667 38.0754 21.2667 38.0727 21.2667 38.0701C21.2667 38.0674 21.2667 38.0649 21.2667 38.0622C21.2667 38.0595 21.2667 38.057 21.2667 38.0543C21.2667 38.0518 21.2667 38.0491 21.2667 38.0466C21.2667 38.0439 21.2667 38.0413 21.2667 38.0386C21.2667 38.0361 21.2667 38.0334 21.2667 38.0309C21.2667 38.0282 21.2667 38.0257 21.2667 38.023C21.2667 38.0205 21.2667 38.0178 21.2667 38.0152C21.2667 38.0125 21.2667 38.01 21.2667 38.0073C21.2667 38.0048 21.2667 38.0021 21.2667 37.9996C21.2667 37.9969 21.2667 37.9944 21.2667 37.9917C21.2667 37.9891 21.2667 37.9864 21.2667 37.9839C21.2667 37.9812 21.2667 37.9787 21.2667 37.976C21.2667 37.9735 21.2667 37.9708 21.2667 37.9683C21.2667 37.9656 21.2667 37.963 21.2667 37.9605C21.2667 37.9578 21.2667 37.9553 21.2667 37.9526C21.2667 37.9501 21.2667 37.9474 21.2667 37.9449C21.2667 37.9422 21.2667 37.9396 21.2667 37.9369C21.2667 37.9344 21.2667 37.9317 21.2667 37.9292C21.2667 37.9265 21.2667 37.924 21.2667 37.9213C21.2667 37.9188 21.2667 37.9163 21.2667 37.9135C21.2667 37.911 21.2667 37.9083 21.2667 37.9058C21.2667 37.9031 21.2667 37.9006 21.2667 37.8979C21.2667 37.8954 21.2667 37.8927 21.2667 37.8902C21.2667 37.8876 21.2667 37.8849 21.2667 37.8824C21.2667 37.8797 21.2667 37.8772 21.2667 37.8745C21.2667 37.872 21.2667 37.8693 21.2667 37.8668C21.2667 37.8642 21.2667 37.8615 21.2667 37.859C21.2667 37.8563 21.2667 37.8538 21.2667 37.8511C21.2667 37.8486 21.2667 37.8459 21.2667 37.8434C21.2667 37.8409 21.2667 37.8381 21.2667 37.8356C21.2667 37.8329 21.2667 37.8304 21.2667 37.8277C21.2667 37.8252 21.2667 37.8227 21.2667 37.82C21.2667 37.8175 21.2667 37.8148 21.2667 37.8122C21.2667 37.8097 21.2667 37.807 21.2667 37.8045C21.2667 37.8018 21.2667 37.7993 21.2667 37.7966C21.2667 37.7941 21.2667 37.7916 21.2667 37.7888C21.2667 37.7863 21.2667 37.7836 21.2667 37.7811C21.2667 37.7786 21.2667 37.7759 21.2667 37.7734C21.2667 37.7707 21.2667 37.7682 21.2667 37.7656C21.2667 37.7629 21.2667 37.7604 21.2667 37.7577C21.2667 37.7552 21.2667 37.7527 21.2667 37.75C21.2667 37.7475 21.2667 37.745 21.2667 37.7423C21.2667 37.7397 21.2667 37.737 21.2667 37.7345C21.2667 37.732 21.2667 37.7293 21.2667 37.7268C21.2667 37.7241 21.2667 37.7216 21.2667 37.7191C21.2667 37.7163 21.2667 37.7138 21.2667 37.7113C21.2667 37.7086 21.2667 37.7061 21.2667 37.7034C21.2667 37.7009 21.2667 37.6984 21.2667 37.6957C21.2667 37.6931 21.2667 37.6906 21.2667 37.6879C21.2667 37.6854 21.2667 37.6829 21.2667 37.6802C21.2667 37.6777 21.2667 37.675 21.2667 37.6725C21.2667 37.6699 21.2667 37.6672 21.2667 37.6647C21.2667 37.6622 21.2667 37.6595 21.2667 37.657C21.2667 37.6545 21.2667 37.6518 21.2667 37.6493C21.2667 37.6467 21.2667 37.644 21.2667 37.6415C21.2667 37.639 21.2667 37.6363 21.2667 37.6338C21.2667 37.6311 21.2667 37.6286 21.2667 37.6261C21.2667 37.6234 21.2667 37.6208 21.2667 37.6183C21.2667 37.6156 21.2667 37.6131 21.2667 37.6106C21.2667 37.6079 21.2667 37.6054 21.2667 37.6029C21.2667 37.6003 21.2667 37.5976 21.2667 37.5951C21.2667 37.5926 21.2667 37.5899 21.2667 37.5874C21.2667 37.5849 21.2667 37.5822 21.2667 37.5797C21.2667 37.5771 21.2667 37.5744 21.2667 37.5719C21.2667 37.5694 21.2667 37.5667 21.2667 37.5642C21.2667 37.5617 21.2667 37.559 21.2667 37.5565C21.2667 37.5539 21.2667 37.5514 21.2667 37.5487C21.2667 37.5462 21.2667 37.5437 21.2667 37.541C21.2667 37.5385 21.2667 37.536 21.2667 37.5333C21.2667 37.5307 21.2667 37.5282 21.2667 37.5257C21.2667 37.523 21.2667 37.5205 21.2667 37.518C21.2667 37.5153 21.2667 37.5128 21.2667 37.5103C21.2667 37.5077 21.2667 37.505 21.2667 37.5025C21.2667 37.5 21.2667 37.4973 21.2667 37.4948C21.2667 37.4923 21.2667 37.4898 21.2667 37.4871C21.2667 37.4845 21.2667 37.482 21.2667 37.4793C21.2667 37.4768 21.2667 37.4743 21.2667 37.4718C21.2667 37.4691 21.2667 37.4666 21.2667 37.464C21.2667 37.4615 21.2667 37.4588 21.2667 37.4563C21.2667 37.4538 21.2667 37.4513 21.2667 37.4486C21.2667 37.4461 21.2667 37.4436 21.2667 37.441C21.2667 37.4383 21.2667 37.4358 21.2667 37.4333C21.2667 37.4308 21.2667 37.4281 21.2667 37.4256C21.2667 37.4231 21.2667 37.4205 21.2667 37.4178C21.2667 37.4153 21.2667 37.4128 21.2667 37.4103C21.2667 37.4076 21.2667 37.4051 21.2667 37.4026C21.2667 37.4001 21.2667 37.3973 21.2667 37.3948C21.2667 37.3923 21.2667 37.3898 21.2667 37.3871C21.2667 37.3846 21.2667 37.3821 21.2667 37.3796C21.2667 37.377 21.2667 37.3743 21.2667 37.3718C21.2667 37.3693 21.2667 37.3668 21.2667 37.3641C21.2667 37.3616 21.2667 37.3591 21.2667 37.3566C21.2667 37.354 21.2667 37.3513 21.2667 37.3488C21.2667 37.3463 21.2667 37.3438 21.2667 37.3413C21.2667 37.3386 21.2667 37.3361 21.2667 37.3335C21.2667 37.331 21.2667 37.3285 21.2667 37.3258C21.2667 37.3233 21.2667 37.3208 21.2667 37.3183C21.2667 37.3158 21.2667 37.3131 21.2667 37.3105C21.2667 37.308 21.2667 37.3055 21.2667 37.303C21.2667 37.3003 21.2667 37.2978 21.2667 37.2953C21.2667 37.2928 21.2667 37.2902 21.2667 37.2875C21.2667 37.285 21.2667 37.2825 21.2667 37.28C21.2667 37.2775 21.2667 37.275 21.2667 37.2723C21.2667 37.2697 21.2667 37.2672 21.2667 37.2647C21.2667 37.2622 21.2667 37.2597 21.2667 37.257C21.2667 37.2545 21.2667 37.252 21.2667 37.2494C21.2667 37.2469 21.2667 37.2444 21.2667 37.2417C21.2667 37.2392 21.2667 37.2367 21.2667 37.2342C21.2667 37.2317 21.2667 37.2291 21.2667 37.2264C21.2667 37.2239 21.2667 37.2214 21.2667 37.2189C21.2667 37.2164 21.2667 37.2139 21.2667 37.2114C21.2667 37.2087 21.2667 37.2061 21.2667 37.2036C21.2667 37.2011 21.2667 37.1986 21.2667 37.1961C21.2667 37.1936 21.2667 37.1909 21.2667 37.1884C21.2667 37.1858 21.2667 37.1833 21.2667 37.1808C21.2667 37.1783 21.2667 37.1758 21.2667 37.1731C21.2667 37.1706 21.2667 37.1681 21.2667 37.1655C21.2667 37.163 21.2667 37.1605 21.2667 37.158C21.2667 37.1555 21.2667 37.1528 21.2667 37.1503C21.2667 37.1478 21.2667 37.1452 21.2667 37.1427C21.2667 37.1402 21.2667 37.1377 21.2667 37.1352C21.2667 37.1327 21.2667 37.13 21.2667 37.1275C21.2667 37.1249 21.2667 37.1224 21.2667 37.1199C21.2667 37.1174 21.2667 37.1149 21.2667 37.1124C21.2667 37.1099 21.2667 37.1073 21.2667 37.1046C21.2667 37.1021 21.2667 37.0996 21.2667 37.0971C21.2667 37.0946 21.2667 37.0921 21.2667 37.0896C21.2667 37.087 21.2667 37.0845 21.2667 37.082C21.2667 37.0795 21.2667 37.0768 21.2667 37.0743C21.2667 37.0718 21.2667 37.0693 21.2667 37.0667C21.2667 37.0642 21.2667 37.0617 21.2667 37.0592C21.2667 37.0567 21.2667 37.0542 21.2667 37.0517C21.2667 37.0492 21.2667 37.0466 21.2667 37.0441C21.2667 37.0414 21.2667 37.0389 21.2667 37.0364C21.2667 37.0339 21.2667 37.0314 21.2667 37.0289C21.2667 37.0263 21.2667 37.0238 21.2667 37.0213C21.2667 37.0188 21.2667 37.0163 21.2667 37.0138C21.2667 37.0113 21.2667 37.0087 21.2667 37.0062C21.2667 37.0037 21.2667 37.0012 21.2667 36.9987C21.2667 36.996 21.2667 36.9935 21.2667 36.991C21.2667 36.9884 21.2667 36.9859 21.2667 36.9834C21.2667 36.9809 21.2667 36.9784 21.2667 36.9759C21.2667 36.9734 21.2667 36.9709 21.2667 36.9683C21.2667 36.9658 21.2667 36.9633 21.2667 36.9608C21.2667 36.9583 21.2667 36.9558 21.2667 36.9533C21.2667 36.9507 21.2667 36.9482 21.2667 36.9457C21.2667 36.9432 21.2667 36.9407 21.2667 36.9382C21.2667 36.9357 21.2667 36.9332 21.2667 36.9306C21.2667 36.9281 21.2667 36.9256 21.2667 36.9231C21.2667 36.9206 21.2667 36.9181 21.2667 36.9156C21.2667 36.913 21.2667 36.9105 21.2667 36.908C21.2667 36.9055 21.2667 36.903 21.2667 36.9005C21.2667 36.898 21.2667 36.8955 21.2667 36.8929C21.2667 36.8904 21.2667 36.8879 21.2667 36.8854C21.2667 36.8829 21.2667 36.8804 21.2667 36.8779C21.2667 36.8753 21.2667 36.8728 21.2667 36.8703C21.2667 36.8678 21.2667 36.8653 21.2667 36.8628C21.2667 36.8603 21.2667 36.8578 21.2667 36.8552C21.2667 36.8527 21.2667 36.8502 21.2667 36.8477C21.2667 36.8452 21.2667 36.8427 21.2667 36.8402C21.2667 36.8376 21.2667 36.8351 21.2667 36.8326C21.2667 36.8301 21.2667 36.8278 21.2667 36.8253C21.2667 36.8228 21.2667 36.8202 21.2667 36.8177C21.2667 36.8152 21.2667 36.8127 21.2667 36.8102C21.2667 36.8077 21.2667 36.8052 21.2667 36.8027C21.2667 36.8001 21.2667 36.7976 21.2667 36.7951C21.2667 36.7926 21.2667 36.7901 21.2667 36.7876C21.2667 36.7851 21.2667 36.7827 21.2667 36.7802C21.2667 36.7777 21.2667 36.7752 21.2667 36.7727C21.2667 36.7702 21.2667 36.7677 21.2667 36.7651C21.2667 36.7626 21.2667 36.7601 21.2667 36.7576C21.2667 36.7551 21.2667 36.7526 21.2667 36.7501C21.2667 36.7477 21.2667 36.7452 21.2667 36.7427C21.2667 36.7402 21.2667 36.7377 21.2667 36.7352C21.2667 36.7327 21.2667 36.7302 21.2667 36.7276C21.2667 36.7251 21.2667 36.7226 21.2667 36.7203C21.2667 36.7178 21.2667 36.7153 21.2667 36.7128C21.2667 36.7102 21.2667 36.7077 21.2667 36.7052C21.2667 36.7027 21.2667 36.7002 21.2667 36.6979C21.2667 36.6954 21.2667 36.6928 21.2667 36.6903C21.2667 36.6878 21.2667 36.6853 21.2667 36.6828C21.2667 36.6803 21.2667 36.6778 21.2667 36.6754C21.2667 36.6729 21.2667 36.6704 21.2667 36.6679C21.2667 36.6654 21.2667 36.6629 21.2667 36.6604C21.2667 36.6578 21.2667 36.6555 21.2667 36.653C21.2667 36.6505 21.2667 36.648 21.2667 36.6455C21.2667 36.643 21.2667 36.6404 21.2667 36.6381C21.2667 36.6356 21.2667 36.6331 21.2667 36.6306C21.2667 36.6281 21.2667 36.6256 21.2667 36.623C21.2667 36.6207 21.2667 36.6182 21.2667 36.6157C21.2667 36.6132 21.2667 36.6107 21.2667 36.6082C21.2667 36.6058 21.2667 36.6033 21.2667 36.6008C21.2667 36.5983 21.2667 36.5958 21.2667 36.5933C21.2667 36.591 21.2667 36.5884 21.2667 36.5859C21.2667 36.5834 21.2667 36.5809 21.2667 36.5784C21.2667 36.5761 21.2667 36.5736 21.2667 36.571C21.2667 36.5685 21.2667 36.566 21.2667 36.5635C21.2667 36.5612 21.2667 36.5587 21.2667 36.5562C21.2667 36.5536 21.2667 36.5511 21.2667 36.5488C21.2667 36.5463 21.2667 36.5438 21.2667 36.5413C21.2667 36.5388 21.2667 36.5364 21.2667 36.5339C21.2667 36.5314 21.2667 36.5289 21.2667 36.5264C21.2667 36.5241 21.2667 36.5215 21.2667 36.519C21.2667 36.5165 21.2667 36.514 21.2667 36.5117C21.2667 36.5092 21.2667 36.5067 21.2667 36.5041C21.2667 36.5016 21.2667 36.4993 21.2667 36.4968C21.2667 36.4943 21.2667 36.4918 21.2667 36.4895C21.2667 36.4869 21.2667 36.4844 21.2667 36.4819C21.2667 36.4794 21.2667 36.4771 21.2667 36.4746C21.2667 36.4721 21.2667 36.4695 21.2667 36.4672C21.2667 36.4647 21.2667 36.4622 21.2667 36.4597C21.2667 36.4574 21.2667 36.4548 21.2667 36.4523C21.2667 36.4498 21.2667 36.4473 21.2667 36.445C21.2667 36.4425 21.2667 36.44 21.2667 36.4374C21.2667 36.4351 21.2667 36.4326 21.2667 36.4301C21.2667 36.4278 21.2667 36.4253 21.2667 36.4228C21.2667 36.4202 21.2667 36.4179 21.2667 36.4154C21.2667 36.4129 21.2667 36.4104 21.2667 36.4081C21.2667 36.4055 21.2667 36.403 21.2667 36.4005C21.2667 36.3982 21.2667 36.3957 21.2667 36.3932C21.2667 36.3909 21.2667 36.3883 21.2667 36.3858C21.2667 36.3833 21.2667 36.381 21.2667 36.3785C21.2667 36.376 21.2667 36.3735 21.2667 36.3711C21.2667 36.3686 21.2667 36.3661 21.2667 36.3638C21.2667 36.3613 21.2667 36.3588 21.2667 36.3564C21.2667 36.3539 21.2667 36.3514 21.2667 36.3489C21.2667 36.3466 21.2667 36.3441 21.2667 36.3416C21.2667 36.3392 21.2667 36.3367 21.2667 36.3342C21.2667 36.3319 21.2667 36.3294 21.2667 36.3269C21.2667 36.3243 21.2667 36.322 21.2667 36.3195C21.2667 36.317 21.2667 36.3147 21.2667 36.3122C21.2667 36.3097 21.2667 36.3073 21.2667 36.3048C21.2667 36.3023 21.2667 36.3 21.2667 36.2975C21.2667 36.295 21.2667 36.2926 21.2667 36.2901C21.2667 36.2876 21.2667 36.2853 21.2667 36.2828C21.2667 36.2803 21.2667 36.2779 21.2667 36.2754C21.2667 36.2729 21.2667 36.2706 21.2667 36.2681C21.2667 36.2656 21.2667 36.2633 21.2667 36.2607C21.2667 36.2582 21.2667 36.2559 21.2667 36.2534C21.2667 36.2511 21.2667 36.2486 21.2667 36.246C21.2667 36.2437 21.2667 36.2412 21.2667 36.2387C21.2667 36.2364 21.2667 36.2339 21.2667 36.2314C21.2667 36.229 21.2667 36.2265 21.2667 36.2242C21.2667 36.2217 21.2667 36.2192 21.2667 36.2169C21.2667 36.2143 21.2667 36.2118 21.2667 36.2095C21.2667 36.207 21.2667 36.2047 21.2667 36.2022C21.2667 36.1996 21.2667 36.1973 21.2667 36.1948C21.2667 36.1923 21.2667 36.19 21.2667 36.1875C21.2667 36.1851 21.2667 36.1826 21.2667 36.1801C21.2667 36.1778 21.2667 36.1753 21.2667 36.173C21.2667 36.1705 21.2667 36.1679 21.2667 36.1656C21.2667 36.1631 21.2667 36.1608 21.2667 36.1583C21.2667 36.156 21.2667 36.1534 21.2667 36.1509C21.2667 36.1486 21.2667 36.1461 21.2667 36.1438C21.2667 36.1413 21.2667 36.1387 21.2667 36.1364C21.2667 36.1339 21.2667 36.1316 21.2667 36.1291C21.2667 36.1268 21.2667 36.1242 21.2667 36.1217C21.2667 36.1194 21.2667 36.1169 21.2667 36.1146C21.2667 36.1121 21.2667 36.1097 21.2667 36.1072C21.2667 36.1047 21.2667 36.1024 21.2667 36.0999C21.2667 36.0976 21.2667 36.0951 21.2667 36.0927C21.2667 36.0902 21.2667 36.0879 21.2667 36.0854C21.2667 36.0829 21.2667 36.0806 21.2667 36.078C21.2667 36.0757 21.2667 36.0732 21.2667 36.0709C21.2667 36.0684 21.2667 36.0661 21.2667 36.0635C21.2667 36.0612 21.2667 36.0587 21.2667 36.0564C21.2667 36.0539 21.2667 36.0514 21.2667 36.049C21.2667 36.0465 21.2667 36.0442 21.2667 36.0417C21.2667 36.0394 21.2667 36.0369 21.2667 36.0345C21.2667 36.032 21.2667 36.0297 21.2667 36.0272C21.2667 36.0249 21.2667 36.0224 21.2667 36.02C21.2667 36.0175 21.2667 36.0152 21.2667 36.0127C21.2667 36.0104 21.2667 36.0079 21.2667 36.0055C21.2667 36.003 21.2667 36.0007 21.2667 35.9982C21.2667 35.9959 21.2667 35.9934 21.2667 35.991C21.2667 35.9885 21.2667 35.9862 21.2667 35.9837C21.2667 35.9814 21.2667 35.9789 21.2667 35.9765C21.2667 35.974 21.2667 35.9717 21.2667 35.9692C21.2667 35.9669 21.2667 35.9644 21.2667 35.962C21.2667 35.9595 21.2667 35.9572 21.2667 35.9549C21.2667 35.9524 21.2667 35.9501 21.2667 35.9475C21.2667 35.9452 21.2667 35.9427 21.2667 35.9404C21.2667 35.9379 21.2667 35.9356 21.2667 35.933C21.2667 35.9307 21.2667 35.9282 21.2667 35.9259C21.2667 35.9236 21.2667 35.9211 21.2667 35.9187C21.2667 35.9162 21.2667 35.9139 21.2667 35.9114C21.2667 35.9091 21.2667 35.9066 21.2667 35.9042C21.2667 35.9019 21.2667 35.8994 21.2667 35.8971C21.2667 35.8946 21.2667 35.8922 21.2667 35.8897C21.2667 35.8874 21.2667 35.8851 21.2667 35.8826C21.2667 35.8803 21.2667 35.8777 21.2667 35.8754C21.2667 35.8729 21.2667 35.8706 21.2667 35.8683C21.2667 35.8658 21.2667 35.8634 21.2667 35.8609C21.2667 35.8586 21.2667 35.8563 21.2667 35.8538C21.2667 35.8515 21.2667 35.8489 21.2667 35.8466C21.2667 35.8441 21.2667 35.8418 21.2667 35.8395C21.2667 35.837 21.2667 35.8346 21.2667 35.8323C21.2667 35.8298 21.2667 35.8275 21.2667 35.825C21.2667 35.8226 21.2667 35.8203 21.2667 35.8178C21.2667 35.8155 21.2667 35.813 21.2667 35.8107C21.2667 35.8083 21.2667 35.8058 21.2667 35.8035C21.2667 35.8012 21.2667 35.7987 21.2667 35.7964C21.2667 35.7938 21.2667 35.7915 21.2667 35.7892C21.2667 35.7867 21.2667 35.7844 21.2667 35.782C21.2667 35.7795 21.2667 35.7772 21.2667 35.7747C21.2667 35.7724 21.2667 35.7701 21.2667 35.7675C21.2667 35.7652 21.2667 35.7629 21.2667 35.7604C21.2667 35.7581 21.2667 35.7558 21.2667 35.7532C21.2667 35.7509 21.2667 35.7486 21.2667 35.7461C21.2667 35.7438 21.2667 35.7414 21.2667 35.7389C21.2667 35.7366 21.2667 35.7343 21.2667 35.7318C21.2667 35.7295 21.2667 35.7271 21.2667 35.7246C21.2667 35.7223 21.2667 35.72 21.2667 35.7175C21.2667 35.7152 21.2667 35.7128 21.2667 35.7103C21.2667 35.708 21.2667 35.7057 21.2667 35.7032C21.2667 35.7008 21.2667 35.6985 21.2667 35.696C21.2667 35.6937 21.2667 35.6914 21.2667 35.6891C21.2667 35.6865 21.2667 35.6842 21.2667 35.6819C21.2667 35.6794 21.2667 35.6771 21.2667 35.6747C21.2667 35.6722 21.2667 35.6699 21.2667 35.6676C21.2667 35.6653 21.2667 35.6628 21.2667 35.6604C21.2667 35.6581 21.2667 35.6556 21.2667 35.6533C21.2667 35.651 21.2667 35.6486 21.2667 35.6461C21.2667 35.6438 21.2667 35.6415 21.2667 35.639C21.2667 35.6367 21.2667 35.6343 21.2667 35.632C21.2667 35.6295 21.2667 35.6272 21.2667 35.6249C21.2667 35.6225 21.2667 35.62 21.2667 35.6177C21.2667 35.6154 21.2667 35.6131 21.2667 35.6106C21.2667 35.6082 21.2667 35.6059 21.2667 35.6036C21.2667 35.6011 21.2667 35.5988 21.2667 35.5964C21.2667 35.5941 21.2667 35.5916 21.2667 35.5893C21.2667 35.587 21.2667 35.5847 21.2667 35.5821C21.2667 35.5798 21.2667 35.5775 21.2667 35.5752C21.2667 35.5727 21.2667 35.5703 21.2667 35.568C21.2667 35.5657 21.2667 35.5634 21.2667 35.5609C21.2667 35.5586 21.2667 35.5562 21.2667 35.5539C21.2667 35.5514 21.2667 35.5491 21.2667 35.5468C21.2667 35.5444 21.2667 35.5421 21.2667 35.5396C21.2667 35.5373 21.2667 35.535 21.2667 35.5326C21.2667 35.5303 21.2667 35.5278 21.2667 35.5255C21.2667 35.5232 21.2667 35.5209 21.2667 35.5185C21.2667 35.516 21.2667 35.5137 21.2667 35.5114C21.2667 35.5091 21.2667 35.5067 21.2667 35.5042C21.2667 35.5019 21.2667 35.4996 21.2667 35.4973C21.2667 35.4949 21.2667 35.4924 21.2667 35.4901C21.2667 35.4878 21.2667 35.4855 21.2667 35.4832C21.2667 35.4808 21.2667 35.4783 21.2667 35.476C21.2667 35.4737 21.2667 35.4714 21.2667 35.469C21.2667 35.4667 21.2667 35.4642 21.2667 35.4619C21.2667 35.4596 21.2667 35.4572 21.2667 35.4549C21.2667 35.4526 21.2667 35.4503 21.2667 35.4478C21.2667 35.4455 21.2667 35.4431 21.2667 35.4408C21.2667 35.4385 21.2667 35.4362 21.2667 35.4339C21.2667 35.4313 21.2667 35.429 21.2667 35.4267C21.2667 35.4244 21.2667 35.4221 21.2667 35.4197C21.2667 35.4174 21.2667 35.4149 21.2667 35.4126C21.2667 35.4103 21.2667 35.4079 21.2667 35.4056C21.2667 35.4033 21.2667 35.401 21.2667 35.3987C21.2667 35.3963 21.2667 35.3938 21.2667 35.3915C21.2667 35.3892 21.2667 35.3869 21.2667 35.3846C21.2667 35.3822 21.2667 35.3799 21.2667 35.3776C21.2667 35.3753 21.2667 35.3728 21.2667 35.3704C21.2667 35.3681 21.2667 35.3658 21.2667 35.3635C21.2667 35.3612 21.2667 35.3588 21.2667 35.3565C21.2667 35.3542 21.2667 35.3519 21.2667 35.3496C21.2667 35.347 21.2667 35.3447 21.2667 35.3424C21.2667 35.3401 21.2667 35.3378 21.2667 35.3354C21.2667 35.3331 21.2667 35.3308 21.2667 35.3285C21.2667 35.3262 21.2667 35.3238 21.2667 35.3215C21.2667 35.3192 21.2667 35.3169 21.2667 35.3144C21.2667 35.3121 21.2667 35.3097 21.2667 35.3074C21.2667 35.3051 21.2667 35.3028 21.2667 35.3005C21.2667 35.2981 21.2667 35.2958 21.2667 35.2935C21.2667 35.2912 21.2667 35.2889 21.2667 35.2865C21.2667 35.2842 21.2667 35.2819 21.2667 35.2796C21.2667 35.2773 21.2667 35.2749 21.2667 35.2726C21.2667 35.2703 21.2667 35.268 21.2667 35.2657C21.2667 35.2633 21.2667 35.261 21.2667 35.2587C21.2667 35.2564 21.2667 35.2541 21.2667 35.2517C21.2667 35.2492 21.2667 35.2469 21.2667 35.2446C21.2667 35.2423 21.2667 35.2399 21.2667 35.2376C21.2667 35.2353 21.2667 35.233 21.2667 35.2307C21.2667 35.2283 21.2667 35.226 21.2667 35.2237C21.2667 35.2214 21.2667 35.2191 21.2667 35.2167C21.2667 35.2144 21.2667 35.2121 21.2667 35.2098C21.2667 35.2077 21.2667 35.2053 21.2667 35.203C21.2667 35.2007 21.2667 35.1984 21.2667 35.1961C21.2667 35.1937 21.2667 35.1914 21.2667 35.1891C21.2667 35.1868 21.2667 35.1845 21.2667 35.1821C21.2667 35.1798 21.2667 35.1775 21.2667 35.1752C21.2667 35.1729 21.2667 35.1705 21.2667 35.1682C21.2667 35.1659 21.2667 35.1636 21.2667 35.1613C21.2667 35.1589 21.2667 35.1566 21.2667 35.1543H19.3333ZM14.5 30.322C17.1696 30.322 19.3333 32.4851 19.3333 35.1543H21.2667C21.2667 31.417 18.2369 28.3887 14.5 28.3887V30.322ZM1.93333 35.1543C1.93333 32.4851 4.09708 30.322 6.76667 30.322V28.3887C3.02975 28.3887 0 31.417 0 35.1543H1.93333ZM27.0667 36.1333V39.0333H29V36.1333H27.0667ZM28.0333 38.0667H23.2V40H28.0333V38.0667ZM23.2 32.2667C25.3356 32.2667 27.0667 33.9978 27.0667 36.1333H29C29 32.93 26.4033 30.3333 23.2 30.3333V32.2667ZM22.2333 26.4667C20.6318 26.4667 19.3333 25.1683 19.3333 23.5667H17.4C17.4 26.236 19.564 28.4 22.2333 28.4V26.4667ZM25.1333 23.5667C25.1333 25.1683 23.8349 26.4667 22.2333 26.4667V28.4C24.9027 28.4 27.0667 26.236 27.0667 23.5667H25.1333ZM22.2333 20.6667C23.8349 20.6667 25.1333 21.965 25.1333 23.5667H27.0667C27.0667 20.8973 24.9027 18.7333 22.2333 18.7333V20.6667ZM22.2333 18.7333C19.564 18.7333 17.4 20.8973 17.4 23.5667H19.3333C19.3333 21.965 20.6318 20.6667 22.2333 20.6667V18.7333Z" fill="#237BAB"/>
<path d="M20.1695 12.1637L32.1532 0.169374C32.671 -0.235684 33.0515 0.186526 33.1133 0.392507L37.6632 13.6913L39.8303 15.8574C40.0566 16.084 40.0566 16.4478 39.8303 16.6779L36.6586 19.8532C36.4632 20.0489 36.0346 20.0489 35.8392 19.8532L33.6721 17.6837L33.3087 17.5567C32.7258 18.7993 31.392 19.5442 29.9176 19.5442C27.4866 19.5442 26.5676 18.2467 26.0705 17.3747C25.6248 16.5954 25.4876 15.7441 25.6659 14.9374L20.3925 13.1249C20.1318 13.0803 19.7889 12.5619 20.1695 12.1637ZM36.2471 18.6243L38.5993 16.2694L37.1558 14.8242L34.8036 17.1791L36.2471 18.6243ZM28.793 18.1883C30.1782 18.6792 31.6286 18.2261 32.2012 17.1756L26.7665 15.3116C26.77 17.0932 28.042 17.9274 28.793 18.1883ZM33.8333 16.5165L36.494 13.8526L34.6699 8.52144L34.0699 9.12218C33.8779 9.3144 33.4527 9.32471 33.2504 9.12218C33.0241 8.89559 33.0241 8.53174 33.2504 8.30171L34.2516 7.29931L33.8333 6.08068L31.4468 8.46993C31.2617 8.65531 30.8331 8.67591 30.6273 8.46993C30.401 8.24335 30.401 7.8795 30.6273 7.64946L33.4115 4.86201L32.3074 1.64204L21.6336 12.3284L33.8333 16.5165Z" fill="#F7A434"/>
</g>
<defs>
<clipPath id="clip0_559_2507">
<rect width="40" height="40" fill="white"/>
</clipPath>
</defs>
</svg>
