<svg width="69" height="71" viewBox="0 0 69 71" fill="none" xmlns="http://www.w3.org/2000/svg">
<g clip-path="url(#clip0_265_116)">
<path d="M45.1846 59.1661C58.2979 59.1661 68.9661 48.5494 68.9661 35.4995C68.9661 24.9229 61.9574 15.9454 52.319 12.9241V7.1C52.319 3.18554 49.1181 0 45.1846 0H7.13442C3.20098 0 0 3.18554 0 7.1V63.9C0 67.8144 3.20098 71 7.13442 71H45.1846C49.1181 71 52.319 67.8144 52.319 63.9C52.319 62.5915 51.2537 61.5334 49.9409 61.5334C48.6282 61.5334 47.5628 62.5915 47.5628 63.9C47.5628 65.2064 46.4947 66.2666 45.1846 66.2666H7.13442C5.82432 66.2666 4.75628 65.2064 4.75628 63.9V7.1C4.75628 5.79623 5.82432 4.73334 7.13442 4.73334H45.1846C46.4947 4.73334 47.5628 5.79623 47.5628 7.1V11.9539C46.7804 11.8762 45.9861 11.8334 45.1846 11.8334C39.6746 11.8334 34.4666 13.6887 30.2635 17.0877L30.8464 14.7754C31.1649 13.5069 30.3899 12.2216 29.1154 11.9047C27.8456 11.5898 26.5493 12.359 26.2307 13.6273L23.8526 23.094C23.6742 23.8018 23.8362 24.5495 24.2852 25.1248C24.7343 25.6995 25.4266 26.0334 26.1591 26.0334H35.6717C36.9844 26.0334 38.0498 24.9731 38.0498 23.6667C38.0498 22.3602 36.9844 21.3 35.6717 21.3H32.6464C36.1042 18.2492 40.5037 16.5667 45.1842 16.5667C55.6739 16.5667 64.2093 25.0609 64.2093 35.5C64.2093 45.9392 55.6739 54.4334 45.1842 54.4334C40.0829 54.4334 35.3007 52.4693 31.7169 48.9024C30.7868 47.9768 29.2841 47.9768 28.354 48.9024C27.424 49.8279 27.424 51.3235 28.354 52.249C32.8369 56.7102 38.8131 59.1667 45.1845 59.1667L45.1846 59.1661Z" fill="white"/>
<path d="M11.8909 35.499H30.9159C32.2288 35.499 33.2941 34.4388 33.2941 33.1323C33.2941 31.8259 32.2288 30.7656 30.9159 30.7656H11.8909C10.578 30.7656 9.5127 31.8259 9.5127 33.1323C9.5127 34.4388 10.578 35.499 11.8909 35.499Z" fill="white"/>
<path d="M33.2941 42.5991C33.2941 41.2905 32.2288 40.2324 30.9159 40.2324H11.8909C10.578 40.2324 9.5127 41.2905 9.5127 42.5991C9.5127 43.9077 10.578 44.9658 11.8909 44.9658H30.9159C32.2288 44.9658 33.2941 43.9077 33.2941 42.5991Z" fill="white"/>
<path d="M11.8909 26.0322H16.6471C17.9599 26.0322 19.0253 24.972 19.0253 23.6655C19.0253 22.3591 17.9599 21.2988 16.6471 21.2988H11.8909C10.578 21.2988 9.5127 22.3591 9.5127 23.6655C9.5127 24.972 10.578 26.0322 11.8909 26.0322Z" fill="white"/>
<path d="M11.8909 49.6992C10.578 49.6992 9.5127 50.7573 9.5127 52.0659C9.5127 53.3745 10.578 54.4326 11.8909 54.4326H21.4034C22.7161 54.4326 23.7815 53.3745 23.7815 52.0659C23.7815 50.7573 22.7161 49.6992 21.4034 49.6992H11.8909Z" fill="white"/>
<path d="M11.8909 16.5654H16.6471C17.9599 16.5654 19.0253 15.5052 19.0253 14.1987C19.0253 12.8923 17.9599 11.832 16.6471 11.832H11.8909C10.578 11.832 9.5127 12.8923 9.5127 14.1987C9.5127 15.5052 10.578 16.5654 11.8909 16.5654Z" fill="white"/>
<path d="M45.1847 42.5987C43.8746 42.5987 42.8066 41.5385 42.8066 40.232C42.8066 38.9235 41.7412 37.8654 40.4285 37.8654C39.1157 37.8654 38.0503 38.9235 38.0503 40.232C38.0503 43.3134 40.043 45.9142 42.8066 46.8941V47.3321C42.8066 48.6406 43.872 49.6987 45.1847 49.6987C46.4975 49.6987 47.5629 48.6406 47.5629 47.3321V46.8941C50.3264 45.9142 52.3191 43.3109 52.3191 40.232C52.3191 37.4608 50.3264 34.7084 47.6865 33.8326L44.1883 32.673C43.5036 32.4458 42.8066 31.4849 42.8066 30.7655C42.8066 29.4617 43.8746 28.3988 45.1847 28.3988C46.4948 28.3988 47.5629 29.4617 47.5629 30.7655C47.5629 32.0719 48.6283 33.1321 49.941 33.1321C51.2538 33.1321 52.3191 32.0719 52.3191 30.7655C52.3191 27.6841 50.3264 25.0833 47.5629 24.1008V23.6655C47.5629 22.3591 46.4975 21.2988 45.1847 21.2988C43.872 21.2988 42.8066 22.3591 42.8066 23.6655V24.1008C40.043 25.0828 38.0503 27.6841 38.0503 30.7655C38.0503 33.5368 40.043 36.2892 42.683 37.1649L46.1811 38.3272C46.8659 38.5517 47.5629 39.5126 47.5629 40.2321C47.5629 41.5386 46.4948 42.5987 45.1847 42.5987Z" fill="white"/>
</g>
<defs>
<clipPath id="clip0_265_116">
<rect width="69" height="71" fill="white"/>
</clipPath>
</defs>
</svg>
