<svg width="40" height="40" viewBox="0 0 40 40" fill="none" xmlns="http://www.w3.org/2000/svg">
<g clip-path="url(#clip0_559_2541)">
<path fill-rule="evenodd" clip-rule="evenodd" d="M38.8741 7.32417L32.6059 1.05359C31.1588 -0.355826 28.8365 -0.351118 27.42 1.06536L18.8788 9.60653C17.4553 11.0324 17.4553 13.3501 18.8812 14.7759L19.54 15.4348L21.2012 13.7689L20.5424 13.1124C20.0365 12.6042 20.0365 11.7783 20.5424 11.2701L29.0836 2.72888C29.5941 2.22065 30.4341 2.22534 30.9518 2.72888L37.1988 8.9783C37.7141 9.50301 37.7165 10.3454 37.2106 10.8536L28.6694 19.3948C28.1588 19.9007 27.333 19.9007 26.8247 19.3948L24.5165 17.0842L27.8388 13.7642L26.1753 12.1006L17.1 21.1736L14.8129 18.8865C14.1282 18.1854 13.2129 17.7971 12.2365 17.7901C11.3282 17.8254 10.3141 18.1712 9.60824 18.8771L1.06941 27.4183C-0.356469 28.8442 -0.356469 31.1618 1.06941 32.5877L7.35176 38.8701C8.06234 39.5807 8.99882 39.9383 9.9353 39.9383C10.8718 39.9383 11.8082 39.5807 12.5212 38.8701L21.0623 30.3289C21.7659 29.623 22.1541 28.6912 22.1471 27.703C22.1423 26.7242 21.7518 25.8089 21.0623 25.1359L20.4271 24.5007L18.7635 26.1642L19.4082 26.8089C19.6553 27.0512 19.7918 27.3736 19.7941 27.7171C19.7965 28.0701 19.6553 28.4065 19.3988 28.6654L10.8576 37.2065C10.3682 37.6959 9.50472 37.6959 9.01528 37.2065L2.73293 30.9242C2.48822 30.6795 2.35411 30.3524 2.35411 30.0018C2.35411 29.6536 2.48822 29.3265 2.73293 29.0818L11.2741 20.5407C11.5282 20.2842 11.8623 20.143 12.2129 20.143H12.2223C12.5659 20.1454 12.8882 20.2818 13.1376 20.5407L15.4365 22.8371L12.0576 26.2183L13.7212 27.8818L22.8529 18.7477L25.1612 21.0583C25.8765 21.7712 26.8106 22.1265 27.7471 22.1265C28.6835 22.1265 29.62 21.7712 30.3329 21.0583L38.8741 12.5171C40.2882 11.1007 40.2906 8.77828 38.8741 7.32417Z" fill="#237BAB"/>
<path fill-rule="evenodd" clip-rule="evenodd" d="M27.8398 13.7641L26.1763 12.1006C16.1819 22.0923 18.85 19.4221 12.0586 26.2182L13.7221 27.8818C20.372 21.2302 22.8417 18.7587 27.8398 13.7641Z" fill="#F7A434"/>
</g>
<defs>
<clipPath id="clip0_559_2541">
<rect width="40" height="40" fill="white"/>
</clipPath>
</defs>
</svg>
