<svg width="40" height="40" viewBox="0 0 40 40" fill="none" xmlns="http://www.w3.org/2000/svg">
<g clip-path="url(#clip0_559_2528)">
<path d="M35.469 34.4202L27.9329 21.3673L34.0867 19.1499C34.4804 19.008 34.7435 18.6353 34.7453 18.2168C34.7472 17.7984 34.4873 17.4233 34.0948 17.2781L16.6622 10.8253C16.384 10.7225 16.0749 10.7487 15.818 10.8969C15.5614 11.0452 15.384 11.3 15.3342 11.5923L12.2096 29.9137C12.1394 30.3249 12.3327 30.7362 12.6941 30.9445C13.0553 31.153 13.5082 31.1141 13.8289 30.8474L19.127 26.4411L26.6676 39.5019C26.7997 39.7308 27.0174 39.8977 27.2726 39.9661C27.3576 39.9889 27.4441 40.0001 27.5305 40.0001C27.7039 40.0001 27.876 39.9548 28.0287 39.8666L35.1044 35.7814C35.5809 35.5061 35.7441 34.8968 35.469 34.4202ZM27.8951 37.6424L20.2616 24.4208C20.1147 24.1663 19.8631 23.9897 19.5739 23.938C19.5157 23.9276 19.4571 23.9226 19.3988 23.9226C19.1679 23.9226 18.9421 24.0029 18.7616 24.1529L14.6271 27.5916L17.0967 13.1111L30.8447 18.2L26.1366 19.8965C25.859 19.9965 25.6401 20.2144 25.5386 20.4916C25.4372 20.7687 25.464 21.0766 25.6114 21.3322L33.2449 34.5538L27.8951 37.6424Z" fill="#237BAB"/>
<path d="M11.2786 9.64543L5.6529 8.13801C5.12126 7.99543 4.57509 8.31106 4.43266 8.84254C4.29016 9.37403 4.60563 9.92036 5.1372 10.0628L10.7631 11.5702C10.8495 11.5933 10.9361 11.6045 11.0215 11.6045C11.4614 11.6045 11.864 11.3109 11.9833 10.8657C12.1256 10.3343 11.8102 9.78793 11.2786 9.64543Z" fill="#F7A434"/>
<path d="M19.6896 0.0342218C19.1577 -0.108278 18.6118 0.207269 18.4694 0.738754L16.962 6.36447C16.8195 6.89588 17.1349 7.44228 17.6665 7.5847C17.7529 7.60783 17.8395 7.619 17.9249 7.619C18.3649 7.619 18.7674 7.32541 18.8867 6.88017L20.3942 1.25446C20.5367 0.722973 20.2212 0.176722 19.6896 0.0342218Z" fill="#F7A434"/>
<path d="M14.2712 6.27519L12.0293 2.39214C11.7541 1.91565 11.1451 1.75229 10.6683 2.02745C10.1917 2.30268 10.0284 2.9119 10.3036 3.38847L12.5455 7.27152C12.7301 7.59113 13.0648 7.76988 13.4093 7.76988C13.5783 7.76988 13.7495 7.72676 13.9065 7.63613C14.383 7.36097 14.5464 6.75175 14.2712 6.27519Z" fill="#F7A434"/>
</g>
<defs>
<clipPath id="clip0_559_2528">
<rect width="40" height="40" fill="white"/>
</clipPath>
</defs>
</svg>
