<svg width="40" height="40" viewBox="0 0 40 40" fill="none" xmlns="http://www.w3.org/2000/svg">
<g clip-path="url(#clip0_558_2485)">
<path d="M34.2324 7.92406L26.5516 0.244063C26.3953 0.0878125 26.1834 0 25.9623 0H8.12234C6.6882 0 5.52148 1.16672 5.52148 2.60086V37.3992C5.52148 38.8333 6.68813 40.0001 8.12234 40.0001H31.8757C33.3098 40.0001 34.4766 38.8334 34.4766 37.3992V8.51336C34.4765 8.29234 34.3887 8.08031 34.2324 7.92406ZM31.6312 7.68H26.7957V2.845L26.7955 2.84484L31.6312 7.68ZM32.8098 37.3991C32.8098 37.9143 32.3908 38.3333 31.8756 38.3333H8.12234C7.60727 38.3333 7.1882 37.9143 7.1882 37.3991V2.60086C7.1882 2.0857 7.60727 1.66672 8.12234 1.66672H25.129V8.51336C25.129 8.97352 25.5022 9.34672 25.9623 9.34672H32.8098V37.3991Z" fill="#237BAB"/>
<path d="M9.72188 35H9.68883C9.22859 35 8.85547 35.3732 8.85547 35.8334C8.85547 36.2935 9.22852 36.6667 9.68883 36.6667H9.72188C10.1821 36.6667 10.5552 36.2935 10.5552 35.8334C10.5552 35.3732 10.1821 35 9.72188 35Z" fill="#237BAB"/>
<path d="M12.4994 35C12.0391 35 11.666 35.3732 11.666 35.8334C11.666 36.2935 12.0391 36.6667 12.4994 36.6667H30.3102C30.7704 36.6667 31.1436 36.2935 31.1436 35.8334C31.1436 35.3732 30.7705 35 30.3102 35H12.4994Z" fill="#237BAB"/>
<path d="M24.0269 12.9135L19.8039 17.1365C18.8562 18.0841 18.8562 19.6263 19.8039 20.5739L20.2949 21.0649L18.5273 22.8326L18.0362 22.3415C17.0885 21.394 15.5466 21.394 14.5988 22.3415L10.3759 26.5645C9.91687 27.0236 9.66406 27.634 9.66406 28.2832C9.66406 28.9324 9.91687 29.5428 10.3759 30.0019L12.5364 32.1626C12.9955 32.6216 13.6059 32.8745 14.2551 32.8745C14.9043 32.8745 15.5147 32.6216 15.9738 32.1626L20.1966 27.9396C20.6558 27.4806 20.9087 26.8702 20.9087 26.2209C20.9087 25.5718 20.6559 24.9613 20.1967 24.5023L19.7057 24.0112L21.4734 22.2434L21.9645 22.7345C22.4236 23.1936 23.034 23.4465 23.6832 23.4465C24.3323 23.4465 24.9428 23.1937 25.4019 22.7345L29.6248 18.5116C30.0839 18.0525 30.3367 17.442 30.3367 16.7929C30.3367 16.1437 30.0839 15.5333 29.6248 15.0742L27.4642 12.9136C26.5165 11.9659 24.9746 11.966 24.0269 12.9135ZM19.018 26.7611L14.7949 30.9841C14.6507 31.1283 14.4588 31.2079 14.2548 31.2079C14.0509 31.2079 13.859 31.1284 13.7148 30.9841L11.5542 28.8235C11.4099 28.6793 11.3305 28.4874 11.3305 28.2834C11.3305 28.0795 11.4101 27.8875 11.5544 27.7433L15.7773 23.5202C15.9262 23.3713 16.1218 23.2968 16.3174 23.2968C16.513 23.2968 16.7087 23.3713 16.8575 23.5202L17.3485 24.0113L16.17 25.1899C15.8446 25.5153 15.8446 26.043 16.17 26.3685C16.3327 26.5312 16.546 26.6126 16.7592 26.6126C16.9724 26.6126 17.1858 26.5312 17.3484 26.3685L18.527 25.1899L19.018 25.681C19.1623 25.8252 19.2417 26.0171 19.2417 26.2211C19.2417 26.4251 19.1623 26.6168 19.018 26.7611ZM28.4463 16.2527C28.5904 16.397 28.67 16.5888 28.67 16.7928C28.67 16.9968 28.5905 17.1887 28.4462 17.3329L24.2232 21.5559C24.079 21.7001 23.8871 21.7797 23.6831 21.7797C23.4791 21.7797 23.2873 21.7002 23.143 21.5559V21.5559L22.652 21.0648L23.8305 19.8863C24.1559 19.5609 24.1559 19.0332 23.8305 18.7077C23.505 18.3824 22.9775 18.3824 22.6519 18.7077L21.4734 19.8862L20.9823 19.3953C20.6845 19.0975 20.6845 18.6128 20.9823 18.315L25.2053 14.092C25.3542 13.9431 25.5498 13.8686 25.7455 13.8686C25.941 13.8686 26.1366 13.9431 26.2855 14.092L28.4463 16.2527Z" fill="#F7A434"/>
</g>
<defs>
<clipPath id="clip0_558_2485">
<rect width="40" height="40" fill="white"/>
</clipPath>
</defs>
</svg>
