<svg width="24" height="24" viewBox="0 0 24 24" fill="none" xmlns="http://www.w3.org/2000/svg">
<g clip-path="url(#clip0_15_81)">
<path d="M2.76787 18.719C1.9659 18.719 1.18242 18.5144 0.472352 18.1156C0.107013 17.9275 -0.0344885 17.4568 0.183764 17.1027C0.908916 15.9439 1.17077 14.5275 0.838759 13.1954C0.494628 11.8144 -0.00330111 10.6513 0.000263169 9.18939C0.0126193 4.06033 4.28173 -0.0977534 9.40556 0.00174936C14.3546 0.10143 18.4332 4.26165 18.4333 9.21196C18.4333 15.6771 11.6578 20.2162 5.67614 17.7197C4.85166 18.3668 3.81535 18.719 2.76787 18.719ZM1.79339 17.1405C2.92018 17.4905 4.18746 17.2109 5.05637 16.3709C5.1609 16.2698 5.29386 16.2031 5.43739 16.1797C5.58092 16.1564 5.72815 16.1775 5.85934 16.2402C10.9804 18.6887 17.0076 14.8509 17.0075 9.21196C17.0075 5.00409 13.5844 1.51187 9.37687 1.42716C5.0408 1.34103 1.43643 4.85279 1.42597 9.19283C1.42259 10.5814 1.96436 11.6912 2.26043 13.0065C2.57236 14.3928 2.40805 15.8586 1.79339 17.1405Z" fill="#2B2B2B"/>
<path d="M21.2321 24C20.1847 24 19.1483 23.6477 18.3239 23.0007C15.1428 24.3283 11.3589 23.7237 8.7506 21.4712C8.45262 21.2139 8.41971 20.7638 8.67699 20.4657C8.93434 20.1678 9.38444 20.1348 9.68242 20.3922C11.9958 22.39 15.3837 22.8393 18.1407 21.5213C18.2719 21.4585 18.4191 21.4374 18.5626 21.4608C18.7062 21.4841 18.8391 21.5508 18.9437 21.6519C19.8125 22.4919 21.0798 22.7716 22.2066 22.4215C21.4815 20.9091 21.3811 19.1765 21.943 17.5724C21.948 17.558 21.9536 17.5438 21.9595 17.5296C22.3699 16.5622 22.5767 15.5341 22.5741 14.4738C22.5696 12.6045 21.9477 10.8753 20.7757 9.47302C20.5232 9.17088 20.5634 8.72137 20.8655 8.4689C21.1675 8.21637 21.6172 8.25665 21.8696 8.55872C23.2381 10.196 23.9946 12.2954 23.9998 14.4704C24.0029 15.7161 23.7611 16.9251 23.2814 18.0643C22.7776 19.5228 23.0093 21.0845 23.8162 22.3835C24.0346 22.7377 23.893 23.2085 23.5276 23.3967C22.8176 23.7953 22.0339 23.9999 21.2321 24Z" fill="#2B2B2B"/>
<path fill-rule="evenodd" clip-rule="evenodd" d="M12.8147 7.19957C13.0618 7.46686 13.0618 7.90075 12.8147 8.16804L10.2819 10.9095C10.0348 11.1768 9.63299 11.1768 9.38596 10.9095L8.14423 9.56683L6.05848 11.8236C5.93776 11.9413 5.77987 12.0044 5.61742 11.9998C5.45497 11.9952 5.30036 11.9232 5.1855 11.7988C5.07064 11.6745 5.00431 11.5071 5.0002 11.3313C4.99609 11.1555 5.05452 10.9848 5.16341 10.8543L7.69628 8.11369C7.94331 7.8464 8.34515 7.8464 8.59218 8.11369L9.83391 9.45635L11.9197 7.20046C12.1667 6.93318 12.5677 6.93318 12.8156 7.20046L12.8147 7.19957Z" fill="#2B2B2B"/>
</g>
<defs>
<clipPath id="clip0_15_81">
<rect width="24" height="24" fill="white"/>
</clipPath>
</defs>
</svg>
