<svg width="512" height="512" viewBox="0 0 512 512" fill="none" xmlns="http://www.w3.org/2000/svg">
<path d="M345.009 222.024L286.407 163.422V323.189C286.407 340.214 272.59 354.032 255.564 354.032C238.539 354.032 224.721 340.214 224.721 323.189V163.422L166.119 222.024C154.029 234.114 134.536 234.114 122.446 222.024C110.355 209.933 110.355 190.44 122.446 178.35L233.727 67.0679C245.818 54.9774 265.311 54.9774 277.401 67.0679L388.683 178.35C400.774 190.44 400.774 209.933 388.683 222.024C376.593 234.114 357.1 234.114 345.009 222.024ZM82.8431 274.21C65.8177 274.21 52 288.028 52 305.053V391.414C52 425.465 79.6354 453.1 113.686 453.1H397.443C431.493 453.1 459.129 425.465 459.129 391.414V305.053C459.129 288.028 445.311 274.21 428.286 274.21C411.26 274.21 397.443 288.028 397.443 305.053V375.992C397.443 384.505 390.534 391.414 382.021 391.414H129.108C120.595 391.414 113.686 384.505 113.686 375.992V305.053C113.686 288.028 99.8685 274.21 82.8431 274.21Z" fill="black"/>
</svg>
