<svg width="24" height="24" viewBox="0 0 24 24" fill="none" xmlns="http://www.w3.org/2000/svg">
<path d="M18.3304 12.1482C18.2545 12.0707 18.1639 12.0089 18.0638 11.9667C17.9638 11.9245 17.8564 11.9026 17.7478 11.9023C17.6392 11.9021 17.5317 11.9234 17.4314 11.9651C17.3312 12.0068 17.2402 12.0681 17.1639 12.1453C17.0875 12.2225 17.0273 12.3141 16.9868 12.4148C16.9462 12.5155 16.9261 12.6233 16.9276 12.7319C16.9291 12.8404 16.9522 12.9476 16.9955 13.0472C17.0389 13.1467 17.1016 13.2366 17.1801 13.3117C17.8742 13.9947 18.425 14.8096 18.7999 15.7083C19.1749 16.6071 19.3666 17.5717 19.3638 18.5456C19.3638 19.5462 16.4953 21.0001 12.0002 21.0001C7.50515 21.0001 4.63663 19.5454 4.63663 18.5439C4.63384 17.5767 4.82296 16.6185 5.19302 15.7249C5.56308 14.8313 6.10674 14.0199 6.79252 13.3379C6.87067 13.2624 6.933 13.1721 6.97588 13.0723C7.01876 12.9725 7.04133 12.8651 7.04227 12.7565C7.04322 12.6478 7.02251 12.5401 6.98138 12.4396C6.94024 12.339 6.87949 12.2477 6.80266 12.1708C6.72584 12.094 6.63449 12.0333 6.53394 11.9921C6.43339 11.951 6.32565 11.9303 6.21702 11.9312C6.10838 11.9322 6.00102 11.9547 5.9012 11.9976C5.80138 12.0405 5.7111 12.1028 5.63562 12.181C4.79729 13.0149 4.1327 14.0068 3.68034 15.0993C3.22798 16.1917 2.99683 17.3631 3.00028 18.5456C3.00028 21.203 7.63688 22.6364 12.0002 22.6364C16.3635 22.6364 21.0001 21.203 21.0001 18.5456C21.0038 17.3552 20.7695 16.176 20.311 15.0774C19.8525 13.9788 19.1792 12.9829 18.3304 12.1482Z" fill="white"/>
<path d="M12.0002 12.8177C13.1329 12.8177 14.2402 12.4818 15.1821 11.8525C16.1239 11.2232 16.858 10.3287 17.2914 9.28222C17.7249 8.23571 17.8383 7.08416 17.6174 5.97318C17.3964 4.86221 16.8509 3.84172 16.0499 3.04075C15.249 2.23978 14.2285 1.69432 13.1175 1.47333C12.0065 1.25234 10.855 1.36576 9.80846 1.79924C8.76195 2.23272 7.86748 2.9668 7.23816 3.90863C6.60884 4.85047 6.27295 5.95777 6.27295 7.09051C6.27468 8.60893 6.87864 10.0647 7.95233 11.1384C9.02602 12.212 10.4818 12.816 12.0002 12.8177ZM12.0002 2.99963C12.8093 2.99963 13.6002 3.23956 14.2729 3.68907C14.9457 4.13858 15.47 4.77749 15.7796 5.525C16.0893 6.27251 16.1703 7.09505 16.0124 7.8886C15.8546 8.68215 15.465 9.41107 14.8929 9.98319C14.3207 10.5553 13.5918 10.9449 12.7983 11.1028C12.0047 11.2606 11.1822 11.1796 10.4347 10.87C9.68715 10.5604 9.04825 10.036 8.59874 9.36328C8.14923 8.69054 7.9093 7.89961 7.9093 7.09051C7.9106 6.00594 8.34202 4.96616 9.10892 4.19926C9.87583 3.43235 10.9156 3.00093 12.0002 2.99963Z" fill="white"/>
</svg>
