<svg width="24" height="24" viewBox="0 0 24 24" fill="none" xmlns="http://www.w3.org/2000/svg">
<path d="M17.172 18.9218H17.1532C16.9776 18.9219 16.8088 18.9905 16.6829 19.1131C16.557 19.2356 16.4839 19.4024 16.479 19.578C16.4641 20.1816 16.2128 20.7553 15.7792 21.1755C15.3457 21.5957 14.7645 21.829 14.1607 21.825H5.78999C5.17361 21.8242 4.58269 21.579 4.14684 21.1432C3.71099 20.7073 3.46578 20.1164 3.46499 19.5V4.49929C3.46499 3.21754 4.50824 2.17429 5.78999 2.17429H6.76799V2.59354C6.76799 3.79279 7.74374 4.76854 8.94299 4.76854H11.0055C12.2047 4.76854 13.1805 3.79279 13.1805 2.59354V2.17429H14.16C14.7638 2.17037 15.3449 2.40361 15.7785 2.82384C16.212 3.24406 16.4633 3.81769 16.4782 4.42129C16.4831 4.59691 16.5563 4.76371 16.6822 4.88625C16.8081 5.00878 16.9768 5.07741 17.1525 5.07754H17.1712C17.2599 5.07511 17.3471 5.05523 17.4281 5.01903C17.509 4.98284 17.582 4.93104 17.6429 4.8666C17.7038 4.80216 17.7513 4.72635 17.7829 4.6435C17.8144 4.56066 17.8293 4.4724 17.8267 4.38379C17.8041 3.42825 17.4072 2.51981 16.7214 1.85406C16.0356 1.18831 15.1158 0.818513 14.16 0.824285H5.78999C4.81562 0.825278 3.88145 1.21278 3.19247 1.90176C2.50349 2.59075 2.11598 3.52492 2.11499 4.49929V19.4993C2.11499 21.5258 3.76349 23.1743 5.78999 23.1743H14.16C15.1157 23.1799 16.0353 22.8101 16.7212 22.1446C17.4071 21.4791 17.8043 20.5709 17.8275 19.6155C17.8325 19.4366 17.7663 19.263 17.6434 19.1329C17.5205 19.0028 17.3509 18.9269 17.172 18.9218ZM11.8305 2.59279C11.8305 3.04729 11.46 3.41779 11.0055 3.41779H8.94299C8.48849 3.41779 8.11799 3.04729 8.11799 2.59279V2.17429H11.8305V2.59279Z" fill="#2B2B2B"/>
<path d="M8.92432 19.2648C8.92432 19.3535 8.94178 19.4413 8.9757 19.5232C9.00962 19.605 9.05934 19.6795 9.12202 19.7421C9.1847 19.8048 9.25911 19.8545 9.34101 19.8885C9.4229 19.9224 9.51067 19.9398 9.59932 19.9398H10.3493C10.5283 19.9398 10.7 19.8687 10.8266 19.7421C10.9532 19.6156 11.0243 19.4439 11.0243 19.2648C11.0243 19.0858 10.9532 18.9141 10.8266 18.7875C10.7 18.661 10.5283 18.5898 10.3493 18.5898H9.59932C9.51067 18.5898 9.4229 18.6073 9.34101 18.6412C9.25911 18.6751 9.1847 18.7249 9.12202 18.7875C9.05934 18.8502 9.00962 18.9246 8.9757 19.0065C8.94178 19.0884 8.92432 19.1762 8.92432 19.2648Z" fill="#2B2B2B"/>
<path d="M16.3155 11.3419C15.732 11.2092 15.6225 11.0839 15.6143 11.0839C15.6263 10.9137 15.9908 10.7832 16.5368 10.7472C16.5733 10.9094 16.6684 11.0524 16.8038 11.1488C16.9393 11.2452 17.1055 11.2882 17.2707 11.2696C17.4359 11.251 17.5885 11.1721 17.6991 11.0481C17.8097 10.924 17.8707 10.7634 17.8703 10.5972C17.8703 10.2709 17.7353 9.95442 17.5005 9.72792C17.3194 9.55041 17.0858 9.43601 16.8345 9.40168C16.8306 9.22345 16.7561 9.05406 16.6273 8.93078C16.4986 8.8075 16.3261 8.74042 16.1479 8.7443C15.9697 8.74818 15.8003 8.8227 15.677 8.95147C15.5537 9.08023 15.4866 9.2527 15.4905 9.43092V9.57567C14.5193 9.89592 14.2973 10.5574 14.2673 10.9917C14.2118 11.8204 14.7998 12.3807 16.0155 12.6574C16.578 12.7857 16.7085 12.9222 16.7205 12.9222C16.7115 13.0782 16.3155 13.2169 15.792 13.2522C15.7555 13.09 15.6604 12.947 15.5249 12.8506C15.3895 12.7542 15.2233 12.7111 15.0581 12.7297C14.8929 12.7483 14.7403 12.8272 14.6297 12.9513C14.5191 13.0754 14.4581 13.2359 14.4585 13.4022C14.4577 13.6924 14.5624 13.973 14.7531 14.1919C14.9437 14.4107 15.2074 14.5528 15.495 14.5917C15.4983 14.7701 15.5723 14.9399 15.7008 15.0638C15.8293 15.1876 16.0017 15.2553 16.1801 15.2521C16.3586 15.2488 16.5284 15.1747 16.6522 15.0463C16.7761 14.9178 16.8438 14.7453 16.8405 14.5669V14.4244C17.9003 14.0749 18.0608 13.3227 18.0705 12.9552C18.0855 12.4054 17.7938 11.6779 16.3155 11.3419Z" fill="#2B2B2B"/>
<path d="M16.1684 6.2832C13.0169 6.2832 10.4519 8.84745 10.4519 11.9997C10.4519 15.152 13.0162 17.7162 16.1684 17.7162C19.3207 17.7162 21.8857 15.152 21.8857 11.9997C21.8857 8.84745 19.3207 6.2832 16.1684 6.2832ZM16.1684 16.3662C13.7609 16.3662 11.8019 14.4072 11.8019 11.9997C11.8019 9.5922 13.7609 7.6332 16.1684 7.6332C18.5767 7.6332 20.5349 9.5922 20.5349 11.9997C20.5349 14.4072 18.5767 16.3662 16.1684 16.3662Z" fill="#2B2B2B"/>
</svg>
