<svg width="111" height="110" viewBox="0 0 111 110" fill="none" xmlns="http://www.w3.org/2000/svg">
<g clip-path="url(#clip0_265_80)">
<path d="M107.044 0.140625H3.85217C1.75056 0.140625 0 1.88286 0 3.9743V30.4614C0 32.5522 1.75066 34.295 3.85217 34.295H18.9102V26.6276H7.70434V7.80796H103.191V26.6276H91.9848V34.295H107.043C109.143 34.295 110.895 32.5528 110.895 30.4614L110.896 3.9743C110.896 1.88279 109.145 0.140625 107.044 0.140625Z" fill="white"/>
<path d="M80.1953 16.057H30.7007C28.1327 16.057 25.9146 18.1476 25.9146 20.8201V105.161C25.9146 107.717 28.0153 109.924 30.7007 109.924H80.312C82.8801 109.924 85.0982 107.833 85.0982 105.161L85.0974 20.704C84.9809 18.1482 82.8802 16.0566 80.1946 16.0566L80.1953 16.057ZM78.4446 93.311C73.3083 94.1246 69.2232 98.1902 68.4057 103.302H42.4911C41.6736 98.1901 37.5883 94.1246 32.4521 93.311V32.5532C37.5885 31.7397 41.6736 27.674 42.4911 22.5625H68.4057C69.2232 27.6743 73.3084 31.7397 78.4446 32.5532V93.311Z" fill="white"/>
<path d="M55.4479 43.4727C44.7085 43.4727 35.9536 52.1855 35.9536 62.8733C35.9536 73.5612 44.7085 82.274 55.4479 82.274C66.1872 82.274 74.9421 73.5612 74.9421 62.8733C74.9421 52.1855 66.1872 43.4727 55.4479 43.4727ZM69.4556 61.5961V64.2678C69.4556 64.5004 69.2219 64.7322 68.8717 64.7322H66.187C66.0706 67.404 63.9689 69.6114 61.2843 69.8439C60.9342 69.8439 60.7005 69.6113 60.7005 69.2629V66.5912C60.7005 66.3586 60.817 66.1267 61.0506 66.1267C61.8682 65.8943 62.4512 65.1973 62.4512 64.3846V62.0613C62.4512 60.6675 61.4008 59.3895 60.1168 59.273C58.4826 59.1571 57.1984 60.3184 57.1984 61.9447V63.9196C57.1984 67.6375 54.0465 70.5417 50.194 70.1924C47.2758 69.9598 45.0576 67.5206 44.5911 64.7324H41.9065C41.6728 64.7324 41.3226 64.4998 41.3226 64.2679V61.5962C41.3226 61.3638 41.5563 61.0152 41.9065 61.0152H44.5911C44.7076 58.3435 46.8093 56.136 49.4939 55.9034C49.8439 55.9034 50.0777 56.136 50.0777 56.4846V59.1563C50.0777 59.3889 49.9612 59.6206 49.7276 59.6206C48.91 59.8532 48.327 60.55 48.327 61.3628V63.686C48.327 65.0798 49.2609 66.3578 50.6614 66.4743C52.2956 66.5902 53.5798 65.4291 53.5798 63.8026V62.0603C53.5798 58.8076 56.0316 55.7875 59.2999 55.5551C62.802 55.2066 65.7204 57.7625 66.1869 61.0151H68.8715C69.2216 61.131 69.4553 61.3634 69.4553 61.5961H69.4556Z" fill="white"/>
<path d="M60.1171 32.4375C60.1171 35.0039 58.027 37.0848 55.4482 37.0848C52.8695 37.0848 50.7793 35.0039 50.7793 32.4375C50.7793 29.8712 52.8695 27.791 55.4482 27.791C58.027 27.791 60.1171 29.8712 60.1171 32.4375Z" fill="white"/>
<path d="M60.1171 93.5439C60.1171 96.1101 58.027 98.1903 55.4482 98.1903C52.8695 98.1903 50.7793 96.1101 50.7793 93.5439C50.7793 90.9767 52.8695 88.8965 55.4482 88.8965C58.027 88.8965 60.1171 90.9767 60.1171 93.5439Z" fill="white"/>
</g>
<defs>
<clipPath id="clip0_265_80">
<rect width="111" height="110" fill="white"/>
</clipPath>
</defs>
</svg>
