<svg width="678" height="500" viewBox="0 0 678 500" fill="none" xmlns="http://www.w3.org/2000/svg">
<path d="M636.752 182.554C642.079 180.972 657.96 191.938 639.416 204.587C620.872 217.235 582.546 227.009 582.546 227.009C582.546 227.009 566.855 229.416 548.333 220.49C529.8 211.563 522.088 199.137 522.088 199.137C522.088 199.137 516.071 199.561 509.139 194.144C502.207 188.728 503.455 182.688 503.455 182.688L517.441 189.843C517.441 189.843 515.993 182.51 518.857 183.468C521.721 184.427 524.685 192.919 524.685 192.919C524.685 192.919 565.406 209.212 574.433 209.412C583.46 209.602 631.425 184.137 636.752 182.554ZM564.303 453.472C565.796 452.347 578.891 448.981 583.092 445.059C587.127 441.292 587.294 435.43 587.294 435.43L586.068 341.416L590.18 308.14L642.904 316.364C642.904 316.364 639.159 340.67 639.159 342.542C639.906 341.416 649.379 355.091 653.424 367.227C658.105 381.28 660.367 411.314 666.229 422.447L673.395 435.307L656.912 447.466C656.912 447.466 641.422 452.748 642.425 451.177C643.428 449.594 654.461 441.804 657.001 436.633C658.495 433.58 658.35 430.326 658.004 428.264L623.379 349.05L618.598 316.743H609.995L603.052 343.846C603.052 343.846 605.169 366.77 605.548 380.232C605.927 393.694 596.644 434.315 596.644 434.315L598.884 449.65L579.158 455.166C579.158 455.155 562.799 454.598 564.303 453.472Z" fill="#F8C1AC"/>
<path d="M677.217 442.451C677.217 442.451 675.412 435.341 674.052 432.555C672.693 429.769 669.55 427.328 669.55 427.328C669.55 427.328 663.454 430.516 663.164 434.26C662.808 438.907 657.091 441.872 650.092 444.535C643.606 446.998 639.694 451.902 640.029 453.584C640.363 455.256 665.895 445.861 665.895 445.861L670.754 437.492L673.038 443.521L677.217 442.451ZM599.92 457.685C599.92 457.685 600.756 450.397 600.478 447.31C600.199 444.223 598.126 440.824 598.126 440.824C598.126 440.824 591.295 441.638 589.701 445.037C587.717 449.249 581.321 449.996 573.832 449.996C566.889 449.996 561.495 453.194 561.216 454.877C560.938 456.56 588.141 456.838 588.141 456.838L595.652 450.743V457.184L599.92 457.685Z" fill="#221F1F"/>
<path d="M638.48 142.558L643.339 159.007L628.383 161.993L628.004 148.91L638.48 142.558Z" fill="#F8C1AC"/>
<path d="M605.938 177.707C610.184 172.469 628.75 159.386 628.75 159.386L643.338 159.007C643.338 159.007 655.307 170.976 655.307 186.299C655.307 201.634 638.101 224.446 635.493 233.039C632.874 241.642 633.62 247.994 633.62 247.994C633.62 247.994 647.83 282.018 647.462 299.971C647.083 317.925 645.545 318.226 645.545 318.226C645.545 318.226 602.171 322.717 584.597 314.114C586.837 313.735 592.13 256.966 595.117 247.248C598.104 237.53 598.104 211.72 598.104 205.735C598.104 199.751 593.234 193.41 605.938 177.707Z" fill="#AA6200"/>
<path d="M628.216 151.451C628.216 154.148 628.962 157.435 631.024 157.435C633.086 157.435 637.621 148.754 637.621 146.057C637.621 143.36 634 146.569 631.938 146.569C629.876 146.569 628.216 148.754 628.216 151.451Z" fill="#D9A896"/>
<path d="M646.057 118.675C646.057 118.675 652.956 111.509 658.94 118.273C664.925 125.049 657.67 137.999 657.848 140.451C658.038 142.902 663.131 143.749 661.749 146.747C660.378 149.745 657.068 150.09 657.302 151.595C657.536 153.099 660.534 155.651 659.13 157.122C657.726 158.593 654.873 156.855 654.984 159.53C655.096 162.204 656.477 165.759 653.58 165.871C653.58 165.871 655.954 162.984 653.992 161.903C652.042 160.811 650.437 161.836 649.702 158.627C648.955 155.429 653.156 154.381 651.396 152.553C649.635 150.726 645.556 150.525 647.618 147.884C649.679 145.243 650.482 142.78 647.016 140.306C643.561 137.843 646.057 118.675 646.057 118.675ZM617.963 113.66C610.619 113.091 609.27 131.078 617.617 141.086C625.975 151.082 629.943 114.596 617.963 113.66Z" fill="#2B2419"/>
<path d="M643.115 113.125C643.115 113.125 621.585 103.853 616.336 120.892C611.087 137.932 614.207 156.32 624.56 155.607C639.137 154.604 659.676 123.656 643.115 113.125Z" fill="#F8C1AC"/>
<path d="M633.955 121.572C633.955 121.572 638.625 128.961 637.922 138.222C637.922 138.222 641.845 133.363 643.561 137.832C645.278 142.301 637.254 148.33 637.254 148.33C637.254 148.33 649.624 149.712 651.953 131.847C652.934 124.325 644.486 117.003 633.955 121.572Z" fill="#2B2419"/>
<path d="M628.65 116.313C628.65 116.313 624.393 135.604 637.922 138.223C637.922 138.223 643.238 129.218 649.345 135.994C649.345 135.994 657.235 115.232 641.221 111.075C641.221 111.075 638.468 102.84 625.753 104.801C608 107.531 601.96 131.046 610.608 154.984C610.619 154.995 604.066 112.346 628.65 116.313Z" fill="#2B2419"/>
<path d="M221.326 139.348C209.814 165.627 179.189 177.607 152.9 166.095C126.622 154.583 114.641 123.958 126.153 97.6688C137.666 71.3905 168.29 59.4104 194.58 70.9224C220.858 82.4345 232.827 113.059 221.326 139.348Z" fill="#FFC466"/>
<path d="M212.823 135.626C203.373 157.213 178.209 167.053 156.622 157.592C154.371 156.6 152.243 155.452 150.259 154.137C146.893 151.93 143.918 149.289 141.377 146.325C140.419 145.199 139.516 144.029 138.669 142.825C132.528 133.955 129.865 122.922 131.548 112C132.094 108.423 133.119 104.857 134.646 101.38C141.7 85.2763 157.48 75.7144 174.007 75.8147C179.635 75.8482 185.364 77.0072 190.847 79.4032C195.594 81.4872 199.784 84.329 203.306 87.728C204.376 88.7533 205.379 89.8231 206.326 90.9487C208.9 93.9911 211.007 97.3678 212.622 100.967C217.426 111.599 217.86 124.114 212.823 135.626Z" fill="#FBAE25"/>
<path d="M556.143 200.357C582.567 189.188 594.934 158.713 583.764 132.289C572.595 105.864 542.12 93.4977 515.696 104.667C489.272 115.836 476.905 146.311 488.074 172.735C499.243 199.159 529.719 211.526 556.143 200.357Z" fill="#FFC466"/>
<path d="M575.024 169.605C565.573 191.192 540.41 201.032 518.823 191.571C516.572 190.579 514.443 189.431 512.46 188.116C509.094 185.909 506.119 183.268 503.578 180.304C502.619 179.178 501.716 178.008 500.881 176.804C494.74 167.933 492.077 156.901 493.759 145.979C494.306 142.402 495.331 138.836 496.858 135.37C503.901 119.266 519.692 109.704 536.219 109.805C541.847 109.838 547.575 110.997 553.058 113.393C557.806 115.477 561.996 118.319 565.518 121.718C566.587 122.743 567.591 123.813 568.538 124.939C571.112 127.981 573.218 131.358 574.834 134.957C579.615 145.578 580.061 158.093 575.024 169.605Z" fill="#FBAE25"/>
<path d="M531.338 196.619C526.725 195.66 525.822 196.039 523.314 199.962C524.295 195.404 523.927 194.512 519.971 191.938C524.585 192.896 525.488 192.529 527.995 188.595C527.037 193.208 527.415 194.1 531.338 196.619Z" fill="white"/>
<path d="M438.829 38.0355L409.353 116.659L316.688 363.895L307.093 389.494L279.399 379.241L125.775 322.371L196.864 133.264L233.061 36.988L233.473 35.8512L336.057 0L438.829 38.0355Z" fill="#2369AB"/>
<path d="M302.089 22.1321L371.641 47.8754C365.4 64.7256 374.003 83.4481 390.864 89.7L304.329 319.05C287.468 312.809 268.745 321.412 262.504 338.274L192.953 312.519C199.194 295.658 190.59 276.936 173.729 270.695L260.264 41.3449C277.126 47.5968 295.848 38.9934 302.089 22.1321Z" fill="#9CCFFF"/>
<path d="M302.791 119.789C330.774 130.153 345.061 161.235 334.708 189.218C324.344 217.201 293.263 231.488 265.279 221.135C237.296 210.771 223.009 179.69 233.362 151.706C243.726 123.712 274.808 109.425 302.791 119.789Z" fill="white"/>
<path d="M336.056 0L295.235 73.8422L233.061 36.988L232.013 36.3639L233.473 35.8512L336.056 0Z" fill="#2369AB"/>
<path d="M490.99 94.3925L73.5186 266.266L147.124 445.049L564.595 273.176L490.99 94.3925Z" fill="#2369AB"/>
<path d="M483.574 161.881L511.813 230.463C495.197 237.306 487.263 256.329 494.105 272.945L197.031 395.265C190.189 378.638 171.165 370.714 154.538 377.557L126.31 308.975C142.926 302.132 150.86 283.109 144.018 266.493L441.092 144.184C447.923 160.8 466.946 168.724 483.574 161.881Z" fill="#9CCFFF"/>
<path d="M366.246 246.244C377.603 273.837 364.452 305.409 336.859 316.776C309.266 328.132 277.694 314.982 266.327 287.389C254.971 259.795 268.121 228.223 295.714 216.856C323.307 205.489 354.879 218.65 366.246 246.244Z" fill="white"/>
<path d="M250.624 216.689V407.134H57.2817V216.689H193.342C193.476 178.609 206.248 147.84 221.983 147.84C237.719 147.84 250.479 178.609 250.624 216.689Z" fill="#2369AB"/>
<path d="M221.961 148.108H85.9337V362.179H221.961V148.108Z" fill="#9CCFFF"/>
<path d="M202.17 269.146C203.119 242.513 182.297 220.153 155.664 219.204C129.03 218.255 106.671 239.077 105.722 265.711C104.773 292.344 125.595 314.704 152.228 315.653C178.862 316.601 201.222 295.78 202.17 269.146Z" fill="white"/>
<path d="M221.972 147.84C206.237 147.84 193.476 178.61 193.331 216.69H0V216.679C0.133732 178.599 12.9051 147.829 28.6409 147.829H221.972V147.84Z" fill="#2369AB"/>
<path d="M187.091 147.84C180.137 147.84 174.018 154.147 170.486 163.687C159.82 163.954 151.262 172.145 151.262 182.22V182.264H53.5149V182.22C53.5149 172.97 46.2934 165.303 36.8542 163.91C40.3646 154.248 46.5274 147.851 53.5372 147.851H187.091V147.84Z" fill="#9CCFFF"/>
<path d="M467.043 332.747C498.858 325.459 518.742 293.76 511.454 261.945C504.166 230.13 472.467 210.247 440.652 217.535C408.837 224.823 388.954 256.522 396.241 288.337C403.529 320.152 435.228 340.035 467.043 332.747Z" fill="#FFC466"/>
<path d="M498.307 294.622C487.552 319.184 458.923 330.373 434.361 319.619C431.797 318.493 429.379 317.178 427.117 315.685C423.283 313.166 419.906 310.169 417.009 306.803C415.917 305.521 414.892 304.195 413.933 302.825C406.957 292.739 403.914 280.179 405.842 267.753C406.466 263.686 407.637 259.629 409.364 255.673C417.388 237.363 435.341 226.475 454.142 226.586C460.55 226.62 467.058 227.946 473.299 230.676C478.704 233.039 483.462 236.271 487.474 240.138C488.689 241.308 489.837 242.523 490.918 243.804C493.838 247.27 496.245 251.104 498.084 255.194C503.544 267.285 504.046 281.539 498.307 294.622Z" fill="#FBAE25"/>
<path d="M508.782 499.877H28.4068C18.5218 499.877 10.4979 491.865 10.4979 481.968V315.985C10.4979 306.1 18.5107 298.076 28.4068 298.076H508.782C518.667 298.076 526.691 306.089 526.691 315.985V481.968C526.68 491.853 518.667 499.877 508.782 499.877Z" fill="#9CCFFF"/>
<path d="M280.558 298.076H256.609V500H280.558V298.076Z" fill="#2369AB"/>
<path d="M496.691 488.934H483.607C482.526 488.934 481.657 488.065 481.657 486.984C481.657 485.903 482.526 485.034 483.607 485.034H496.691C497.772 485.034 498.641 485.903 498.641 486.984C498.641 488.065 497.761 488.934 496.691 488.934ZM470.591 488.934H457.574C456.493 488.934 455.624 488.065 455.624 486.984C455.624 485.903 456.493 485.034 457.574 485.034H470.591C471.672 485.034 472.541 485.903 472.541 486.984C472.541 488.065 471.672 488.934 470.591 488.934ZM444.569 488.934H431.552C430.471 488.934 429.602 488.065 429.602 486.984C429.602 485.903 430.471 485.034 431.552 485.034H444.569C445.65 485.034 446.519 485.903 446.519 486.984C446.519 488.065 445.65 488.934 444.569 488.934ZM418.547 488.934H405.53C404.449 488.934 403.58 488.065 403.58 486.984C403.58 485.903 404.449 485.034 405.53 485.034H418.547C419.628 485.034 420.497 485.903 420.497 486.984C420.497 488.065 419.617 488.934 418.547 488.934ZM392.514 488.934H379.508C378.427 488.934 377.558 488.065 377.558 486.984C377.558 485.903 378.427 485.034 379.508 485.034H392.525C393.606 485.034 394.475 485.903 394.475 486.984C394.475 488.065 393.595 488.934 392.514 488.934ZM366.492 488.934H353.475C352.394 488.934 351.525 488.065 351.525 486.984C351.525 485.903 352.394 485.034 353.475 485.034H366.492C367.573 485.034 368.442 485.903 368.442 486.984C368.442 488.065 367.573 488.934 366.492 488.934ZM340.47 488.934H327.453C326.372 488.934 325.503 488.065 325.503 486.984C325.503 485.903 326.372 485.034 327.453 485.034H340.47C341.551 485.034 342.42 485.903 342.42 486.984C342.42 488.065 341.551 488.934 340.47 488.934ZM314.448 488.934H301.431C300.35 488.934 299.481 488.065 299.481 486.984C299.481 485.903 300.35 485.034 301.431 485.034H314.448C315.529 485.034 316.398 485.903 316.398 486.984C316.398 488.065 315.518 488.934 314.448 488.934ZM288.415 488.934H275.398C274.317 488.934 273.448 488.065 273.448 486.984C273.448 485.903 274.317 485.034 275.398 485.034H288.415C289.496 485.034 290.365 485.903 290.365 486.984C290.365 488.065 289.496 488.934 288.415 488.934ZM262.393 488.934H249.376C248.295 488.934 247.426 488.065 247.426 486.984C247.426 485.903 248.295 485.034 249.376 485.034H262.393C263.474 485.034 264.343 485.903 264.343 486.984C264.343 488.065 263.474 488.934 262.393 488.934ZM236.371 488.934H223.354C222.273 488.934 221.404 488.065 221.404 486.984C221.404 485.903 222.273 485.034 223.354 485.034H236.371C237.452 485.034 238.321 485.903 238.321 486.984C238.321 488.065 237.441 488.934 236.371 488.934ZM210.338 488.934H197.321C196.24 488.934 195.371 488.065 195.371 486.984C195.371 485.903 196.24 485.034 197.321 485.034H210.338C211.419 485.034 212.288 485.903 212.288 486.984C212.288 488.065 211.419 488.934 210.338 488.934ZM184.316 488.934H171.299C170.218 488.934 169.349 488.065 169.349 486.984C169.349 485.903 170.218 485.034 171.299 485.034H184.316C185.397 485.034 186.266 485.903 186.266 486.984C186.266 488.065 185.397 488.934 184.316 488.934ZM158.294 488.934H145.277C144.196 488.934 143.327 488.065 143.327 486.984C143.327 485.903 144.196 485.034 145.277 485.034H158.294C159.375 485.034 160.244 485.903 160.244 486.984C160.244 488.065 159.375 488.934 158.294 488.934ZM132.272 488.934H119.255C118.174 488.934 117.305 488.065 117.305 486.984C117.305 485.903 118.174 485.034 119.255 485.034H132.272C133.353 485.034 134.222 485.903 134.222 486.984C134.222 488.065 133.342 488.934 132.272 488.934ZM106.239 488.934H93.2223C92.1413 488.934 91.272 488.065 91.272 486.984C91.272 485.903 92.1413 485.034 93.2223 485.034H106.239C107.32 485.034 108.189 485.903 108.189 486.984C108.189 488.065 107.32 488.934 106.239 488.934ZM80.2169 488.934H67.2003C66.1193 488.934 65.2501 488.065 65.2501 486.984C65.2501 485.903 66.1193 485.034 67.2003 485.034H80.2169C81.2979 485.034 82.1671 485.903 82.1671 486.984C82.1671 488.065 81.2979 488.934 80.2169 488.934ZM54.1949 488.934H41.1784C40.0974 488.934 39.2281 488.065 39.2281 486.984C39.2281 485.903 40.0974 485.034 41.1784 485.034H54.1949C55.2759 485.034 56.1452 485.903 56.1452 486.984C56.1452 488.065 55.2759 488.934 54.1949 488.934ZM29.332 484.443C28.8528 484.443 28.3624 484.265 27.9835 483.908C24.3951 480.487 22.3891 475.862 22.3334 470.903C22.3222 469.822 23.1915 468.941 24.2613 468.93C24.2725 468.93 24.2725 468.93 24.2836 468.93C25.3535 468.93 26.2227 469.788 26.2339 470.858C26.2673 474.759 27.8498 478.392 30.6693 481.077C31.4494 481.824 31.4828 483.061 30.7362 483.841C30.3684 484.242 29.8558 484.443 29.332 484.443ZM508.325 483.953C507.835 483.953 507.345 483.774 506.966 483.407C506.186 482.66 506.163 481.423 506.921 480.643C509.507 477.957 510.933 474.435 510.933 470.702V470.178C510.933 469.097 511.802 468.228 512.883 468.228C513.964 468.228 514.834 469.097 514.834 470.178V470.702C514.834 475.45 513.017 479.941 509.73 483.351C509.351 483.752 508.838 483.953 508.325 483.953ZM24.2948 459.814C23.2138 459.814 22.3445 458.945 22.3445 457.864V444.847C22.3445 443.766 23.2138 442.897 24.2948 442.897C25.3758 442.897 26.245 443.766 26.245 444.847V457.864C26.245 458.934 25.3758 459.814 24.2948 459.814ZM512.883 459.123C511.802 459.123 510.933 458.254 510.933 457.173V444.156C510.933 443.075 511.802 442.206 512.883 442.206C513.964 442.206 514.834 443.075 514.834 444.156V457.173C514.834 458.254 513.964 459.123 512.883 459.123ZM24.2948 433.792C23.2138 433.792 22.3445 432.923 22.3445 431.842V418.825C22.3445 417.744 23.2138 416.875 24.2948 416.875C25.3758 416.875 26.245 417.744 26.245 418.825V431.842C26.245 432.912 25.3758 433.792 24.2948 433.792ZM512.883 433.101C511.802 433.101 510.933 432.232 510.933 431.151V418.134C510.933 417.053 511.802 416.184 512.883 416.184C513.964 416.184 514.834 417.053 514.834 418.134V431.151C514.834 432.232 513.964 433.101 512.883 433.101ZM24.2948 407.759C23.2138 407.759 22.3445 406.89 22.3445 405.809V392.792C22.3445 391.711 23.2138 390.842 24.2948 390.842C25.3758 390.842 26.245 391.711 26.245 392.792V405.809C26.245 406.89 25.3758 407.759 24.2948 407.759ZM512.883 407.079C511.802 407.079 510.933 406.21 510.933 405.129V392.112C510.933 391.031 511.802 390.162 512.883 390.162C513.964 390.162 514.834 391.031 514.834 392.112V405.129C514.834 406.199 513.964 407.079 512.883 407.079ZM24.2948 381.737C23.2138 381.737 22.3445 380.868 22.3445 379.787V366.77C22.3445 365.689 23.2138 364.82 24.2948 364.82C25.3758 364.82 26.245 365.689 26.245 366.77V379.787C26.245 380.868 25.3758 381.737 24.2948 381.737ZM512.883 381.046C511.802 381.046 510.933 380.177 510.933 379.096V366.079C510.933 364.998 511.802 364.129 512.883 364.129C513.964 364.129 514.834 364.998 514.834 366.079V379.096C514.834 380.177 513.964 381.046 512.883 381.046ZM24.2948 355.715C23.2138 355.715 22.3445 354.846 22.3445 353.765V340.748C22.3445 339.667 23.2138 338.798 24.2948 338.798C25.3758 338.798 26.245 339.667 26.245 340.748V353.765C26.245 354.835 25.3758 355.715 24.2948 355.715ZM512.883 355.024C511.802 355.024 510.933 354.155 510.933 353.074V340.057C510.933 338.976 511.802 338.107 512.883 338.107C513.964 338.107 514.834 338.976 514.834 340.057V353.074C514.834 354.155 513.964 355.024 512.883 355.024ZM24.2948 329.682C23.2138 329.682 22.3445 328.813 22.3445 327.732V327.241C22.3445 322.483 24.1722 317.981 27.4709 314.57C28.2176 313.801 29.4546 313.779 30.2347 314.526C31.0036 315.272 31.0259 316.509 30.2793 317.29C27.6826 319.975 26.245 323.508 26.245 327.253V327.743C26.245 328.813 25.3758 329.682 24.2948 329.682ZM512.883 329.002C511.814 329.002 510.944 328.144 510.933 327.074C510.889 323.174 509.306 319.552 506.475 316.866C505.695 316.119 505.662 314.894 506.409 314.102C507.155 313.322 508.381 313.289 509.172 314.035C512.772 317.457 514.789 322.07 514.845 327.03C514.856 328.111 513.998 328.991 512.917 329.002C512.906 329.002 512.895 329.002 512.883 329.002ZM495.966 312.921H482.95C481.869 312.921 481 312.052 481 310.971C481 309.89 481.869 309.021 482.95 309.021H495.966C497.047 309.021 497.917 309.89 497.917 310.971C497.917 312.052 497.047 312.921 495.966 312.921ZM469.944 312.921H456.928C455.847 312.921 454.978 312.052 454.978 310.971C454.978 309.89 455.847 309.021 456.928 309.021H469.944C471.025 309.021 471.895 309.89 471.895 310.971C471.895 312.052 471.014 312.921 469.944 312.921ZM443.911 312.921H430.895C429.814 312.921 428.945 312.052 428.945 310.971C428.945 309.89 429.814 309.021 430.895 309.021H443.911C444.992 309.021 445.862 309.89 445.862 310.971C445.873 312.052 444.992 312.921 443.911 312.921ZM417.889 312.921H404.873C403.792 312.921 402.923 312.052 402.923 310.971C402.923 309.89 403.792 309.021 404.873 309.021H417.889C418.97 309.021 419.84 309.89 419.84 310.971C419.84 312.052 418.97 312.921 417.889 312.921ZM391.867 312.921H378.851C377.77 312.921 376.901 312.052 376.901 310.971C376.901 309.89 377.77 309.021 378.851 309.021H391.867C392.948 309.021 393.818 309.89 393.818 310.971C393.818 312.052 392.948 312.921 391.867 312.921ZM365.845 312.921H352.829C351.748 312.921 350.879 312.052 350.879 310.971C350.879 309.89 351.748 309.021 352.829 309.021H365.845C366.926 309.021 367.796 309.89 367.796 310.971C367.796 312.052 366.915 312.921 365.845 312.921ZM339.812 312.921H326.796C325.715 312.921 324.846 312.052 324.846 310.971C324.846 309.89 325.715 309.021 326.796 309.021H339.812C340.893 309.021 341.763 309.89 341.763 310.971C341.763 312.052 340.893 312.921 339.812 312.921ZM313.79 312.921H300.774C299.693 312.921 298.824 312.052 298.824 310.971C298.824 309.89 299.693 309.021 300.774 309.021H313.79C314.871 309.021 315.741 309.89 315.741 310.971C315.741 312.052 314.871 312.921 313.79 312.921ZM287.768 312.921H274.752C273.671 312.921 272.802 312.052 272.802 310.971C272.802 309.89 273.671 309.021 274.752 309.021H287.768C288.849 309.021 289.719 309.89 289.719 310.971C289.719 312.052 288.849 312.921 287.768 312.921ZM261.746 312.921H248.73C247.649 312.921 246.78 312.052 246.78 310.971C246.78 309.89 247.649 309.021 248.73 309.021H261.746C262.827 309.021 263.697 309.89 263.697 310.971C263.697 312.052 262.816 312.921 261.746 312.921ZM235.713 312.921H222.708C221.627 312.921 220.758 312.052 220.758 310.971C220.758 309.89 221.627 309.021 222.708 309.021H235.725C236.806 309.021 237.675 309.89 237.675 310.971C237.664 312.052 236.794 312.921 235.713 312.921ZM209.691 312.921H196.675C195.594 312.921 194.725 312.052 194.725 310.971C194.725 309.89 195.594 309.021 196.675 309.021H209.691C210.772 309.021 211.642 309.89 211.642 310.971C211.642 312.052 210.772 312.921 209.691 312.921ZM183.669 312.921H170.653C169.572 312.921 168.703 312.052 168.703 310.971C168.703 309.89 169.572 309.021 170.653 309.021H183.669C184.75 309.021 185.62 309.89 185.62 310.971C185.62 312.052 184.739 312.921 183.669 312.921ZM157.636 312.921H144.62C143.539 312.921 142.67 312.052 142.67 310.971C142.67 309.89 143.539 309.021 144.62 309.021H157.636C158.717 309.021 159.587 309.89 159.587 310.971C159.598 312.052 158.717 312.921 157.636 312.921ZM131.614 312.921H118.598C117.517 312.921 116.648 312.052 116.648 310.971C116.648 309.89 117.517 309.021 118.598 309.021H131.614C132.695 309.021 133.565 309.89 133.565 310.971C133.565 312.052 132.695 312.921 131.614 312.921ZM105.592 312.921H92.5759C91.4949 312.921 90.6257 312.052 90.6257 310.971C90.6257 309.89 91.4949 309.021 92.5759 309.021H105.592C106.673 309.021 107.543 309.89 107.543 310.971C107.543 312.052 106.673 312.921 105.592 312.921ZM79.5705 312.921H66.554C65.473 312.921 64.6037 312.052 64.6037 310.971C64.6037 309.89 65.473 309.021 66.554 309.021H79.5705C80.6515 309.021 81.5208 309.89 81.5208 310.971C81.5208 312.052 80.6404 312.921 79.5705 312.921ZM53.5374 312.921H40.5543C39.4733 312.921 38.5818 312.052 38.5818 310.971C38.5818 309.89 39.4399 309.021 40.5209 309.021H53.5374C54.6184 309.021 55.4877 309.89 55.4877 310.971C55.4877 312.052 54.6184 312.921 53.5374 312.921Z" fill="#2369AB"/>
<path d="M476.497 450.263H310.012C304.05 450.263 299.213 445.426 299.213 439.464V355.792C299.213 349.83 304.05 344.994 310.012 344.994H476.497C482.459 344.994 487.296 349.83 487.296 355.792V439.464C487.307 445.426 482.47 450.263 476.497 450.263Z" fill="#F3A337"/>
<path d="M470.078 370.692H389.382C387.722 370.692 386.373 369.344 386.373 367.684V363.549C386.373 361.889 387.722 360.54 389.382 360.54H470.078C471.739 360.54 473.087 361.889 473.087 363.549V367.684C473.087 369.344 471.739 370.692 470.078 370.692ZM428.621 412.127H389.382C387.722 412.127 386.373 410.779 386.373 409.118V404.984C386.373 403.323 387.722 401.975 389.382 401.975H428.621C430.282 401.975 431.63 403.323 431.63 404.984V409.118C431.63 410.779 430.282 412.127 428.621 412.127ZM470.078 432.844H389.382C387.722 432.844 386.373 431.496 386.373 429.835V425.701C386.373 424.04 387.722 422.692 389.382 422.692H470.067C471.727 422.692 473.076 424.04 473.076 425.701V429.835C473.087 431.507 471.739 432.844 470.078 432.844ZM450.832 391.41H389.382C387.722 391.41 386.373 390.061 386.373 388.401V384.266C386.373 382.606 387.722 381.257 389.382 381.257H450.832C452.492 381.257 453.841 382.606 453.841 384.266V388.401C453.841 390.061 452.492 391.41 450.832 391.41Z" fill="white"/>
<path d="M377.068 360.54H314.258V432.855H377.068V360.54Z" fill="white"/>
<path d="M377.068 421.689V432.845H314.258V421.689C319.139 415.415 331.365 410.957 345.663 410.957C359.972 410.968 372.186 415.415 377.068 421.689Z" fill="#AA6200"/>
<path d="M361.933 391.387C362.233 382.406 355.195 374.883 346.214 374.584C337.233 374.285 329.709 381.323 329.41 390.304C329.111 399.285 336.149 406.808 345.13 407.107C354.111 407.407 361.634 400.369 361.933 391.387Z" fill="#201D40"/>
<path d="M360.162 393.75C360.162 394.018 360.15 394.274 360.139 394.541C359.738 402.521 353.408 408.873 345.663 408.873C337.929 408.873 331.61 402.554 331.186 394.586C331.175 394.307 331.164 394.029 331.164 393.739C331.164 388.323 333.894 383.575 337.996 380.901C340.224 379.452 342.843 378.616 345.663 378.616C346.187 378.616 346.71 378.65 347.223 378.705C354.5 379.519 360.162 385.949 360.162 393.75Z" fill="#F37A50"/>
<path d="M360.162 393.115C360.162 393.371 360.15 393.616 360.139 393.873C359.003 394.073 357.832 394.185 356.64 394.185C350.99 394.185 345.908 391.811 342.32 388C340.403 385.96 338.909 383.52 337.996 380.812C340.224 379.419 342.843 378.616 345.663 378.616C346.187 378.616 346.71 378.65 347.223 378.694C354.5 379.485 360.162 385.648 360.162 393.115Z" fill="#201D40"/>
<path d="M347.223 378.705C346.454 382.26 344.716 385.459 342.319 388C339.422 391.076 335.544 393.215 331.186 393.929C331.175 393.661 331.164 393.394 331.164 393.115C331.164 387.922 333.894 383.364 337.996 380.812C340.224 379.419 342.843 378.616 345.663 378.616C346.198 378.616 346.71 378.65 347.223 378.705Z" fill="#201D40"/>
<path d="M227.444 347.535V357.509H59.0204V347.535C59.0204 341.506 63.9127 336.613 69.9307 336.613H216.534C222.563 336.613 227.444 341.506 227.444 347.535Z" fill="white"/>
<path d="M244.417 353.307H45.9147V357.497H244.417V353.307Z" fill="#2369AB"/>
<path d="M227.444 375.774V382.194H59.0204V375.774C59.0204 369.745 63.9127 364.853 69.9307 364.853H216.534C222.563 364.853 227.444 369.745 227.444 375.774Z" fill="white"/>
<path d="M244.417 381.09H45.9147V385.281H244.417V381.09Z" fill="#2369AB"/>
<path d="M227.444 405.319V414.613H59.0204V405.319C59.0204 399.29 63.9127 394.397 69.9307 394.397H216.534C222.563 394.397 227.444 399.29 227.444 405.319Z" fill="white"/>
<path d="M244.417 410.423H45.9147V414.613H244.417V410.423Z" fill="#2369AB"/>
<path d="M632.116 178.453C636.228 174.709 655.296 177.706 644.085 197.153C632.863 216.6 602.573 242.031 602.573 242.031C602.573 242.031 589.489 251.003 568.917 251.003C548.344 251.003 536.008 243.146 536.008 243.146C536.008 243.146 530.77 246.133 522.166 244.271C513.563 242.399 512.07 236.415 512.07 236.415L527.772 236.794C527.772 236.794 523.281 230.809 526.279 230.441C529.265 230.062 535.629 236.426 535.629 236.426C535.629 236.426 579.381 233.439 587.606 229.695C595.841 225.939 628.004 182.186 632.116 178.453Z" fill="#F8C1AC"/>
</svg>
