<svg width="40" height="40" viewBox="0 0 40 40" fill="none" xmlns="http://www.w3.org/2000/svg">
<path fill-rule="evenodd" clip-rule="evenodd" d="M5.57447 6C4.62646 6 3.71728 6.37659 3.04694 7.04694C2.37659 7.71728 2 8.62646 2 9.57447V16.7234C2 17.6714 2.37659 18.5806 3.04694 19.2509C3.71728 19.9213 4.62646 20.2979 5.57447 20.2979H11.6689L12.2194 17.9149H5.57447C5.25847 17.9149 4.95541 17.7894 4.73196 17.5659C4.50851 17.3425 4.38298 17.0394 4.38298 16.7234V9.57447C4.38298 9.25847 4.50851 8.95541 4.73196 8.73196C4.95541 8.50851 5.25847 8.38298 5.57447 8.38298H34.1702C34.4862 8.38298 34.7893 8.50851 35.0127 8.73196C35.2362 8.95541 35.3617 9.25847 35.3617 9.57447V16.7234C35.3617 17.0394 35.2362 17.3425 35.0127 17.5659C34.7893 17.7894 34.4862 17.9149 34.1702 17.9149H27.5253L28.0752 20.2979H34.1702C35.1182 20.2979 36.0274 19.9213 36.6977 19.2509C37.3681 18.5806 37.7447 17.6714 37.7447 16.7234V9.57447C37.7447 8.62646 37.3681 7.71728 36.6977 7.04694C36.0274 6.37659 35.1182 6 34.1702 6H5.57447Z" fill="#237BAB"/>
<path fill-rule="evenodd" clip-rule="evenodd" d="M7.95728 13.1485C7.95728 12.8325 8.08281 12.5295 8.30625 12.306C8.5297 12.0826 8.83276 11.957 9.14876 11.957H30.5956C30.9116 11.957 31.2146 12.0826 31.4381 12.306C31.6615 12.5295 31.7871 12.8325 31.7871 13.1485C31.7871 13.4645 31.6615 13.7676 31.4381 13.991C31.2146 14.2145 30.9116 14.34 30.5956 14.34H27.9231L30.4871 25.4507C31.0043 27.6907 29.3028 29.8294 27.0044 29.8294H12.7399C10.4415 29.8294 8.74008 27.6907 9.25719 25.4507L11.8213 14.34H9.14876C8.83276 14.34 8.5297 14.2145 8.30625 13.991C8.08281 13.7676 7.95728 13.4645 7.95728 13.1485ZM14.2662 14.34H25.4781L28.1655 25.9868C28.2059 26.1615 28.2063 26.343 28.1667 26.5179C28.1271 26.6927 28.0486 26.8564 27.937 26.9967C27.8254 27.137 27.6836 27.2503 27.5221 27.3281C27.3607 27.406 27.1837 27.4464 27.0044 27.4464H12.7399C12.5606 27.4464 12.3837 27.406 12.2222 27.3281C12.0607 27.2503 11.9189 27.137 11.8073 26.9967C11.6957 26.8564 11.6172 26.6927 11.5776 26.5179C11.5381 26.343 11.5385 26.1615 11.5788 25.9868L14.2662 14.34Z" fill="#F7A434"/>
<path d="M11.5318 31.6172C11.2158 31.6172 10.9128 31.7427 10.6893 31.9662C10.4659 32.1896 10.3403 32.4927 10.3403 32.8087C10.3403 33.1247 10.4659 33.4277 10.6893 33.6512C10.9128 33.8746 11.2158 34.0002 11.5318 34.0002H28.2127C28.5287 34.0002 28.8317 33.8746 29.0552 33.6512C29.2786 33.4277 29.4042 33.1247 29.4042 32.8087C29.4042 32.4927 29.2786 32.1896 29.0552 31.9662C28.8317 31.7427 28.5287 31.6172 28.2127 31.6172H11.5318Z" fill="#F7A434"/>
</svg>
