<?xml version="1.0" encoding="utf-8"?>
<!-- Generator: Adobe Illustrator 16.0.0, SVG Export Plug-In . SVG Version: 6.00 Build 0)  -->
<!DOCTYPE svg PUBLIC "-//W3C//DTD SVG 1.1//EN" "http://www.w3.org/Graphics/SVG/1.1/DTD/svg11.dtd">
<svg version="1.1" id="Layer_1" xmlns="http://www.w3.org/2000/svg" xmlns:xlink="http://www.w3.org/1999/xlink" x="0px" y="0px"
	 width="150px" height="150px" viewBox="0 0 150 150" enable-background="new 0 0 150 150" xml:space="preserve">
<path fill="#f97b7b" d="M48.626,66.226c-7.11,0-14.018,0-20.927,0.001c-3.852,0-5.438-1.567-5.442-5.381
	c-0.003-1.51,0.052-3.023-0.016-4.53c-0.079-1.776,0.597-3.152,1.84-4.394C33.36,42.685,42.61,33.418,51.867,24.16
	c5.795-5.796,11.615-11.566,17.366-17.4c1.414-1.434,2.949-2.253,4.985-2.078c0.772,0.067,1.555,0.026,2.333,0.009
	c1.407-0.027,2.581,0.479,3.57,1.471c15.375,15.378,30.75,30.755,46.13,46.126c0.991,0.99,1.508,2.153,1.494,3.563
	c-0.018,1.922,0.013,3.845-0.01,5.768c-0.03,2.808-1.842,4.598-4.688,4.604c-6.684,0.016-13.368,0.006-20.052,0.008
	c-0.493,0-0.985,0-1.624,0c0,0.604,0,1.092,0,1.58c0,12.408,0,24.814-0.003,37.22c0,3.48-1.656,5.148-5.111,5.15
	c-14.147,0.002-28.293,0.002-42.439,0.002c-3.534,0-5.191-1.668-5.193-5.223c-0.001-12.314,0.001-24.629,0.001-36.944
	C48.626,67.473,48.626,66.932,48.626,66.226z"/>
<path fill="#f97b7b" d="M22.257,127.705c35.206,0,70.252,0,105.484,0c0-0.512,0-0.994,0-1.479c0-3.756-0.01-7.51,0.004-11.264
	c0.011-2.996,1.791-4.768,4.798-4.781c2.606-0.012,5.216-0.01,7.826-0.002c3.186,0.01,4.948,1.748,4.951,4.904
	c0.007,8.424,0.006,16.848,0,25.27c-0.001,3.275-1.717,4.984-5.001,4.984c-30.853,0.004-61.706,0.004-92.558,0.004
	c-12.634,0-25.268,0-37.902-0.002c-3.537,0-5.184-1.658-5.184-5.225c-0.001-8.287-0.003-16.57,0.001-24.857
	c0.001-3.375,1.688-5.068,5.055-5.078c2.609-0.008,5.219-0.016,7.827,0.004c2.883,0.021,4.686,1.846,4.695,4.748
	C22.266,119.139,22.257,123.348,22.257,127.705z"/>
</svg>
