<svg width="40" height="40" viewBox="0 0 40 40" fill="none" xmlns="http://www.w3.org/2000/svg">
<path d="M5 6.25C4.00544 6.25 3.05161 6.64509 2.34835 7.34835C1.64509 8.05161 1.25 9.00544 1.25 10V17.5C1.25 18.4946 1.64509 19.4484 2.34835 20.1517C3.05161 20.8549 4.00544 21.25 5 21.25H8.64563L10.1044 18.75H5C4.66848 18.75 4.35054 18.6183 4.11612 18.3839C3.8817 18.1495 3.75 17.8315 3.75 17.5V10C3.75 9.66848 3.8817 9.35054 4.11612 9.11612C4.35054 8.8817 4.66848 8.75 5 8.75H35C35.3315 8.75 35.6495 8.8817 35.8839 9.11612C36.1183 9.35054 36.25 9.66848 36.25 10V17.5C36.25 17.8315 36.1183 18.1495 35.8839 18.3839C35.6495 18.6183 35.3315 18.75 35 18.75H30.1044L28.6456 21.25H35C35.9946 21.25 36.9484 20.8549 37.6517 20.1517C38.3549 19.4484 38.75 18.4946 38.75 17.5V10C38.75 9.00544 38.3549 8.05161 37.6517 7.34835C36.9484 6.64509 35.9946 6.25 35 6.25H5Z" fill="#237BAB"/>
<path fill-rule="evenodd" clip-rule="evenodd" d="M3.92 26.87C3.80915 27.06 3.75039 27.2758 3.74964 27.4958C3.74889 27.7157 3.80619 27.9319 3.91575 28.1227C4.02531 28.3134 4.18325 28.4718 4.37362 28.5819C4.564 28.6921 4.78006 28.7501 5 28.75H20C20.2185 28.7501 20.4332 28.6929 20.6227 28.5841C20.8122 28.4753 20.9699 28.3187 21.08 28.13L29.83 13.13C29.9409 12.94 29.9996 12.7242 30.0004 12.5042C30.0011 12.2843 29.9438 12.0681 29.8343 11.8773C29.7247 11.6866 29.5668 11.5282 29.3764 11.4181C29.186 11.3079 28.9699 11.2499 28.75 11.25H13.75C13.5315 11.2499 13.3168 11.3071 13.1273 11.4159C12.9378 11.5247 12.7801 11.6813 12.67 11.87L3.92 26.87ZM19.2825 26.25H7.17625L14.4688 13.75H26.5744L19.2825 26.25Z" fill="#F7A434"/>
<path d="M7.5 31.2503C7.16848 31.2503 6.85054 31.382 6.61612 31.6164C6.3817 31.8509 6.25 32.1688 6.25 32.5003C6.25 32.8318 6.3817 33.1498 6.61612 33.3842C6.85054 33.6186 7.16848 33.7503 7.5 33.7503H22.5C22.7185 33.7504 22.9332 33.6932 23.1227 33.5844C23.3122 33.4756 23.4699 33.319 23.58 33.1303L32.33 18.1303C32.4971 17.8439 32.5435 17.5028 32.4592 17.1821C32.3748 16.8614 32.1664 16.5874 31.88 16.4203C31.5936 16.2532 31.2525 16.2068 30.9318 16.2912C30.6111 16.3756 30.3371 16.5839 30.17 16.8703L21.7825 31.2503H7.5Z" fill="#F7A434"/>
</svg>
