<svg width="28" height="28" viewBox="0 0 28 28" fill="none" xmlns="http://www.w3.org/2000/svg">
<rect width="28" height="28" rx="14" fill="white"/>
<g clip-path="url(#clip0_150_141)">
<path d="M19.2834 11.1887C19.2888 11.3119 19.2888 11.4295 19.2888 11.5527C19.2942 15.2879 16.5499 19.5999 11.5313 19.5999C10.0512 19.5999 8.59799 19.1575 7.3501 18.3287C7.56618 18.3567 7.78227 18.3679 7.99835 18.3679C9.22463 18.3679 10.4185 17.9423 11.3855 17.1527C10.2186 17.1303 9.19222 16.3407 8.83568 15.1871C9.24624 15.2711 9.6676 15.2543 10.0674 15.1367C8.79786 14.8791 7.88491 13.7199 7.8795 12.3703C7.8795 12.3591 7.8795 12.3479 7.8795 12.3367C8.25765 12.5551 8.68442 12.6783 9.11659 12.6895C7.92272 11.8607 7.54998 10.2087 8.27386 8.91507C9.6622 10.6847 11.7042 11.7543 13.8975 11.8719C13.676 10.8919 13.9785 9.86147 14.6862 9.16707C15.7828 8.09747 17.5115 8.15347 18.5487 9.29027C19.1591 9.16707 19.7479 8.93187 20.2828 8.60147C20.0775 9.25667 19.6507 9.81107 19.0835 10.1639C19.6237 10.0967 20.1531 9.94547 20.6501 9.72147C20.2828 10.2927 19.8182 10.7855 19.2834 11.1887Z" fill="#051328"/>
</g>
<defs>
<clipPath id="clip0_150_141">
<rect width="14" height="14" fill="white" transform="translate(7 7)"/>
</clipPath>
</defs>
</svg>
