<svg width="52" height="52" viewBox="0 0 52 52" fill="none" xmlns="http://www.w3.org/2000/svg">
<mask id="mask0_30_264" style="mask-type:luminance" maskUnits="userSpaceOnUse" x="0" y="0" width="52" height="52">
<path d="M52 0H0V52H52V0Z" fill="white"/>
</mask>
<g mask="url(#mask0_30_264)">
<path d="M26.0003 51.2203C39.9289 51.2203 51.2203 39.9289 51.2203 26.0003C51.2203 12.0717 39.9289 0.780273 26.0003 0.780273C12.0717 0.780273 0.780273 12.0717 0.780273 26.0003C0.780273 39.9289 12.0717 51.2203 26.0003 51.2203Z" fill="url(#paint0_linear_30_264)"/>
<path d="M37.0373 36.0497L28.5093 15.4317C28.0283 14.3657 27.3133 13.8457 26.3708 13.8457H25.6168C24.6743 13.8457 23.9593 14.3657 23.4783 15.4317L19.7668 24.4147H16.9588C16.1203 24.4212 15.4378 25.0972 15.4313 25.9422V25.9617C15.4378 26.8002 16.1203 27.4827 16.9588 27.4892H18.4668L14.9243 36.0497C14.8593 36.2382 14.8203 36.4332 14.8203 36.6347C14.8203 37.1157 14.9698 37.4927 15.2363 37.7852C15.5028 38.0777 15.8863 38.2207 16.3673 38.2207C16.6858 38.2142 16.9913 38.1167 17.2448 37.9282C17.5178 37.7397 17.7063 37.4667 17.8558 37.1547L21.7558 27.4827H24.4598C25.2983 27.4762 25.9808 26.8002 25.9873 25.9552V25.9162C25.9808 25.0777 25.2983 24.3952 24.4598 24.3887H23.0168L25.9938 16.9722L34.1058 37.1482C34.2553 37.4602 34.4438 37.7332 34.7168 37.9217C34.9703 38.1102 35.2823 38.2077 35.5943 38.2142C36.0753 38.2142 36.4523 38.0712 36.7253 37.7787C36.9983 37.4862 37.1413 37.1092 37.1413 36.6282C37.1478 36.4332 37.1153 36.2317 37.0373 36.0497Z" fill="white"/>
</g>
<defs>
<linearGradient id="paint0_linear_30_264" x1="44.8039" y1="10.1784" x2="7.27658" y2="41.7538" gradientUnits="userSpaceOnUse">
<stop stop-color="#B6509E"/>
<stop offset="1" stop-color="#2EBAC6"/>
</linearGradient>
</defs>
</svg>
