<?xml version="1.0" encoding="utf-8"?>
<!-- Generator: Adobe Illustrator 16.0.0, SVG Export Plug-In . SVG Version: 6.00 Build 0)  -->
<!DOCTYPE svg PUBLIC "-//W3C//DTD SVG 1.1//EN" "http://www.w3.org/Graphics/SVG/1.1/DTD/svg11.dtd">
<svg version="1.1" id="Layer_1" xmlns="http://www.w3.org/2000/svg" xmlns:xlink="http://www.w3.org/1999/xlink" x="0px" y="0px"
	 width="35px" height="35px" viewBox="0 0 35 35" enable-background="new 0 0 35 35" xml:space="preserve">
<g>
	<g>
		<circle fill="#AB1C6E" cx="17.501" cy="17.5" r="16.333"/>
	</g>
</g>
<path fill-rule="evenodd" clip-rule="evenodd" fill="#FFFFFF" d="M13.299,26.408c0.43-0.742,0.835-1.445,1.242-2.148
	c1.861-3.224,3.722-6.451,5.586-9.672c0.075-0.13,0.089-0.243,0.05-0.386c-0.341-1.253-0.673-2.508-1.009-3.762
	c-0.013-0.049-0.032-0.096-0.05-0.147c-0.079,0.056-0.106,0.141-0.149,0.215c-3.025,5.234-6.049,10.468-9.069,15.706
	c-0.086,0.151-0.177,0.207-0.353,0.205c-1.103-0.01-2.208-0.004-3.312-0.004c-0.028-0.091,0.037-0.142,0.07-0.201
	C10.18,19.5,14.057,12.788,17.93,6.074c0.066-0.114,0.131-0.163,0.268-0.162c0.931,0.007,1.86,0.007,2.79,0
	c0.142-0.001,0.197,0.041,0.234,0.178c0.418,1.57,0.846,3.137,1.261,4.707c0.043,0.166,0.108,0.214,0.277,0.211
	c0.915-0.009,1.831-0.004,2.746-0.004c0.079,0,0.158,0,0.236,0c0.012,0.099-0.048,0.151-0.083,0.211
	c-0.656,1.146-1.313,2.292-1.979,3.434c-0.083,0.143-0.099,0.267-0.056,0.426c0.995,3.698,1.983,7.398,2.98,11.093
	c0.059,0.214,0.019,0.248-0.188,0.246c-0.916-0.01-1.831-0.009-2.747,0c-0.163,0.002-0.232-0.038-0.276-0.208
	c-0.647-2.433-1.305-4.861-1.959-7.291c-0.016-0.063-0.035-0.124-0.056-0.195c-0.098,0.035-0.115,0.127-0.156,0.197
	c-1.408,2.43-2.815,4.86-4.216,7.294c-0.088,0.155-0.183,0.205-0.355,0.203c-1.032-0.009-2.064-0.006-3.096-0.006
	C13.485,26.408,13.415,26.408,13.299,26.408z"/>
</svg>
