<?xml version="1.0" encoding="utf-8"?>
<!-- Generator: Adobe Illustrator 16.0.0, SVG Export Plug-In . SVG Version: 6.00 Build 0)  -->
<!DOCTYPE svg PUBLIC "-//W3C//DTD SVG 1.1//EN" "http://www.w3.org/Graphics/SVG/1.1/DTD/svg11.dtd">
<svg version="1.1" id="Layer_1" xmlns="http://www.w3.org/2000/svg" xmlns:xlink="http://www.w3.org/1999/xlink" x="0px" y="0px"
	 width="150px" height="150px" viewBox="0 0 150 150" enable-background="new 0 0 150 150" xml:space="preserve">
<title>polkadot</title>
<g>
	<circle fill="#E6007A" cx="75.56" cy="75.001" r="72.999"/>
	<g>
		<path fill="#FFFFFF" d="M76.006,30.674c-18.518,0.075-33.51,15.067-33.584,33.585c0,3.707,0.598,7.392,1.771,10.907
			c0.875,2.396,3.471,3.685,5.908,2.944c2.355-0.903,3.605-3.479,2.854-5.887c-0.995-2.742-1.438-5.649-1.307-8.561
			c0.405-13.373,11.572-23.89,24.946-23.486s23.89,11.571,23.486,24.945c-0.38,12.521-10.24,22.69-22.746,23.451
			c0,0-4.714,0.287-7.059,0.573c-0.864,0.123-1.721,0.295-2.568,0.512c-0.12,0.123-0.314,0.123-0.439,0.002l-0.003-0.002
			c-0.085-0.111-0.085-0.267,0-0.378l0.729-3.979l4.427-19.914c0.532-2.486-1.051-4.934-3.538-5.465
			c-2.487-0.531-4.935,1.052-5.465,3.538c0,0-10.529,48.74-10.529,49.183c-0.603,2.37,0.828,4.777,3.197,5.38
			c0.025,0.007,0.054,0.016,0.078,0.018h0.245c2.366,0.614,4.781-0.811,5.391-3.177c0.011-0.039,0.021-0.078,0.028-0.121
			c-0.007-0.074-0.007-0.147,0-0.219c0.13-0.573,1.458-7.059,1.458-7.059c1.007-4.895,4.952-8.646,9.89-9.403
			c1.016-0.155,5.288-0.444,5.288-0.444c18.445-1.837,31.908-18.283,30.066-36.728C106.852,44.066,92.914,31.113,76.006,30.674z"/>
		<path fill="#F7F7F7" d="M78.042,108.109c-3.028-0.629-5.989,1.314-6.62,4.339c-0.007,0.028-0.01,0.057-0.017,0.087
			c-0.655,3.006,1.25,5.977,4.26,6.632c0.004,0,0.008,0,0.011,0.004h0.156c2.947,0.714,5.911-1.102,6.62-4.044
			c0.007-0.021,0.011-0.046,0.018-0.067v-0.308C82.991,111.712,81.049,108.797,78.042,108.109z"/>
	</g>
</g>
</svg>
