<?xml version="1.0" encoding="utf-8"?>
<!-- Generator: Adobe Illustrator 16.0.0, SVG Export Plug-In . SVG Version: 6.00 Build 0)  -->
<!DOCTYPE svg PUBLIC "-//W3C//DTD SVG 1.1//EN" "http://www.w3.org/Graphics/SVG/1.1/DTD/svg11.dtd">
<svg version="1.1" id="Layer_1" xmlns="http://www.w3.org/2000/svg" xmlns:xlink="http://www.w3.org/1999/xlink" x="0px" y="0px"
	 width="35px" height="35px" viewBox="0 0 35 35" enable-background="new 0 0 35 35" xml:space="preserve">
<g>
	
		<circle fill-rule="evenodd" clip-rule="evenodd" fill="#BBECF9" stroke="#011F28" stroke-width="0.75" stroke-miterlimit="10" cx="17.834" cy="17.418" r="16.75"/>
	<g>
		<path id="Path_1" fill="#00496F" d="M28.342,10.683c-0.29,0.128-0.535,0.243-0.787,0.349c-0.978,0.418-1.961,0.821-2.931,1.254
			c-0.255,0.159-0.591,0.103-0.783-0.13c-2.708-2.471-6.769-2.733-9.773-0.628c-1.965,1.423-3.107,3.72-3.058,6.146
			c0,0.038,0,0.078,0,0.115c-0.008,2.759,0,5.517,0,8.278v0.548c-0.191-0.125-0.313-0.192-0.42-0.271
			c-1.718-1.224-2.955-3.01-3.495-5.049c-0.781-2.697-0.693-5.571,0.25-8.214c1.227-3.211,3.826-5.707,7.084-6.801
			c3.375-1.157,7.333-0.944,10.379,1.001c1.195,0.781,2.26,1.747,3.152,2.859C28.093,10.298,28.199,10.478,28.342,10.683z"/>
		<path id="Path_2" fill="#00ADEF" d="M28.775,23.908c-0.086,0.147-0.148,0.253-0.224,0.356c-2.105,3.006-5.435,4.921-9.09,5.229
			c-2.207,0.25-4.438-0.173-6.4-1.212c-0.267-0.112-0.428-0.385-0.398-0.673c0.011-3.874,0.006-7.746,0.01-11.621
			c-0.047-1.979,1.41-3.673,3.375-3.923c0.508-0.08,0.54-0.055,0.54,0.463v11.897c0,0.561,0,0.561,0.56,0.683
			c1.982,0.484,4.081,0.051,5.709-1.185c0.474-0.332,0.909-0.709,1.3-1.139c0.255-0.37,0.762-0.473,1.141-0.229
			c0.987,0.422,2.006,0.775,3.011,1.158C28.452,23.766,28.592,23.83,28.775,23.908z"/>
	</g>
</g>
</svg>
