<svg width="51" height="53" viewBox="0 0 51 53" fill="none" xmlns="http://www.w3.org/2000/svg">
<path d="M36.6101 5.48747C35.3089 6.7998 34.1168 8.22214 33.0571 9.73878L32.722 9.62877C30.7897 8.99225 28.7872 8.59934 26.7691 8.46575C26.1613 8.4186 23.8939 8.4186 23.1537 8.46575C20.9174 8.61505 19.2032 8.95296 17.2553 9.63662C17.1774 9.66806 17.1073 9.69163 17.0371 9.71521C15.9385 8.20642 14.7152 6.79194 13.3672 5.49533C19.8344 2.15558 27.4002 1.75481 34.1713 4.38732C34.8959 4.66236 35.605 4.98455 36.2985 5.33031L36.6101 5.48747Z" fill="#F00500"/>
<path d="M48.6719 35.294C47.6902 38.1151 46.2175 40.7319 44.3085 43.0108C43.2722 44.2367 42.1268 45.3604 40.8957 46.382C38.0127 48.7238 34.6467 50.3976 31.0547 51.2777C27.0808 52.2443 22.9356 52.2443 18.9618 51.2777C15.362 50.3976 12.0037 48.7238 9.12074 46.382C7.88964 45.3604 6.74424 44.2367 5.70793 43.0108C0.214706 36.4649 -1.45274 27.4751 1.34452 19.3732C1.87436 17.8723 2.53666 16.4264 3.33143 15.0512C3.69764 14.4225 4.14957 13.7153 4.36774 13.4245C5.11575 16.67 6.03518 19.5225 6.37802 20.552C6.35464 20.607 6.32348 20.6698 6.29231 20.7248C4.47682 24.4339 3.49506 28.0094 3.2613 31.8128C3.2613 31.86 3.25351 31.915 3.25351 31.9621C3.19117 33.1016 3.22234 33.6438 3.40934 34.3589C3.99373 36.5985 5.79364 39.066 8.61427 41.4863C13.2348 45.4469 19.4994 48.3073 24.2446 48.6373C29.1924 48.9752 36.4933 46.0598 41.3554 41.8007C42.119 41.117 42.8359 40.394 43.506 39.6239C43.9891 39.0581 44.7059 38.0837 44.6514 38.0837C44.6358 38.0837 44.6514 38.068 44.6825 38.0523C44.7059 38.0366 44.7293 38.013 44.7137 37.9973C44.7059 37.9894 44.7215 37.9658 44.7449 37.958C44.7682 37.9501 44.7838 37.9344 44.776 37.9187C44.7682 37.903 44.776 37.8872 44.8072 37.8794C44.8306 37.8715 44.8384 37.848 44.8306 37.8322C44.8228 37.8165 44.8306 37.8008 44.8462 37.8008C44.8617 37.8008 44.8773 37.7772 44.8773 37.7615C44.8773 37.7458 44.8929 37.7222 44.9085 37.7222C44.9241 37.7222 44.9397 37.7065 44.9397 37.6908C44.963 37.6279 45.002 37.5651 45.041 37.51C45.1578 37.3293 45.6253 36.4885 45.6877 36.347C46.1318 35.3333 46.4123 34.4296 46.5448 33.5259C46.6071 33.0937 46.6461 32.3 46.6149 32.1114C46.6071 32.08 46.6071 32.025 46.5993 31.9386C46.5837 31.7814 46.5759 31.5456 46.5604 31.3099C46.5448 30.9563 46.5136 30.4612 46.4902 30.2176C46.1552 26.65 45.2513 23.7345 43.5371 20.6463C43.467 20.5284 43.4047 20.4105 43.3657 20.3162C43.3501 20.2926 43.3423 20.2691 43.3345 20.2533C43.5761 19.5225 44.5657 16.4657 45.3526 12.9688L45.3682 12.9845L45.4851 13.1416C45.6877 13.4167 46.2253 14.2339 46.4668 14.6268C47.5655 16.4342 48.4226 18.3752 49.0304 20.4026C50.4407 25.2826 50.3238 30.4848 48.6719 35.294Z" fill="#F00500"/>
<path d="M38.5583 25.9033C38.5349 26.029 38.1687 26.4062 37.8025 26.6812C36.7272 27.4749 34.8026 28.2136 32.8469 28.5672C31.7327 28.7715 30.6184 28.8029 30.2834 28.6379C30.0652 28.5279 30.0341 28.4415 30.112 28.1586C30.2756 27.5692 30.8055 26.9248 31.6314 26.3197C32.0521 26.0133 33.7585 24.9681 34.5533 24.5281C35.8623 23.8051 36.922 23.3729 37.6389 23.2707C37.8648 23.2393 38.1375 23.2315 38.2232 23.2707C38.3635 23.3258 38.5193 23.7422 38.5817 24.2452C38.6128 24.5123 38.5972 25.6911 38.5583 25.9033Z" fill="black"/>
<path d="M20.2011 28.5048C20.1544 28.5991 19.9206 28.7012 19.6557 28.7405C19.3908 28.7798 18.5804 28.7562 18.1207 28.7012C16.4688 28.4812 14.7157 27.9704 13.4378 27.3417C12.721 26.9881 12.2067 26.6345 11.8249 26.2494L11.6068 26.0216L11.5834 25.7229C11.5444 25.2043 11.5522 24.387 11.6146 24.0963C11.6535 23.8527 11.7392 23.6169 11.8561 23.4048C11.9184 23.3262 11.9184 23.3262 12.1989 23.3262C12.5418 23.3262 12.8301 23.3812 13.2976 23.5305C14.256 23.8291 15.6819 24.5521 17.4194 25.6051C18.8531 26.4695 19.3908 26.8938 19.8037 27.4753C20.0842 27.8368 20.2712 28.3476 20.2011 28.5048Z" fill="black"/>
<path d="M31.2335 39.4433C31.2335 39.4669 31.14 39.8441 31.0231 40.292C30.9062 40.74 30.8127 41.1014 30.8127 41.1172C30.727 41.125 30.6491 41.1329 30.5634 41.125H30.314L29.9712 41.9423C29.7842 42.3902 29.6128 42.8067 29.5894 42.8695L29.5426 42.9796L29.379 42.7124L29.2154 42.4452V40.2685L29.153 40.2842C29.0206 40.3156 28.0778 40.4413 27.6648 40.4806C25.9584 40.6535 24.2442 40.6142 22.5456 40.3706C22.2729 40.3313 22.0391 40.2999 22.0313 40.3078C22.0235 40.3156 22.0313 40.8185 22.0469 41.4393L22.0703 42.5552L21.9378 42.7595C21.8677 42.8695 21.7976 42.9638 21.7976 42.9717C21.7742 42.9953 21.6963 42.8695 21.5171 42.5081C21.3223 42.1309 21.182 41.7301 21.0807 41.3136L21.0262 41.0857L20.7846 41.1014L20.5431 41.125L20.4808 40.8343C20.4496 40.6771 20.4106 40.4335 20.3951 40.2999L20.3717 40.0484L20.1691 39.8677C20.0522 39.7655 19.9353 39.6634 19.912 39.6477C19.873 39.6162 19.8574 39.5612 19.8574 39.5141V39.4198L20.8314 39.4276L21.8054 39.4355L21.8365 39.5376L21.8677 39.6398L22.2028 39.6555C22.3898 39.6634 22.9819 39.6791 23.5118 39.6948L24.4858 39.7184L24.7351 39.3255L24.9922 38.9326H25.3195L25.3117 38.1153L25.3039 37.298L24.8753 37.1094C23.4962 36.4965 22.6858 35.7971 22.382 34.9484C22.3196 34.7755 22.3196 34.7127 22.304 33.9269C22.2963 33.1489 22.2963 33.0782 22.3508 32.9053C22.4599 32.5124 22.7638 32.2059 23.1534 32.1037C23.2858 32.0645 23.6365 32.0645 25.4753 32.0645L27.6414 32.0723L27.883 32.1902C28.1713 32.3316 28.3037 32.4338 28.4674 32.6538C28.6544 32.9053 28.7089 33.1017 28.7089 33.5811C28.7089 34.2648 28.6622 34.8541 28.592 35.0899C28.4907 35.4121 28.3349 35.7185 28.1401 35.9936C27.7505 36.4965 27.0415 36.9994 26.3947 37.2273L26.2077 37.298L26.2155 38.1232L26.2233 38.9483L26.3947 38.964L26.5662 38.9797L26.7999 39.3333L27.0259 39.6869H28.07C28.6466 39.6869 29.153 39.6948 29.1998 39.7027C29.2777 39.7184 29.2933 39.7105 29.3712 39.5769L29.4647 39.4355H30.3608C31.0309 39.4041 31.2335 39.4198 31.2335 39.4433Z" fill="black"/>
<path d="M27.1197 41.6982C26.9717 41.7847 26.8704 41.824 26.847 41.8082C26.8236 41.8004 26.7145 41.7061 26.5977 41.6196L26.3873 41.4468L26.1691 41.6825C25.6938 42.2012 25.6782 42.2247 25.538 42.2326C25.3198 42.2562 25.2731 42.2169 25.0081 41.8161C24.8679 41.6118 24.7588 41.4389 24.7588 41.4389C24.7588 41.4389 24.6575 41.4232 24.5406 41.4153L24.3225 41.3918L24.2212 41.6039L24.1199 41.8161L23.9407 41.7611C23.8004 41.7139 23.6602 41.6589 23.5277 41.5961L23.2939 41.4782V41.0303L25.3666 41.0381L27.4392 41.046L27.447 41.2582C27.4548 41.5096 27.4626 41.5018 27.1197 41.6982Z" fill="black"/>
<path d="M46.5996 32.1108C46.5918 32.0793 46.5918 32.0243 46.584 31.9379C44.714 31.7336 39.3766 31.6079 34.421 35.7334C34.421 35.7334 32.8237 28.3467 25.3435 28.3467C17.8634 28.3467 15.0895 35.7334 15.0895 35.7334C10.8975 31.1835 5.28745 31.5135 3.26158 31.8122C3.26158 31.8593 3.25378 31.9143 3.25378 31.9615C3.19145 33.1009 3.22262 33.6431 3.40962 34.3582C3.99401 36.5978 5.79392 39.0653 8.61455 41.4857C13.2351 45.4462 19.4997 48.3066 24.2449 48.6367C29.1927 48.9746 36.4936 46.0592 41.3557 41.8C42.1193 41.1163 42.8361 40.3934 43.5062 39.6233C43.9893 39.0575 44.7062 38.083 44.6516 38.083C44.6361 38.083 44.6516 38.0673 44.6828 38.0516C44.7062 38.0359 44.7296 38.0123 44.714 37.9966C44.7062 37.9887 44.7218 37.9652 44.7451 37.9573C44.7685 37.9495 44.7841 37.9337 44.7763 37.918C44.7685 37.9023 44.7763 37.8866 44.8075 37.8787C44.8309 37.8709 44.8386 37.8473 44.8308 37.8316C44.8231 37.8159 44.8309 37.8001 44.8464 37.8001C44.862 37.8001 44.8776 37.7766 44.8776 37.7609C44.8776 37.7451 44.8932 37.7216 44.9088 37.7216C44.9243 37.7216 44.9399 37.7058 44.9399 37.6901C44.9633 37.6273 45.0023 37.5644 45.0412 37.5094C45.1581 37.3287 45.6256 36.4878 45.6879 36.3464C46.1321 35.3327 46.4126 34.429 46.545 33.5253C46.5918 33.0931 46.6308 32.2994 46.5996 32.1108ZM27.1201 41.6978C26.972 41.7843 26.8707 41.8236 26.8474 41.8078C26.824 41.8 26.7149 41.7057 26.598 41.6193L26.3876 41.4464L26.1695 41.6821C25.6942 42.2008 25.6786 42.2243 25.5383 42.2322C25.3202 42.2558 25.2734 42.2165 25.0085 41.8157C24.8683 41.6114 24.7592 41.4385 24.7592 41.4385C24.7592 41.4385 24.6579 41.4228 24.541 41.4149L24.3228 41.3914L24.2215 41.6035L24.1202 41.8157L23.941 41.7607C23.8008 41.7136 23.6605 41.6585 23.5281 41.5957L23.2943 41.4778V41.0299L25.3669 41.0377L27.4395 41.0456L27.4473 41.2578C27.4551 41.5092 27.4629 41.5014 27.1201 41.6978ZM31.016 40.2834C30.8991 40.7313 30.8056 41.0928 30.8056 41.1085C30.7199 41.1163 30.642 41.1242 30.5563 41.1163H30.3069L29.9719 41.9414C29.7849 42.3894 29.6135 42.8058 29.5901 42.8687L29.5433 42.9787L29.3797 42.7115L29.2161 42.4444V40.2676L29.1537 40.2834C29.0213 40.3148 28.0785 40.4405 27.6655 40.4798C25.9591 40.6527 24.2449 40.6134 22.5463 40.3698C22.2736 40.3305 22.0398 40.2991 22.032 40.3069C22.0242 40.3148 22.032 40.8177 22.0476 41.4385L22.071 42.5544L21.9385 42.7587C21.8684 42.8687 21.7983 42.963 21.7983 42.9709C21.7749 42.9944 21.697 42.8687 21.5178 42.5072C21.323 42.13 21.1827 41.7293 21.0814 41.3128L21.0269 41.0849L20.7853 41.1006L20.5438 41.1242L20.4815 40.8334C20.4503 40.6763 20.4113 40.4327 20.3958 40.2991L20.3724 40.0476L20.1698 39.8669C20.0529 39.7647 19.936 39.6625 19.9127 39.6468C19.8737 39.6154 19.8581 39.5604 19.8581 39.5132V39.4189L20.8321 39.4268L21.8061 39.4347L21.8372 39.5368L21.8684 39.639L22.2035 39.6547C22.3905 39.6626 22.9826 39.6783 23.5125 39.694L24.4864 39.7176L24.7358 39.3246L24.9929 38.9317H25.3202L25.3124 38.1145L25.3046 37.2972L24.876 37.1086C23.4969 36.4957 22.6865 35.7963 22.3827 34.9476C22.3203 34.7747 22.3203 34.7119 22.3047 33.926C22.297 33.1481 22.2969 33.0773 22.3515 32.9045C22.4606 32.5115 22.7645 32.2051 23.1541 32.1029C23.2865 32.0636 23.6371 32.0636 25.476 32.0636L27.6421 32.0715L27.8837 32.1894C28.172 32.3308 28.3044 32.433 28.4681 32.653C28.6551 32.9045 28.7096 33.1009 28.7096 33.5803C28.7096 34.2639 28.6629 34.8533 28.5927 35.0891C28.4914 35.4112 28.3356 35.7177 28.1408 35.9927C27.7512 36.4957 27.0422 36.9986 26.3954 37.2265L26.2084 37.2972L26.2162 38.1223L26.224 38.9475L26.3954 38.9632L26.5669 38.9789L26.8006 39.3325L27.0266 39.6861H28.0707C28.6473 39.6861 29.1537 39.694 29.2005 39.7018C29.2784 39.7176 29.294 39.7097 29.3719 39.5761L29.4654 39.4347H30.3615C31.0549 39.4347 31.2575 39.4425 31.2575 39.4661C31.2342 39.4582 31.1329 39.8433 31.016 40.2834Z" fill="white"/>
<path d="M46.5364 31.3093C46.5208 30.9556 46.4896 30.4606 46.4662 30.217C46.1312 26.6493 45.2274 23.7339 43.5132 20.6456C43.443 20.5277 43.3807 20.4099 43.3417 20.3156C43.3262 20.292 43.3184 20.2684 43.3106 20.2527C43.5521 19.5219 44.5417 16.465 45.3286 12.9681C46.3961 8.22173 47.074 2.67382 45.0014 1.00787C45.0014 1.00787 41.4172 0.740689 36.6174 5.48707C35.3162 6.79939 34.124 8.22174 33.0643 9.73838L32.7293 9.62836C30.7969 8.99184 28.7944 8.59893 26.7764 8.46534C26.1686 8.41819 23.9012 8.41819 23.161 8.46534C20.9247 8.61465 19.2105 8.95255 17.2626 9.63622C17.1847 9.66765 17.1145 9.69123 17.0444 9.7148C15.9458 8.20602 14.7224 6.79154 13.3745 5.49493C8.37992 0.724973 4.66323 1.00001 4.66323 1.00001C2.46594 2.72097 3.21395 8.52035 4.35155 13.4239C5.09957 16.6693 6.019 19.5219 6.36184 20.5513C6.33846 20.6063 6.3073 20.6692 6.27613 20.7242C4.46064 24.4333 3.47887 28.0088 3.24512 31.8122C5.27878 31.5136 10.8811 31.1757 15.0809 35.7334C15.0809 35.7334 17.8547 28.3467 25.3349 28.3467C32.815 28.3467 34.4123 35.7334 34.4123 35.7334C39.3679 31.6079 44.7053 31.7415 46.5753 31.9379C46.5675 31.7807 46.552 31.545 46.5364 31.3093ZM7.83449 17.5888C7.83449 17.5888 4.92035 10.2413 5.66837 6.045C5.79303 5.33776 6.02679 4.71696 6.39301 4.24546C6.39301 4.24546 9.69673 4.57551 15.0263 10.5478C15.0263 10.5478 14.0134 11.0428 12.6576 12.0959C12.6576 12.0959 12.6498 12.1037 12.642 12.1037C11.1694 13.2432 9.28377 15.0505 7.83449 17.5888ZM20.2001 28.5039C20.1533 28.5982 19.9196 28.7003 19.6547 28.7396C19.3897 28.7789 18.5794 28.7553 18.1197 28.7003C16.4678 28.4803 14.7147 27.9695 13.4368 27.3408C12.72 26.9872 12.2057 26.6336 11.8239 26.2485L11.6057 26.0207L11.5823 25.722C11.5434 25.2034 11.5512 24.3861 11.6135 24.0954C11.6525 23.8518 11.7382 23.616 11.8551 23.4039C11.9174 23.3253 11.9174 23.3253 12.1979 23.3253C12.5407 23.3253 12.829 23.3803 13.2965 23.5296C14.2549 23.8282 15.6808 24.5512 17.4184 25.6042C18.8521 26.4686 19.3897 26.8929 19.8027 27.4744C20.0832 27.8359 20.2702 28.3467 20.2001 28.5039ZM38.5576 25.9028C38.5342 26.0285 38.168 26.4057 37.8018 26.6807C36.7265 27.4744 34.8019 28.2131 32.8462 28.5667C31.732 28.771 30.6177 28.8025 30.2827 28.6375C30.0645 28.5274 30.0333 28.441 30.1113 28.1581C30.2749 27.5687 30.8047 26.9244 31.6307 26.3193C32.0514 26.0128 33.7578 24.9677 34.5526 24.5276C35.8616 23.8046 36.9213 23.3724 37.6381 23.2703C37.8641 23.2388 38.1368 23.231 38.2225 23.2703C38.3628 23.3253 38.5186 23.7418 38.5809 24.2447C38.6121 24.5119 38.5965 25.6906 38.5576 25.9028ZM37.2641 12.0959L37.2485 12.088C35.9395 11.035 34.9578 10.5399 34.9578 10.5399C40.1081 4.56765 43.295 4.23761 43.295 4.23761C43.6456 4.71696 43.8716 5.3299 43.9962 6.03714C44.7209 10.2334 41.908 17.5888 41.908 17.5888C40.7315 15.4749 39.1497 13.6046 37.2641 12.0959Z" fill="#FFA409"/>
<path d="M44.0043 6.03684C43.3965 5.95826 40.5214 5.94254 37.2644 12.0955L37.2488 12.0877C35.9398 11.0347 34.958 10.5396 34.958 10.5396C40.1084 4.56735 43.2952 4.2373 43.2952 4.2373C43.6537 4.71666 43.8796 5.3296 44.0043 6.03684Z" fill="#FF9300"/>
<path d="M41.9164 17.5887C40.732 15.467 39.1581 13.6046 37.2646 12.0958C40.5216 5.9428 43.389 5.95851 44.0046 6.03709C44.7292 10.2413 41.9164 17.5887 41.9164 17.5887Z" fill="#FF8300"/>
<path d="M44.1208 6.06068C44.0818 6.05282 44.0429 6.04497 44.0039 6.03711L44.1208 6.06068Z" fill="#FF8300"/>
<path d="M15.0269 10.5396C15.0269 10.5396 14.0139 11.0347 12.6582 12.0877C12.6582 12.0877 12.6504 12.0955 12.6426 12.0955C9.26874 5.93469 6.30006 5.95826 5.66113 6.03684C5.7858 5.3296 6.01956 4.7088 6.38577 4.2373C6.39357 4.2373 9.69728 4.56735 15.0269 10.5396Z" fill="#FF9300"/>
<path d="M12.6501 12.0958C11.1697 13.2431 9.28408 15.0426 7.83481 17.5887C7.83481 17.5887 4.92067 10.2413 5.66868 6.03709C6.29982 5.95851 9.27629 5.9428 12.6501 12.0958Z" fill="#FF8300"/>
<path d="M5.66861 6.03711C5.62965 6.04497 5.5829 6.05282 5.54395 6.06068L5.66861 6.03711Z" fill="#FF8300"/>
<path d="M34.0309 21.6674C34.0309 21.6674 31.5376 21.8246 31.8492 19.86C32.1609 17.8955 34.1088 17.6597 34.6543 17.7383C35.1997 17.8169 37.3814 18.6027 36.9918 20.253C36.6022 21.9032 36.0568 21.5889 35.7451 21.6674C35.4335 21.746 34.0309 21.6674 34.0309 21.6674Z" fill="white"/>
<path d="M15.6423 21.6674C15.6423 21.6674 13.1489 21.8246 13.4606 19.86C13.7722 17.8955 15.7202 17.6597 16.2656 17.7383C16.811 17.8169 18.9927 18.6027 18.6031 20.253C18.2136 21.9032 17.6681 21.5889 17.3565 21.6674C17.0448 21.746 15.6423 21.6674 15.6423 21.6674Z" fill="white"/>
</svg>
