<svg width="50" height="44" viewBox="0 0 50 44" fill="none" xmlns="http://www.w3.org/2000/svg">
<path fill-rule="evenodd" clip-rule="evenodd" d="M9.15521 0.216102L0.0384576 19.5882C0.00376571 19.6603 -0.00722792 19.7417 0.00708439 19.8205C0.0213967 19.8993 0.0602641 19.9714 0.118003 20.0263L24.7402 43.8942C24.8101 43.9621 24.9033 44 25.0002 44C25.0971 44 25.1902 43.9621 25.2602 43.8942L49.8823 20.0278C49.9401 19.9729 49.9789 19.9008 49.9932 19.822C50.0075 19.7431 49.9966 19.6618 49.9619 19.5897L40.8451 0.217592C40.8157 0.152533 40.7684 0.0974189 40.7088 0.0588378C40.6492 0.0202567 40.58 -0.000159595 40.5092 2.88382e-05H9.49401C9.42295 -0.000865501 9.35315 0.019059 9.29304 0.057399C9.23292 0.0957389 9.18505 0.150856 9.15521 0.216102Z" fill="#50AF95"/>
<path fill-rule="evenodd" clip-rule="evenodd" d="M28.163 21.5777C27.9862 21.5911 27.0729 21.6463 25.0357 21.6463C23.4153 21.6463 22.2649 21.5971 21.8612 21.5777C15.5993 21.2991 10.9253 20.1964 10.9253 18.8761C10.9253 17.5558 15.5993 16.4546 21.8612 16.1714V20.4795C22.2707 20.5093 23.4433 20.5793 25.0637 20.5793C27.0081 20.5793 27.9818 20.4974 28.1571 20.481V16.1744C34.4058 16.4561 39.0695 17.5588 39.0695 18.8761C39.0695 20.1934 34.4073 21.2961 28.1571 21.5762L28.163 21.5777ZM28.163 15.7289V11.8738H36.8835V5.99512H13.1407V11.8738H21.8598V15.7274C14.7729 16.0567 9.44336 17.4768 9.44336 19.1786C9.44336 20.8803 14.7729 22.299 21.8598 22.6298V34.9832H28.1615V22.6253C35.2322 22.296 40.5529 20.8774 40.5529 19.1771C40.5529 17.4768 35.2366 16.0582 28.1615 15.7274L28.163 15.7289Z" fill="white"/>
</svg>
