<svg width="50" height="50" viewBox="0 0 50 50" fill="none" xmlns="http://www.w3.org/2000/svg">
<path fill-rule="evenodd" clip-rule="evenodd" d="M3.16406 25.0013C3.16406 12.9431 12.9392 3.16797 24.9974 3.16797C37.0556 3.16797 46.8307 12.9431 46.8307 25.0013C46.8307 37.0595 37.0556 46.8346 24.9974 46.8346C12.9392 46.8346 3.16406 37.0595 3.16406 25.0013Z" fill="#37AF8C"/>
<path fill-rule="evenodd" clip-rule="evenodd" d="M3.16406 25.0013C3.16406 12.9431 12.9392 3.16797 24.9974 3.16797C37.0556 3.16797 46.8307 12.9431 46.8307 25.0013C46.8307 37.0595 37.0556 46.8346 24.9974 46.8346C12.9392 46.8346 3.16406 37.0595 3.16406 25.0013Z" fill="#FFE9CE"/>
<path fill-rule="evenodd" clip-rule="evenodd" d="M25.0013 5.16602C14.0477 5.16602 5.16797 14.0457 5.16797 24.9993C5.16797 35.953 14.0477 44.8327 25.0013 44.8327C35.955 44.8327 44.8346 35.953 44.8346 24.9993C44.8346 14.0457 35.955 5.16602 25.0013 5.16602ZM3.16797 24.9993C3.16797 12.9411 12.9431 3.16602 25.0013 3.16602C37.0595 3.16602 46.8346 12.9411 46.8346 24.9993C46.8346 37.0576 37.0595 46.8327 25.0013 46.8327C12.9431 46.8327 3.16797 37.0576 3.16797 24.9993Z" fill="#E2902D"/>
<path d="M25 20C24.45 20 23.9792 19.8042 23.5875 19.4125C23.1958 19.0208 23 18.55 23 18C23 17.45 23.1958 16.9792 23.5875 16.5875C23.9792 16.1958 24.45 16 25 16C25.55 16 26.0208 16.1958 26.4125 16.5875C26.8042 16.9792 27 17.45 27 18C27 18.55 26.8042 19.0208 26.4125 19.4125C26.0208 19.8042 25.55 20 25 20ZM24.5 34C23.9477 34 23.5 33.5523 23.5 33V23C23.5 22.4477 23.9477 22 24.5 22H25.5C26.0523 22 26.5 22.4477 26.5 23V33C26.5 33.5523 26.0523 34 25.5 34H24.5Z" fill="#E2902D"/>
</svg>
