<svg width="256" height="256" viewBox="0 0 256 256" fill="none" xmlns="http://www.w3.org/2000/svg">
<g clip-path="url(#clip0_329_515)">
<path fill-rule="evenodd" clip-rule="evenodd" d="M122.851 17.1688C99.1494 17.1688 79.9355 36.3827 79.9355 60.0842C79.9355 83.7858 99.1494 103 122.851 103C146.552 103 165.767 83.7858 165.767 60.0842C165.767 36.3827 146.552 17.1688 122.851 17.1688ZM62.7693 60.0842C62.7693 26.9021 89.6688 0.00268555 122.851 0.00268555C156.033 0.00268555 182.933 26.9021 182.933 60.0842C182.933 93.2663 156.033 120.165 122.851 120.165C89.6688 120.165 62.7693 93.2663 62.7693 60.0842ZM119.591 153.231C119.84 157.964 116.206 162.004 111.471 162.253C82.879 163.759 54.5391 171.43 28.5017 185.268C27.9124 185.58 27.5442 186.193 27.5442 186.861V228.881C27.5442 230.461 28.8251 231.742 30.4053 231.742H111.02C115.761 231.742 119.603 235.585 119.603 240.325C119.603 245.066 115.761 248.908 111.02 248.908H30.4053C19.3445 248.908 10.3781 239.942 10.3781 228.881V186.861C10.3781 179.844 14.2505 173.401 20.4463 170.109C48.7268 155.08 79.5123 146.748 110.568 145.111C115.303 144.862 119.341 148.498 119.591 153.231ZM170.555 129.031C176.116 122.73 184.28 118.735 193.366 118.735H215.203C232.003 118.735 245.621 132.355 245.621 149.155V225.581C245.621 242.382 232.003 256 215.203 256H193.366C184.28 256 176.116 252.005 170.555 245.704C167.418 242.15 167.756 236.726 171.31 233.589C174.864 230.452 180.288 230.791 183.425 234.344C185.866 237.11 189.409 238.834 193.366 238.834H215.203C222.523 238.834 228.455 232.9 228.455 225.581V149.155C228.455 141.835 222.523 135.901 215.203 135.901H193.366C189.409 135.901 185.866 137.625 183.425 140.391C180.288 143.944 174.864 144.283 171.31 141.146C167.756 138.009 167.418 132.585 170.555 129.031Z" fill="black"/>
<path fill-rule="evenodd" clip-rule="evenodd" d="M195.917 181.298C199.269 184.65 199.269 190.083 195.917 193.435L173.029 216.324C169.677 219.675 164.242 219.675 160.89 216.324C157.538 212.972 157.538 207.538 160.89 204.186L183.779 181.298C187.131 177.946 192.565 177.946 195.917 181.298Z" fill="black"/>
<path fill-rule="evenodd" clip-rule="evenodd" d="M195.917 193.435C199.269 190.083 199.269 184.649 195.917 181.297L173.029 158.409C169.677 155.057 164.242 155.057 160.89 158.409C157.538 161.761 157.538 167.195 160.89 170.547L183.779 193.435C187.131 196.787 192.565 196.787 195.917 193.435Z" fill="black"/>
<path fill-rule="evenodd" clip-rule="evenodd" d="M118.323 187.367C118.323 182.626 122.165 178.783 126.906 178.783H184.126C188.867 178.783 192.71 182.626 192.71 187.367C192.71 192.107 188.867 195.95 184.126 195.95H126.906C122.165 195.95 118.323 192.107 118.323 187.367Z" fill="black"/>
</g>
<defs>
<clipPath id="clip0_329_515">
<rect width="256" height="256" fill="white"/>
</clipPath>
</defs>
</svg>
