<svg width="40" height="40" viewBox="0 0 40 40" fill="none" xmlns="http://www.w3.org/2000/svg">
<path d="M22.0833 16.2507C21.7517 16.2507 21.4338 16.119 21.1994 15.8845C20.9649 15.6501 20.8333 15.3322 20.8333 15.0007V5.83398C20.8333 5.50246 20.9649 5.18452 21.1994 4.9501C21.4338 4.71568 21.7517 4.58398 22.0833 4.58398C22.4148 4.58398 22.7327 4.71568 22.9671 4.9501C23.2016 5.18452 23.3333 5.50246 23.3333 5.83398V15.0007C23.3333 15.3322 23.2016 15.6501 22.9671 15.8845C22.7327 16.119 22.4148 16.2507 22.0833 16.2507Z" fill="#F7A434"/>
<path d="M26.6667 11.668H17.5C17.1685 11.668 16.8505 11.5363 16.6161 11.3019C16.3817 11.0674 16.25 10.7495 16.25 10.418C16.25 10.0864 16.3817 9.76851 16.6161 9.53409C16.8505 9.29966 17.1685 9.16797 17.5 9.16797H26.6667C26.9982 9.16797 27.3161 9.29966 27.5506 9.53409C27.785 9.76851 27.9167 10.0864 27.9167 10.418C27.9167 10.7495 27.785 11.0674 27.5506 11.3019C27.3161 11.5363 26.9982 11.668 26.6667 11.668Z" fill="#F7A434"/>
<path d="M33.3333 32.9167H11.6666C10.451 32.9167 9.28522 32.4338 8.42568 31.5742C7.56614 30.7147 7.08325 29.5489 7.08325 28.3333C7.08325 27.1178 7.56614 25.952 8.42568 25.0924C9.28522 24.2329 10.451 23.75 11.6666 23.75H29.9999C30.3314 23.75 30.6494 23.8817 30.8838 24.1161C31.1182 24.3505 31.2499 24.6685 31.2499 25C31.2499 25.3315 31.1182 25.6495 30.8838 25.8839C30.6494 26.1183 30.3314 26.25 29.9999 26.25H11.6666C11.1141 26.25 10.5841 26.4695 10.1934 26.8602C9.80275 27.2509 9.58325 27.7808 9.58325 28.3333C9.58325 28.8859 9.80275 29.4158 10.1934 29.8065C10.5841 30.1972 11.1141 30.4167 11.6666 30.4167H33.3333C33.6648 30.4167 33.9827 30.5484 34.2171 30.7828C34.4516 31.0172 34.5833 31.3351 34.5833 31.6667C34.5833 31.9982 34.4516 32.3161 34.2171 32.5506C33.9827 32.785 33.6648 32.9167 33.3333 32.9167Z" fill="#237BAB"/>
<path d="M14.9998 37.9176C14.2581 37.9176 13.5331 37.6977 12.9164 37.2856C12.2997 36.8736 11.8191 36.2879 11.5352 35.6027C11.2514 34.9174 11.1771 34.1634 11.3218 33.436C11.4665 32.7086 11.8237 32.0404 12.3481 31.516C12.8726 30.9915 13.5408 30.6344 14.2682 30.4897C14.9956 30.345 15.7496 30.4192 16.4348 30.7031C17.1201 30.9869 17.7057 31.4675 18.1178 32.0842C18.5299 32.7009 18.7498 33.4259 18.7498 34.1676C18.7485 35.1618 18.353 36.1148 17.65 36.8178C16.947 37.5208 15.9939 37.9163 14.9998 37.9176ZM14.9998 32.9176C14.7526 32.9176 14.5109 32.9909 14.3053 33.1283C14.0998 33.2656 13.9395 33.4608 13.8449 33.6892C13.7503 33.9177 13.7256 34.169 13.7738 34.4115C13.822 34.6539 13.9411 34.8767 14.1159 35.0515C14.2907 35.2263 14.5134 35.3454 14.7559 35.3936C14.9984 35.4418 15.2497 35.4171 15.4781 35.3225C15.7065 35.2278 15.9018 35.0676 16.0391 34.8621C16.1765 34.6565 16.2498 34.4148 16.2498 34.1676C16.2493 33.8362 16.1175 33.5185 15.8832 33.2842C15.6489 33.0499 15.3312 32.918 14.9998 32.9176ZM29.1665 37.9176C28.4248 37.9176 27.6998 37.6977 27.0831 37.2856C26.4664 36.8736 25.9857 36.2879 25.7019 35.6027C25.4181 34.9174 25.3438 34.1634 25.4885 33.436C25.6332 32.7086 25.9904 32.0404 26.5148 31.516C27.0393 30.9915 27.7074 30.6344 28.4349 30.4897C29.1623 30.345 29.9163 30.4192 30.6015 30.7031C31.2867 30.9869 31.8724 31.4675 32.2845 32.0842C32.6965 32.7009 32.9165 33.4259 32.9165 34.1676C32.9151 35.1618 32.5196 36.1148 31.8166 36.8178C31.1137 37.5208 30.1606 37.9163 29.1665 37.9176ZM29.1665 32.9176C28.9192 32.9176 28.6776 32.9909 28.472 33.1283C28.2664 33.2656 28.1062 33.4608 28.0116 33.6892C27.917 33.9177 27.8922 34.169 27.9405 34.4115C27.9887 34.6539 28.1078 34.8767 28.2826 35.0515C28.4574 35.2263 28.6801 35.3454 28.9226 35.3936C29.1651 35.4418 29.4164 35.4171 29.6448 35.3225C29.8732 35.2278 30.0684 35.0676 30.2058 34.8621C30.3431 34.6565 30.4165 34.4148 30.4165 34.1676C30.416 33.8362 30.2842 33.5185 30.0498 33.2842C29.8155 33.0499 29.4978 32.918 29.1665 32.9176ZM29.9665 26.2509H13.0548C12.3723 26.251 11.7115 26.0114 11.1876 25.574C10.6637 25.1366 10.3099 24.5291 10.1881 23.8576L7.69979 10.2243C7.67046 10.0626 7.67325 9.8968 7.70801 9.73625C7.74277 9.57569 7.80881 9.42356 7.90237 9.28853C8.09131 9.01582 8.38085 8.82933 8.70729 8.7701C9.03372 8.71087 9.37032 8.78374 9.64303 8.97269C9.77806 9.06624 9.89334 9.18548 9.98229 9.32358C10.0712 9.46169 10.1321 9.61597 10.1615 9.7776L12.6448 23.4093C12.6623 23.5052 12.713 23.5919 12.7879 23.6544C12.8628 23.7168 12.9573 23.751 13.0548 23.7509H29.9631C30.4187 23.7501 30.8616 23.6005 31.2243 23.325C31.5871 23.0494 31.8501 22.6629 31.9731 22.2243L34.8731 11.7793C34.8907 11.7175 34.8936 11.6524 34.8818 11.5893C34.8699 11.5262 34.8435 11.4667 34.8048 11.4154C34.766 11.3642 34.7159 11.3227 34.6583 11.2942C34.6008 11.2656 34.5374 11.2508 34.4731 11.2509H33.3331C33.0016 11.2509 32.6837 11.1192 32.4492 10.8848C32.2148 10.6504 32.0831 10.3325 32.0831 10.0009C32.0831 9.66942 32.2148 9.35147 32.4492 9.11705C32.6837 8.88263 33.0016 8.75094 33.3331 8.75094H34.4748C34.9246 8.75112 35.3682 8.85531 35.771 9.05538C36.1738 9.25545 36.5249 9.54597 36.7969 9.90424C37.0688 10.2625 37.2542 10.6788 37.3385 11.1206C37.4229 11.5624 37.4039 12.0177 37.2831 12.4509L34.3831 22.8943C34.1125 23.8582 33.5348 24.7075 32.7377 25.3133C31.9406 25.9191 30.9676 26.2483 29.9665 26.2509Z" fill="#237BAB"/>
<path d="M11.6649 26.2505C11.3725 26.2498 11.0895 26.1467 10.8651 25.9592C10.6407 25.7716 10.4891 25.5115 10.4365 25.2238L7.22988 7.58713C7.21967 7.53208 7.19847 7.47964 7.16754 7.43297C7.13661 7.38629 7.0966 7.34633 7.04988 7.31546L2.63988 4.3738C2.50133 4.28362 2.38205 4.16685 2.28894 4.03026C2.19582 3.89367 2.13073 3.73997 2.09742 3.57805C2.06411 3.41613 2.06324 3.24922 2.09488 3.08696C2.12651 2.92471 2.19002 2.77034 2.28171 2.6328C2.37341 2.49525 2.49148 2.37726 2.62909 2.28565C2.76669 2.19405 2.9211 2.13064 3.08337 2.09912C3.24565 2.06759 3.41257 2.06856 3.57446 2.10198C3.73636 2.13539 3.89002 2.20059 4.02655 2.2938L8.43655 5.23546C8.76138 5.45303 9.03945 5.73334 9.25439 6.05991C9.46934 6.38649 9.61684 6.75273 9.68821 7.13713L12.8965 24.7771C12.9259 24.9387 12.9231 25.1044 12.8884 25.2648C12.8537 25.4253 12.7877 25.5774 12.6942 25.7123C12.6008 25.8473 12.4816 25.9625 12.3436 26.0514C12.2056 26.1403 12.0514 26.2011 11.8899 26.2305C11.8156 26.244 11.7403 26.2507 11.6649 26.2505Z" fill="#237BAB"/>
</svg>
