<svg width="50" height="50" viewBox="0 0 50 50" fill="none" xmlns="http://www.w3.org/2000/svg">
<g clip-path="url(#clip0_150_179)">
<g clip-path="url(#clip1_150_179)">
<g clip-path="url(#clip2_150_179)">
<mask id="mask0_150_179" style="mask-type:luminance" maskUnits="userSpaceOnUse" x="0" y="-1" width="51" height="51">
<path d="M0.000488281 -0.00170898H50.0005V49.9983H0.000488281V-0.00170898Z" fill="white"/>
</mask>
<g mask="url(#mask0_150_179)">
<path d="M43.7025 6.29637C41.7104 4.29337 39.3408 2.70538 36.7309 1.62432C34.1209 0.543269 31.3225 -0.00937831 28.4975 -0.0016286C25.6727 -0.00924597 22.8744 0.543465 20.2647 1.62452C17.6549 2.70557 15.2855 4.29349 13.2935 6.29637C12.9961 6.59366 12.7073 6.89945 12.4275 7.21337C12.3607 7.28488 12.3088 7.36903 12.275 7.46087C12.2412 7.55271 12.2261 7.65039 12.2306 7.74815C12.2351 7.84592 12.2591 7.9418 12.3012 8.03015C12.3433 8.1185 12.4026 8.19755 12.4757 8.26263C12.5488 8.32772 12.6341 8.37753 12.7268 8.40914C12.8194 8.44075 12.9174 8.45352 13.015 8.44669C13.1127 8.43986 13.2079 8.41358 13.2953 8.36939C13.3826 8.3252 13.4602 8.26399 13.5235 8.18937C13.7835 7.89937 14.0535 7.61137 14.3315 7.33437C16.1875 5.46825 18.3952 3.98876 20.8268 2.98152C23.2584 1.97428 25.8656 1.45929 28.4975 1.46637C31.1296 1.45911 33.737 1.974 36.1688 2.98125C38.6006 3.98849 40.8084 5.46808 42.6645 7.33437C50.4765 15.1464 50.4765 27.8564 42.6645 35.6674C40.8085 37.5338 38.6007 39.0135 36.1689 40.021C33.7371 41.0284 31.1297 41.5434 28.4975 41.5364C25.8656 41.5435 23.2583 41.0285 20.8267 40.0213C18.3951 39.0141 16.1875 37.5345 14.3315 35.6684C11.0382 32.3726 8.99466 28.0334 8.5515 23.3954C8.12152 18.8307 9.26548 14.2563 11.7935 10.4314C11.8935 10.2693 11.9267 10.0748 11.886 9.88874C11.8452 9.70272 11.7338 9.53981 11.5752 9.43442C11.4166 9.32902 11.2232 9.2894 11.0359 9.32391C10.8487 9.35842 10.6821 9.46437 10.5715 9.61937C7.85744 13.7242 6.62944 18.6341 7.0915 23.5334C7.45224 27.3131 8.80637 30.9301 11.0165 34.0174L8.8615 36.1734C8.72385 36.0357 8.53716 35.9584 8.3425 35.9584C8.14784 35.9584 7.96115 36.0357 7.8235 36.1734L1.2415 42.7554C0.446794 43.5519 0.000488281 44.6312 0.000488281 45.7564C0.000488281 46.8816 0.446794 47.9608 1.2415 48.7574C1.6353 49.1517 2.10315 49.4644 2.61816 49.6773C3.13317 49.8903 3.68519 49.9994 4.2425 49.9984C4.7998 49.9994 5.3518 49.8902 5.8668 49.6773C6.38181 49.4643 6.84966 49.1517 7.2435 48.7574L9.1035 46.8974C9.17528 46.8301 9.23281 46.7491 9.27267 46.6592C9.31253 46.5692 9.33391 46.4722 9.33553 46.3739C9.33715 46.2755 9.31899 46.1778 9.28212 46.0866C9.24525 45.9954 9.19042 45.9126 9.1209 45.843C9.05137 45.7734 8.96857 45.7185 8.87741 45.6815C8.78625 45.6446 8.68859 45.6263 8.59023 45.6278C8.49187 45.6294 8.39482 45.6507 8.30485 45.6904C8.21488 45.7302 8.13383 45.7877 8.0665 45.8594L6.2065 47.7194C5.94918 47.9781 5.6431 48.1831 5.30597 48.3227C4.96884 48.4622 4.60737 48.5335 4.2425 48.5324C3.8778 48.5334 3.51652 48.462 3.17957 48.3225C2.84262 48.1829 2.53669 47.9779 2.2795 47.7194C2.02093 47.4622 1.81593 47.1562 1.67638 46.8193C1.53683 46.4824 1.46549 46.1211 1.4665 45.7564C1.4665 45.0144 1.7555 44.3174 2.2795 43.7934L8.3425 37.7294L12.2685 41.6564L10.1415 43.7834C10.0725 43.8513 10.0175 43.9323 9.97993 44.0216C9.94233 44.1109 9.92277 44.2067 9.92238 44.3036C9.922 44.4005 9.94079 44.4965 9.97769 44.586C10.0146 44.6756 10.0689 44.757 10.1374 44.8255C10.2059 44.894 10.2873 44.9483 10.3768 44.9852C10.4664 45.0221 10.5624 45.0409 10.6593 45.0405C10.7562 45.0401 10.852 45.0205 10.9413 44.9829C11.0306 44.9453 11.1115 44.8904 11.1795 44.8214L13.8255 42.1754C13.9631 42.0377 14.0405 41.851 14.0405 41.6564C14.0405 41.4617 13.9631 41.275 13.8255 41.1374L15.9765 38.9874C19.6236 41.6103 24.0052 43.016 28.4975 43.0044C31.3225 43.0121 34.1209 42.4595 36.7309 41.3784C39.3408 40.2974 41.7104 38.7094 43.7025 36.7064C45.7055 34.7143 47.2935 32.3447 48.3745 29.7347C49.4556 27.1248 50.0083 24.3263 50.0005 21.5014C50.0083 18.6764 49.4556 15.878 48.3745 13.268C47.2935 10.6581 45.7055 8.28847 43.7025 6.29637ZM12.7885 40.0994L9.8985 37.2104L11.9185 35.1914C12.7865 36.2448 13.7533 37.2129 14.8055 38.0824L12.7885 40.0994Z" fill="#FCAB01"/>
<path d="M36.0047 37.1469C37.7712 36.2984 39.3807 35.1562 40.7647 33.7689C47.5287 27.0049 47.5287 15.9989 40.7647 9.2349C33.9997 2.4689 22.9947 2.4689 16.2297 9.2349C9.46574 15.9989 9.46574 27.0049 16.2297 33.7689C18.4033 35.9375 21.1124 37.4919 24.0815 38.2741C27.0506 39.0562 30.1738 39.0382 33.1337 38.2219C33.3151 38.1647 33.4671 38.0394 33.5579 37.8723C33.6487 37.7053 33.6711 37.5095 33.6204 37.3263C33.5698 37.143 33.45 36.9866 33.2862 36.8899C33.1225 36.7932 32.9277 36.7638 32.7427 36.8079C30.033 37.5546 27.1739 37.5708 24.4558 36.8547C21.7378 36.1386 19.2578 34.7158 17.2677 32.7309C11.0757 26.5389 11.0757 16.4639 17.2677 10.2719C23.4597 4.0809 33.5347 4.0799 39.7267 10.2719C45.9187 16.4639 45.9187 26.5389 39.7267 32.7319C38.4598 34.0017 36.9866 35.0472 35.3697 35.8239C35.1995 35.9112 35.07 36.0615 35.0089 36.2428C34.9478 36.4242 34.96 36.6222 35.0428 36.7947C35.1256 36.9672 35.2725 37.1006 35.4522 37.1664C35.6319 37.2321 35.8301 37.2252 36.0047 37.1469Z" fill="#FCAB01"/>
<path d="M29.3817 18.1566C29.5764 18.1566 29.7631 18.0793 29.9007 17.9417C30.0384 17.804 30.1157 17.6173 30.1157 17.4226C30.1157 17.228 30.0384 17.0413 29.9007 16.9036C29.7631 16.766 29.5764 16.6886 29.3817 16.6886H25.9457C25.7511 16.6886 25.5644 16.766 25.4267 16.9036C25.2891 17.0413 25.2117 17.228 25.2117 17.4226V25.5786C25.2117 25.9836 25.5407 26.3126 25.9457 26.3126H29.3817C29.5764 26.3126 29.7631 26.2353 29.9007 26.0977C30.0384 25.96 30.1157 25.7733 30.1157 25.5786C30.1157 25.384 30.0384 25.1973 29.9007 25.0596C29.7631 24.922 29.5764 24.8446 29.3817 24.8446H26.6807V22.2346H29.1297C29.3244 22.2346 29.5111 22.1573 29.6487 22.0197C29.7864 21.882 29.8637 21.6953 29.8637 21.5006C29.8637 21.306 29.7864 21.1193 29.6487 20.9816C29.5111 20.844 29.3244 20.7666 29.1297 20.7666H26.6797V18.1566H29.3817ZM20.6827 24.8816C19.7827 24.8816 18.9137 24.5156 18.3587 23.9026C18.294 23.8312 18.2158 23.7732 18.1287 23.732C18.0415 23.6908 17.9471 23.6671 17.8508 23.6624C17.6563 23.6528 17.466 23.7209 17.3217 23.8516C17.1774 23.9824 17.091 24.1651 17.0815 24.3596C17.0719 24.554 17.14 24.7444 17.2707 24.8886C18.1007 25.8036 19.3757 26.3496 20.6827 26.3496C22.2487 26.3496 23.6127 25.3226 23.8567 23.9606C24.1367 22.3906 22.9017 21.3376 21.6517 20.8766C20.8799 20.5894 20.1163 20.2806 19.3617 19.9506C19.2329 19.8571 19.1326 19.7295 19.072 19.5823C19.0114 19.435 18.993 19.2738 19.0187 19.1166C19.0787 18.6976 19.4017 18.3616 19.8807 18.2166C21.2027 17.8186 22.3957 18.7766 22.4187 18.7946C22.5689 18.9098 22.7578 18.9624 22.9459 18.9416C23.134 18.9208 23.3068 18.8281 23.4282 18.683C23.5496 18.5378 23.6103 18.3514 23.5975 18.1625C23.5848 17.9737 23.4996 17.7971 23.3597 17.6696C23.2877 17.6086 21.5547 16.1796 19.4577 16.8116C18.4327 17.1206 17.7077 17.9236 17.5657 18.9086C17.4988 19.3512 17.561 19.8036 17.7449 20.2116C17.9289 20.6196 18.2268 20.9658 18.6027 21.2086C18.6347 21.2306 18.6687 21.2486 18.7037 21.2646C18.7517 21.2856 19.8757 21.7866 21.1437 22.2546C22.0537 22.5896 22.5157 23.1176 22.4117 23.7036C22.3087 24.2746 21.6687 24.8816 20.6827 24.8816ZM40.5377 21.5006C40.5364 20.2147 40.025 18.9819 39.1157 18.0726C38.2065 17.1634 36.9736 16.652 35.6877 16.6506C34.4018 16.652 33.169 17.1634 32.2597 18.0726C31.3505 18.9819 30.839 20.2147 30.8377 21.5006C30.839 22.7865 31.3505 24.0194 32.2597 24.9286C33.169 25.8379 34.4018 26.3493 35.6877 26.3506C36.9736 26.3493 38.2065 25.8379 39.1157 24.9286C40.025 24.0194 40.5364 22.7865 40.5377 21.5006ZM32.3067 21.5006C32.3078 20.6042 32.6643 19.7447 33.2981 19.1107C33.9319 18.4767 34.7913 18.12 35.6877 18.1186C36.5844 18.1197 37.444 18.4764 38.078 19.1104C38.712 19.7444 39.0687 20.604 39.0697 21.5006C39.0687 22.3973 38.712 23.2569 38.078 23.8909C37.444 24.5249 36.5844 24.8816 35.6877 24.8826C34.7913 24.8813 33.9319 24.5245 33.2981 23.8905C32.6643 23.2566 32.3078 22.3971 32.3067 21.5006Z" fill="#FCAB01"/>
</g>
</g>
</g>
</g>
<defs>
<clipPath id="clip0_150_179">
<rect width="50" height="50" fill="white" transform="translate(0.000488281 -0.00170898)"/>
</clipPath>
<clipPath id="clip1_150_179">
<rect width="50" height="50" fill="white" transform="translate(0.000488281 -0.00170898)"/>
</clipPath>
<clipPath id="clip2_150_179">
<rect width="50" height="50" fill="white" transform="translate(0.000488281 -0.00170898)"/>
</clipPath>
</defs>
</svg>
